M48
; DRILL file {KiCad 5.1.9} date Wed Apr  7 12:29:15 2021
; FORMAT={3:3/ absolute / metric / suppress leading zeros}
; #@! TF.CreationDate,2021-04-07T12:29:15+02:00
; #@! TF.GenerationSoftware,Kicad,Pcbnew,5.1.9
; #@! TF.FileFunction,Plated,1,4,PTH
FMAT,2
METRIC,TZ
T1C0.400
T2C0.600
T3C0.800
T4C1.000
T5C1.100
T6C1.500
T7C1.520
T8C4.300
%
G90
G05
T1
X114500Y-79700
X115400Y-77225
X117250Y-80575
X117775Y-77025
X117775Y-78050
X117850Y-87225
X118225Y-70075
X118550Y-91375
X119250Y-88500
X119900Y-92400
X121575Y-88525
X122250Y-82600
X122325Y-96375
X123000Y-74800
X123025Y-85500
X123150Y-98650
X123775Y-77050
X124075Y-86900
X124500Y-74800
X124725Y-87675
X125175Y-88575
X125375Y-84125
X125450Y-82900
X125475Y-81400
X125500Y-80050
X126000Y-71300
X126000Y-91900
X126100Y-89300
X127125Y-82800
X127225Y-81700
X127300Y-80125
X127300Y-84050
X129050Y-82650
X129100Y-84075
X129150Y-80175
X129200Y-81375
X131200Y-72000
X132475Y-78275
X132675Y-88000
X132700Y-90050
X132925Y-72625
X133200Y-86225
X133250Y-84850
X133525Y-78300
X134250Y-80050
X134350Y-70125
X134425Y-74825
X135175Y-81925
X139375Y-85525
X140150Y-82050
X140725Y-75975
X140960Y-100165
X142050Y-72525
X143500Y-88900
X144015Y-95460
X145300Y-73500
X145950Y-89125
X167263Y-98238
X175600Y-96500
T2
X106775Y-68000
X107025Y-95000
X107720Y-65720
X107720Y-70280
X107970Y-92720
X107970Y-97280
X110000Y-64775
X110000Y-71225
X110250Y-91775
X110250Y-98225
X112280Y-65720
X112280Y-70280
X112530Y-92720
X112530Y-97280
X113225Y-68000
X113475Y-95000
X186025Y-67750
X186025Y-99750
X186970Y-65470
X186970Y-70030
X186970Y-97470
X186970Y-102030
X189250Y-64525
X189250Y-70975
X189250Y-96525
X189250Y-102975
X191530Y-65470
X191530Y-70030
X191530Y-97470
X191530Y-102030
X192475Y-67750
X192475Y-99750
T3
X145380Y-95460
X145380Y-98000
X153000Y-95460
X153000Y-98000
T4
X110480Y-102000
X111500Y-76500
X111500Y-79040
X113020Y-102000
X115560Y-102000
X118100Y-102000
X120000Y-66000
X120640Y-102000
X122540Y-66000
X123180Y-102000
X125080Y-66000
X125720Y-102000
X128260Y-102000
X129880Y-66000
X130800Y-102000
X132420Y-66000
X133340Y-102000
X134960Y-66000
X135880Y-102000
X136380Y-79000
X137500Y-66000
X138420Y-102000
X138920Y-79000
X140960Y-102000
X141460Y-79000
X143500Y-102000
X144000Y-79000
X149600Y-66300
X149600Y-81700
X179000Y-71500
X179000Y-76500
T5
X162000Y-101000
X164540Y-101000
X167080Y-101000
X174500Y-101000
X177040Y-101000
X179580Y-101000
T6
X157900Y-90000
X180500Y-90000
T7
X188620Y-75732
X188620Y-80812
X188620Y-86400
X188620Y-91480
T8
X110000Y-68000
X110250Y-95000
X189250Y-67750
X189250Y-99750
T0
M30
