%TF.GenerationSoftware,KiCad,Pcbnew,5.1.9*%
%TF.CreationDate,2021-04-07T12:29:47+02:00*%
%TF.ProjectId,lampa,6c616d70-612e-46b6-9963-61645f706362,rev?*%
%TF.SameCoordinates,Original*%
%TF.FileFunction,Soldermask,Bot*%
%TF.FilePolarity,Negative*%
%FSLAX46Y46*%
G04 Gerber Fmt 4.6, Leading zero omitted, Abs format (unit mm)*
G04 Created by KiCad (PCBNEW 5.1.9) date 2021-04-07 12:29:47*
%MOMM*%
%LPD*%
G01*
G04 APERTURE LIST*
%ADD10C,0.900000*%
%ADD11C,8.600000*%
%ADD12C,2.300000*%
%ADD13R,2.300000X2.000000*%
%ADD14O,1.700000X1.700000*%
%ADD15R,1.700000X1.700000*%
%ADD16O,1.600000X1.600000*%
%ADD17R,1.600000X1.600000*%
%ADD18O,1.905000X2.000000*%
%ADD19R,1.905000X2.000000*%
%ADD20C,3.000000*%
%ADD21R,3.000000X3.000000*%
G04 APERTURE END LIST*
D10*
%TO.C,H1*%
X191530419Y-65469581D03*
X189250000Y-64525000D03*
X186969581Y-65469581D03*
X186025000Y-67750000D03*
X186969581Y-70030419D03*
X189250000Y-70975000D03*
X191530419Y-70030419D03*
X192475000Y-67750000D03*
D11*
X189250000Y-67750000D03*
%TD*%
D10*
%TO.C,H2*%
X191530419Y-97469581D03*
X189250000Y-96525000D03*
X186969581Y-97469581D03*
X186025000Y-99750000D03*
X186969581Y-102030419D03*
X189250000Y-102975000D03*
X191530419Y-102030419D03*
X192475000Y-99750000D03*
D11*
X189250000Y-99750000D03*
%TD*%
D12*
%TO.C,PS1*%
X149600000Y-66300000D03*
X179000000Y-71500000D03*
D13*
X179000000Y-76500000D03*
D12*
X149600000Y-81700000D03*
%TD*%
D14*
%TO.C,J5*%
X129880000Y-66000000D03*
X132420000Y-66000000D03*
X134960000Y-66000000D03*
D15*
X137500000Y-66000000D03*
%TD*%
D16*
%TO.C,U2*%
X145380000Y-98000000D03*
X153000000Y-95460000D03*
X145380000Y-95460000D03*
D17*
X153000000Y-98000000D03*
%TD*%
D14*
%TO.C,SW2*%
X125080000Y-66000000D03*
X122540000Y-66000000D03*
D15*
X120000000Y-66000000D03*
%TD*%
D14*
%TO.C,SW1*%
X111500000Y-79040000D03*
D15*
X111500000Y-76500000D03*
%TD*%
D18*
%TO.C,Q2*%
X167080000Y-101000000D03*
X164540000Y-101000000D03*
D19*
X162000000Y-101000000D03*
%TD*%
D18*
%TO.C,Q1*%
X179580000Y-101000000D03*
X177040000Y-101000000D03*
D19*
X174500000Y-101000000D03*
%TD*%
D14*
%TO.C,J4*%
X136380000Y-79000000D03*
X138920000Y-79000000D03*
X141460000Y-79000000D03*
D15*
X144000000Y-79000000D03*
%TD*%
D14*
%TO.C,J3*%
X110480000Y-102000000D03*
X113020000Y-102000000D03*
X115560000Y-102000000D03*
X118100000Y-102000000D03*
X120640000Y-102000000D03*
X123180000Y-102000000D03*
X125720000Y-102000000D03*
X128260000Y-102000000D03*
X130800000Y-102000000D03*
X133340000Y-102000000D03*
X135880000Y-102000000D03*
X138420000Y-102000000D03*
X140960000Y-102000000D03*
D15*
X143500000Y-102000000D03*
%TD*%
D20*
%TO.C,J2*%
X188620000Y-91480000D03*
D21*
X188620000Y-86400000D03*
%TD*%
D20*
%TO.C,J1*%
X188620000Y-80812000D03*
D21*
X188620000Y-75732000D03*
%TD*%
D10*
%TO.C,H4*%
X112530419Y-92719581D03*
X110250000Y-91775000D03*
X107969581Y-92719581D03*
X107025000Y-95000000D03*
X107969581Y-97280419D03*
X110250000Y-98225000D03*
X112530419Y-97280419D03*
X113475000Y-95000000D03*
D11*
X110250000Y-95000000D03*
%TD*%
D10*
%TO.C,H3*%
X112280419Y-65719581D03*
X110000000Y-64775000D03*
X107719581Y-65719581D03*
X106775000Y-68000000D03*
X107719581Y-70280419D03*
X110000000Y-71225000D03*
X112280419Y-70280419D03*
X113225000Y-68000000D03*
D11*
X110000000Y-68000000D03*
%TD*%
D20*
%TO.C,F1*%
X157900000Y-90000000D03*
X180500000Y-90000000D03*
%TD*%
M02*
