%TF.GenerationSoftware,KiCad,Pcbnew,5.1.9*%
%TF.CreationDate,2021-04-07T12:29:47+02:00*%
%TF.ProjectId,lampa,6c616d70-612e-46b6-9963-61645f706362,rev?*%
%TF.SameCoordinates,Original*%
%TF.FileFunction,Copper,L2,Inr*%
%TF.FilePolarity,Positive*%
%FSLAX46Y46*%
G04 Gerber Fmt 4.6, Leading zero omitted, Abs format (unit mm)*
G04 Created by KiCad (PCBNEW 5.1.9) date 2021-04-07 12:29:47*
%MOMM*%
%LPD*%
G01*
G04 APERTURE LIST*
%TA.AperFunction,ComponentPad*%
%ADD10C,0.900000*%
%TD*%
%TA.AperFunction,ComponentPad*%
%ADD11C,8.600000*%
%TD*%
%TA.AperFunction,ComponentPad*%
%ADD12C,2.300000*%
%TD*%
%TA.AperFunction,ComponentPad*%
%ADD13R,2.300000X2.000000*%
%TD*%
%TA.AperFunction,ComponentPad*%
%ADD14O,1.700000X1.700000*%
%TD*%
%TA.AperFunction,ComponentPad*%
%ADD15R,1.700000X1.700000*%
%TD*%
%TA.AperFunction,ComponentPad*%
%ADD16O,1.600000X1.600000*%
%TD*%
%TA.AperFunction,ComponentPad*%
%ADD17R,1.600000X1.600000*%
%TD*%
%TA.AperFunction,ComponentPad*%
%ADD18O,1.905000X2.000000*%
%TD*%
%TA.AperFunction,ComponentPad*%
%ADD19R,1.905000X2.000000*%
%TD*%
%TA.AperFunction,ComponentPad*%
%ADD20C,3.000000*%
%TD*%
%TA.AperFunction,ComponentPad*%
%ADD21R,3.000000X3.000000*%
%TD*%
%TA.AperFunction,ViaPad*%
%ADD22C,0.800000*%
%TD*%
%TA.AperFunction,Conductor*%
%ADD23C,0.254000*%
%TD*%
%TA.AperFunction,Conductor*%
%ADD24C,0.100000*%
%TD*%
G04 APERTURE END LIST*
D10*
%TO.N,GND*%
%TO.C,H1*%
X191530419Y-65469581D03*
X189250000Y-64525000D03*
X186969581Y-65469581D03*
X186025000Y-67750000D03*
X186969581Y-70030419D03*
X189250000Y-70975000D03*
X191530419Y-70030419D03*
X192475000Y-67750000D03*
D11*
X189250000Y-67750000D03*
%TD*%
D10*
%TO.N,GND*%
%TO.C,H2*%
X191530419Y-97469581D03*
X189250000Y-96525000D03*
X186969581Y-97469581D03*
X186025000Y-99750000D03*
X186969581Y-102030419D03*
X189250000Y-102975000D03*
X191530419Y-102030419D03*
X192475000Y-99750000D03*
D11*
X189250000Y-99750000D03*
%TD*%
D12*
%TO.N,GND*%
%TO.C,PS1*%
X149600000Y-66300000D03*
%TO.N,Net-(J1-Pad1)*%
X179000000Y-71500000D03*
D13*
%TO.N,Net-(F1-Pad2)*%
X179000000Y-76500000D03*
D12*
%TO.N,+12V*%
X149600000Y-81700000D03*
%TD*%
D14*
%TO.N,BME_SDA*%
%TO.C,J5*%
X129880000Y-66000000D03*
%TO.N,BME_SCL*%
X132420000Y-66000000D03*
%TO.N,GND*%
X134960000Y-66000000D03*
D15*
%TO.N,+3V3*%
X137500000Y-66000000D03*
%TD*%
D16*
%TO.N,ZERO_CROSS_DETECT*%
%TO.C,U2*%
X145380000Y-98000000D03*
%TO.N,Net-(R3-Pad2)*%
X153000000Y-95460000D03*
%TO.N,GND*%
X145380000Y-95460000D03*
D17*
%TO.N,Net-(R2-Pad2)*%
X153000000Y-98000000D03*
%TD*%
D14*
%TO.N,GND*%
%TO.C,SW2*%
X125080000Y-66000000D03*
%TO.N,Net-(R11-Pad1)*%
X122540000Y-66000000D03*
D15*
%TO.N,+3V3*%
X120000000Y-66000000D03*
%TD*%
D14*
%TO.N,NRST*%
%TO.C,SW1*%
X111500000Y-79040000D03*
D15*
%TO.N,GND*%
X111500000Y-76500000D03*
%TD*%
D18*
%TO.N,GND*%
%TO.C,Q2*%
X167080000Y-101000000D03*
%TO.N,Net-(J1-Pad1)*%
X164540000Y-101000000D03*
D19*
%TO.N,Net-(Q1-Pad1)*%
X162000000Y-101000000D03*
%TD*%
D18*
%TO.N,GND*%
%TO.C,Q1*%
X179580000Y-101000000D03*
%TO.N,Net-(J2-Pad2)*%
X177040000Y-101000000D03*
D19*
%TO.N,Net-(Q1-Pad1)*%
X174500000Y-101000000D03*
%TD*%
D14*
%TO.N,+3V3*%
%TO.C,J4*%
X136380000Y-79000000D03*
%TO.N,SWDIO*%
X138920000Y-79000000D03*
%TO.N,SWCLK*%
X141460000Y-79000000D03*
D15*
%TO.N,GND*%
X144000000Y-79000000D03*
%TD*%
D14*
%TO.N,TOUCH_IRQ*%
%TO.C,J3*%
X110480000Y-102000000D03*
%TO.N,TOUCH_MISO*%
X113020000Y-102000000D03*
%TO.N,TOUCH_MOSI*%
X115560000Y-102000000D03*
%TO.N,TOUCH_CS*%
X118100000Y-102000000D03*
%TO.N,TOUCH_CLK*%
X120640000Y-102000000D03*
%TO.N,Net-(J3-Pad9)*%
X123180000Y-102000000D03*
%TO.N,Net-(J3-Pad8)*%
X125720000Y-102000000D03*
%TO.N,LCD_CLK*%
X128260000Y-102000000D03*
%TO.N,LCD_MOSI*%
X130800000Y-102000000D03*
%TO.N,LCD_DC*%
X133340000Y-102000000D03*
%TO.N,+3V3*%
X135880000Y-102000000D03*
%TO.N,LCD_CS*%
X138420000Y-102000000D03*
%TO.N,GND*%
X140960000Y-102000000D03*
D15*
%TO.N,+3V3*%
X143500000Y-102000000D03*
%TD*%
D20*
%TO.N,Net-(J2-Pad2)*%
%TO.C,J2*%
X188620000Y-91480000D03*
D21*
%TO.N,Net-(F1-Pad2)*%
X188620000Y-86400000D03*
%TD*%
D20*
%TO.N,Net-(F1-Pad1)*%
%TO.C,J1*%
X188620000Y-80812000D03*
D21*
%TO.N,Net-(J1-Pad1)*%
X188620000Y-75732000D03*
%TD*%
D10*
%TO.N,GND*%
%TO.C,H4*%
X112530419Y-92719581D03*
X110250000Y-91775000D03*
X107969581Y-92719581D03*
X107025000Y-95000000D03*
X107969581Y-97280419D03*
X110250000Y-98225000D03*
X112530419Y-97280419D03*
X113475000Y-95000000D03*
D11*
X110250000Y-95000000D03*
%TD*%
D10*
%TO.N,GND*%
%TO.C,H3*%
X112280419Y-65719581D03*
X110000000Y-64775000D03*
X107719581Y-65719581D03*
X106775000Y-68000000D03*
X107719581Y-70280419D03*
X110000000Y-71225000D03*
X112280419Y-70280419D03*
X113225000Y-68000000D03*
D11*
X110000000Y-68000000D03*
%TD*%
D20*
%TO.N,Net-(F1-Pad2)*%
%TO.C,F1*%
X157900000Y-90000000D03*
%TO.N,Net-(F1-Pad1)*%
X180500000Y-90000000D03*
%TD*%
D22*
%TO.N,GND*%
X127300000Y-84050000D03*
X129050000Y-82650000D03*
X127125000Y-82800000D03*
X125450000Y-82900000D03*
X125475000Y-81400000D03*
X127225000Y-81700000D03*
X129200000Y-81375000D03*
X129150000Y-80175000D03*
X127300000Y-80125000D03*
X125500000Y-80050000D03*
X125375000Y-84125000D03*
X129100000Y-84075000D03*
X145300000Y-73500000D03*
X140725000Y-75975000D03*
X117250000Y-80575000D03*
X115400000Y-77225000D03*
X117775000Y-77025000D03*
X117775000Y-78050000D03*
X124500000Y-74800000D03*
X123000000Y-74800000D03*
X140150000Y-82050000D03*
X133200000Y-86225000D03*
X132675000Y-88000000D03*
X132700000Y-90050000D03*
X117850000Y-87225000D03*
X121575000Y-88525000D03*
X143500000Y-88900000D03*
X145950000Y-89125000D03*
X140960000Y-100165000D03*
X144015000Y-95460000D03*
X167262500Y-98237500D03*
X175600000Y-96500000D03*
X134250000Y-80050000D03*
X126000000Y-91900000D03*
%TO.N,+3V3*%
X139375000Y-85525000D03*
X132925000Y-72625000D03*
X142050000Y-72525000D03*
X134425000Y-74825000D03*
X118225000Y-70075000D03*
X133250000Y-84850000D03*
X119250000Y-88500000D03*
X133525000Y-78300000D03*
X132475000Y-78275000D03*
X123775000Y-77050000D03*
X134350000Y-70125000D03*
X131200000Y-72000000D03*
X126000000Y-71300000D03*
X119900000Y-92400000D03*
%TO.N,NRST*%
X114500000Y-79700000D03*
X122250000Y-82600000D03*
%TO.N,TOUCH_IRQ*%
X118550000Y-91375000D03*
X123025000Y-85500000D03*
%TO.N,TOUCH_MISO*%
X125175000Y-88575000D03*
X122325000Y-96375000D03*
%TO.N,TOUCH_MOSI*%
X126100000Y-89300000D03*
X123150000Y-98650000D03*
%TO.N,TOUCH_CS*%
X124075000Y-86900000D03*
%TO.N,TOUCH_CLK*%
X124725000Y-87675000D03*
%TO.N,LCD_MOSI*%
X135175000Y-81925000D03*
%TD*%
D23*
%TO.N,GND*%
X150873000Y-64906546D02*
X150810896Y-64844442D01*
X150676590Y-64978748D01*
X150563977Y-64678873D01*
X150229189Y-64521959D01*
X149870221Y-64433375D01*
X149500869Y-64416524D01*
X149135325Y-64472055D01*
X148787640Y-64597832D01*
X148636023Y-64678873D01*
X148523409Y-64978750D01*
X149600000Y-66055341D01*
X149614142Y-66041199D01*
X149858801Y-66285858D01*
X149844659Y-66300000D01*
X149858801Y-66314142D01*
X149614142Y-66558801D01*
X149600000Y-66544659D01*
X148523409Y-67621250D01*
X148636023Y-67921127D01*
X148970811Y-68078041D01*
X149329779Y-68166625D01*
X149699131Y-68183476D01*
X150064675Y-68127945D01*
X150412360Y-68002168D01*
X150563977Y-67921127D01*
X150676590Y-67621252D01*
X150810896Y-67755558D01*
X150873000Y-67693454D01*
X150873000Y-80448629D01*
X150737871Y-80313500D01*
X150445515Y-80118153D01*
X150120665Y-79983596D01*
X149775807Y-79915000D01*
X149424193Y-79915000D01*
X149079335Y-79983596D01*
X148754485Y-80118153D01*
X148462129Y-80313500D01*
X148213500Y-80562129D01*
X148018153Y-80854485D01*
X147883596Y-81179335D01*
X147815000Y-81524193D01*
X147815000Y-81875807D01*
X147883596Y-82220665D01*
X148018153Y-82545515D01*
X148213500Y-82837871D01*
X148462129Y-83086500D01*
X148754485Y-83281847D01*
X149079335Y-83416404D01*
X149424193Y-83485000D01*
X149775807Y-83485000D01*
X150120665Y-83416404D01*
X150445515Y-83281847D01*
X150737871Y-83086500D01*
X150873000Y-82951371D01*
X150873000Y-84373000D01*
X149000000Y-84373000D01*
X148975224Y-84375440D01*
X148951399Y-84382667D01*
X148929443Y-84394403D01*
X148910197Y-84410197D01*
X148894403Y-84429443D01*
X148882667Y-84451399D01*
X148875440Y-84475224D01*
X148873000Y-84500000D01*
X148873000Y-103840000D01*
X111027952Y-103840000D01*
X110184909Y-103768467D01*
X109393128Y-103562961D01*
X108647291Y-103226985D01*
X107968722Y-102770146D01*
X107376832Y-102205510D01*
X107115108Y-101853740D01*
X108995000Y-101853740D01*
X108995000Y-102146260D01*
X109052068Y-102433158D01*
X109164010Y-102703411D01*
X109326525Y-102946632D01*
X109533368Y-103153475D01*
X109776589Y-103315990D01*
X110046842Y-103427932D01*
X110333740Y-103485000D01*
X110626260Y-103485000D01*
X110913158Y-103427932D01*
X111183411Y-103315990D01*
X111426632Y-103153475D01*
X111633475Y-102946632D01*
X111750000Y-102772240D01*
X111866525Y-102946632D01*
X112073368Y-103153475D01*
X112316589Y-103315990D01*
X112586842Y-103427932D01*
X112873740Y-103485000D01*
X113166260Y-103485000D01*
X113453158Y-103427932D01*
X113723411Y-103315990D01*
X113966632Y-103153475D01*
X114173475Y-102946632D01*
X114290000Y-102772240D01*
X114406525Y-102946632D01*
X114613368Y-103153475D01*
X114856589Y-103315990D01*
X115126842Y-103427932D01*
X115413740Y-103485000D01*
X115706260Y-103485000D01*
X115993158Y-103427932D01*
X116263411Y-103315990D01*
X116506632Y-103153475D01*
X116713475Y-102946632D01*
X116830000Y-102772240D01*
X116946525Y-102946632D01*
X117153368Y-103153475D01*
X117396589Y-103315990D01*
X117666842Y-103427932D01*
X117953740Y-103485000D01*
X118246260Y-103485000D01*
X118533158Y-103427932D01*
X118803411Y-103315990D01*
X119046632Y-103153475D01*
X119253475Y-102946632D01*
X119370000Y-102772240D01*
X119486525Y-102946632D01*
X119693368Y-103153475D01*
X119936589Y-103315990D01*
X120206842Y-103427932D01*
X120493740Y-103485000D01*
X120786260Y-103485000D01*
X121073158Y-103427932D01*
X121343411Y-103315990D01*
X121586632Y-103153475D01*
X121793475Y-102946632D01*
X121910000Y-102772240D01*
X122026525Y-102946632D01*
X122233368Y-103153475D01*
X122476589Y-103315990D01*
X122746842Y-103427932D01*
X123033740Y-103485000D01*
X123326260Y-103485000D01*
X123613158Y-103427932D01*
X123883411Y-103315990D01*
X124126632Y-103153475D01*
X124333475Y-102946632D01*
X124450000Y-102772240D01*
X124566525Y-102946632D01*
X124773368Y-103153475D01*
X125016589Y-103315990D01*
X125286842Y-103427932D01*
X125573740Y-103485000D01*
X125866260Y-103485000D01*
X126153158Y-103427932D01*
X126423411Y-103315990D01*
X126666632Y-103153475D01*
X126873475Y-102946632D01*
X126990000Y-102772240D01*
X127106525Y-102946632D01*
X127313368Y-103153475D01*
X127556589Y-103315990D01*
X127826842Y-103427932D01*
X128113740Y-103485000D01*
X128406260Y-103485000D01*
X128693158Y-103427932D01*
X128963411Y-103315990D01*
X129206632Y-103153475D01*
X129413475Y-102946632D01*
X129530000Y-102772240D01*
X129646525Y-102946632D01*
X129853368Y-103153475D01*
X130096589Y-103315990D01*
X130366842Y-103427932D01*
X130653740Y-103485000D01*
X130946260Y-103485000D01*
X131233158Y-103427932D01*
X131503411Y-103315990D01*
X131746632Y-103153475D01*
X131953475Y-102946632D01*
X132070000Y-102772240D01*
X132186525Y-102946632D01*
X132393368Y-103153475D01*
X132636589Y-103315990D01*
X132906842Y-103427932D01*
X133193740Y-103485000D01*
X133486260Y-103485000D01*
X133773158Y-103427932D01*
X134043411Y-103315990D01*
X134286632Y-103153475D01*
X134493475Y-102946632D01*
X134610000Y-102772240D01*
X134726525Y-102946632D01*
X134933368Y-103153475D01*
X135176589Y-103315990D01*
X135446842Y-103427932D01*
X135733740Y-103485000D01*
X136026260Y-103485000D01*
X136313158Y-103427932D01*
X136583411Y-103315990D01*
X136826632Y-103153475D01*
X137033475Y-102946632D01*
X137150000Y-102772240D01*
X137266525Y-102946632D01*
X137473368Y-103153475D01*
X137716589Y-103315990D01*
X137986842Y-103427932D01*
X138273740Y-103485000D01*
X138566260Y-103485000D01*
X138853158Y-103427932D01*
X139123411Y-103315990D01*
X139366632Y-103153475D01*
X139573475Y-102946632D01*
X139639355Y-102848035D01*
X139713889Y-102966516D01*
X139926391Y-103191049D01*
X140178614Y-103369810D01*
X140460865Y-103495930D01*
X140543922Y-103521121D01*
X140787000Y-103384483D01*
X140787000Y-102173000D01*
X140767000Y-102173000D01*
X140767000Y-101827000D01*
X140787000Y-101827000D01*
X140787000Y-100615517D01*
X141133000Y-100615517D01*
X141133000Y-101827000D01*
X141153000Y-101827000D01*
X141153000Y-102173000D01*
X141133000Y-102173000D01*
X141133000Y-103384483D01*
X141376078Y-103521121D01*
X141459135Y-103495930D01*
X141741386Y-103369810D01*
X141993609Y-103191049D01*
X142069445Y-103110919D01*
X142119463Y-103204494D01*
X142198815Y-103301185D01*
X142295506Y-103380537D01*
X142405820Y-103439502D01*
X142525518Y-103475812D01*
X142650000Y-103488072D01*
X144350000Y-103488072D01*
X144474482Y-103475812D01*
X144594180Y-103439502D01*
X144704494Y-103380537D01*
X144801185Y-103301185D01*
X144880537Y-103204494D01*
X144939502Y-103094180D01*
X144975812Y-102974482D01*
X144988072Y-102850000D01*
X144988072Y-101150000D01*
X144975812Y-101025518D01*
X144939502Y-100905820D01*
X144880537Y-100795506D01*
X144801185Y-100698815D01*
X144704494Y-100619463D01*
X144594180Y-100560498D01*
X144474482Y-100524188D01*
X144350000Y-100511928D01*
X142650000Y-100511928D01*
X142525518Y-100524188D01*
X142405820Y-100560498D01*
X142295506Y-100619463D01*
X142198815Y-100698815D01*
X142119463Y-100795506D01*
X142069445Y-100889081D01*
X141993609Y-100808951D01*
X141741386Y-100630190D01*
X141459135Y-100504070D01*
X141376078Y-100478879D01*
X141133000Y-100615517D01*
X140787000Y-100615517D01*
X140543922Y-100478879D01*
X140460865Y-100504070D01*
X140178614Y-100630190D01*
X139926391Y-100808951D01*
X139713889Y-101033484D01*
X139639355Y-101151965D01*
X139573475Y-101053368D01*
X139366632Y-100846525D01*
X139123411Y-100684010D01*
X138853158Y-100572068D01*
X138566260Y-100515000D01*
X138273740Y-100515000D01*
X137986842Y-100572068D01*
X137716589Y-100684010D01*
X137473368Y-100846525D01*
X137266525Y-101053368D01*
X137150000Y-101227760D01*
X137033475Y-101053368D01*
X136826632Y-100846525D01*
X136583411Y-100684010D01*
X136313158Y-100572068D01*
X136026260Y-100515000D01*
X135733740Y-100515000D01*
X135446842Y-100572068D01*
X135176589Y-100684010D01*
X134933368Y-100846525D01*
X134726525Y-101053368D01*
X134610000Y-101227760D01*
X134493475Y-101053368D01*
X134286632Y-100846525D01*
X134043411Y-100684010D01*
X133773158Y-100572068D01*
X133486260Y-100515000D01*
X133193740Y-100515000D01*
X132906842Y-100572068D01*
X132636589Y-100684010D01*
X132393368Y-100846525D01*
X132186525Y-101053368D01*
X132070000Y-101227760D01*
X131953475Y-101053368D01*
X131746632Y-100846525D01*
X131503411Y-100684010D01*
X131233158Y-100572068D01*
X130946260Y-100515000D01*
X130653740Y-100515000D01*
X130366842Y-100572068D01*
X130096589Y-100684010D01*
X129853368Y-100846525D01*
X129646525Y-101053368D01*
X129530000Y-101227760D01*
X129413475Y-101053368D01*
X129206632Y-100846525D01*
X128963411Y-100684010D01*
X128693158Y-100572068D01*
X128406260Y-100515000D01*
X128113740Y-100515000D01*
X127826842Y-100572068D01*
X127556589Y-100684010D01*
X127313368Y-100846525D01*
X127106525Y-101053368D01*
X126990000Y-101227760D01*
X126873475Y-101053368D01*
X126666632Y-100846525D01*
X126423411Y-100684010D01*
X126153158Y-100572068D01*
X125866260Y-100515000D01*
X125573740Y-100515000D01*
X125286842Y-100572068D01*
X125016589Y-100684010D01*
X124773368Y-100846525D01*
X124566525Y-101053368D01*
X124450000Y-101227760D01*
X124333475Y-101053368D01*
X124126632Y-100846525D01*
X123883411Y-100684010D01*
X123613158Y-100572068D01*
X123326260Y-100515000D01*
X123033740Y-100515000D01*
X122746842Y-100572068D01*
X122476589Y-100684010D01*
X122233368Y-100846525D01*
X122026525Y-101053368D01*
X121910000Y-101227760D01*
X121793475Y-101053368D01*
X121586632Y-100846525D01*
X121343411Y-100684010D01*
X121073158Y-100572068D01*
X120786260Y-100515000D01*
X120493740Y-100515000D01*
X120206842Y-100572068D01*
X119936589Y-100684010D01*
X119693368Y-100846525D01*
X119486525Y-101053368D01*
X119370000Y-101227760D01*
X119253475Y-101053368D01*
X119046632Y-100846525D01*
X118803411Y-100684010D01*
X118533158Y-100572068D01*
X118246260Y-100515000D01*
X117953740Y-100515000D01*
X117666842Y-100572068D01*
X117396589Y-100684010D01*
X117153368Y-100846525D01*
X116946525Y-101053368D01*
X116830000Y-101227760D01*
X116713475Y-101053368D01*
X116506632Y-100846525D01*
X116263411Y-100684010D01*
X115993158Y-100572068D01*
X115706260Y-100515000D01*
X115413740Y-100515000D01*
X115126842Y-100572068D01*
X114856589Y-100684010D01*
X114613368Y-100846525D01*
X114406525Y-101053368D01*
X114290000Y-101227760D01*
X114173475Y-101053368D01*
X113966632Y-100846525D01*
X113723411Y-100684010D01*
X113453158Y-100572068D01*
X113166260Y-100515000D01*
X112873740Y-100515000D01*
X112586842Y-100572068D01*
X112316589Y-100684010D01*
X112073368Y-100846525D01*
X111866525Y-101053368D01*
X111750000Y-101227760D01*
X111633475Y-101053368D01*
X111426632Y-100846525D01*
X111183411Y-100684010D01*
X110913158Y-100572068D01*
X110626260Y-100515000D01*
X110333740Y-100515000D01*
X110046842Y-100572068D01*
X109776589Y-100684010D01*
X109533368Y-100846525D01*
X109326525Y-101053368D01*
X109164010Y-101296589D01*
X109052068Y-101566842D01*
X108995000Y-101853740D01*
X107115108Y-101853740D01*
X106888535Y-101549216D01*
X106517799Y-100820032D01*
X106275221Y-100038807D01*
X106165081Y-99207805D01*
X106159870Y-98986687D01*
X106152932Y-98563465D01*
X106931194Y-98563465D01*
X107422608Y-99185897D01*
X108293564Y-99657063D01*
X109239704Y-99949260D01*
X110224669Y-100051261D01*
X111210607Y-99959145D01*
X112159631Y-99676451D01*
X113035268Y-99214044D01*
X113077392Y-99185897D01*
X113568806Y-98563465D01*
X113553402Y-98548061D01*
X122115000Y-98548061D01*
X122115000Y-98751939D01*
X122154774Y-98951898D01*
X122232795Y-99140256D01*
X122346063Y-99309774D01*
X122490226Y-99453937D01*
X122659744Y-99567205D01*
X122848102Y-99645226D01*
X123048061Y-99685000D01*
X123251939Y-99685000D01*
X123451898Y-99645226D01*
X123640256Y-99567205D01*
X123809774Y-99453937D01*
X123953937Y-99309774D01*
X124067205Y-99140256D01*
X124145226Y-98951898D01*
X124185000Y-98751939D01*
X124185000Y-98548061D01*
X124145226Y-98348102D01*
X124067205Y-98159744D01*
X123953937Y-97990226D01*
X123809774Y-97846063D01*
X123640256Y-97732795D01*
X123451898Y-97654774D01*
X123251939Y-97615000D01*
X123048061Y-97615000D01*
X122848102Y-97654774D01*
X122659744Y-97732795D01*
X122490226Y-97846063D01*
X122346063Y-97990226D01*
X122232795Y-98159744D01*
X122154774Y-98348102D01*
X122115000Y-98548061D01*
X113553402Y-98548061D01*
X110250000Y-95244659D01*
X106931194Y-98563465D01*
X106152932Y-98563465D01*
X106141871Y-97888791D01*
X106686535Y-98318806D01*
X110005341Y-95000000D01*
X110494659Y-95000000D01*
X113813465Y-98318806D01*
X114435897Y-97827392D01*
X114907063Y-96956436D01*
X115118110Y-96273061D01*
X121290000Y-96273061D01*
X121290000Y-96476939D01*
X121329774Y-96676898D01*
X121407795Y-96865256D01*
X121521063Y-97034774D01*
X121665226Y-97178937D01*
X121834744Y-97292205D01*
X122023102Y-97370226D01*
X122223061Y-97410000D01*
X122426939Y-97410000D01*
X122626898Y-97370226D01*
X122815256Y-97292205D01*
X122984774Y-97178937D01*
X123128937Y-97034774D01*
X123242205Y-96865256D01*
X123320226Y-96676898D01*
X123360000Y-96476939D01*
X123360000Y-96273061D01*
X123320226Y-96073102D01*
X123242205Y-95884744D01*
X123231156Y-95868207D01*
X143908574Y-95868207D01*
X143929759Y-95938071D01*
X144050892Y-96211813D01*
X144223102Y-96456663D01*
X144439771Y-96663212D01*
X144623421Y-96779671D01*
X144465241Y-96885363D01*
X144265363Y-97085241D01*
X144108320Y-97320273D01*
X144000147Y-97581426D01*
X143945000Y-97858665D01*
X143945000Y-98141335D01*
X144000147Y-98418574D01*
X144108320Y-98679727D01*
X144265363Y-98914759D01*
X144465241Y-99114637D01*
X144700273Y-99271680D01*
X144961426Y-99379853D01*
X145238665Y-99435000D01*
X145521335Y-99435000D01*
X145798574Y-99379853D01*
X146059727Y-99271680D01*
X146294759Y-99114637D01*
X146494637Y-98914759D01*
X146651680Y-98679727D01*
X146759853Y-98418574D01*
X146815000Y-98141335D01*
X146815000Y-97858665D01*
X146759853Y-97581426D01*
X146651680Y-97320273D01*
X146494637Y-97085241D01*
X146294759Y-96885363D01*
X146136579Y-96779671D01*
X146320229Y-96663212D01*
X146536898Y-96456663D01*
X146709108Y-96211813D01*
X146830241Y-95938071D01*
X146851426Y-95868207D01*
X146714080Y-95633000D01*
X145553000Y-95633000D01*
X145553000Y-95653000D01*
X145207000Y-95653000D01*
X145207000Y-95633000D01*
X144045920Y-95633000D01*
X143908574Y-95868207D01*
X123231156Y-95868207D01*
X123128937Y-95715226D01*
X122984774Y-95571063D01*
X122815256Y-95457795D01*
X122626898Y-95379774D01*
X122426939Y-95340000D01*
X122223061Y-95340000D01*
X122023102Y-95379774D01*
X121834744Y-95457795D01*
X121665226Y-95571063D01*
X121521063Y-95715226D01*
X121407795Y-95884744D01*
X121329774Y-96073102D01*
X121290000Y-96273061D01*
X115118110Y-96273061D01*
X115199260Y-96010296D01*
X115298520Y-95051793D01*
X143908574Y-95051793D01*
X144045920Y-95287000D01*
X145207000Y-95287000D01*
X145207000Y-94124575D01*
X145553000Y-94124575D01*
X145553000Y-95287000D01*
X146714080Y-95287000D01*
X146851426Y-95051793D01*
X146830241Y-94981929D01*
X146709108Y-94708187D01*
X146536898Y-94463337D01*
X146320229Y-94256788D01*
X146067428Y-94096478D01*
X145788209Y-93988567D01*
X145553000Y-94124575D01*
X145207000Y-94124575D01*
X144971791Y-93988567D01*
X144692572Y-94096478D01*
X144439771Y-94256788D01*
X144223102Y-94463337D01*
X144050892Y-94708187D01*
X143929759Y-94981929D01*
X143908574Y-95051793D01*
X115298520Y-95051793D01*
X115301261Y-95025331D01*
X115209145Y-94039393D01*
X114926451Y-93090369D01*
X114464044Y-92214732D01*
X114435897Y-92172608D01*
X113813465Y-91681194D01*
X110494659Y-95000000D01*
X110005341Y-95000000D01*
X106686535Y-91681194D01*
X106064103Y-92172608D01*
X106048632Y-92201206D01*
X106036097Y-91436535D01*
X106931194Y-91436535D01*
X110250000Y-94755341D01*
X113568806Y-91436535D01*
X113439743Y-91273061D01*
X117515000Y-91273061D01*
X117515000Y-91476939D01*
X117554774Y-91676898D01*
X117632795Y-91865256D01*
X117746063Y-92034774D01*
X117890226Y-92178937D01*
X118059744Y-92292205D01*
X118248102Y-92370226D01*
X118448061Y-92410000D01*
X118651939Y-92410000D01*
X118851898Y-92370226D01*
X118865000Y-92364799D01*
X118865000Y-92501939D01*
X118904774Y-92701898D01*
X118982795Y-92890256D01*
X119096063Y-93059774D01*
X119240226Y-93203937D01*
X119409744Y-93317205D01*
X119598102Y-93395226D01*
X119798061Y-93435000D01*
X120001939Y-93435000D01*
X120201898Y-93395226D01*
X120390256Y-93317205D01*
X120559774Y-93203937D01*
X120703937Y-93059774D01*
X120817205Y-92890256D01*
X120895226Y-92701898D01*
X120935000Y-92501939D01*
X120935000Y-92298061D01*
X120895226Y-92098102D01*
X120817205Y-91909744D01*
X120703937Y-91740226D01*
X120559774Y-91596063D01*
X120390256Y-91482795D01*
X120201898Y-91404774D01*
X120001939Y-91365000D01*
X119798061Y-91365000D01*
X119598102Y-91404774D01*
X119585000Y-91410201D01*
X119585000Y-91273061D01*
X119545226Y-91073102D01*
X119467205Y-90884744D01*
X119353937Y-90715226D01*
X119209774Y-90571063D01*
X119040256Y-90457795D01*
X118851898Y-90379774D01*
X118651939Y-90340000D01*
X118448061Y-90340000D01*
X118248102Y-90379774D01*
X118059744Y-90457795D01*
X117890226Y-90571063D01*
X117746063Y-90715226D01*
X117632795Y-90884744D01*
X117554774Y-91073102D01*
X117515000Y-91273061D01*
X113439743Y-91273061D01*
X113077392Y-90814103D01*
X112206436Y-90342937D01*
X111260296Y-90050740D01*
X110275331Y-89948739D01*
X109289393Y-90040855D01*
X108340369Y-90323549D01*
X107464732Y-90785956D01*
X107422608Y-90814103D01*
X106931194Y-91436535D01*
X106036097Y-91436535D01*
X105986287Y-88398061D01*
X118215000Y-88398061D01*
X118215000Y-88601939D01*
X118254774Y-88801898D01*
X118332795Y-88990256D01*
X118446063Y-89159774D01*
X118590226Y-89303937D01*
X118759744Y-89417205D01*
X118948102Y-89495226D01*
X119148061Y-89535000D01*
X119351939Y-89535000D01*
X119551898Y-89495226D01*
X119740256Y-89417205D01*
X119909774Y-89303937D01*
X120053937Y-89159774D01*
X120167205Y-88990256D01*
X120245226Y-88801898D01*
X120285000Y-88601939D01*
X120285000Y-88398061D01*
X120245226Y-88198102D01*
X120167205Y-88009744D01*
X120053937Y-87840226D01*
X119909774Y-87696063D01*
X119740256Y-87582795D01*
X119551898Y-87504774D01*
X119351939Y-87465000D01*
X119148061Y-87465000D01*
X118948102Y-87504774D01*
X118759744Y-87582795D01*
X118590226Y-87696063D01*
X118446063Y-87840226D01*
X118332795Y-88009744D01*
X118254774Y-88198102D01*
X118215000Y-88398061D01*
X105986287Y-88398061D01*
X105937107Y-85398061D01*
X121990000Y-85398061D01*
X121990000Y-85601939D01*
X122029774Y-85801898D01*
X122107795Y-85990256D01*
X122221063Y-86159774D01*
X122365226Y-86303937D01*
X122534744Y-86417205D01*
X122723102Y-86495226D01*
X122923061Y-86535000D01*
X123105912Y-86535000D01*
X123079774Y-86598102D01*
X123040000Y-86798061D01*
X123040000Y-87001939D01*
X123079774Y-87201898D01*
X123157795Y-87390256D01*
X123271063Y-87559774D01*
X123415226Y-87703937D01*
X123584744Y-87817205D01*
X123708179Y-87868334D01*
X123729774Y-87976898D01*
X123807795Y-88165256D01*
X123921063Y-88334774D01*
X124065226Y-88478937D01*
X124140000Y-88528899D01*
X124140000Y-88676939D01*
X124179774Y-88876898D01*
X124257795Y-89065256D01*
X124371063Y-89234774D01*
X124515226Y-89378937D01*
X124684744Y-89492205D01*
X124873102Y-89570226D01*
X125073061Y-89610000D01*
X125108130Y-89610000D01*
X125182795Y-89790256D01*
X125296063Y-89959774D01*
X125440226Y-90103937D01*
X125609744Y-90217205D01*
X125798102Y-90295226D01*
X125998061Y-90335000D01*
X126201939Y-90335000D01*
X126401898Y-90295226D01*
X126590256Y-90217205D01*
X126759774Y-90103937D01*
X126903937Y-89959774D01*
X127017205Y-89790256D01*
X127095226Y-89601898D01*
X127135000Y-89401939D01*
X127135000Y-89198061D01*
X127095226Y-88998102D01*
X127017205Y-88809744D01*
X126903937Y-88640226D01*
X126759774Y-88496063D01*
X126590256Y-88382795D01*
X126401898Y-88304774D01*
X126201939Y-88265000D01*
X126166870Y-88265000D01*
X126092205Y-88084744D01*
X125978937Y-87915226D01*
X125834774Y-87771063D01*
X125760000Y-87721101D01*
X125760000Y-87573061D01*
X125720226Y-87373102D01*
X125642205Y-87184744D01*
X125528937Y-87015226D01*
X125384774Y-86871063D01*
X125215256Y-86757795D01*
X125091821Y-86706666D01*
X125070226Y-86598102D01*
X124992205Y-86409744D01*
X124878937Y-86240226D01*
X124734774Y-86096063D01*
X124565256Y-85982795D01*
X124376898Y-85904774D01*
X124176939Y-85865000D01*
X123994088Y-85865000D01*
X124020226Y-85801898D01*
X124060000Y-85601939D01*
X124060000Y-85398061D01*
X124020226Y-85198102D01*
X123942205Y-85009744D01*
X123828937Y-84840226D01*
X123736772Y-84748061D01*
X132215000Y-84748061D01*
X132215000Y-84951939D01*
X132254774Y-85151898D01*
X132332795Y-85340256D01*
X132446063Y-85509774D01*
X132590226Y-85653937D01*
X132759744Y-85767205D01*
X132948102Y-85845226D01*
X133148061Y-85885000D01*
X133351939Y-85885000D01*
X133551898Y-85845226D01*
X133740256Y-85767205D01*
X133909774Y-85653937D01*
X134053937Y-85509774D01*
X134111876Y-85423061D01*
X138340000Y-85423061D01*
X138340000Y-85626939D01*
X138379774Y-85826898D01*
X138457795Y-86015256D01*
X138571063Y-86184774D01*
X138715226Y-86328937D01*
X138884744Y-86442205D01*
X139073102Y-86520226D01*
X139273061Y-86560000D01*
X139476939Y-86560000D01*
X139676898Y-86520226D01*
X139865256Y-86442205D01*
X140034774Y-86328937D01*
X140178937Y-86184774D01*
X140292205Y-86015256D01*
X140370226Y-85826898D01*
X140410000Y-85626939D01*
X140410000Y-85423061D01*
X140370226Y-85223102D01*
X140292205Y-85034744D01*
X140178937Y-84865226D01*
X140034774Y-84721063D01*
X139865256Y-84607795D01*
X139676898Y-84529774D01*
X139476939Y-84490000D01*
X139273061Y-84490000D01*
X139073102Y-84529774D01*
X138884744Y-84607795D01*
X138715226Y-84721063D01*
X138571063Y-84865226D01*
X138457795Y-85034744D01*
X138379774Y-85223102D01*
X138340000Y-85423061D01*
X134111876Y-85423061D01*
X134167205Y-85340256D01*
X134245226Y-85151898D01*
X134285000Y-84951939D01*
X134285000Y-84748061D01*
X134245226Y-84548102D01*
X134167205Y-84359744D01*
X134053937Y-84190226D01*
X133909774Y-84046063D01*
X133740256Y-83932795D01*
X133551898Y-83854774D01*
X133351939Y-83815000D01*
X133148061Y-83815000D01*
X132948102Y-83854774D01*
X132759744Y-83932795D01*
X132590226Y-84046063D01*
X132446063Y-84190226D01*
X132332795Y-84359744D01*
X132254774Y-84548102D01*
X132215000Y-84748061D01*
X123736772Y-84748061D01*
X123684774Y-84696063D01*
X123515256Y-84582795D01*
X123326898Y-84504774D01*
X123126939Y-84465000D01*
X122923061Y-84465000D01*
X122723102Y-84504774D01*
X122534744Y-84582795D01*
X122365226Y-84696063D01*
X122221063Y-84840226D01*
X122107795Y-85009744D01*
X122029774Y-85198102D01*
X121990000Y-85398061D01*
X105937107Y-85398061D01*
X105889566Y-82498061D01*
X121215000Y-82498061D01*
X121215000Y-82701939D01*
X121254774Y-82901898D01*
X121332795Y-83090256D01*
X121446063Y-83259774D01*
X121590226Y-83403937D01*
X121759744Y-83517205D01*
X121948102Y-83595226D01*
X122148061Y-83635000D01*
X122351939Y-83635000D01*
X122551898Y-83595226D01*
X122740256Y-83517205D01*
X122909774Y-83403937D01*
X123053937Y-83259774D01*
X123167205Y-83090256D01*
X123245226Y-82901898D01*
X123285000Y-82701939D01*
X123285000Y-82498061D01*
X123245226Y-82298102D01*
X123167205Y-82109744D01*
X123053937Y-81940226D01*
X122936772Y-81823061D01*
X134140000Y-81823061D01*
X134140000Y-82026939D01*
X134179774Y-82226898D01*
X134257795Y-82415256D01*
X134371063Y-82584774D01*
X134515226Y-82728937D01*
X134684744Y-82842205D01*
X134873102Y-82920226D01*
X135073061Y-82960000D01*
X135276939Y-82960000D01*
X135476898Y-82920226D01*
X135665256Y-82842205D01*
X135834774Y-82728937D01*
X135978937Y-82584774D01*
X136092205Y-82415256D01*
X136170226Y-82226898D01*
X136210000Y-82026939D01*
X136210000Y-81823061D01*
X136170226Y-81623102D01*
X136092205Y-81434744D01*
X135978937Y-81265226D01*
X135834774Y-81121063D01*
X135665256Y-81007795D01*
X135476898Y-80929774D01*
X135276939Y-80890000D01*
X135073061Y-80890000D01*
X134873102Y-80929774D01*
X134684744Y-81007795D01*
X134515226Y-81121063D01*
X134371063Y-81265226D01*
X134257795Y-81434744D01*
X134179774Y-81623102D01*
X134140000Y-81823061D01*
X122936772Y-81823061D01*
X122909774Y-81796063D01*
X122740256Y-81682795D01*
X122551898Y-81604774D01*
X122351939Y-81565000D01*
X122148061Y-81565000D01*
X121948102Y-81604774D01*
X121759744Y-81682795D01*
X121590226Y-81796063D01*
X121446063Y-81940226D01*
X121332795Y-82109744D01*
X121254774Y-82298102D01*
X121215000Y-82498061D01*
X105889566Y-82498061D01*
X105805171Y-77350000D01*
X109919482Y-77350000D01*
X109933519Y-77492517D01*
X109975089Y-77629557D01*
X110042596Y-77755854D01*
X110133446Y-77866554D01*
X110244146Y-77957404D01*
X110370443Y-78024911D01*
X110404616Y-78035277D01*
X110346525Y-78093368D01*
X110184010Y-78336589D01*
X110072068Y-78606842D01*
X110015000Y-78893740D01*
X110015000Y-79186260D01*
X110072068Y-79473158D01*
X110184010Y-79743411D01*
X110346525Y-79986632D01*
X110553368Y-80193475D01*
X110796589Y-80355990D01*
X111066842Y-80467932D01*
X111353740Y-80525000D01*
X111646260Y-80525000D01*
X111933158Y-80467932D01*
X112203411Y-80355990D01*
X112446632Y-80193475D01*
X112653475Y-79986632D01*
X112815990Y-79743411D01*
X112876195Y-79598061D01*
X113465000Y-79598061D01*
X113465000Y-79801939D01*
X113504774Y-80001898D01*
X113582795Y-80190256D01*
X113696063Y-80359774D01*
X113840226Y-80503937D01*
X114009744Y-80617205D01*
X114198102Y-80695226D01*
X114398061Y-80735000D01*
X114601939Y-80735000D01*
X114801898Y-80695226D01*
X114990256Y-80617205D01*
X115159774Y-80503937D01*
X115303937Y-80359774D01*
X115417205Y-80190256D01*
X115495226Y-80001898D01*
X115535000Y-79801939D01*
X115535000Y-79598061D01*
X115495226Y-79398102D01*
X115417205Y-79209744D01*
X115303937Y-79040226D01*
X115159774Y-78896063D01*
X114990256Y-78782795D01*
X114801898Y-78704774D01*
X114601939Y-78665000D01*
X114398061Y-78665000D01*
X114198102Y-78704774D01*
X114009744Y-78782795D01*
X113840226Y-78896063D01*
X113696063Y-79040226D01*
X113582795Y-79209744D01*
X113504774Y-79398102D01*
X113465000Y-79598061D01*
X112876195Y-79598061D01*
X112927932Y-79473158D01*
X112985000Y-79186260D01*
X112985000Y-78893740D01*
X112927932Y-78606842D01*
X112815990Y-78336589D01*
X112706725Y-78173061D01*
X131440000Y-78173061D01*
X131440000Y-78376939D01*
X131479774Y-78576898D01*
X131557795Y-78765256D01*
X131671063Y-78934774D01*
X131815226Y-79078937D01*
X131984744Y-79192205D01*
X132173102Y-79270226D01*
X132373061Y-79310000D01*
X132576939Y-79310000D01*
X132776898Y-79270226D01*
X132965256Y-79192205D01*
X132981292Y-79181490D01*
X133034744Y-79217205D01*
X133223102Y-79295226D01*
X133423061Y-79335000D01*
X133626939Y-79335000D01*
X133826898Y-79295226D01*
X134015256Y-79217205D01*
X134184774Y-79103937D01*
X134328937Y-78959774D01*
X134399786Y-78853740D01*
X134895000Y-78853740D01*
X134895000Y-79146260D01*
X134952068Y-79433158D01*
X135064010Y-79703411D01*
X135226525Y-79946632D01*
X135433368Y-80153475D01*
X135676589Y-80315990D01*
X135946842Y-80427932D01*
X136233740Y-80485000D01*
X136526260Y-80485000D01*
X136813158Y-80427932D01*
X137083411Y-80315990D01*
X137326632Y-80153475D01*
X137533475Y-79946632D01*
X137650000Y-79772240D01*
X137766525Y-79946632D01*
X137973368Y-80153475D01*
X138216589Y-80315990D01*
X138486842Y-80427932D01*
X138773740Y-80485000D01*
X139066260Y-80485000D01*
X139353158Y-80427932D01*
X139623411Y-80315990D01*
X139866632Y-80153475D01*
X140073475Y-79946632D01*
X140190000Y-79772240D01*
X140306525Y-79946632D01*
X140513368Y-80153475D01*
X140756589Y-80315990D01*
X141026842Y-80427932D01*
X141313740Y-80485000D01*
X141606260Y-80485000D01*
X141893158Y-80427932D01*
X142163411Y-80315990D01*
X142406632Y-80153475D01*
X142464723Y-80095384D01*
X142475089Y-80129557D01*
X142542596Y-80255854D01*
X142633446Y-80366554D01*
X142744146Y-80457404D01*
X142870443Y-80524911D01*
X143007483Y-80566481D01*
X143150000Y-80580518D01*
X143645250Y-80577000D01*
X143827000Y-80395250D01*
X143827000Y-79173000D01*
X144173000Y-79173000D01*
X144173000Y-80395250D01*
X144354750Y-80577000D01*
X144850000Y-80580518D01*
X144992517Y-80566481D01*
X145129557Y-80524911D01*
X145255854Y-80457404D01*
X145366554Y-80366554D01*
X145457404Y-80255854D01*
X145524911Y-80129557D01*
X145566481Y-79992517D01*
X145580518Y-79850000D01*
X145577000Y-79354750D01*
X145395250Y-79173000D01*
X144173000Y-79173000D01*
X143827000Y-79173000D01*
X143807000Y-79173000D01*
X143807000Y-78827000D01*
X143827000Y-78827000D01*
X143827000Y-77604750D01*
X144173000Y-77604750D01*
X144173000Y-78827000D01*
X145395250Y-78827000D01*
X145577000Y-78645250D01*
X145580518Y-78150000D01*
X145566481Y-78007483D01*
X145524911Y-77870443D01*
X145457404Y-77744146D01*
X145366554Y-77633446D01*
X145255854Y-77542596D01*
X145129557Y-77475089D01*
X144992517Y-77433519D01*
X144850000Y-77419482D01*
X144354750Y-77423000D01*
X144173000Y-77604750D01*
X143827000Y-77604750D01*
X143645250Y-77423000D01*
X143150000Y-77419482D01*
X143007483Y-77433519D01*
X142870443Y-77475089D01*
X142744146Y-77542596D01*
X142633446Y-77633446D01*
X142542596Y-77744146D01*
X142475089Y-77870443D01*
X142464723Y-77904616D01*
X142406632Y-77846525D01*
X142163411Y-77684010D01*
X141893158Y-77572068D01*
X141606260Y-77515000D01*
X141313740Y-77515000D01*
X141026842Y-77572068D01*
X140756589Y-77684010D01*
X140513368Y-77846525D01*
X140306525Y-78053368D01*
X140190000Y-78227760D01*
X140073475Y-78053368D01*
X139866632Y-77846525D01*
X139623411Y-77684010D01*
X139353158Y-77572068D01*
X139066260Y-77515000D01*
X138773740Y-77515000D01*
X138486842Y-77572068D01*
X138216589Y-77684010D01*
X137973368Y-77846525D01*
X137766525Y-78053368D01*
X137650000Y-78227760D01*
X137533475Y-78053368D01*
X137326632Y-77846525D01*
X137083411Y-77684010D01*
X136813158Y-77572068D01*
X136526260Y-77515000D01*
X136233740Y-77515000D01*
X135946842Y-77572068D01*
X135676589Y-77684010D01*
X135433368Y-77846525D01*
X135226525Y-78053368D01*
X135064010Y-78296589D01*
X134952068Y-78566842D01*
X134895000Y-78853740D01*
X134399786Y-78853740D01*
X134442205Y-78790256D01*
X134520226Y-78601898D01*
X134560000Y-78401939D01*
X134560000Y-78198061D01*
X134520226Y-77998102D01*
X134442205Y-77809744D01*
X134328937Y-77640226D01*
X134184774Y-77496063D01*
X134015256Y-77382795D01*
X133826898Y-77304774D01*
X133626939Y-77265000D01*
X133423061Y-77265000D01*
X133223102Y-77304774D01*
X133034744Y-77382795D01*
X133018708Y-77393510D01*
X132965256Y-77357795D01*
X132776898Y-77279774D01*
X132576939Y-77240000D01*
X132373061Y-77240000D01*
X132173102Y-77279774D01*
X131984744Y-77357795D01*
X131815226Y-77471063D01*
X131671063Y-77615226D01*
X131557795Y-77784744D01*
X131479774Y-77973102D01*
X131440000Y-78173061D01*
X112706725Y-78173061D01*
X112653475Y-78093368D01*
X112595384Y-78035277D01*
X112629557Y-78024911D01*
X112755854Y-77957404D01*
X112866554Y-77866554D01*
X112957404Y-77755854D01*
X113024911Y-77629557D01*
X113066481Y-77492517D01*
X113080518Y-77350000D01*
X113077663Y-76948061D01*
X122740000Y-76948061D01*
X122740000Y-77151939D01*
X122779774Y-77351898D01*
X122857795Y-77540256D01*
X122971063Y-77709774D01*
X123115226Y-77853937D01*
X123284744Y-77967205D01*
X123473102Y-78045226D01*
X123673061Y-78085000D01*
X123876939Y-78085000D01*
X124076898Y-78045226D01*
X124265256Y-77967205D01*
X124434774Y-77853937D01*
X124578937Y-77709774D01*
X124692205Y-77540256D01*
X124770226Y-77351898D01*
X124810000Y-77151939D01*
X124810000Y-76948061D01*
X124770226Y-76748102D01*
X124692205Y-76559744D01*
X124578937Y-76390226D01*
X124434774Y-76246063D01*
X124265256Y-76132795D01*
X124076898Y-76054774D01*
X123876939Y-76015000D01*
X123673061Y-76015000D01*
X123473102Y-76054774D01*
X123284744Y-76132795D01*
X123115226Y-76246063D01*
X122971063Y-76390226D01*
X122857795Y-76559744D01*
X122779774Y-76748102D01*
X122740000Y-76948061D01*
X113077663Y-76948061D01*
X113077000Y-76854750D01*
X112895250Y-76673000D01*
X111673000Y-76673000D01*
X111673000Y-76693000D01*
X111327000Y-76693000D01*
X111327000Y-76673000D01*
X110104750Y-76673000D01*
X109923000Y-76854750D01*
X109919482Y-77350000D01*
X105805171Y-77350000D01*
X105777302Y-75650000D01*
X109919482Y-75650000D01*
X109923000Y-76145250D01*
X110104750Y-76327000D01*
X111327000Y-76327000D01*
X111327000Y-75104750D01*
X111673000Y-75104750D01*
X111673000Y-76327000D01*
X112895250Y-76327000D01*
X113077000Y-76145250D01*
X113080518Y-75650000D01*
X113066481Y-75507483D01*
X113024911Y-75370443D01*
X112957404Y-75244146D01*
X112866554Y-75133446D01*
X112755854Y-75042596D01*
X112629557Y-74975089D01*
X112492517Y-74933519D01*
X112350000Y-74919482D01*
X111854750Y-74923000D01*
X111673000Y-75104750D01*
X111327000Y-75104750D01*
X111145250Y-74923000D01*
X110650000Y-74919482D01*
X110507483Y-74933519D01*
X110370443Y-74975089D01*
X110244146Y-75042596D01*
X110133446Y-75133446D01*
X110042596Y-75244146D01*
X109975089Y-75370443D01*
X109933519Y-75507483D01*
X109919482Y-75650000D01*
X105777302Y-75650000D01*
X105762107Y-74723061D01*
X133390000Y-74723061D01*
X133390000Y-74926939D01*
X133429774Y-75126898D01*
X133507795Y-75315256D01*
X133621063Y-75484774D01*
X133765226Y-75628937D01*
X133934744Y-75742205D01*
X134123102Y-75820226D01*
X134323061Y-75860000D01*
X134526939Y-75860000D01*
X134726898Y-75820226D01*
X134915256Y-75742205D01*
X135084774Y-75628937D01*
X135228937Y-75484774D01*
X135342205Y-75315256D01*
X135420226Y-75126898D01*
X135460000Y-74926939D01*
X135460000Y-74723061D01*
X135420226Y-74523102D01*
X135342205Y-74334744D01*
X135228937Y-74165226D01*
X135084774Y-74021063D01*
X134915256Y-73907795D01*
X134726898Y-73829774D01*
X134526939Y-73790000D01*
X134323061Y-73790000D01*
X134123102Y-73829774D01*
X133934744Y-73907795D01*
X133765226Y-74021063D01*
X133621063Y-74165226D01*
X133507795Y-74334744D01*
X133429774Y-74523102D01*
X133390000Y-74723061D01*
X105762107Y-74723061D01*
X105710309Y-71563465D01*
X106681194Y-71563465D01*
X107172608Y-72185897D01*
X108043564Y-72657063D01*
X108989704Y-72949260D01*
X109974669Y-73051261D01*
X110960607Y-72959145D01*
X111909631Y-72676451D01*
X112785268Y-72214044D01*
X112827392Y-72185897D01*
X113318806Y-71563465D01*
X110000000Y-68244659D01*
X106681194Y-71563465D01*
X105710309Y-71563465D01*
X105694719Y-70612497D01*
X105785956Y-70785268D01*
X105814103Y-70827392D01*
X106436535Y-71318806D01*
X109755341Y-68000000D01*
X110244659Y-68000000D01*
X113563465Y-71318806D01*
X113716402Y-71198061D01*
X124965000Y-71198061D01*
X124965000Y-71401939D01*
X125004774Y-71601898D01*
X125082795Y-71790256D01*
X125196063Y-71959774D01*
X125340226Y-72103937D01*
X125509744Y-72217205D01*
X125698102Y-72295226D01*
X125898061Y-72335000D01*
X126101939Y-72335000D01*
X126301898Y-72295226D01*
X126490256Y-72217205D01*
X126659774Y-72103937D01*
X126803937Y-71959774D01*
X126845172Y-71898061D01*
X130165000Y-71898061D01*
X130165000Y-72101939D01*
X130204774Y-72301898D01*
X130282795Y-72490256D01*
X130396063Y-72659774D01*
X130540226Y-72803937D01*
X130709744Y-72917205D01*
X130898102Y-72995226D01*
X131098061Y-73035000D01*
X131301939Y-73035000D01*
X131501898Y-72995226D01*
X131690256Y-72917205D01*
X131859774Y-72803937D01*
X131897760Y-72765951D01*
X131929774Y-72926898D01*
X132007795Y-73115256D01*
X132121063Y-73284774D01*
X132265226Y-73428937D01*
X132434744Y-73542205D01*
X132623102Y-73620226D01*
X132823061Y-73660000D01*
X133026939Y-73660000D01*
X133226898Y-73620226D01*
X133415256Y-73542205D01*
X133584774Y-73428937D01*
X133728937Y-73284774D01*
X133842205Y-73115256D01*
X133920226Y-72926898D01*
X133960000Y-72726939D01*
X133960000Y-72523061D01*
X133940109Y-72423061D01*
X141015000Y-72423061D01*
X141015000Y-72626939D01*
X141054774Y-72826898D01*
X141132795Y-73015256D01*
X141246063Y-73184774D01*
X141390226Y-73328937D01*
X141559744Y-73442205D01*
X141748102Y-73520226D01*
X141948061Y-73560000D01*
X142151939Y-73560000D01*
X142351898Y-73520226D01*
X142540256Y-73442205D01*
X142709774Y-73328937D01*
X142853937Y-73184774D01*
X142967205Y-73015256D01*
X143045226Y-72826898D01*
X143085000Y-72626939D01*
X143085000Y-72423061D01*
X143045226Y-72223102D01*
X142967205Y-72034744D01*
X142853937Y-71865226D01*
X142709774Y-71721063D01*
X142540256Y-71607795D01*
X142351898Y-71529774D01*
X142151939Y-71490000D01*
X141948061Y-71490000D01*
X141748102Y-71529774D01*
X141559744Y-71607795D01*
X141390226Y-71721063D01*
X141246063Y-71865226D01*
X141132795Y-72034744D01*
X141054774Y-72223102D01*
X141015000Y-72423061D01*
X133940109Y-72423061D01*
X133920226Y-72323102D01*
X133842205Y-72134744D01*
X133728937Y-71965226D01*
X133584774Y-71821063D01*
X133415256Y-71707795D01*
X133226898Y-71629774D01*
X133026939Y-71590000D01*
X132823061Y-71590000D01*
X132623102Y-71629774D01*
X132434744Y-71707795D01*
X132265226Y-71821063D01*
X132227240Y-71859049D01*
X132195226Y-71698102D01*
X132117205Y-71509744D01*
X132003937Y-71340226D01*
X131859774Y-71196063D01*
X131690256Y-71082795D01*
X131501898Y-71004774D01*
X131301939Y-70965000D01*
X131098061Y-70965000D01*
X130898102Y-71004774D01*
X130709744Y-71082795D01*
X130540226Y-71196063D01*
X130396063Y-71340226D01*
X130282795Y-71509744D01*
X130204774Y-71698102D01*
X130165000Y-71898061D01*
X126845172Y-71898061D01*
X126917205Y-71790256D01*
X126995226Y-71601898D01*
X127035000Y-71401939D01*
X127035000Y-71198061D01*
X126995226Y-70998102D01*
X126917205Y-70809744D01*
X126803937Y-70640226D01*
X126659774Y-70496063D01*
X126490256Y-70382795D01*
X126301898Y-70304774D01*
X126101939Y-70265000D01*
X125898061Y-70265000D01*
X125698102Y-70304774D01*
X125509744Y-70382795D01*
X125340226Y-70496063D01*
X125196063Y-70640226D01*
X125082795Y-70809744D01*
X125004774Y-70998102D01*
X124965000Y-71198061D01*
X113716402Y-71198061D01*
X114185897Y-70827392D01*
X114648069Y-69973061D01*
X117190000Y-69973061D01*
X117190000Y-70176939D01*
X117229774Y-70376898D01*
X117307795Y-70565256D01*
X117421063Y-70734774D01*
X117565226Y-70878937D01*
X117734744Y-70992205D01*
X117923102Y-71070226D01*
X118123061Y-71110000D01*
X118326939Y-71110000D01*
X118526898Y-71070226D01*
X118715256Y-70992205D01*
X118884774Y-70878937D01*
X119028937Y-70734774D01*
X119142205Y-70565256D01*
X119220226Y-70376898D01*
X119260000Y-70176939D01*
X119260000Y-70023061D01*
X133315000Y-70023061D01*
X133315000Y-70226939D01*
X133354774Y-70426898D01*
X133432795Y-70615256D01*
X133546063Y-70784774D01*
X133690226Y-70928937D01*
X133859744Y-71042205D01*
X134048102Y-71120226D01*
X134248061Y-71160000D01*
X134451939Y-71160000D01*
X134651898Y-71120226D01*
X134840256Y-71042205D01*
X135009774Y-70928937D01*
X135153937Y-70784774D01*
X135267205Y-70615256D01*
X135345226Y-70426898D01*
X135385000Y-70226939D01*
X135385000Y-70023061D01*
X135345226Y-69823102D01*
X135267205Y-69634744D01*
X135153937Y-69465226D01*
X135009774Y-69321063D01*
X134840256Y-69207795D01*
X134651898Y-69129774D01*
X134451939Y-69090000D01*
X134248061Y-69090000D01*
X134048102Y-69129774D01*
X133859744Y-69207795D01*
X133690226Y-69321063D01*
X133546063Y-69465226D01*
X133432795Y-69634744D01*
X133354774Y-69823102D01*
X133315000Y-70023061D01*
X119260000Y-70023061D01*
X119260000Y-69973061D01*
X119220226Y-69773102D01*
X119142205Y-69584744D01*
X119028937Y-69415226D01*
X118884774Y-69271063D01*
X118715256Y-69157795D01*
X118526898Y-69079774D01*
X118326939Y-69040000D01*
X118123061Y-69040000D01*
X117923102Y-69079774D01*
X117734744Y-69157795D01*
X117565226Y-69271063D01*
X117421063Y-69415226D01*
X117307795Y-69584744D01*
X117229774Y-69773102D01*
X117190000Y-69973061D01*
X114648069Y-69973061D01*
X114657063Y-69956436D01*
X114949260Y-69010296D01*
X115051261Y-68025331D01*
X114959145Y-67039393D01*
X114676451Y-66090369D01*
X114214044Y-65214732D01*
X114185897Y-65172608D01*
X114157262Y-65150000D01*
X118511928Y-65150000D01*
X118511928Y-66850000D01*
X118524188Y-66974482D01*
X118560498Y-67094180D01*
X118619463Y-67204494D01*
X118698815Y-67301185D01*
X118795506Y-67380537D01*
X118905820Y-67439502D01*
X119025518Y-67475812D01*
X119150000Y-67488072D01*
X120850000Y-67488072D01*
X120974482Y-67475812D01*
X121094180Y-67439502D01*
X121204494Y-67380537D01*
X121301185Y-67301185D01*
X121380537Y-67204494D01*
X121439502Y-67094180D01*
X121461513Y-67021620D01*
X121593368Y-67153475D01*
X121836589Y-67315990D01*
X122106842Y-67427932D01*
X122393740Y-67485000D01*
X122686260Y-67485000D01*
X122973158Y-67427932D01*
X123243411Y-67315990D01*
X123486632Y-67153475D01*
X123693475Y-66946632D01*
X123759355Y-66848035D01*
X123833889Y-66966516D01*
X124046391Y-67191049D01*
X124298614Y-67369810D01*
X124580865Y-67495930D01*
X124663922Y-67521121D01*
X124907000Y-67384483D01*
X124907000Y-66173000D01*
X125253000Y-66173000D01*
X125253000Y-67384483D01*
X125496078Y-67521121D01*
X125579135Y-67495930D01*
X125861386Y-67369810D01*
X126113609Y-67191049D01*
X126326111Y-66966516D01*
X126490725Y-66704841D01*
X126601126Y-66416079D01*
X126465738Y-66173000D01*
X125253000Y-66173000D01*
X124907000Y-66173000D01*
X124887000Y-66173000D01*
X124887000Y-65853740D01*
X128395000Y-65853740D01*
X128395000Y-66146260D01*
X128452068Y-66433158D01*
X128564010Y-66703411D01*
X128726525Y-66946632D01*
X128933368Y-67153475D01*
X129176589Y-67315990D01*
X129446842Y-67427932D01*
X129733740Y-67485000D01*
X130026260Y-67485000D01*
X130313158Y-67427932D01*
X130583411Y-67315990D01*
X130826632Y-67153475D01*
X131033475Y-66946632D01*
X131150000Y-66772240D01*
X131266525Y-66946632D01*
X131473368Y-67153475D01*
X131716589Y-67315990D01*
X131986842Y-67427932D01*
X132273740Y-67485000D01*
X132566260Y-67485000D01*
X132853158Y-67427932D01*
X133123411Y-67315990D01*
X133366632Y-67153475D01*
X133573475Y-66946632D01*
X133639355Y-66848035D01*
X133713889Y-66966516D01*
X133926391Y-67191049D01*
X134178614Y-67369810D01*
X134460865Y-67495930D01*
X134543922Y-67521121D01*
X134787000Y-67384483D01*
X134787000Y-66173000D01*
X134767000Y-66173000D01*
X134767000Y-65827000D01*
X134787000Y-65827000D01*
X134787000Y-64615517D01*
X135133000Y-64615517D01*
X135133000Y-65827000D01*
X135153000Y-65827000D01*
X135153000Y-66173000D01*
X135133000Y-66173000D01*
X135133000Y-67384483D01*
X135376078Y-67521121D01*
X135459135Y-67495930D01*
X135741386Y-67369810D01*
X135993609Y-67191049D01*
X136069445Y-67110919D01*
X136119463Y-67204494D01*
X136198815Y-67301185D01*
X136295506Y-67380537D01*
X136405820Y-67439502D01*
X136525518Y-67475812D01*
X136650000Y-67488072D01*
X138350000Y-67488072D01*
X138474482Y-67475812D01*
X138594180Y-67439502D01*
X138704494Y-67380537D01*
X138801185Y-67301185D01*
X138880537Y-67204494D01*
X138939502Y-67094180D01*
X138975812Y-66974482D01*
X138988072Y-66850000D01*
X138988072Y-66399131D01*
X147716524Y-66399131D01*
X147772055Y-66764675D01*
X147897832Y-67112360D01*
X147978873Y-67263977D01*
X148278750Y-67376591D01*
X149355341Y-66300000D01*
X148278750Y-65223409D01*
X147978873Y-65336023D01*
X147821959Y-65670811D01*
X147733375Y-66029779D01*
X147716524Y-66399131D01*
X138988072Y-66399131D01*
X138988072Y-65150000D01*
X138975812Y-65025518D01*
X138939502Y-64905820D01*
X138880537Y-64795506D01*
X138801185Y-64698815D01*
X138704494Y-64619463D01*
X138594180Y-64560498D01*
X138474482Y-64524188D01*
X138350000Y-64511928D01*
X136650000Y-64511928D01*
X136525518Y-64524188D01*
X136405820Y-64560498D01*
X136295506Y-64619463D01*
X136198815Y-64698815D01*
X136119463Y-64795506D01*
X136069445Y-64889081D01*
X135993609Y-64808951D01*
X135741386Y-64630190D01*
X135459135Y-64504070D01*
X135376078Y-64478879D01*
X135133000Y-64615517D01*
X134787000Y-64615517D01*
X134543922Y-64478879D01*
X134460865Y-64504070D01*
X134178614Y-64630190D01*
X133926391Y-64808951D01*
X133713889Y-65033484D01*
X133639355Y-65151965D01*
X133573475Y-65053368D01*
X133366632Y-64846525D01*
X133123411Y-64684010D01*
X132853158Y-64572068D01*
X132566260Y-64515000D01*
X132273740Y-64515000D01*
X131986842Y-64572068D01*
X131716589Y-64684010D01*
X131473368Y-64846525D01*
X131266525Y-65053368D01*
X131150000Y-65227760D01*
X131033475Y-65053368D01*
X130826632Y-64846525D01*
X130583411Y-64684010D01*
X130313158Y-64572068D01*
X130026260Y-64515000D01*
X129733740Y-64515000D01*
X129446842Y-64572068D01*
X129176589Y-64684010D01*
X128933368Y-64846525D01*
X128726525Y-65053368D01*
X128564010Y-65296589D01*
X128452068Y-65566842D01*
X128395000Y-65853740D01*
X124887000Y-65853740D01*
X124887000Y-65827000D01*
X124907000Y-65827000D01*
X124907000Y-64615517D01*
X125253000Y-64615517D01*
X125253000Y-65827000D01*
X126465738Y-65827000D01*
X126601126Y-65583921D01*
X126490725Y-65295159D01*
X126326111Y-65033484D01*
X126113609Y-64808951D01*
X125861386Y-64630190D01*
X125579135Y-64504070D01*
X125496078Y-64478879D01*
X125253000Y-64615517D01*
X124907000Y-64615517D01*
X124663922Y-64478879D01*
X124580865Y-64504070D01*
X124298614Y-64630190D01*
X124046391Y-64808951D01*
X123833889Y-65033484D01*
X123759355Y-65151965D01*
X123693475Y-65053368D01*
X123486632Y-64846525D01*
X123243411Y-64684010D01*
X122973158Y-64572068D01*
X122686260Y-64515000D01*
X122393740Y-64515000D01*
X122106842Y-64572068D01*
X121836589Y-64684010D01*
X121593368Y-64846525D01*
X121461513Y-64978380D01*
X121439502Y-64905820D01*
X121380537Y-64795506D01*
X121301185Y-64698815D01*
X121204494Y-64619463D01*
X121094180Y-64560498D01*
X120974482Y-64524188D01*
X120850000Y-64511928D01*
X119150000Y-64511928D01*
X119025518Y-64524188D01*
X118905820Y-64560498D01*
X118795506Y-64619463D01*
X118698815Y-64698815D01*
X118619463Y-64795506D01*
X118560498Y-64905820D01*
X118524188Y-65025518D01*
X118511928Y-65150000D01*
X114157262Y-65150000D01*
X113563465Y-64681194D01*
X110244659Y-68000000D01*
X109755341Y-68000000D01*
X109741199Y-67985858D01*
X109985858Y-67741199D01*
X110000000Y-67755341D01*
X113318806Y-64436535D01*
X112827392Y-63814103D01*
X112542531Y-63660000D01*
X150873000Y-63660000D01*
X150873000Y-64906546D01*
%TA.AperFunction,Conductor*%
D24*
G36*
X150873000Y-64906546D02*
G01*
X150810896Y-64844442D01*
X150676590Y-64978748D01*
X150563977Y-64678873D01*
X150229189Y-64521959D01*
X149870221Y-64433375D01*
X149500869Y-64416524D01*
X149135325Y-64472055D01*
X148787640Y-64597832D01*
X148636023Y-64678873D01*
X148523409Y-64978750D01*
X149600000Y-66055341D01*
X149614142Y-66041199D01*
X149858801Y-66285858D01*
X149844659Y-66300000D01*
X149858801Y-66314142D01*
X149614142Y-66558801D01*
X149600000Y-66544659D01*
X148523409Y-67621250D01*
X148636023Y-67921127D01*
X148970811Y-68078041D01*
X149329779Y-68166625D01*
X149699131Y-68183476D01*
X150064675Y-68127945D01*
X150412360Y-68002168D01*
X150563977Y-67921127D01*
X150676590Y-67621252D01*
X150810896Y-67755558D01*
X150873000Y-67693454D01*
X150873000Y-80448629D01*
X150737871Y-80313500D01*
X150445515Y-80118153D01*
X150120665Y-79983596D01*
X149775807Y-79915000D01*
X149424193Y-79915000D01*
X149079335Y-79983596D01*
X148754485Y-80118153D01*
X148462129Y-80313500D01*
X148213500Y-80562129D01*
X148018153Y-80854485D01*
X147883596Y-81179335D01*
X147815000Y-81524193D01*
X147815000Y-81875807D01*
X147883596Y-82220665D01*
X148018153Y-82545515D01*
X148213500Y-82837871D01*
X148462129Y-83086500D01*
X148754485Y-83281847D01*
X149079335Y-83416404D01*
X149424193Y-83485000D01*
X149775807Y-83485000D01*
X150120665Y-83416404D01*
X150445515Y-83281847D01*
X150737871Y-83086500D01*
X150873000Y-82951371D01*
X150873000Y-84373000D01*
X149000000Y-84373000D01*
X148975224Y-84375440D01*
X148951399Y-84382667D01*
X148929443Y-84394403D01*
X148910197Y-84410197D01*
X148894403Y-84429443D01*
X148882667Y-84451399D01*
X148875440Y-84475224D01*
X148873000Y-84500000D01*
X148873000Y-103840000D01*
X111027952Y-103840000D01*
X110184909Y-103768467D01*
X109393128Y-103562961D01*
X108647291Y-103226985D01*
X107968722Y-102770146D01*
X107376832Y-102205510D01*
X107115108Y-101853740D01*
X108995000Y-101853740D01*
X108995000Y-102146260D01*
X109052068Y-102433158D01*
X109164010Y-102703411D01*
X109326525Y-102946632D01*
X109533368Y-103153475D01*
X109776589Y-103315990D01*
X110046842Y-103427932D01*
X110333740Y-103485000D01*
X110626260Y-103485000D01*
X110913158Y-103427932D01*
X111183411Y-103315990D01*
X111426632Y-103153475D01*
X111633475Y-102946632D01*
X111750000Y-102772240D01*
X111866525Y-102946632D01*
X112073368Y-103153475D01*
X112316589Y-103315990D01*
X112586842Y-103427932D01*
X112873740Y-103485000D01*
X113166260Y-103485000D01*
X113453158Y-103427932D01*
X113723411Y-103315990D01*
X113966632Y-103153475D01*
X114173475Y-102946632D01*
X114290000Y-102772240D01*
X114406525Y-102946632D01*
X114613368Y-103153475D01*
X114856589Y-103315990D01*
X115126842Y-103427932D01*
X115413740Y-103485000D01*
X115706260Y-103485000D01*
X115993158Y-103427932D01*
X116263411Y-103315990D01*
X116506632Y-103153475D01*
X116713475Y-102946632D01*
X116830000Y-102772240D01*
X116946525Y-102946632D01*
X117153368Y-103153475D01*
X117396589Y-103315990D01*
X117666842Y-103427932D01*
X117953740Y-103485000D01*
X118246260Y-103485000D01*
X118533158Y-103427932D01*
X118803411Y-103315990D01*
X119046632Y-103153475D01*
X119253475Y-102946632D01*
X119370000Y-102772240D01*
X119486525Y-102946632D01*
X119693368Y-103153475D01*
X119936589Y-103315990D01*
X120206842Y-103427932D01*
X120493740Y-103485000D01*
X120786260Y-103485000D01*
X121073158Y-103427932D01*
X121343411Y-103315990D01*
X121586632Y-103153475D01*
X121793475Y-102946632D01*
X121910000Y-102772240D01*
X122026525Y-102946632D01*
X122233368Y-103153475D01*
X122476589Y-103315990D01*
X122746842Y-103427932D01*
X123033740Y-103485000D01*
X123326260Y-103485000D01*
X123613158Y-103427932D01*
X123883411Y-103315990D01*
X124126632Y-103153475D01*
X124333475Y-102946632D01*
X124450000Y-102772240D01*
X124566525Y-102946632D01*
X124773368Y-103153475D01*
X125016589Y-103315990D01*
X125286842Y-103427932D01*
X125573740Y-103485000D01*
X125866260Y-103485000D01*
X126153158Y-103427932D01*
X126423411Y-103315990D01*
X126666632Y-103153475D01*
X126873475Y-102946632D01*
X126990000Y-102772240D01*
X127106525Y-102946632D01*
X127313368Y-103153475D01*
X127556589Y-103315990D01*
X127826842Y-103427932D01*
X128113740Y-103485000D01*
X128406260Y-103485000D01*
X128693158Y-103427932D01*
X128963411Y-103315990D01*
X129206632Y-103153475D01*
X129413475Y-102946632D01*
X129530000Y-102772240D01*
X129646525Y-102946632D01*
X129853368Y-103153475D01*
X130096589Y-103315990D01*
X130366842Y-103427932D01*
X130653740Y-103485000D01*
X130946260Y-103485000D01*
X131233158Y-103427932D01*
X131503411Y-103315990D01*
X131746632Y-103153475D01*
X131953475Y-102946632D01*
X132070000Y-102772240D01*
X132186525Y-102946632D01*
X132393368Y-103153475D01*
X132636589Y-103315990D01*
X132906842Y-103427932D01*
X133193740Y-103485000D01*
X133486260Y-103485000D01*
X133773158Y-103427932D01*
X134043411Y-103315990D01*
X134286632Y-103153475D01*
X134493475Y-102946632D01*
X134610000Y-102772240D01*
X134726525Y-102946632D01*
X134933368Y-103153475D01*
X135176589Y-103315990D01*
X135446842Y-103427932D01*
X135733740Y-103485000D01*
X136026260Y-103485000D01*
X136313158Y-103427932D01*
X136583411Y-103315990D01*
X136826632Y-103153475D01*
X137033475Y-102946632D01*
X137150000Y-102772240D01*
X137266525Y-102946632D01*
X137473368Y-103153475D01*
X137716589Y-103315990D01*
X137986842Y-103427932D01*
X138273740Y-103485000D01*
X138566260Y-103485000D01*
X138853158Y-103427932D01*
X139123411Y-103315990D01*
X139366632Y-103153475D01*
X139573475Y-102946632D01*
X139639355Y-102848035D01*
X139713889Y-102966516D01*
X139926391Y-103191049D01*
X140178614Y-103369810D01*
X140460865Y-103495930D01*
X140543922Y-103521121D01*
X140787000Y-103384483D01*
X140787000Y-102173000D01*
X140767000Y-102173000D01*
X140767000Y-101827000D01*
X140787000Y-101827000D01*
X140787000Y-100615517D01*
X141133000Y-100615517D01*
X141133000Y-101827000D01*
X141153000Y-101827000D01*
X141153000Y-102173000D01*
X141133000Y-102173000D01*
X141133000Y-103384483D01*
X141376078Y-103521121D01*
X141459135Y-103495930D01*
X141741386Y-103369810D01*
X141993609Y-103191049D01*
X142069445Y-103110919D01*
X142119463Y-103204494D01*
X142198815Y-103301185D01*
X142295506Y-103380537D01*
X142405820Y-103439502D01*
X142525518Y-103475812D01*
X142650000Y-103488072D01*
X144350000Y-103488072D01*
X144474482Y-103475812D01*
X144594180Y-103439502D01*
X144704494Y-103380537D01*
X144801185Y-103301185D01*
X144880537Y-103204494D01*
X144939502Y-103094180D01*
X144975812Y-102974482D01*
X144988072Y-102850000D01*
X144988072Y-101150000D01*
X144975812Y-101025518D01*
X144939502Y-100905820D01*
X144880537Y-100795506D01*
X144801185Y-100698815D01*
X144704494Y-100619463D01*
X144594180Y-100560498D01*
X144474482Y-100524188D01*
X144350000Y-100511928D01*
X142650000Y-100511928D01*
X142525518Y-100524188D01*
X142405820Y-100560498D01*
X142295506Y-100619463D01*
X142198815Y-100698815D01*
X142119463Y-100795506D01*
X142069445Y-100889081D01*
X141993609Y-100808951D01*
X141741386Y-100630190D01*
X141459135Y-100504070D01*
X141376078Y-100478879D01*
X141133000Y-100615517D01*
X140787000Y-100615517D01*
X140543922Y-100478879D01*
X140460865Y-100504070D01*
X140178614Y-100630190D01*
X139926391Y-100808951D01*
X139713889Y-101033484D01*
X139639355Y-101151965D01*
X139573475Y-101053368D01*
X139366632Y-100846525D01*
X139123411Y-100684010D01*
X138853158Y-100572068D01*
X138566260Y-100515000D01*
X138273740Y-100515000D01*
X137986842Y-100572068D01*
X137716589Y-100684010D01*
X137473368Y-100846525D01*
X137266525Y-101053368D01*
X137150000Y-101227760D01*
X137033475Y-101053368D01*
X136826632Y-100846525D01*
X136583411Y-100684010D01*
X136313158Y-100572068D01*
X136026260Y-100515000D01*
X135733740Y-100515000D01*
X135446842Y-100572068D01*
X135176589Y-100684010D01*
X134933368Y-100846525D01*
X134726525Y-101053368D01*
X134610000Y-101227760D01*
X134493475Y-101053368D01*
X134286632Y-100846525D01*
X134043411Y-100684010D01*
X133773158Y-100572068D01*
X133486260Y-100515000D01*
X133193740Y-100515000D01*
X132906842Y-100572068D01*
X132636589Y-100684010D01*
X132393368Y-100846525D01*
X132186525Y-101053368D01*
X132070000Y-101227760D01*
X131953475Y-101053368D01*
X131746632Y-100846525D01*
X131503411Y-100684010D01*
X131233158Y-100572068D01*
X130946260Y-100515000D01*
X130653740Y-100515000D01*
X130366842Y-100572068D01*
X130096589Y-100684010D01*
X129853368Y-100846525D01*
X129646525Y-101053368D01*
X129530000Y-101227760D01*
X129413475Y-101053368D01*
X129206632Y-100846525D01*
X128963411Y-100684010D01*
X128693158Y-100572068D01*
X128406260Y-100515000D01*
X128113740Y-100515000D01*
X127826842Y-100572068D01*
X127556589Y-100684010D01*
X127313368Y-100846525D01*
X127106525Y-101053368D01*
X126990000Y-101227760D01*
X126873475Y-101053368D01*
X126666632Y-100846525D01*
X126423411Y-100684010D01*
X126153158Y-100572068D01*
X125866260Y-100515000D01*
X125573740Y-100515000D01*
X125286842Y-100572068D01*
X125016589Y-100684010D01*
X124773368Y-100846525D01*
X124566525Y-101053368D01*
X124450000Y-101227760D01*
X124333475Y-101053368D01*
X124126632Y-100846525D01*
X123883411Y-100684010D01*
X123613158Y-100572068D01*
X123326260Y-100515000D01*
X123033740Y-100515000D01*
X122746842Y-100572068D01*
X122476589Y-100684010D01*
X122233368Y-100846525D01*
X122026525Y-101053368D01*
X121910000Y-101227760D01*
X121793475Y-101053368D01*
X121586632Y-100846525D01*
X121343411Y-100684010D01*
X121073158Y-100572068D01*
X120786260Y-100515000D01*
X120493740Y-100515000D01*
X120206842Y-100572068D01*
X119936589Y-100684010D01*
X119693368Y-100846525D01*
X119486525Y-101053368D01*
X119370000Y-101227760D01*
X119253475Y-101053368D01*
X119046632Y-100846525D01*
X118803411Y-100684010D01*
X118533158Y-100572068D01*
X118246260Y-100515000D01*
X117953740Y-100515000D01*
X117666842Y-100572068D01*
X117396589Y-100684010D01*
X117153368Y-100846525D01*
X116946525Y-101053368D01*
X116830000Y-101227760D01*
X116713475Y-101053368D01*
X116506632Y-100846525D01*
X116263411Y-100684010D01*
X115993158Y-100572068D01*
X115706260Y-100515000D01*
X115413740Y-100515000D01*
X115126842Y-100572068D01*
X114856589Y-100684010D01*
X114613368Y-100846525D01*
X114406525Y-101053368D01*
X114290000Y-101227760D01*
X114173475Y-101053368D01*
X113966632Y-100846525D01*
X113723411Y-100684010D01*
X113453158Y-100572068D01*
X113166260Y-100515000D01*
X112873740Y-100515000D01*
X112586842Y-100572068D01*
X112316589Y-100684010D01*
X112073368Y-100846525D01*
X111866525Y-101053368D01*
X111750000Y-101227760D01*
X111633475Y-101053368D01*
X111426632Y-100846525D01*
X111183411Y-100684010D01*
X110913158Y-100572068D01*
X110626260Y-100515000D01*
X110333740Y-100515000D01*
X110046842Y-100572068D01*
X109776589Y-100684010D01*
X109533368Y-100846525D01*
X109326525Y-101053368D01*
X109164010Y-101296589D01*
X109052068Y-101566842D01*
X108995000Y-101853740D01*
X107115108Y-101853740D01*
X106888535Y-101549216D01*
X106517799Y-100820032D01*
X106275221Y-100038807D01*
X106165081Y-99207805D01*
X106159870Y-98986687D01*
X106152932Y-98563465D01*
X106931194Y-98563465D01*
X107422608Y-99185897D01*
X108293564Y-99657063D01*
X109239704Y-99949260D01*
X110224669Y-100051261D01*
X111210607Y-99959145D01*
X112159631Y-99676451D01*
X113035268Y-99214044D01*
X113077392Y-99185897D01*
X113568806Y-98563465D01*
X113553402Y-98548061D01*
X122115000Y-98548061D01*
X122115000Y-98751939D01*
X122154774Y-98951898D01*
X122232795Y-99140256D01*
X122346063Y-99309774D01*
X122490226Y-99453937D01*
X122659744Y-99567205D01*
X122848102Y-99645226D01*
X123048061Y-99685000D01*
X123251939Y-99685000D01*
X123451898Y-99645226D01*
X123640256Y-99567205D01*
X123809774Y-99453937D01*
X123953937Y-99309774D01*
X124067205Y-99140256D01*
X124145226Y-98951898D01*
X124185000Y-98751939D01*
X124185000Y-98548061D01*
X124145226Y-98348102D01*
X124067205Y-98159744D01*
X123953937Y-97990226D01*
X123809774Y-97846063D01*
X123640256Y-97732795D01*
X123451898Y-97654774D01*
X123251939Y-97615000D01*
X123048061Y-97615000D01*
X122848102Y-97654774D01*
X122659744Y-97732795D01*
X122490226Y-97846063D01*
X122346063Y-97990226D01*
X122232795Y-98159744D01*
X122154774Y-98348102D01*
X122115000Y-98548061D01*
X113553402Y-98548061D01*
X110250000Y-95244659D01*
X106931194Y-98563465D01*
X106152932Y-98563465D01*
X106141871Y-97888791D01*
X106686535Y-98318806D01*
X110005341Y-95000000D01*
X110494659Y-95000000D01*
X113813465Y-98318806D01*
X114435897Y-97827392D01*
X114907063Y-96956436D01*
X115118110Y-96273061D01*
X121290000Y-96273061D01*
X121290000Y-96476939D01*
X121329774Y-96676898D01*
X121407795Y-96865256D01*
X121521063Y-97034774D01*
X121665226Y-97178937D01*
X121834744Y-97292205D01*
X122023102Y-97370226D01*
X122223061Y-97410000D01*
X122426939Y-97410000D01*
X122626898Y-97370226D01*
X122815256Y-97292205D01*
X122984774Y-97178937D01*
X123128937Y-97034774D01*
X123242205Y-96865256D01*
X123320226Y-96676898D01*
X123360000Y-96476939D01*
X123360000Y-96273061D01*
X123320226Y-96073102D01*
X123242205Y-95884744D01*
X123231156Y-95868207D01*
X143908574Y-95868207D01*
X143929759Y-95938071D01*
X144050892Y-96211813D01*
X144223102Y-96456663D01*
X144439771Y-96663212D01*
X144623421Y-96779671D01*
X144465241Y-96885363D01*
X144265363Y-97085241D01*
X144108320Y-97320273D01*
X144000147Y-97581426D01*
X143945000Y-97858665D01*
X143945000Y-98141335D01*
X144000147Y-98418574D01*
X144108320Y-98679727D01*
X144265363Y-98914759D01*
X144465241Y-99114637D01*
X144700273Y-99271680D01*
X144961426Y-99379853D01*
X145238665Y-99435000D01*
X145521335Y-99435000D01*
X145798574Y-99379853D01*
X146059727Y-99271680D01*
X146294759Y-99114637D01*
X146494637Y-98914759D01*
X146651680Y-98679727D01*
X146759853Y-98418574D01*
X146815000Y-98141335D01*
X146815000Y-97858665D01*
X146759853Y-97581426D01*
X146651680Y-97320273D01*
X146494637Y-97085241D01*
X146294759Y-96885363D01*
X146136579Y-96779671D01*
X146320229Y-96663212D01*
X146536898Y-96456663D01*
X146709108Y-96211813D01*
X146830241Y-95938071D01*
X146851426Y-95868207D01*
X146714080Y-95633000D01*
X145553000Y-95633000D01*
X145553000Y-95653000D01*
X145207000Y-95653000D01*
X145207000Y-95633000D01*
X144045920Y-95633000D01*
X143908574Y-95868207D01*
X123231156Y-95868207D01*
X123128937Y-95715226D01*
X122984774Y-95571063D01*
X122815256Y-95457795D01*
X122626898Y-95379774D01*
X122426939Y-95340000D01*
X122223061Y-95340000D01*
X122023102Y-95379774D01*
X121834744Y-95457795D01*
X121665226Y-95571063D01*
X121521063Y-95715226D01*
X121407795Y-95884744D01*
X121329774Y-96073102D01*
X121290000Y-96273061D01*
X115118110Y-96273061D01*
X115199260Y-96010296D01*
X115298520Y-95051793D01*
X143908574Y-95051793D01*
X144045920Y-95287000D01*
X145207000Y-95287000D01*
X145207000Y-94124575D01*
X145553000Y-94124575D01*
X145553000Y-95287000D01*
X146714080Y-95287000D01*
X146851426Y-95051793D01*
X146830241Y-94981929D01*
X146709108Y-94708187D01*
X146536898Y-94463337D01*
X146320229Y-94256788D01*
X146067428Y-94096478D01*
X145788209Y-93988567D01*
X145553000Y-94124575D01*
X145207000Y-94124575D01*
X144971791Y-93988567D01*
X144692572Y-94096478D01*
X144439771Y-94256788D01*
X144223102Y-94463337D01*
X144050892Y-94708187D01*
X143929759Y-94981929D01*
X143908574Y-95051793D01*
X115298520Y-95051793D01*
X115301261Y-95025331D01*
X115209145Y-94039393D01*
X114926451Y-93090369D01*
X114464044Y-92214732D01*
X114435897Y-92172608D01*
X113813465Y-91681194D01*
X110494659Y-95000000D01*
X110005341Y-95000000D01*
X106686535Y-91681194D01*
X106064103Y-92172608D01*
X106048632Y-92201206D01*
X106036097Y-91436535D01*
X106931194Y-91436535D01*
X110250000Y-94755341D01*
X113568806Y-91436535D01*
X113439743Y-91273061D01*
X117515000Y-91273061D01*
X117515000Y-91476939D01*
X117554774Y-91676898D01*
X117632795Y-91865256D01*
X117746063Y-92034774D01*
X117890226Y-92178937D01*
X118059744Y-92292205D01*
X118248102Y-92370226D01*
X118448061Y-92410000D01*
X118651939Y-92410000D01*
X118851898Y-92370226D01*
X118865000Y-92364799D01*
X118865000Y-92501939D01*
X118904774Y-92701898D01*
X118982795Y-92890256D01*
X119096063Y-93059774D01*
X119240226Y-93203937D01*
X119409744Y-93317205D01*
X119598102Y-93395226D01*
X119798061Y-93435000D01*
X120001939Y-93435000D01*
X120201898Y-93395226D01*
X120390256Y-93317205D01*
X120559774Y-93203937D01*
X120703937Y-93059774D01*
X120817205Y-92890256D01*
X120895226Y-92701898D01*
X120935000Y-92501939D01*
X120935000Y-92298061D01*
X120895226Y-92098102D01*
X120817205Y-91909744D01*
X120703937Y-91740226D01*
X120559774Y-91596063D01*
X120390256Y-91482795D01*
X120201898Y-91404774D01*
X120001939Y-91365000D01*
X119798061Y-91365000D01*
X119598102Y-91404774D01*
X119585000Y-91410201D01*
X119585000Y-91273061D01*
X119545226Y-91073102D01*
X119467205Y-90884744D01*
X119353937Y-90715226D01*
X119209774Y-90571063D01*
X119040256Y-90457795D01*
X118851898Y-90379774D01*
X118651939Y-90340000D01*
X118448061Y-90340000D01*
X118248102Y-90379774D01*
X118059744Y-90457795D01*
X117890226Y-90571063D01*
X117746063Y-90715226D01*
X117632795Y-90884744D01*
X117554774Y-91073102D01*
X117515000Y-91273061D01*
X113439743Y-91273061D01*
X113077392Y-90814103D01*
X112206436Y-90342937D01*
X111260296Y-90050740D01*
X110275331Y-89948739D01*
X109289393Y-90040855D01*
X108340369Y-90323549D01*
X107464732Y-90785956D01*
X107422608Y-90814103D01*
X106931194Y-91436535D01*
X106036097Y-91436535D01*
X105986287Y-88398061D01*
X118215000Y-88398061D01*
X118215000Y-88601939D01*
X118254774Y-88801898D01*
X118332795Y-88990256D01*
X118446063Y-89159774D01*
X118590226Y-89303937D01*
X118759744Y-89417205D01*
X118948102Y-89495226D01*
X119148061Y-89535000D01*
X119351939Y-89535000D01*
X119551898Y-89495226D01*
X119740256Y-89417205D01*
X119909774Y-89303937D01*
X120053937Y-89159774D01*
X120167205Y-88990256D01*
X120245226Y-88801898D01*
X120285000Y-88601939D01*
X120285000Y-88398061D01*
X120245226Y-88198102D01*
X120167205Y-88009744D01*
X120053937Y-87840226D01*
X119909774Y-87696063D01*
X119740256Y-87582795D01*
X119551898Y-87504774D01*
X119351939Y-87465000D01*
X119148061Y-87465000D01*
X118948102Y-87504774D01*
X118759744Y-87582795D01*
X118590226Y-87696063D01*
X118446063Y-87840226D01*
X118332795Y-88009744D01*
X118254774Y-88198102D01*
X118215000Y-88398061D01*
X105986287Y-88398061D01*
X105937107Y-85398061D01*
X121990000Y-85398061D01*
X121990000Y-85601939D01*
X122029774Y-85801898D01*
X122107795Y-85990256D01*
X122221063Y-86159774D01*
X122365226Y-86303937D01*
X122534744Y-86417205D01*
X122723102Y-86495226D01*
X122923061Y-86535000D01*
X123105912Y-86535000D01*
X123079774Y-86598102D01*
X123040000Y-86798061D01*
X123040000Y-87001939D01*
X123079774Y-87201898D01*
X123157795Y-87390256D01*
X123271063Y-87559774D01*
X123415226Y-87703937D01*
X123584744Y-87817205D01*
X123708179Y-87868334D01*
X123729774Y-87976898D01*
X123807795Y-88165256D01*
X123921063Y-88334774D01*
X124065226Y-88478937D01*
X124140000Y-88528899D01*
X124140000Y-88676939D01*
X124179774Y-88876898D01*
X124257795Y-89065256D01*
X124371063Y-89234774D01*
X124515226Y-89378937D01*
X124684744Y-89492205D01*
X124873102Y-89570226D01*
X125073061Y-89610000D01*
X125108130Y-89610000D01*
X125182795Y-89790256D01*
X125296063Y-89959774D01*
X125440226Y-90103937D01*
X125609744Y-90217205D01*
X125798102Y-90295226D01*
X125998061Y-90335000D01*
X126201939Y-90335000D01*
X126401898Y-90295226D01*
X126590256Y-90217205D01*
X126759774Y-90103937D01*
X126903937Y-89959774D01*
X127017205Y-89790256D01*
X127095226Y-89601898D01*
X127135000Y-89401939D01*
X127135000Y-89198061D01*
X127095226Y-88998102D01*
X127017205Y-88809744D01*
X126903937Y-88640226D01*
X126759774Y-88496063D01*
X126590256Y-88382795D01*
X126401898Y-88304774D01*
X126201939Y-88265000D01*
X126166870Y-88265000D01*
X126092205Y-88084744D01*
X125978937Y-87915226D01*
X125834774Y-87771063D01*
X125760000Y-87721101D01*
X125760000Y-87573061D01*
X125720226Y-87373102D01*
X125642205Y-87184744D01*
X125528937Y-87015226D01*
X125384774Y-86871063D01*
X125215256Y-86757795D01*
X125091821Y-86706666D01*
X125070226Y-86598102D01*
X124992205Y-86409744D01*
X124878937Y-86240226D01*
X124734774Y-86096063D01*
X124565256Y-85982795D01*
X124376898Y-85904774D01*
X124176939Y-85865000D01*
X123994088Y-85865000D01*
X124020226Y-85801898D01*
X124060000Y-85601939D01*
X124060000Y-85398061D01*
X124020226Y-85198102D01*
X123942205Y-85009744D01*
X123828937Y-84840226D01*
X123736772Y-84748061D01*
X132215000Y-84748061D01*
X132215000Y-84951939D01*
X132254774Y-85151898D01*
X132332795Y-85340256D01*
X132446063Y-85509774D01*
X132590226Y-85653937D01*
X132759744Y-85767205D01*
X132948102Y-85845226D01*
X133148061Y-85885000D01*
X133351939Y-85885000D01*
X133551898Y-85845226D01*
X133740256Y-85767205D01*
X133909774Y-85653937D01*
X134053937Y-85509774D01*
X134111876Y-85423061D01*
X138340000Y-85423061D01*
X138340000Y-85626939D01*
X138379774Y-85826898D01*
X138457795Y-86015256D01*
X138571063Y-86184774D01*
X138715226Y-86328937D01*
X138884744Y-86442205D01*
X139073102Y-86520226D01*
X139273061Y-86560000D01*
X139476939Y-86560000D01*
X139676898Y-86520226D01*
X139865256Y-86442205D01*
X140034774Y-86328937D01*
X140178937Y-86184774D01*
X140292205Y-86015256D01*
X140370226Y-85826898D01*
X140410000Y-85626939D01*
X140410000Y-85423061D01*
X140370226Y-85223102D01*
X140292205Y-85034744D01*
X140178937Y-84865226D01*
X140034774Y-84721063D01*
X139865256Y-84607795D01*
X139676898Y-84529774D01*
X139476939Y-84490000D01*
X139273061Y-84490000D01*
X139073102Y-84529774D01*
X138884744Y-84607795D01*
X138715226Y-84721063D01*
X138571063Y-84865226D01*
X138457795Y-85034744D01*
X138379774Y-85223102D01*
X138340000Y-85423061D01*
X134111876Y-85423061D01*
X134167205Y-85340256D01*
X134245226Y-85151898D01*
X134285000Y-84951939D01*
X134285000Y-84748061D01*
X134245226Y-84548102D01*
X134167205Y-84359744D01*
X134053937Y-84190226D01*
X133909774Y-84046063D01*
X133740256Y-83932795D01*
X133551898Y-83854774D01*
X133351939Y-83815000D01*
X133148061Y-83815000D01*
X132948102Y-83854774D01*
X132759744Y-83932795D01*
X132590226Y-84046063D01*
X132446063Y-84190226D01*
X132332795Y-84359744D01*
X132254774Y-84548102D01*
X132215000Y-84748061D01*
X123736772Y-84748061D01*
X123684774Y-84696063D01*
X123515256Y-84582795D01*
X123326898Y-84504774D01*
X123126939Y-84465000D01*
X122923061Y-84465000D01*
X122723102Y-84504774D01*
X122534744Y-84582795D01*
X122365226Y-84696063D01*
X122221063Y-84840226D01*
X122107795Y-85009744D01*
X122029774Y-85198102D01*
X121990000Y-85398061D01*
X105937107Y-85398061D01*
X105889566Y-82498061D01*
X121215000Y-82498061D01*
X121215000Y-82701939D01*
X121254774Y-82901898D01*
X121332795Y-83090256D01*
X121446063Y-83259774D01*
X121590226Y-83403937D01*
X121759744Y-83517205D01*
X121948102Y-83595226D01*
X122148061Y-83635000D01*
X122351939Y-83635000D01*
X122551898Y-83595226D01*
X122740256Y-83517205D01*
X122909774Y-83403937D01*
X123053937Y-83259774D01*
X123167205Y-83090256D01*
X123245226Y-82901898D01*
X123285000Y-82701939D01*
X123285000Y-82498061D01*
X123245226Y-82298102D01*
X123167205Y-82109744D01*
X123053937Y-81940226D01*
X122936772Y-81823061D01*
X134140000Y-81823061D01*
X134140000Y-82026939D01*
X134179774Y-82226898D01*
X134257795Y-82415256D01*
X134371063Y-82584774D01*
X134515226Y-82728937D01*
X134684744Y-82842205D01*
X134873102Y-82920226D01*
X135073061Y-82960000D01*
X135276939Y-82960000D01*
X135476898Y-82920226D01*
X135665256Y-82842205D01*
X135834774Y-82728937D01*
X135978937Y-82584774D01*
X136092205Y-82415256D01*
X136170226Y-82226898D01*
X136210000Y-82026939D01*
X136210000Y-81823061D01*
X136170226Y-81623102D01*
X136092205Y-81434744D01*
X135978937Y-81265226D01*
X135834774Y-81121063D01*
X135665256Y-81007795D01*
X135476898Y-80929774D01*
X135276939Y-80890000D01*
X135073061Y-80890000D01*
X134873102Y-80929774D01*
X134684744Y-81007795D01*
X134515226Y-81121063D01*
X134371063Y-81265226D01*
X134257795Y-81434744D01*
X134179774Y-81623102D01*
X134140000Y-81823061D01*
X122936772Y-81823061D01*
X122909774Y-81796063D01*
X122740256Y-81682795D01*
X122551898Y-81604774D01*
X122351939Y-81565000D01*
X122148061Y-81565000D01*
X121948102Y-81604774D01*
X121759744Y-81682795D01*
X121590226Y-81796063D01*
X121446063Y-81940226D01*
X121332795Y-82109744D01*
X121254774Y-82298102D01*
X121215000Y-82498061D01*
X105889566Y-82498061D01*
X105805171Y-77350000D01*
X109919482Y-77350000D01*
X109933519Y-77492517D01*
X109975089Y-77629557D01*
X110042596Y-77755854D01*
X110133446Y-77866554D01*
X110244146Y-77957404D01*
X110370443Y-78024911D01*
X110404616Y-78035277D01*
X110346525Y-78093368D01*
X110184010Y-78336589D01*
X110072068Y-78606842D01*
X110015000Y-78893740D01*
X110015000Y-79186260D01*
X110072068Y-79473158D01*
X110184010Y-79743411D01*
X110346525Y-79986632D01*
X110553368Y-80193475D01*
X110796589Y-80355990D01*
X111066842Y-80467932D01*
X111353740Y-80525000D01*
X111646260Y-80525000D01*
X111933158Y-80467932D01*
X112203411Y-80355990D01*
X112446632Y-80193475D01*
X112653475Y-79986632D01*
X112815990Y-79743411D01*
X112876195Y-79598061D01*
X113465000Y-79598061D01*
X113465000Y-79801939D01*
X113504774Y-80001898D01*
X113582795Y-80190256D01*
X113696063Y-80359774D01*
X113840226Y-80503937D01*
X114009744Y-80617205D01*
X114198102Y-80695226D01*
X114398061Y-80735000D01*
X114601939Y-80735000D01*
X114801898Y-80695226D01*
X114990256Y-80617205D01*
X115159774Y-80503937D01*
X115303937Y-80359774D01*
X115417205Y-80190256D01*
X115495226Y-80001898D01*
X115535000Y-79801939D01*
X115535000Y-79598061D01*
X115495226Y-79398102D01*
X115417205Y-79209744D01*
X115303937Y-79040226D01*
X115159774Y-78896063D01*
X114990256Y-78782795D01*
X114801898Y-78704774D01*
X114601939Y-78665000D01*
X114398061Y-78665000D01*
X114198102Y-78704774D01*
X114009744Y-78782795D01*
X113840226Y-78896063D01*
X113696063Y-79040226D01*
X113582795Y-79209744D01*
X113504774Y-79398102D01*
X113465000Y-79598061D01*
X112876195Y-79598061D01*
X112927932Y-79473158D01*
X112985000Y-79186260D01*
X112985000Y-78893740D01*
X112927932Y-78606842D01*
X112815990Y-78336589D01*
X112706725Y-78173061D01*
X131440000Y-78173061D01*
X131440000Y-78376939D01*
X131479774Y-78576898D01*
X131557795Y-78765256D01*
X131671063Y-78934774D01*
X131815226Y-79078937D01*
X131984744Y-79192205D01*
X132173102Y-79270226D01*
X132373061Y-79310000D01*
X132576939Y-79310000D01*
X132776898Y-79270226D01*
X132965256Y-79192205D01*
X132981292Y-79181490D01*
X133034744Y-79217205D01*
X133223102Y-79295226D01*
X133423061Y-79335000D01*
X133626939Y-79335000D01*
X133826898Y-79295226D01*
X134015256Y-79217205D01*
X134184774Y-79103937D01*
X134328937Y-78959774D01*
X134399786Y-78853740D01*
X134895000Y-78853740D01*
X134895000Y-79146260D01*
X134952068Y-79433158D01*
X135064010Y-79703411D01*
X135226525Y-79946632D01*
X135433368Y-80153475D01*
X135676589Y-80315990D01*
X135946842Y-80427932D01*
X136233740Y-80485000D01*
X136526260Y-80485000D01*
X136813158Y-80427932D01*
X137083411Y-80315990D01*
X137326632Y-80153475D01*
X137533475Y-79946632D01*
X137650000Y-79772240D01*
X137766525Y-79946632D01*
X137973368Y-80153475D01*
X138216589Y-80315990D01*
X138486842Y-80427932D01*
X138773740Y-80485000D01*
X139066260Y-80485000D01*
X139353158Y-80427932D01*
X139623411Y-80315990D01*
X139866632Y-80153475D01*
X140073475Y-79946632D01*
X140190000Y-79772240D01*
X140306525Y-79946632D01*
X140513368Y-80153475D01*
X140756589Y-80315990D01*
X141026842Y-80427932D01*
X141313740Y-80485000D01*
X141606260Y-80485000D01*
X141893158Y-80427932D01*
X142163411Y-80315990D01*
X142406632Y-80153475D01*
X142464723Y-80095384D01*
X142475089Y-80129557D01*
X142542596Y-80255854D01*
X142633446Y-80366554D01*
X142744146Y-80457404D01*
X142870443Y-80524911D01*
X143007483Y-80566481D01*
X143150000Y-80580518D01*
X143645250Y-80577000D01*
X143827000Y-80395250D01*
X143827000Y-79173000D01*
X144173000Y-79173000D01*
X144173000Y-80395250D01*
X144354750Y-80577000D01*
X144850000Y-80580518D01*
X144992517Y-80566481D01*
X145129557Y-80524911D01*
X145255854Y-80457404D01*
X145366554Y-80366554D01*
X145457404Y-80255854D01*
X145524911Y-80129557D01*
X145566481Y-79992517D01*
X145580518Y-79850000D01*
X145577000Y-79354750D01*
X145395250Y-79173000D01*
X144173000Y-79173000D01*
X143827000Y-79173000D01*
X143807000Y-79173000D01*
X143807000Y-78827000D01*
X143827000Y-78827000D01*
X143827000Y-77604750D01*
X144173000Y-77604750D01*
X144173000Y-78827000D01*
X145395250Y-78827000D01*
X145577000Y-78645250D01*
X145580518Y-78150000D01*
X145566481Y-78007483D01*
X145524911Y-77870443D01*
X145457404Y-77744146D01*
X145366554Y-77633446D01*
X145255854Y-77542596D01*
X145129557Y-77475089D01*
X144992517Y-77433519D01*
X144850000Y-77419482D01*
X144354750Y-77423000D01*
X144173000Y-77604750D01*
X143827000Y-77604750D01*
X143645250Y-77423000D01*
X143150000Y-77419482D01*
X143007483Y-77433519D01*
X142870443Y-77475089D01*
X142744146Y-77542596D01*
X142633446Y-77633446D01*
X142542596Y-77744146D01*
X142475089Y-77870443D01*
X142464723Y-77904616D01*
X142406632Y-77846525D01*
X142163411Y-77684010D01*
X141893158Y-77572068D01*
X141606260Y-77515000D01*
X141313740Y-77515000D01*
X141026842Y-77572068D01*
X140756589Y-77684010D01*
X140513368Y-77846525D01*
X140306525Y-78053368D01*
X140190000Y-78227760D01*
X140073475Y-78053368D01*
X139866632Y-77846525D01*
X139623411Y-77684010D01*
X139353158Y-77572068D01*
X139066260Y-77515000D01*
X138773740Y-77515000D01*
X138486842Y-77572068D01*
X138216589Y-77684010D01*
X137973368Y-77846525D01*
X137766525Y-78053368D01*
X137650000Y-78227760D01*
X137533475Y-78053368D01*
X137326632Y-77846525D01*
X137083411Y-77684010D01*
X136813158Y-77572068D01*
X136526260Y-77515000D01*
X136233740Y-77515000D01*
X135946842Y-77572068D01*
X135676589Y-77684010D01*
X135433368Y-77846525D01*
X135226525Y-78053368D01*
X135064010Y-78296589D01*
X134952068Y-78566842D01*
X134895000Y-78853740D01*
X134399786Y-78853740D01*
X134442205Y-78790256D01*
X134520226Y-78601898D01*
X134560000Y-78401939D01*
X134560000Y-78198061D01*
X134520226Y-77998102D01*
X134442205Y-77809744D01*
X134328937Y-77640226D01*
X134184774Y-77496063D01*
X134015256Y-77382795D01*
X133826898Y-77304774D01*
X133626939Y-77265000D01*
X133423061Y-77265000D01*
X133223102Y-77304774D01*
X133034744Y-77382795D01*
X133018708Y-77393510D01*
X132965256Y-77357795D01*
X132776898Y-77279774D01*
X132576939Y-77240000D01*
X132373061Y-77240000D01*
X132173102Y-77279774D01*
X131984744Y-77357795D01*
X131815226Y-77471063D01*
X131671063Y-77615226D01*
X131557795Y-77784744D01*
X131479774Y-77973102D01*
X131440000Y-78173061D01*
X112706725Y-78173061D01*
X112653475Y-78093368D01*
X112595384Y-78035277D01*
X112629557Y-78024911D01*
X112755854Y-77957404D01*
X112866554Y-77866554D01*
X112957404Y-77755854D01*
X113024911Y-77629557D01*
X113066481Y-77492517D01*
X113080518Y-77350000D01*
X113077663Y-76948061D01*
X122740000Y-76948061D01*
X122740000Y-77151939D01*
X122779774Y-77351898D01*
X122857795Y-77540256D01*
X122971063Y-77709774D01*
X123115226Y-77853937D01*
X123284744Y-77967205D01*
X123473102Y-78045226D01*
X123673061Y-78085000D01*
X123876939Y-78085000D01*
X124076898Y-78045226D01*
X124265256Y-77967205D01*
X124434774Y-77853937D01*
X124578937Y-77709774D01*
X124692205Y-77540256D01*
X124770226Y-77351898D01*
X124810000Y-77151939D01*
X124810000Y-76948061D01*
X124770226Y-76748102D01*
X124692205Y-76559744D01*
X124578937Y-76390226D01*
X124434774Y-76246063D01*
X124265256Y-76132795D01*
X124076898Y-76054774D01*
X123876939Y-76015000D01*
X123673061Y-76015000D01*
X123473102Y-76054774D01*
X123284744Y-76132795D01*
X123115226Y-76246063D01*
X122971063Y-76390226D01*
X122857795Y-76559744D01*
X122779774Y-76748102D01*
X122740000Y-76948061D01*
X113077663Y-76948061D01*
X113077000Y-76854750D01*
X112895250Y-76673000D01*
X111673000Y-76673000D01*
X111673000Y-76693000D01*
X111327000Y-76693000D01*
X111327000Y-76673000D01*
X110104750Y-76673000D01*
X109923000Y-76854750D01*
X109919482Y-77350000D01*
X105805171Y-77350000D01*
X105777302Y-75650000D01*
X109919482Y-75650000D01*
X109923000Y-76145250D01*
X110104750Y-76327000D01*
X111327000Y-76327000D01*
X111327000Y-75104750D01*
X111673000Y-75104750D01*
X111673000Y-76327000D01*
X112895250Y-76327000D01*
X113077000Y-76145250D01*
X113080518Y-75650000D01*
X113066481Y-75507483D01*
X113024911Y-75370443D01*
X112957404Y-75244146D01*
X112866554Y-75133446D01*
X112755854Y-75042596D01*
X112629557Y-74975089D01*
X112492517Y-74933519D01*
X112350000Y-74919482D01*
X111854750Y-74923000D01*
X111673000Y-75104750D01*
X111327000Y-75104750D01*
X111145250Y-74923000D01*
X110650000Y-74919482D01*
X110507483Y-74933519D01*
X110370443Y-74975089D01*
X110244146Y-75042596D01*
X110133446Y-75133446D01*
X110042596Y-75244146D01*
X109975089Y-75370443D01*
X109933519Y-75507483D01*
X109919482Y-75650000D01*
X105777302Y-75650000D01*
X105762107Y-74723061D01*
X133390000Y-74723061D01*
X133390000Y-74926939D01*
X133429774Y-75126898D01*
X133507795Y-75315256D01*
X133621063Y-75484774D01*
X133765226Y-75628937D01*
X133934744Y-75742205D01*
X134123102Y-75820226D01*
X134323061Y-75860000D01*
X134526939Y-75860000D01*
X134726898Y-75820226D01*
X134915256Y-75742205D01*
X135084774Y-75628937D01*
X135228937Y-75484774D01*
X135342205Y-75315256D01*
X135420226Y-75126898D01*
X135460000Y-74926939D01*
X135460000Y-74723061D01*
X135420226Y-74523102D01*
X135342205Y-74334744D01*
X135228937Y-74165226D01*
X135084774Y-74021063D01*
X134915256Y-73907795D01*
X134726898Y-73829774D01*
X134526939Y-73790000D01*
X134323061Y-73790000D01*
X134123102Y-73829774D01*
X133934744Y-73907795D01*
X133765226Y-74021063D01*
X133621063Y-74165226D01*
X133507795Y-74334744D01*
X133429774Y-74523102D01*
X133390000Y-74723061D01*
X105762107Y-74723061D01*
X105710309Y-71563465D01*
X106681194Y-71563465D01*
X107172608Y-72185897D01*
X108043564Y-72657063D01*
X108989704Y-72949260D01*
X109974669Y-73051261D01*
X110960607Y-72959145D01*
X111909631Y-72676451D01*
X112785268Y-72214044D01*
X112827392Y-72185897D01*
X113318806Y-71563465D01*
X110000000Y-68244659D01*
X106681194Y-71563465D01*
X105710309Y-71563465D01*
X105694719Y-70612497D01*
X105785956Y-70785268D01*
X105814103Y-70827392D01*
X106436535Y-71318806D01*
X109755341Y-68000000D01*
X110244659Y-68000000D01*
X113563465Y-71318806D01*
X113716402Y-71198061D01*
X124965000Y-71198061D01*
X124965000Y-71401939D01*
X125004774Y-71601898D01*
X125082795Y-71790256D01*
X125196063Y-71959774D01*
X125340226Y-72103937D01*
X125509744Y-72217205D01*
X125698102Y-72295226D01*
X125898061Y-72335000D01*
X126101939Y-72335000D01*
X126301898Y-72295226D01*
X126490256Y-72217205D01*
X126659774Y-72103937D01*
X126803937Y-71959774D01*
X126845172Y-71898061D01*
X130165000Y-71898061D01*
X130165000Y-72101939D01*
X130204774Y-72301898D01*
X130282795Y-72490256D01*
X130396063Y-72659774D01*
X130540226Y-72803937D01*
X130709744Y-72917205D01*
X130898102Y-72995226D01*
X131098061Y-73035000D01*
X131301939Y-73035000D01*
X131501898Y-72995226D01*
X131690256Y-72917205D01*
X131859774Y-72803937D01*
X131897760Y-72765951D01*
X131929774Y-72926898D01*
X132007795Y-73115256D01*
X132121063Y-73284774D01*
X132265226Y-73428937D01*
X132434744Y-73542205D01*
X132623102Y-73620226D01*
X132823061Y-73660000D01*
X133026939Y-73660000D01*
X133226898Y-73620226D01*
X133415256Y-73542205D01*
X133584774Y-73428937D01*
X133728937Y-73284774D01*
X133842205Y-73115256D01*
X133920226Y-72926898D01*
X133960000Y-72726939D01*
X133960000Y-72523061D01*
X133940109Y-72423061D01*
X141015000Y-72423061D01*
X141015000Y-72626939D01*
X141054774Y-72826898D01*
X141132795Y-73015256D01*
X141246063Y-73184774D01*
X141390226Y-73328937D01*
X141559744Y-73442205D01*
X141748102Y-73520226D01*
X141948061Y-73560000D01*
X142151939Y-73560000D01*
X142351898Y-73520226D01*
X142540256Y-73442205D01*
X142709774Y-73328937D01*
X142853937Y-73184774D01*
X142967205Y-73015256D01*
X143045226Y-72826898D01*
X143085000Y-72626939D01*
X143085000Y-72423061D01*
X143045226Y-72223102D01*
X142967205Y-72034744D01*
X142853937Y-71865226D01*
X142709774Y-71721063D01*
X142540256Y-71607795D01*
X142351898Y-71529774D01*
X142151939Y-71490000D01*
X141948061Y-71490000D01*
X141748102Y-71529774D01*
X141559744Y-71607795D01*
X141390226Y-71721063D01*
X141246063Y-71865226D01*
X141132795Y-72034744D01*
X141054774Y-72223102D01*
X141015000Y-72423061D01*
X133940109Y-72423061D01*
X133920226Y-72323102D01*
X133842205Y-72134744D01*
X133728937Y-71965226D01*
X133584774Y-71821063D01*
X133415256Y-71707795D01*
X133226898Y-71629774D01*
X133026939Y-71590000D01*
X132823061Y-71590000D01*
X132623102Y-71629774D01*
X132434744Y-71707795D01*
X132265226Y-71821063D01*
X132227240Y-71859049D01*
X132195226Y-71698102D01*
X132117205Y-71509744D01*
X132003937Y-71340226D01*
X131859774Y-71196063D01*
X131690256Y-71082795D01*
X131501898Y-71004774D01*
X131301939Y-70965000D01*
X131098061Y-70965000D01*
X130898102Y-71004774D01*
X130709744Y-71082795D01*
X130540226Y-71196063D01*
X130396063Y-71340226D01*
X130282795Y-71509744D01*
X130204774Y-71698102D01*
X130165000Y-71898061D01*
X126845172Y-71898061D01*
X126917205Y-71790256D01*
X126995226Y-71601898D01*
X127035000Y-71401939D01*
X127035000Y-71198061D01*
X126995226Y-70998102D01*
X126917205Y-70809744D01*
X126803937Y-70640226D01*
X126659774Y-70496063D01*
X126490256Y-70382795D01*
X126301898Y-70304774D01*
X126101939Y-70265000D01*
X125898061Y-70265000D01*
X125698102Y-70304774D01*
X125509744Y-70382795D01*
X125340226Y-70496063D01*
X125196063Y-70640226D01*
X125082795Y-70809744D01*
X125004774Y-70998102D01*
X124965000Y-71198061D01*
X113716402Y-71198061D01*
X114185897Y-70827392D01*
X114648069Y-69973061D01*
X117190000Y-69973061D01*
X117190000Y-70176939D01*
X117229774Y-70376898D01*
X117307795Y-70565256D01*
X117421063Y-70734774D01*
X117565226Y-70878937D01*
X117734744Y-70992205D01*
X117923102Y-71070226D01*
X118123061Y-71110000D01*
X118326939Y-71110000D01*
X118526898Y-71070226D01*
X118715256Y-70992205D01*
X118884774Y-70878937D01*
X119028937Y-70734774D01*
X119142205Y-70565256D01*
X119220226Y-70376898D01*
X119260000Y-70176939D01*
X119260000Y-70023061D01*
X133315000Y-70023061D01*
X133315000Y-70226939D01*
X133354774Y-70426898D01*
X133432795Y-70615256D01*
X133546063Y-70784774D01*
X133690226Y-70928937D01*
X133859744Y-71042205D01*
X134048102Y-71120226D01*
X134248061Y-71160000D01*
X134451939Y-71160000D01*
X134651898Y-71120226D01*
X134840256Y-71042205D01*
X135009774Y-70928937D01*
X135153937Y-70784774D01*
X135267205Y-70615256D01*
X135345226Y-70426898D01*
X135385000Y-70226939D01*
X135385000Y-70023061D01*
X135345226Y-69823102D01*
X135267205Y-69634744D01*
X135153937Y-69465226D01*
X135009774Y-69321063D01*
X134840256Y-69207795D01*
X134651898Y-69129774D01*
X134451939Y-69090000D01*
X134248061Y-69090000D01*
X134048102Y-69129774D01*
X133859744Y-69207795D01*
X133690226Y-69321063D01*
X133546063Y-69465226D01*
X133432795Y-69634744D01*
X133354774Y-69823102D01*
X133315000Y-70023061D01*
X119260000Y-70023061D01*
X119260000Y-69973061D01*
X119220226Y-69773102D01*
X119142205Y-69584744D01*
X119028937Y-69415226D01*
X118884774Y-69271063D01*
X118715256Y-69157795D01*
X118526898Y-69079774D01*
X118326939Y-69040000D01*
X118123061Y-69040000D01*
X117923102Y-69079774D01*
X117734744Y-69157795D01*
X117565226Y-69271063D01*
X117421063Y-69415226D01*
X117307795Y-69584744D01*
X117229774Y-69773102D01*
X117190000Y-69973061D01*
X114648069Y-69973061D01*
X114657063Y-69956436D01*
X114949260Y-69010296D01*
X115051261Y-68025331D01*
X114959145Y-67039393D01*
X114676451Y-66090369D01*
X114214044Y-65214732D01*
X114185897Y-65172608D01*
X114157262Y-65150000D01*
X118511928Y-65150000D01*
X118511928Y-66850000D01*
X118524188Y-66974482D01*
X118560498Y-67094180D01*
X118619463Y-67204494D01*
X118698815Y-67301185D01*
X118795506Y-67380537D01*
X118905820Y-67439502D01*
X119025518Y-67475812D01*
X119150000Y-67488072D01*
X120850000Y-67488072D01*
X120974482Y-67475812D01*
X121094180Y-67439502D01*
X121204494Y-67380537D01*
X121301185Y-67301185D01*
X121380537Y-67204494D01*
X121439502Y-67094180D01*
X121461513Y-67021620D01*
X121593368Y-67153475D01*
X121836589Y-67315990D01*
X122106842Y-67427932D01*
X122393740Y-67485000D01*
X122686260Y-67485000D01*
X122973158Y-67427932D01*
X123243411Y-67315990D01*
X123486632Y-67153475D01*
X123693475Y-66946632D01*
X123759355Y-66848035D01*
X123833889Y-66966516D01*
X124046391Y-67191049D01*
X124298614Y-67369810D01*
X124580865Y-67495930D01*
X124663922Y-67521121D01*
X124907000Y-67384483D01*
X124907000Y-66173000D01*
X125253000Y-66173000D01*
X125253000Y-67384483D01*
X125496078Y-67521121D01*
X125579135Y-67495930D01*
X125861386Y-67369810D01*
X126113609Y-67191049D01*
X126326111Y-66966516D01*
X126490725Y-66704841D01*
X126601126Y-66416079D01*
X126465738Y-66173000D01*
X125253000Y-66173000D01*
X124907000Y-66173000D01*
X124887000Y-66173000D01*
X124887000Y-65853740D01*
X128395000Y-65853740D01*
X128395000Y-66146260D01*
X128452068Y-66433158D01*
X128564010Y-66703411D01*
X128726525Y-66946632D01*
X128933368Y-67153475D01*
X129176589Y-67315990D01*
X129446842Y-67427932D01*
X129733740Y-67485000D01*
X130026260Y-67485000D01*
X130313158Y-67427932D01*
X130583411Y-67315990D01*
X130826632Y-67153475D01*
X131033475Y-66946632D01*
X131150000Y-66772240D01*
X131266525Y-66946632D01*
X131473368Y-67153475D01*
X131716589Y-67315990D01*
X131986842Y-67427932D01*
X132273740Y-67485000D01*
X132566260Y-67485000D01*
X132853158Y-67427932D01*
X133123411Y-67315990D01*
X133366632Y-67153475D01*
X133573475Y-66946632D01*
X133639355Y-66848035D01*
X133713889Y-66966516D01*
X133926391Y-67191049D01*
X134178614Y-67369810D01*
X134460865Y-67495930D01*
X134543922Y-67521121D01*
X134787000Y-67384483D01*
X134787000Y-66173000D01*
X134767000Y-66173000D01*
X134767000Y-65827000D01*
X134787000Y-65827000D01*
X134787000Y-64615517D01*
X135133000Y-64615517D01*
X135133000Y-65827000D01*
X135153000Y-65827000D01*
X135153000Y-66173000D01*
X135133000Y-66173000D01*
X135133000Y-67384483D01*
X135376078Y-67521121D01*
X135459135Y-67495930D01*
X135741386Y-67369810D01*
X135993609Y-67191049D01*
X136069445Y-67110919D01*
X136119463Y-67204494D01*
X136198815Y-67301185D01*
X136295506Y-67380537D01*
X136405820Y-67439502D01*
X136525518Y-67475812D01*
X136650000Y-67488072D01*
X138350000Y-67488072D01*
X138474482Y-67475812D01*
X138594180Y-67439502D01*
X138704494Y-67380537D01*
X138801185Y-67301185D01*
X138880537Y-67204494D01*
X138939502Y-67094180D01*
X138975812Y-66974482D01*
X138988072Y-66850000D01*
X138988072Y-66399131D01*
X147716524Y-66399131D01*
X147772055Y-66764675D01*
X147897832Y-67112360D01*
X147978873Y-67263977D01*
X148278750Y-67376591D01*
X149355341Y-66300000D01*
X148278750Y-65223409D01*
X147978873Y-65336023D01*
X147821959Y-65670811D01*
X147733375Y-66029779D01*
X147716524Y-66399131D01*
X138988072Y-66399131D01*
X138988072Y-65150000D01*
X138975812Y-65025518D01*
X138939502Y-64905820D01*
X138880537Y-64795506D01*
X138801185Y-64698815D01*
X138704494Y-64619463D01*
X138594180Y-64560498D01*
X138474482Y-64524188D01*
X138350000Y-64511928D01*
X136650000Y-64511928D01*
X136525518Y-64524188D01*
X136405820Y-64560498D01*
X136295506Y-64619463D01*
X136198815Y-64698815D01*
X136119463Y-64795506D01*
X136069445Y-64889081D01*
X135993609Y-64808951D01*
X135741386Y-64630190D01*
X135459135Y-64504070D01*
X135376078Y-64478879D01*
X135133000Y-64615517D01*
X134787000Y-64615517D01*
X134543922Y-64478879D01*
X134460865Y-64504070D01*
X134178614Y-64630190D01*
X133926391Y-64808951D01*
X133713889Y-65033484D01*
X133639355Y-65151965D01*
X133573475Y-65053368D01*
X133366632Y-64846525D01*
X133123411Y-64684010D01*
X132853158Y-64572068D01*
X132566260Y-64515000D01*
X132273740Y-64515000D01*
X131986842Y-64572068D01*
X131716589Y-64684010D01*
X131473368Y-64846525D01*
X131266525Y-65053368D01*
X131150000Y-65227760D01*
X131033475Y-65053368D01*
X130826632Y-64846525D01*
X130583411Y-64684010D01*
X130313158Y-64572068D01*
X130026260Y-64515000D01*
X129733740Y-64515000D01*
X129446842Y-64572068D01*
X129176589Y-64684010D01*
X128933368Y-64846525D01*
X128726525Y-65053368D01*
X128564010Y-65296589D01*
X128452068Y-65566842D01*
X128395000Y-65853740D01*
X124887000Y-65853740D01*
X124887000Y-65827000D01*
X124907000Y-65827000D01*
X124907000Y-64615517D01*
X125253000Y-64615517D01*
X125253000Y-65827000D01*
X126465738Y-65827000D01*
X126601126Y-65583921D01*
X126490725Y-65295159D01*
X126326111Y-65033484D01*
X126113609Y-64808951D01*
X125861386Y-64630190D01*
X125579135Y-64504070D01*
X125496078Y-64478879D01*
X125253000Y-64615517D01*
X124907000Y-64615517D01*
X124663922Y-64478879D01*
X124580865Y-64504070D01*
X124298614Y-64630190D01*
X124046391Y-64808951D01*
X123833889Y-65033484D01*
X123759355Y-65151965D01*
X123693475Y-65053368D01*
X123486632Y-64846525D01*
X123243411Y-64684010D01*
X122973158Y-64572068D01*
X122686260Y-64515000D01*
X122393740Y-64515000D01*
X122106842Y-64572068D01*
X121836589Y-64684010D01*
X121593368Y-64846525D01*
X121461513Y-64978380D01*
X121439502Y-64905820D01*
X121380537Y-64795506D01*
X121301185Y-64698815D01*
X121204494Y-64619463D01*
X121094180Y-64560498D01*
X120974482Y-64524188D01*
X120850000Y-64511928D01*
X119150000Y-64511928D01*
X119025518Y-64524188D01*
X118905820Y-64560498D01*
X118795506Y-64619463D01*
X118698815Y-64698815D01*
X118619463Y-64795506D01*
X118560498Y-64905820D01*
X118524188Y-65025518D01*
X118511928Y-65150000D01*
X114157262Y-65150000D01*
X113563465Y-64681194D01*
X110244659Y-68000000D01*
X109755341Y-68000000D01*
X109741199Y-67985858D01*
X109985858Y-67741199D01*
X110000000Y-67755341D01*
X113318806Y-64436535D01*
X112827392Y-63814103D01*
X112542531Y-63660000D01*
X150873000Y-63660000D01*
X150873000Y-64906546D01*
G37*
%TD.AperFunction*%
%TD*%
M02*
