%TF.GenerationSoftware,KiCad,Pcbnew,5.1.9*%
%TF.CreationDate,2021-04-07T12:29:47+02:00*%
%TF.ProjectId,lampa,6c616d70-612e-46b6-9963-61645f706362,rev?*%
%TF.SameCoordinates,Original*%
%TF.FileFunction,Paste,Top*%
%TF.FilePolarity,Positive*%
%FSLAX46Y46*%
G04 Gerber Fmt 4.6, Leading zero omitted, Abs format (unit mm)*
G04 Created by KiCad (PCBNEW 5.1.9) date 2021-04-07 12:29:47*
%MOMM*%
%LPD*%
G01*
G04 APERTURE LIST*
%ADD10R,0.900000X0.800000*%
%ADD11R,1.500000X1.780000*%
%ADD12R,1.800000X1.000000*%
%ADD13R,1.200000X1.400000*%
%ADD14R,2.000000X1.500000*%
%ADD15R,2.000000X3.800000*%
G04 APERTURE END LIST*
%TO.C,R5*%
G36*
G01*
X123260000Y-90115000D02*
X123260000Y-90485000D01*
G75*
G02*
X123125000Y-90620000I-135000J0D01*
G01*
X122855000Y-90620000D01*
G75*
G02*
X122720000Y-90485000I0J135000D01*
G01*
X122720000Y-90115000D01*
G75*
G02*
X122855000Y-89980000I135000J0D01*
G01*
X123125000Y-89980000D01*
G75*
G02*
X123260000Y-90115000I0J-135000D01*
G01*
G37*
G36*
G01*
X124280000Y-90115000D02*
X124280000Y-90485000D01*
G75*
G02*
X124145000Y-90620000I-135000J0D01*
G01*
X123875000Y-90620000D01*
G75*
G02*
X123740000Y-90485000I0J135000D01*
G01*
X123740000Y-90115000D01*
G75*
G02*
X123875000Y-89980000I135000J0D01*
G01*
X124145000Y-89980000D01*
G75*
G02*
X124280000Y-90115000I0J-135000D01*
G01*
G37*
%TD*%
D10*
%TO.C,Q3*%
X122000000Y-92900000D03*
X124000000Y-91950000D03*
X124000000Y-93850000D03*
%TD*%
%TO.C,R6*%
G36*
G01*
X125215000Y-93240000D02*
X125585000Y-93240000D01*
G75*
G02*
X125720000Y-93375000I0J-135000D01*
G01*
X125720000Y-93645000D01*
G75*
G02*
X125585000Y-93780000I-135000J0D01*
G01*
X125215000Y-93780000D01*
G75*
G02*
X125080000Y-93645000I0J135000D01*
G01*
X125080000Y-93375000D01*
G75*
G02*
X125215000Y-93240000I135000J0D01*
G01*
G37*
G36*
G01*
X125215000Y-92220000D02*
X125585000Y-92220000D01*
G75*
G02*
X125720000Y-92355000I0J-135000D01*
G01*
X125720000Y-92625000D01*
G75*
G02*
X125585000Y-92760000I-135000J0D01*
G01*
X125215000Y-92760000D01*
G75*
G02*
X125080000Y-92625000I0J135000D01*
G01*
X125080000Y-92355000D01*
G75*
G02*
X125215000Y-92220000I135000J0D01*
G01*
G37*
%TD*%
%TO.C,R10*%
G36*
G01*
X127240000Y-72185000D02*
X127240000Y-71815000D01*
G75*
G02*
X127375000Y-71680000I135000J0D01*
G01*
X127645000Y-71680000D01*
G75*
G02*
X127780000Y-71815000I0J-135000D01*
G01*
X127780000Y-72185000D01*
G75*
G02*
X127645000Y-72320000I-135000J0D01*
G01*
X127375000Y-72320000D01*
G75*
G02*
X127240000Y-72185000I0J135000D01*
G01*
G37*
G36*
G01*
X126220000Y-72185000D02*
X126220000Y-71815000D01*
G75*
G02*
X126355000Y-71680000I135000J0D01*
G01*
X126625000Y-71680000D01*
G75*
G02*
X126760000Y-71815000I0J-135000D01*
G01*
X126760000Y-72185000D01*
G75*
G02*
X126625000Y-72320000I-135000J0D01*
G01*
X126355000Y-72320000D01*
G75*
G02*
X126220000Y-72185000I0J135000D01*
G01*
G37*
%TD*%
%TO.C,R9*%
G36*
G01*
X129760000Y-71815000D02*
X129760000Y-72185000D01*
G75*
G02*
X129625000Y-72320000I-135000J0D01*
G01*
X129355000Y-72320000D01*
G75*
G02*
X129220000Y-72185000I0J135000D01*
G01*
X129220000Y-71815000D01*
G75*
G02*
X129355000Y-71680000I135000J0D01*
G01*
X129625000Y-71680000D01*
G75*
G02*
X129760000Y-71815000I0J-135000D01*
G01*
G37*
G36*
G01*
X130780000Y-71815000D02*
X130780000Y-72185000D01*
G75*
G02*
X130645000Y-72320000I-135000J0D01*
G01*
X130375000Y-72320000D01*
G75*
G02*
X130240000Y-72185000I0J135000D01*
G01*
X130240000Y-71815000D01*
G75*
G02*
X130375000Y-71680000I135000J0D01*
G01*
X130645000Y-71680000D01*
G75*
G02*
X130780000Y-71815000I0J-135000D01*
G01*
G37*
%TD*%
%TO.C,C1*%
G36*
G01*
X123170000Y-75800000D02*
X122830000Y-75800000D01*
G75*
G02*
X122690000Y-75660000I0J140000D01*
G01*
X122690000Y-75380000D01*
G75*
G02*
X122830000Y-75240000I140000J0D01*
G01*
X123170000Y-75240000D01*
G75*
G02*
X123310000Y-75380000I0J-140000D01*
G01*
X123310000Y-75660000D01*
G75*
G02*
X123170000Y-75800000I-140000J0D01*
G01*
G37*
G36*
G01*
X123170000Y-76760000D02*
X122830000Y-76760000D01*
G75*
G02*
X122690000Y-76620000I0J140000D01*
G01*
X122690000Y-76340000D01*
G75*
G02*
X122830000Y-76200000I140000J0D01*
G01*
X123170000Y-76200000D01*
G75*
G02*
X123310000Y-76340000I0J-140000D01*
G01*
X123310000Y-76620000D01*
G75*
G02*
X123170000Y-76760000I-140000J0D01*
G01*
G37*
%TD*%
D11*
%TO.C,U3*%
X154265000Y-86460000D03*
X144735000Y-91540000D03*
X154265000Y-89000000D03*
X144735000Y-89000000D03*
X154265000Y-91540000D03*
X144735000Y-86460000D03*
%TD*%
D12*
%TO.C,Y2*%
X120500000Y-78750000D03*
X120500000Y-76250000D03*
%TD*%
D13*
%TO.C,Y1*%
X119350000Y-82400000D03*
X119350000Y-84600000D03*
X117650000Y-84600000D03*
X117650000Y-82400000D03*
%TD*%
%TO.C,U4*%
G36*
G01*
X128865000Y-84475000D02*
X128865000Y-83845000D01*
G75*
G02*
X129115000Y-83595000I250000J0D01*
G01*
X129745000Y-83595000D01*
G75*
G02*
X129995000Y-83845000I0J-250000D01*
G01*
X129995000Y-84475000D01*
G75*
G02*
X129745000Y-84725000I-250000J0D01*
G01*
X129115000Y-84725000D01*
G75*
G02*
X128865000Y-84475000I0J250000D01*
G01*
G37*
G36*
G01*
X128865000Y-83075000D02*
X128865000Y-82445000D01*
G75*
G02*
X129115000Y-82195000I250000J0D01*
G01*
X129745000Y-82195000D01*
G75*
G02*
X129995000Y-82445000I0J-250000D01*
G01*
X129995000Y-83075000D01*
G75*
G02*
X129745000Y-83325000I-250000J0D01*
G01*
X129115000Y-83325000D01*
G75*
G02*
X128865000Y-83075000I0J250000D01*
G01*
G37*
G36*
G01*
X128865000Y-81675000D02*
X128865000Y-81045000D01*
G75*
G02*
X129115000Y-80795000I250000J0D01*
G01*
X129745000Y-80795000D01*
G75*
G02*
X129995000Y-81045000I0J-250000D01*
G01*
X129995000Y-81675000D01*
G75*
G02*
X129745000Y-81925000I-250000J0D01*
G01*
X129115000Y-81925000D01*
G75*
G02*
X128865000Y-81675000I0J250000D01*
G01*
G37*
G36*
G01*
X128865000Y-80275000D02*
X128865000Y-79645000D01*
G75*
G02*
X129115000Y-79395000I250000J0D01*
G01*
X129745000Y-79395000D01*
G75*
G02*
X129995000Y-79645000I0J-250000D01*
G01*
X129995000Y-80275000D01*
G75*
G02*
X129745000Y-80525000I-250000J0D01*
G01*
X129115000Y-80525000D01*
G75*
G02*
X128865000Y-80275000I0J250000D01*
G01*
G37*
G36*
G01*
X127465000Y-84475000D02*
X127465000Y-83845000D01*
G75*
G02*
X127715000Y-83595000I250000J0D01*
G01*
X128345000Y-83595000D01*
G75*
G02*
X128595000Y-83845000I0J-250000D01*
G01*
X128595000Y-84475000D01*
G75*
G02*
X128345000Y-84725000I-250000J0D01*
G01*
X127715000Y-84725000D01*
G75*
G02*
X127465000Y-84475000I0J250000D01*
G01*
G37*
G36*
G01*
X127465000Y-83075000D02*
X127465000Y-82445000D01*
G75*
G02*
X127715000Y-82195000I250000J0D01*
G01*
X128345000Y-82195000D01*
G75*
G02*
X128595000Y-82445000I0J-250000D01*
G01*
X128595000Y-83075000D01*
G75*
G02*
X128345000Y-83325000I-250000J0D01*
G01*
X127715000Y-83325000D01*
G75*
G02*
X127465000Y-83075000I0J250000D01*
G01*
G37*
G36*
G01*
X127465000Y-81675000D02*
X127465000Y-81045000D01*
G75*
G02*
X127715000Y-80795000I250000J0D01*
G01*
X128345000Y-80795000D01*
G75*
G02*
X128595000Y-81045000I0J-250000D01*
G01*
X128595000Y-81675000D01*
G75*
G02*
X128345000Y-81925000I-250000J0D01*
G01*
X127715000Y-81925000D01*
G75*
G02*
X127465000Y-81675000I0J250000D01*
G01*
G37*
G36*
G01*
X127465000Y-80275000D02*
X127465000Y-79645000D01*
G75*
G02*
X127715000Y-79395000I250000J0D01*
G01*
X128345000Y-79395000D01*
G75*
G02*
X128595000Y-79645000I0J-250000D01*
G01*
X128595000Y-80275000D01*
G75*
G02*
X128345000Y-80525000I-250000J0D01*
G01*
X127715000Y-80525000D01*
G75*
G02*
X127465000Y-80275000I0J250000D01*
G01*
G37*
G36*
G01*
X126065000Y-84475000D02*
X126065000Y-83845000D01*
G75*
G02*
X126315000Y-83595000I250000J0D01*
G01*
X126945000Y-83595000D01*
G75*
G02*
X127195000Y-83845000I0J-250000D01*
G01*
X127195000Y-84475000D01*
G75*
G02*
X126945000Y-84725000I-250000J0D01*
G01*
X126315000Y-84725000D01*
G75*
G02*
X126065000Y-84475000I0J250000D01*
G01*
G37*
G36*
G01*
X126065000Y-83075000D02*
X126065000Y-82445000D01*
G75*
G02*
X126315000Y-82195000I250000J0D01*
G01*
X126945000Y-82195000D01*
G75*
G02*
X127195000Y-82445000I0J-250000D01*
G01*
X127195000Y-83075000D01*
G75*
G02*
X126945000Y-83325000I-250000J0D01*
G01*
X126315000Y-83325000D01*
G75*
G02*
X126065000Y-83075000I0J250000D01*
G01*
G37*
G36*
G01*
X126065000Y-81675000D02*
X126065000Y-81045000D01*
G75*
G02*
X126315000Y-80795000I250000J0D01*
G01*
X126945000Y-80795000D01*
G75*
G02*
X127195000Y-81045000I0J-250000D01*
G01*
X127195000Y-81675000D01*
G75*
G02*
X126945000Y-81925000I-250000J0D01*
G01*
X126315000Y-81925000D01*
G75*
G02*
X126065000Y-81675000I0J250000D01*
G01*
G37*
G36*
G01*
X126065000Y-80275000D02*
X126065000Y-79645000D01*
G75*
G02*
X126315000Y-79395000I250000J0D01*
G01*
X126945000Y-79395000D01*
G75*
G02*
X127195000Y-79645000I0J-250000D01*
G01*
X127195000Y-80275000D01*
G75*
G02*
X126945000Y-80525000I-250000J0D01*
G01*
X126315000Y-80525000D01*
G75*
G02*
X126065000Y-80275000I0J250000D01*
G01*
G37*
G36*
G01*
X124665000Y-84475000D02*
X124665000Y-83845000D01*
G75*
G02*
X124915000Y-83595000I250000J0D01*
G01*
X125545000Y-83595000D01*
G75*
G02*
X125795000Y-83845000I0J-250000D01*
G01*
X125795000Y-84475000D01*
G75*
G02*
X125545000Y-84725000I-250000J0D01*
G01*
X124915000Y-84725000D01*
G75*
G02*
X124665000Y-84475000I0J250000D01*
G01*
G37*
G36*
G01*
X124665000Y-83075000D02*
X124665000Y-82445000D01*
G75*
G02*
X124915000Y-82195000I250000J0D01*
G01*
X125545000Y-82195000D01*
G75*
G02*
X125795000Y-82445000I0J-250000D01*
G01*
X125795000Y-83075000D01*
G75*
G02*
X125545000Y-83325000I-250000J0D01*
G01*
X124915000Y-83325000D01*
G75*
G02*
X124665000Y-83075000I0J250000D01*
G01*
G37*
G36*
G01*
X124665000Y-81675000D02*
X124665000Y-81045000D01*
G75*
G02*
X124915000Y-80795000I250000J0D01*
G01*
X125545000Y-80795000D01*
G75*
G02*
X125795000Y-81045000I0J-250000D01*
G01*
X125795000Y-81675000D01*
G75*
G02*
X125545000Y-81925000I-250000J0D01*
G01*
X124915000Y-81925000D01*
G75*
G02*
X124665000Y-81675000I0J250000D01*
G01*
G37*
G36*
G01*
X124665000Y-80275000D02*
X124665000Y-79645000D01*
G75*
G02*
X124915000Y-79395000I250000J0D01*
G01*
X125545000Y-79395000D01*
G75*
G02*
X125795000Y-79645000I0J-250000D01*
G01*
X125795000Y-80275000D01*
G75*
G02*
X125545000Y-80525000I-250000J0D01*
G01*
X124915000Y-80525000D01*
G75*
G02*
X124665000Y-80275000I0J250000D01*
G01*
G37*
G36*
G01*
X124455000Y-78997500D02*
X124455000Y-78247500D01*
G75*
G02*
X124517500Y-78185000I62500J0D01*
G01*
X124642500Y-78185000D01*
G75*
G02*
X124705000Y-78247500I0J-62500D01*
G01*
X124705000Y-78997500D01*
G75*
G02*
X124642500Y-79060000I-62500J0D01*
G01*
X124517500Y-79060000D01*
G75*
G02*
X124455000Y-78997500I0J62500D01*
G01*
G37*
G36*
G01*
X124955000Y-78997500D02*
X124955000Y-78247500D01*
G75*
G02*
X125017500Y-78185000I62500J0D01*
G01*
X125142500Y-78185000D01*
G75*
G02*
X125205000Y-78247500I0J-62500D01*
G01*
X125205000Y-78997500D01*
G75*
G02*
X125142500Y-79060000I-62500J0D01*
G01*
X125017500Y-79060000D01*
G75*
G02*
X124955000Y-78997500I0J62500D01*
G01*
G37*
G36*
G01*
X125455000Y-78997500D02*
X125455000Y-78247500D01*
G75*
G02*
X125517500Y-78185000I62500J0D01*
G01*
X125642500Y-78185000D01*
G75*
G02*
X125705000Y-78247500I0J-62500D01*
G01*
X125705000Y-78997500D01*
G75*
G02*
X125642500Y-79060000I-62500J0D01*
G01*
X125517500Y-79060000D01*
G75*
G02*
X125455000Y-78997500I0J62500D01*
G01*
G37*
G36*
G01*
X125955000Y-78997500D02*
X125955000Y-78247500D01*
G75*
G02*
X126017500Y-78185000I62500J0D01*
G01*
X126142500Y-78185000D01*
G75*
G02*
X126205000Y-78247500I0J-62500D01*
G01*
X126205000Y-78997500D01*
G75*
G02*
X126142500Y-79060000I-62500J0D01*
G01*
X126017500Y-79060000D01*
G75*
G02*
X125955000Y-78997500I0J62500D01*
G01*
G37*
G36*
G01*
X126455000Y-78997500D02*
X126455000Y-78247500D01*
G75*
G02*
X126517500Y-78185000I62500J0D01*
G01*
X126642500Y-78185000D01*
G75*
G02*
X126705000Y-78247500I0J-62500D01*
G01*
X126705000Y-78997500D01*
G75*
G02*
X126642500Y-79060000I-62500J0D01*
G01*
X126517500Y-79060000D01*
G75*
G02*
X126455000Y-78997500I0J62500D01*
G01*
G37*
G36*
G01*
X126955000Y-78997500D02*
X126955000Y-78247500D01*
G75*
G02*
X127017500Y-78185000I62500J0D01*
G01*
X127142500Y-78185000D01*
G75*
G02*
X127205000Y-78247500I0J-62500D01*
G01*
X127205000Y-78997500D01*
G75*
G02*
X127142500Y-79060000I-62500J0D01*
G01*
X127017500Y-79060000D01*
G75*
G02*
X126955000Y-78997500I0J62500D01*
G01*
G37*
G36*
G01*
X127455000Y-78997500D02*
X127455000Y-78247500D01*
G75*
G02*
X127517500Y-78185000I62500J0D01*
G01*
X127642500Y-78185000D01*
G75*
G02*
X127705000Y-78247500I0J-62500D01*
G01*
X127705000Y-78997500D01*
G75*
G02*
X127642500Y-79060000I-62500J0D01*
G01*
X127517500Y-79060000D01*
G75*
G02*
X127455000Y-78997500I0J62500D01*
G01*
G37*
G36*
G01*
X127955000Y-78997500D02*
X127955000Y-78247500D01*
G75*
G02*
X128017500Y-78185000I62500J0D01*
G01*
X128142500Y-78185000D01*
G75*
G02*
X128205000Y-78247500I0J-62500D01*
G01*
X128205000Y-78997500D01*
G75*
G02*
X128142500Y-79060000I-62500J0D01*
G01*
X128017500Y-79060000D01*
G75*
G02*
X127955000Y-78997500I0J62500D01*
G01*
G37*
G36*
G01*
X128455000Y-78997500D02*
X128455000Y-78247500D01*
G75*
G02*
X128517500Y-78185000I62500J0D01*
G01*
X128642500Y-78185000D01*
G75*
G02*
X128705000Y-78247500I0J-62500D01*
G01*
X128705000Y-78997500D01*
G75*
G02*
X128642500Y-79060000I-62500J0D01*
G01*
X128517500Y-79060000D01*
G75*
G02*
X128455000Y-78997500I0J62500D01*
G01*
G37*
G36*
G01*
X128955000Y-78997500D02*
X128955000Y-78247500D01*
G75*
G02*
X129017500Y-78185000I62500J0D01*
G01*
X129142500Y-78185000D01*
G75*
G02*
X129205000Y-78247500I0J-62500D01*
G01*
X129205000Y-78997500D01*
G75*
G02*
X129142500Y-79060000I-62500J0D01*
G01*
X129017500Y-79060000D01*
G75*
G02*
X128955000Y-78997500I0J62500D01*
G01*
G37*
G36*
G01*
X129455000Y-78997500D02*
X129455000Y-78247500D01*
G75*
G02*
X129517500Y-78185000I62500J0D01*
G01*
X129642500Y-78185000D01*
G75*
G02*
X129705000Y-78247500I0J-62500D01*
G01*
X129705000Y-78997500D01*
G75*
G02*
X129642500Y-79060000I-62500J0D01*
G01*
X129517500Y-79060000D01*
G75*
G02*
X129455000Y-78997500I0J62500D01*
G01*
G37*
G36*
G01*
X129955000Y-78997500D02*
X129955000Y-78247500D01*
G75*
G02*
X130017500Y-78185000I62500J0D01*
G01*
X130142500Y-78185000D01*
G75*
G02*
X130205000Y-78247500I0J-62500D01*
G01*
X130205000Y-78997500D01*
G75*
G02*
X130142500Y-79060000I-62500J0D01*
G01*
X130017500Y-79060000D01*
G75*
G02*
X129955000Y-78997500I0J62500D01*
G01*
G37*
G36*
G01*
X130330000Y-79372500D02*
X130330000Y-79247500D01*
G75*
G02*
X130392500Y-79185000I62500J0D01*
G01*
X131142500Y-79185000D01*
G75*
G02*
X131205000Y-79247500I0J-62500D01*
G01*
X131205000Y-79372500D01*
G75*
G02*
X131142500Y-79435000I-62500J0D01*
G01*
X130392500Y-79435000D01*
G75*
G02*
X130330000Y-79372500I0J62500D01*
G01*
G37*
G36*
G01*
X130330000Y-79872500D02*
X130330000Y-79747500D01*
G75*
G02*
X130392500Y-79685000I62500J0D01*
G01*
X131142500Y-79685000D01*
G75*
G02*
X131205000Y-79747500I0J-62500D01*
G01*
X131205000Y-79872500D01*
G75*
G02*
X131142500Y-79935000I-62500J0D01*
G01*
X130392500Y-79935000D01*
G75*
G02*
X130330000Y-79872500I0J62500D01*
G01*
G37*
G36*
G01*
X130330000Y-80372500D02*
X130330000Y-80247500D01*
G75*
G02*
X130392500Y-80185000I62500J0D01*
G01*
X131142500Y-80185000D01*
G75*
G02*
X131205000Y-80247500I0J-62500D01*
G01*
X131205000Y-80372500D01*
G75*
G02*
X131142500Y-80435000I-62500J0D01*
G01*
X130392500Y-80435000D01*
G75*
G02*
X130330000Y-80372500I0J62500D01*
G01*
G37*
G36*
G01*
X130330000Y-80872500D02*
X130330000Y-80747500D01*
G75*
G02*
X130392500Y-80685000I62500J0D01*
G01*
X131142500Y-80685000D01*
G75*
G02*
X131205000Y-80747500I0J-62500D01*
G01*
X131205000Y-80872500D01*
G75*
G02*
X131142500Y-80935000I-62500J0D01*
G01*
X130392500Y-80935000D01*
G75*
G02*
X130330000Y-80872500I0J62500D01*
G01*
G37*
G36*
G01*
X130330000Y-81372500D02*
X130330000Y-81247500D01*
G75*
G02*
X130392500Y-81185000I62500J0D01*
G01*
X131142500Y-81185000D01*
G75*
G02*
X131205000Y-81247500I0J-62500D01*
G01*
X131205000Y-81372500D01*
G75*
G02*
X131142500Y-81435000I-62500J0D01*
G01*
X130392500Y-81435000D01*
G75*
G02*
X130330000Y-81372500I0J62500D01*
G01*
G37*
G36*
G01*
X130330000Y-81872500D02*
X130330000Y-81747500D01*
G75*
G02*
X130392500Y-81685000I62500J0D01*
G01*
X131142500Y-81685000D01*
G75*
G02*
X131205000Y-81747500I0J-62500D01*
G01*
X131205000Y-81872500D01*
G75*
G02*
X131142500Y-81935000I-62500J0D01*
G01*
X130392500Y-81935000D01*
G75*
G02*
X130330000Y-81872500I0J62500D01*
G01*
G37*
G36*
G01*
X130330000Y-82372500D02*
X130330000Y-82247500D01*
G75*
G02*
X130392500Y-82185000I62500J0D01*
G01*
X131142500Y-82185000D01*
G75*
G02*
X131205000Y-82247500I0J-62500D01*
G01*
X131205000Y-82372500D01*
G75*
G02*
X131142500Y-82435000I-62500J0D01*
G01*
X130392500Y-82435000D01*
G75*
G02*
X130330000Y-82372500I0J62500D01*
G01*
G37*
G36*
G01*
X130330000Y-82872500D02*
X130330000Y-82747500D01*
G75*
G02*
X130392500Y-82685000I62500J0D01*
G01*
X131142500Y-82685000D01*
G75*
G02*
X131205000Y-82747500I0J-62500D01*
G01*
X131205000Y-82872500D01*
G75*
G02*
X131142500Y-82935000I-62500J0D01*
G01*
X130392500Y-82935000D01*
G75*
G02*
X130330000Y-82872500I0J62500D01*
G01*
G37*
G36*
G01*
X130330000Y-83372500D02*
X130330000Y-83247500D01*
G75*
G02*
X130392500Y-83185000I62500J0D01*
G01*
X131142500Y-83185000D01*
G75*
G02*
X131205000Y-83247500I0J-62500D01*
G01*
X131205000Y-83372500D01*
G75*
G02*
X131142500Y-83435000I-62500J0D01*
G01*
X130392500Y-83435000D01*
G75*
G02*
X130330000Y-83372500I0J62500D01*
G01*
G37*
G36*
G01*
X130330000Y-83872500D02*
X130330000Y-83747500D01*
G75*
G02*
X130392500Y-83685000I62500J0D01*
G01*
X131142500Y-83685000D01*
G75*
G02*
X131205000Y-83747500I0J-62500D01*
G01*
X131205000Y-83872500D01*
G75*
G02*
X131142500Y-83935000I-62500J0D01*
G01*
X130392500Y-83935000D01*
G75*
G02*
X130330000Y-83872500I0J62500D01*
G01*
G37*
G36*
G01*
X130330000Y-84372500D02*
X130330000Y-84247500D01*
G75*
G02*
X130392500Y-84185000I62500J0D01*
G01*
X131142500Y-84185000D01*
G75*
G02*
X131205000Y-84247500I0J-62500D01*
G01*
X131205000Y-84372500D01*
G75*
G02*
X131142500Y-84435000I-62500J0D01*
G01*
X130392500Y-84435000D01*
G75*
G02*
X130330000Y-84372500I0J62500D01*
G01*
G37*
G36*
G01*
X130330000Y-84872500D02*
X130330000Y-84747500D01*
G75*
G02*
X130392500Y-84685000I62500J0D01*
G01*
X131142500Y-84685000D01*
G75*
G02*
X131205000Y-84747500I0J-62500D01*
G01*
X131205000Y-84872500D01*
G75*
G02*
X131142500Y-84935000I-62500J0D01*
G01*
X130392500Y-84935000D01*
G75*
G02*
X130330000Y-84872500I0J62500D01*
G01*
G37*
G36*
G01*
X129955000Y-85872500D02*
X129955000Y-85122500D01*
G75*
G02*
X130017500Y-85060000I62500J0D01*
G01*
X130142500Y-85060000D01*
G75*
G02*
X130205000Y-85122500I0J-62500D01*
G01*
X130205000Y-85872500D01*
G75*
G02*
X130142500Y-85935000I-62500J0D01*
G01*
X130017500Y-85935000D01*
G75*
G02*
X129955000Y-85872500I0J62500D01*
G01*
G37*
G36*
G01*
X129455000Y-85872500D02*
X129455000Y-85122500D01*
G75*
G02*
X129517500Y-85060000I62500J0D01*
G01*
X129642500Y-85060000D01*
G75*
G02*
X129705000Y-85122500I0J-62500D01*
G01*
X129705000Y-85872500D01*
G75*
G02*
X129642500Y-85935000I-62500J0D01*
G01*
X129517500Y-85935000D01*
G75*
G02*
X129455000Y-85872500I0J62500D01*
G01*
G37*
G36*
G01*
X128955000Y-85872500D02*
X128955000Y-85122500D01*
G75*
G02*
X129017500Y-85060000I62500J0D01*
G01*
X129142500Y-85060000D01*
G75*
G02*
X129205000Y-85122500I0J-62500D01*
G01*
X129205000Y-85872500D01*
G75*
G02*
X129142500Y-85935000I-62500J0D01*
G01*
X129017500Y-85935000D01*
G75*
G02*
X128955000Y-85872500I0J62500D01*
G01*
G37*
G36*
G01*
X128455000Y-85872500D02*
X128455000Y-85122500D01*
G75*
G02*
X128517500Y-85060000I62500J0D01*
G01*
X128642500Y-85060000D01*
G75*
G02*
X128705000Y-85122500I0J-62500D01*
G01*
X128705000Y-85872500D01*
G75*
G02*
X128642500Y-85935000I-62500J0D01*
G01*
X128517500Y-85935000D01*
G75*
G02*
X128455000Y-85872500I0J62500D01*
G01*
G37*
G36*
G01*
X127955000Y-85872500D02*
X127955000Y-85122500D01*
G75*
G02*
X128017500Y-85060000I62500J0D01*
G01*
X128142500Y-85060000D01*
G75*
G02*
X128205000Y-85122500I0J-62500D01*
G01*
X128205000Y-85872500D01*
G75*
G02*
X128142500Y-85935000I-62500J0D01*
G01*
X128017500Y-85935000D01*
G75*
G02*
X127955000Y-85872500I0J62500D01*
G01*
G37*
G36*
G01*
X127455000Y-85872500D02*
X127455000Y-85122500D01*
G75*
G02*
X127517500Y-85060000I62500J0D01*
G01*
X127642500Y-85060000D01*
G75*
G02*
X127705000Y-85122500I0J-62500D01*
G01*
X127705000Y-85872500D01*
G75*
G02*
X127642500Y-85935000I-62500J0D01*
G01*
X127517500Y-85935000D01*
G75*
G02*
X127455000Y-85872500I0J62500D01*
G01*
G37*
G36*
G01*
X126955000Y-85872500D02*
X126955000Y-85122500D01*
G75*
G02*
X127017500Y-85060000I62500J0D01*
G01*
X127142500Y-85060000D01*
G75*
G02*
X127205000Y-85122500I0J-62500D01*
G01*
X127205000Y-85872500D01*
G75*
G02*
X127142500Y-85935000I-62500J0D01*
G01*
X127017500Y-85935000D01*
G75*
G02*
X126955000Y-85872500I0J62500D01*
G01*
G37*
G36*
G01*
X126455000Y-85872500D02*
X126455000Y-85122500D01*
G75*
G02*
X126517500Y-85060000I62500J0D01*
G01*
X126642500Y-85060000D01*
G75*
G02*
X126705000Y-85122500I0J-62500D01*
G01*
X126705000Y-85872500D01*
G75*
G02*
X126642500Y-85935000I-62500J0D01*
G01*
X126517500Y-85935000D01*
G75*
G02*
X126455000Y-85872500I0J62500D01*
G01*
G37*
G36*
G01*
X125955000Y-85872500D02*
X125955000Y-85122500D01*
G75*
G02*
X126017500Y-85060000I62500J0D01*
G01*
X126142500Y-85060000D01*
G75*
G02*
X126205000Y-85122500I0J-62500D01*
G01*
X126205000Y-85872500D01*
G75*
G02*
X126142500Y-85935000I-62500J0D01*
G01*
X126017500Y-85935000D01*
G75*
G02*
X125955000Y-85872500I0J62500D01*
G01*
G37*
G36*
G01*
X125455000Y-85872500D02*
X125455000Y-85122500D01*
G75*
G02*
X125517500Y-85060000I62500J0D01*
G01*
X125642500Y-85060000D01*
G75*
G02*
X125705000Y-85122500I0J-62500D01*
G01*
X125705000Y-85872500D01*
G75*
G02*
X125642500Y-85935000I-62500J0D01*
G01*
X125517500Y-85935000D01*
G75*
G02*
X125455000Y-85872500I0J62500D01*
G01*
G37*
G36*
G01*
X124955000Y-85872500D02*
X124955000Y-85122500D01*
G75*
G02*
X125017500Y-85060000I62500J0D01*
G01*
X125142500Y-85060000D01*
G75*
G02*
X125205000Y-85122500I0J-62500D01*
G01*
X125205000Y-85872500D01*
G75*
G02*
X125142500Y-85935000I-62500J0D01*
G01*
X125017500Y-85935000D01*
G75*
G02*
X124955000Y-85872500I0J62500D01*
G01*
G37*
G36*
G01*
X124455000Y-85872500D02*
X124455000Y-85122500D01*
G75*
G02*
X124517500Y-85060000I62500J0D01*
G01*
X124642500Y-85060000D01*
G75*
G02*
X124705000Y-85122500I0J-62500D01*
G01*
X124705000Y-85872500D01*
G75*
G02*
X124642500Y-85935000I-62500J0D01*
G01*
X124517500Y-85935000D01*
G75*
G02*
X124455000Y-85872500I0J62500D01*
G01*
G37*
G36*
G01*
X123455000Y-84872500D02*
X123455000Y-84747500D01*
G75*
G02*
X123517500Y-84685000I62500J0D01*
G01*
X124267500Y-84685000D01*
G75*
G02*
X124330000Y-84747500I0J-62500D01*
G01*
X124330000Y-84872500D01*
G75*
G02*
X124267500Y-84935000I-62500J0D01*
G01*
X123517500Y-84935000D01*
G75*
G02*
X123455000Y-84872500I0J62500D01*
G01*
G37*
G36*
G01*
X123455000Y-84372500D02*
X123455000Y-84247500D01*
G75*
G02*
X123517500Y-84185000I62500J0D01*
G01*
X124267500Y-84185000D01*
G75*
G02*
X124330000Y-84247500I0J-62500D01*
G01*
X124330000Y-84372500D01*
G75*
G02*
X124267500Y-84435000I-62500J0D01*
G01*
X123517500Y-84435000D01*
G75*
G02*
X123455000Y-84372500I0J62500D01*
G01*
G37*
G36*
G01*
X123455000Y-83872500D02*
X123455000Y-83747500D01*
G75*
G02*
X123517500Y-83685000I62500J0D01*
G01*
X124267500Y-83685000D01*
G75*
G02*
X124330000Y-83747500I0J-62500D01*
G01*
X124330000Y-83872500D01*
G75*
G02*
X124267500Y-83935000I-62500J0D01*
G01*
X123517500Y-83935000D01*
G75*
G02*
X123455000Y-83872500I0J62500D01*
G01*
G37*
G36*
G01*
X123455000Y-83372500D02*
X123455000Y-83247500D01*
G75*
G02*
X123517500Y-83185000I62500J0D01*
G01*
X124267500Y-83185000D01*
G75*
G02*
X124330000Y-83247500I0J-62500D01*
G01*
X124330000Y-83372500D01*
G75*
G02*
X124267500Y-83435000I-62500J0D01*
G01*
X123517500Y-83435000D01*
G75*
G02*
X123455000Y-83372500I0J62500D01*
G01*
G37*
G36*
G01*
X123455000Y-82872500D02*
X123455000Y-82747500D01*
G75*
G02*
X123517500Y-82685000I62500J0D01*
G01*
X124267500Y-82685000D01*
G75*
G02*
X124330000Y-82747500I0J-62500D01*
G01*
X124330000Y-82872500D01*
G75*
G02*
X124267500Y-82935000I-62500J0D01*
G01*
X123517500Y-82935000D01*
G75*
G02*
X123455000Y-82872500I0J62500D01*
G01*
G37*
G36*
G01*
X123455000Y-82372500D02*
X123455000Y-82247500D01*
G75*
G02*
X123517500Y-82185000I62500J0D01*
G01*
X124267500Y-82185000D01*
G75*
G02*
X124330000Y-82247500I0J-62500D01*
G01*
X124330000Y-82372500D01*
G75*
G02*
X124267500Y-82435000I-62500J0D01*
G01*
X123517500Y-82435000D01*
G75*
G02*
X123455000Y-82372500I0J62500D01*
G01*
G37*
G36*
G01*
X123455000Y-81872500D02*
X123455000Y-81747500D01*
G75*
G02*
X123517500Y-81685000I62500J0D01*
G01*
X124267500Y-81685000D01*
G75*
G02*
X124330000Y-81747500I0J-62500D01*
G01*
X124330000Y-81872500D01*
G75*
G02*
X124267500Y-81935000I-62500J0D01*
G01*
X123517500Y-81935000D01*
G75*
G02*
X123455000Y-81872500I0J62500D01*
G01*
G37*
G36*
G01*
X123455000Y-81372500D02*
X123455000Y-81247500D01*
G75*
G02*
X123517500Y-81185000I62500J0D01*
G01*
X124267500Y-81185000D01*
G75*
G02*
X124330000Y-81247500I0J-62500D01*
G01*
X124330000Y-81372500D01*
G75*
G02*
X124267500Y-81435000I-62500J0D01*
G01*
X123517500Y-81435000D01*
G75*
G02*
X123455000Y-81372500I0J62500D01*
G01*
G37*
G36*
G01*
X123455000Y-80872500D02*
X123455000Y-80747500D01*
G75*
G02*
X123517500Y-80685000I62500J0D01*
G01*
X124267500Y-80685000D01*
G75*
G02*
X124330000Y-80747500I0J-62500D01*
G01*
X124330000Y-80872500D01*
G75*
G02*
X124267500Y-80935000I-62500J0D01*
G01*
X123517500Y-80935000D01*
G75*
G02*
X123455000Y-80872500I0J62500D01*
G01*
G37*
G36*
G01*
X123455000Y-80372500D02*
X123455000Y-80247500D01*
G75*
G02*
X123517500Y-80185000I62500J0D01*
G01*
X124267500Y-80185000D01*
G75*
G02*
X124330000Y-80247500I0J-62500D01*
G01*
X124330000Y-80372500D01*
G75*
G02*
X124267500Y-80435000I-62500J0D01*
G01*
X123517500Y-80435000D01*
G75*
G02*
X123455000Y-80372500I0J62500D01*
G01*
G37*
G36*
G01*
X123455000Y-79872500D02*
X123455000Y-79747500D01*
G75*
G02*
X123517500Y-79685000I62500J0D01*
G01*
X124267500Y-79685000D01*
G75*
G02*
X124330000Y-79747500I0J-62500D01*
G01*
X124330000Y-79872500D01*
G75*
G02*
X124267500Y-79935000I-62500J0D01*
G01*
X123517500Y-79935000D01*
G75*
G02*
X123455000Y-79872500I0J62500D01*
G01*
G37*
G36*
G01*
X123455000Y-79372500D02*
X123455000Y-79247500D01*
G75*
G02*
X123517500Y-79185000I62500J0D01*
G01*
X124267500Y-79185000D01*
G75*
G02*
X124330000Y-79247500I0J-62500D01*
G01*
X124330000Y-79372500D01*
G75*
G02*
X124267500Y-79435000I-62500J0D01*
G01*
X123517500Y-79435000D01*
G75*
G02*
X123455000Y-79372500I0J62500D01*
G01*
G37*
%TD*%
D14*
%TO.C,U1*%
X140650000Y-74800000D03*
X140650000Y-70200000D03*
X140650000Y-72500000D03*
D15*
X134350000Y-72500000D03*
%TD*%
%TO.C,R11*%
G36*
G01*
X126315000Y-74740000D02*
X126685000Y-74740000D01*
G75*
G02*
X126820000Y-74875000I0J-135000D01*
G01*
X126820000Y-75145000D01*
G75*
G02*
X126685000Y-75280000I-135000J0D01*
G01*
X126315000Y-75280000D01*
G75*
G02*
X126180000Y-75145000I0J135000D01*
G01*
X126180000Y-74875000D01*
G75*
G02*
X126315000Y-74740000I135000J0D01*
G01*
G37*
G36*
G01*
X126315000Y-73720000D02*
X126685000Y-73720000D01*
G75*
G02*
X126820000Y-73855000I0J-135000D01*
G01*
X126820000Y-74125000D01*
G75*
G02*
X126685000Y-74260000I-135000J0D01*
G01*
X126315000Y-74260000D01*
G75*
G02*
X126180000Y-74125000I0J135000D01*
G01*
X126180000Y-73855000D01*
G75*
G02*
X126315000Y-73720000I135000J0D01*
G01*
G37*
%TD*%
%TO.C,R7*%
G36*
G01*
X141425000Y-83275000D02*
X141425000Y-82725000D01*
G75*
G02*
X141625000Y-82525000I200000J0D01*
G01*
X142025000Y-82525000D01*
G75*
G02*
X142225000Y-82725000I0J-200000D01*
G01*
X142225000Y-83275000D01*
G75*
G02*
X142025000Y-83475000I-200000J0D01*
G01*
X141625000Y-83475000D01*
G75*
G02*
X141425000Y-83275000I0J200000D01*
G01*
G37*
G36*
G01*
X139775000Y-83275000D02*
X139775000Y-82725000D01*
G75*
G02*
X139975000Y-82525000I200000J0D01*
G01*
X140375000Y-82525000D01*
G75*
G02*
X140575000Y-82725000I0J-200000D01*
G01*
X140575000Y-83275000D01*
G75*
G02*
X140375000Y-83475000I-200000J0D01*
G01*
X139975000Y-83475000D01*
G75*
G02*
X139775000Y-83275000I0J200000D01*
G01*
G37*
%TD*%
%TO.C,R8*%
G36*
G01*
X119425000Y-73275000D02*
X119425000Y-72725000D01*
G75*
G02*
X119625000Y-72525000I200000J0D01*
G01*
X120025000Y-72525000D01*
G75*
G02*
X120225000Y-72725000I0J-200000D01*
G01*
X120225000Y-73275000D01*
G75*
G02*
X120025000Y-73475000I-200000J0D01*
G01*
X119625000Y-73475000D01*
G75*
G02*
X119425000Y-73275000I0J200000D01*
G01*
G37*
G36*
G01*
X117775000Y-73275000D02*
X117775000Y-72725000D01*
G75*
G02*
X117975000Y-72525000I200000J0D01*
G01*
X118375000Y-72525000D01*
G75*
G02*
X118575000Y-72725000I0J-200000D01*
G01*
X118575000Y-73275000D01*
G75*
G02*
X118375000Y-73475000I-200000J0D01*
G01*
X117975000Y-73475000D01*
G75*
G02*
X117775000Y-73275000I0J200000D01*
G01*
G37*
%TD*%
%TO.C,R4*%
G36*
G01*
X173925000Y-96775000D02*
X173925000Y-96225000D01*
G75*
G02*
X174125000Y-96025000I200000J0D01*
G01*
X174525000Y-96025000D01*
G75*
G02*
X174725000Y-96225000I0J-200000D01*
G01*
X174725000Y-96775000D01*
G75*
G02*
X174525000Y-96975000I-200000J0D01*
G01*
X174125000Y-96975000D01*
G75*
G02*
X173925000Y-96775000I0J200000D01*
G01*
G37*
G36*
G01*
X172275000Y-96775000D02*
X172275000Y-96225000D01*
G75*
G02*
X172475000Y-96025000I200000J0D01*
G01*
X172875000Y-96025000D01*
G75*
G02*
X173075000Y-96225000I0J-200000D01*
G01*
X173075000Y-96775000D01*
G75*
G02*
X172875000Y-96975000I-200000J0D01*
G01*
X172475000Y-96975000D01*
G75*
G02*
X172275000Y-96775000I0J200000D01*
G01*
G37*
%TD*%
%TO.C,R3*%
G36*
G01*
X155225000Y-95925000D02*
X155775000Y-95925000D01*
G75*
G02*
X155975000Y-96125000I0J-200000D01*
G01*
X155975000Y-96525000D01*
G75*
G02*
X155775000Y-96725000I-200000J0D01*
G01*
X155225000Y-96725000D01*
G75*
G02*
X155025000Y-96525000I0J200000D01*
G01*
X155025000Y-96125000D01*
G75*
G02*
X155225000Y-95925000I200000J0D01*
G01*
G37*
G36*
G01*
X155225000Y-94275000D02*
X155775000Y-94275000D01*
G75*
G02*
X155975000Y-94475000I0J-200000D01*
G01*
X155975000Y-94875000D01*
G75*
G02*
X155775000Y-95075000I-200000J0D01*
G01*
X155225000Y-95075000D01*
G75*
G02*
X155025000Y-94875000I0J200000D01*
G01*
X155025000Y-94475000D01*
G75*
G02*
X155225000Y-94275000I200000J0D01*
G01*
G37*
%TD*%
%TO.C,R2*%
G36*
G01*
X160575000Y-96225000D02*
X160575000Y-96775000D01*
G75*
G02*
X160375000Y-96975000I-200000J0D01*
G01*
X159975000Y-96975000D01*
G75*
G02*
X159775000Y-96775000I0J200000D01*
G01*
X159775000Y-96225000D01*
G75*
G02*
X159975000Y-96025000I200000J0D01*
G01*
X160375000Y-96025000D01*
G75*
G02*
X160575000Y-96225000I0J-200000D01*
G01*
G37*
G36*
G01*
X162225000Y-96225000D02*
X162225000Y-96775000D01*
G75*
G02*
X162025000Y-96975000I-200000J0D01*
G01*
X161625000Y-96975000D01*
G75*
G02*
X161425000Y-96775000I0J200000D01*
G01*
X161425000Y-96225000D01*
G75*
G02*
X161625000Y-96025000I200000J0D01*
G01*
X162025000Y-96025000D01*
G75*
G02*
X162225000Y-96225000I0J-200000D01*
G01*
G37*
%TD*%
%TO.C,R1*%
G36*
G01*
X120965000Y-83265000D02*
X121335000Y-83265000D01*
G75*
G02*
X121470000Y-83400000I0J-135000D01*
G01*
X121470000Y-83670000D01*
G75*
G02*
X121335000Y-83805000I-135000J0D01*
G01*
X120965000Y-83805000D01*
G75*
G02*
X120830000Y-83670000I0J135000D01*
G01*
X120830000Y-83400000D01*
G75*
G02*
X120965000Y-83265000I135000J0D01*
G01*
G37*
G36*
G01*
X120965000Y-82245000D02*
X121335000Y-82245000D01*
G75*
G02*
X121470000Y-82380000I0J-135000D01*
G01*
X121470000Y-82650000D01*
G75*
G02*
X121335000Y-82785000I-135000J0D01*
G01*
X120965000Y-82785000D01*
G75*
G02*
X120830000Y-82650000I0J135000D01*
G01*
X120830000Y-82380000D01*
G75*
G02*
X120965000Y-82245000I135000J0D01*
G01*
G37*
%TD*%
%TO.C,L1*%
G36*
G01*
X120172500Y-87810000D02*
X119827500Y-87810000D01*
G75*
G02*
X119680000Y-87662500I0J147500D01*
G01*
X119680000Y-87367500D01*
G75*
G02*
X119827500Y-87220000I147500J0D01*
G01*
X120172500Y-87220000D01*
G75*
G02*
X120320000Y-87367500I0J-147500D01*
G01*
X120320000Y-87662500D01*
G75*
G02*
X120172500Y-87810000I-147500J0D01*
G01*
G37*
G36*
G01*
X120172500Y-88780000D02*
X119827500Y-88780000D01*
G75*
G02*
X119680000Y-88632500I0J147500D01*
G01*
X119680000Y-88337500D01*
G75*
G02*
X119827500Y-88190000I147500J0D01*
G01*
X120172500Y-88190000D01*
G75*
G02*
X120320000Y-88337500I0J-147500D01*
G01*
X120320000Y-88632500D01*
G75*
G02*
X120172500Y-88780000I-147500J0D01*
G01*
G37*
%TD*%
%TO.C,D2*%
G36*
G01*
X140650000Y-85243750D02*
X140650000Y-85756250D01*
G75*
G02*
X140431250Y-85975000I-218750J0D01*
G01*
X139993750Y-85975000D01*
G75*
G02*
X139775000Y-85756250I0J218750D01*
G01*
X139775000Y-85243750D01*
G75*
G02*
X139993750Y-85025000I218750J0D01*
G01*
X140431250Y-85025000D01*
G75*
G02*
X140650000Y-85243750I0J-218750D01*
G01*
G37*
G36*
G01*
X142225000Y-85243750D02*
X142225000Y-85756250D01*
G75*
G02*
X142006250Y-85975000I-218750J0D01*
G01*
X141568750Y-85975000D01*
G75*
G02*
X141350000Y-85756250I0J218750D01*
G01*
X141350000Y-85243750D01*
G75*
G02*
X141568750Y-85025000I218750J0D01*
G01*
X142006250Y-85025000D01*
G75*
G02*
X142225000Y-85243750I0J-218750D01*
G01*
G37*
%TD*%
%TO.C,D1*%
G36*
G01*
X118650000Y-70743750D02*
X118650000Y-71256250D01*
G75*
G02*
X118431250Y-71475000I-218750J0D01*
G01*
X117993750Y-71475000D01*
G75*
G02*
X117775000Y-71256250I0J218750D01*
G01*
X117775000Y-70743750D01*
G75*
G02*
X117993750Y-70525000I218750J0D01*
G01*
X118431250Y-70525000D01*
G75*
G02*
X118650000Y-70743750I0J-218750D01*
G01*
G37*
G36*
G01*
X120225000Y-70743750D02*
X120225000Y-71256250D01*
G75*
G02*
X120006250Y-71475000I-218750J0D01*
G01*
X119568750Y-71475000D01*
G75*
G02*
X119350000Y-71256250I0J218750D01*
G01*
X119350000Y-70743750D01*
G75*
G02*
X119568750Y-70525000I218750J0D01*
G01*
X120006250Y-70525000D01*
G75*
G02*
X120225000Y-70743750I0J-218750D01*
G01*
G37*
%TD*%
%TO.C,C15*%
G36*
G01*
X114750000Y-77675000D02*
X114250000Y-77675000D01*
G75*
G02*
X114025000Y-77450000I0J225000D01*
G01*
X114025000Y-77000000D01*
G75*
G02*
X114250000Y-76775000I225000J0D01*
G01*
X114750000Y-76775000D01*
G75*
G02*
X114975000Y-77000000I0J-225000D01*
G01*
X114975000Y-77450000D01*
G75*
G02*
X114750000Y-77675000I-225000J0D01*
G01*
G37*
G36*
G01*
X114750000Y-79225000D02*
X114250000Y-79225000D01*
G75*
G02*
X114025000Y-79000000I0J225000D01*
G01*
X114025000Y-78550000D01*
G75*
G02*
X114250000Y-78325000I225000J0D01*
G01*
X114750000Y-78325000D01*
G75*
G02*
X114975000Y-78550000I0J-225000D01*
G01*
X114975000Y-79000000D01*
G75*
G02*
X114750000Y-79225000I-225000J0D01*
G01*
G37*
%TD*%
%TO.C,C14*%
G36*
G01*
X118670000Y-78300000D02*
X118330000Y-78300000D01*
G75*
G02*
X118190000Y-78160000I0J140000D01*
G01*
X118190000Y-77880000D01*
G75*
G02*
X118330000Y-77740000I140000J0D01*
G01*
X118670000Y-77740000D01*
G75*
G02*
X118810000Y-77880000I0J-140000D01*
G01*
X118810000Y-78160000D01*
G75*
G02*
X118670000Y-78300000I-140000J0D01*
G01*
G37*
G36*
G01*
X118670000Y-79260000D02*
X118330000Y-79260000D01*
G75*
G02*
X118190000Y-79120000I0J140000D01*
G01*
X118190000Y-78840000D01*
G75*
G02*
X118330000Y-78700000I140000J0D01*
G01*
X118670000Y-78700000D01*
G75*
G02*
X118810000Y-78840000I0J-140000D01*
G01*
X118810000Y-79120000D01*
G75*
G02*
X118670000Y-79260000I-140000J0D01*
G01*
G37*
%TD*%
%TO.C,C13*%
G36*
G01*
X118330000Y-76720000D02*
X118670000Y-76720000D01*
G75*
G02*
X118810000Y-76860000I0J-140000D01*
G01*
X118810000Y-77140000D01*
G75*
G02*
X118670000Y-77280000I-140000J0D01*
G01*
X118330000Y-77280000D01*
G75*
G02*
X118190000Y-77140000I0J140000D01*
G01*
X118190000Y-76860000D01*
G75*
G02*
X118330000Y-76720000I140000J0D01*
G01*
G37*
G36*
G01*
X118330000Y-75760000D02*
X118670000Y-75760000D01*
G75*
G02*
X118810000Y-75900000I0J-140000D01*
G01*
X118810000Y-76180000D01*
G75*
G02*
X118670000Y-76320000I-140000J0D01*
G01*
X118330000Y-76320000D01*
G75*
G02*
X118190000Y-76180000I0J140000D01*
G01*
X118190000Y-75900000D01*
G75*
G02*
X118330000Y-75760000I140000J0D01*
G01*
G37*
%TD*%
%TO.C,C12*%
G36*
G01*
X131357000Y-88214000D02*
X131357000Y-87714000D01*
G75*
G02*
X131582000Y-87489000I225000J0D01*
G01*
X132032000Y-87489000D01*
G75*
G02*
X132257000Y-87714000I0J-225000D01*
G01*
X132257000Y-88214000D01*
G75*
G02*
X132032000Y-88439000I-225000J0D01*
G01*
X131582000Y-88439000D01*
G75*
G02*
X131357000Y-88214000I0J225000D01*
G01*
G37*
G36*
G01*
X129807000Y-88214000D02*
X129807000Y-87714000D01*
G75*
G02*
X130032000Y-87489000I225000J0D01*
G01*
X130482000Y-87489000D01*
G75*
G02*
X130707000Y-87714000I0J-225000D01*
G01*
X130707000Y-88214000D01*
G75*
G02*
X130482000Y-88439000I-225000J0D01*
G01*
X130032000Y-88439000D01*
G75*
G02*
X129807000Y-88214000I0J225000D01*
G01*
G37*
%TD*%
%TO.C,C11*%
G36*
G01*
X131357000Y-90246000D02*
X131357000Y-89746000D01*
G75*
G02*
X131582000Y-89521000I225000J0D01*
G01*
X132032000Y-89521000D01*
G75*
G02*
X132257000Y-89746000I0J-225000D01*
G01*
X132257000Y-90246000D01*
G75*
G02*
X132032000Y-90471000I-225000J0D01*
G01*
X131582000Y-90471000D01*
G75*
G02*
X131357000Y-90246000I0J225000D01*
G01*
G37*
G36*
G01*
X129807000Y-90246000D02*
X129807000Y-89746000D01*
G75*
G02*
X130032000Y-89521000I225000J0D01*
G01*
X130482000Y-89521000D01*
G75*
G02*
X130707000Y-89746000I0J-225000D01*
G01*
X130707000Y-90246000D01*
G75*
G02*
X130482000Y-90471000I-225000J0D01*
G01*
X130032000Y-90471000D01*
G75*
G02*
X129807000Y-90246000I0J225000D01*
G01*
G37*
%TD*%
%TO.C,C10*%
G36*
G01*
X118300000Y-86330000D02*
X118300000Y-86670000D01*
G75*
G02*
X118160000Y-86810000I-140000J0D01*
G01*
X117880000Y-86810000D01*
G75*
G02*
X117740000Y-86670000I0J140000D01*
G01*
X117740000Y-86330000D01*
G75*
G02*
X117880000Y-86190000I140000J0D01*
G01*
X118160000Y-86190000D01*
G75*
G02*
X118300000Y-86330000I0J-140000D01*
G01*
G37*
G36*
G01*
X119260000Y-86330000D02*
X119260000Y-86670000D01*
G75*
G02*
X119120000Y-86810000I-140000J0D01*
G01*
X118840000Y-86810000D01*
G75*
G02*
X118700000Y-86670000I0J140000D01*
G01*
X118700000Y-86330000D01*
G75*
G02*
X118840000Y-86190000I140000J0D01*
G01*
X119120000Y-86190000D01*
G75*
G02*
X119260000Y-86330000I0J-140000D01*
G01*
G37*
%TD*%
%TO.C,C9*%
G36*
G01*
X118300000Y-80330000D02*
X118300000Y-80670000D01*
G75*
G02*
X118160000Y-80810000I-140000J0D01*
G01*
X117880000Y-80810000D01*
G75*
G02*
X117740000Y-80670000I0J140000D01*
G01*
X117740000Y-80330000D01*
G75*
G02*
X117880000Y-80190000I140000J0D01*
G01*
X118160000Y-80190000D01*
G75*
G02*
X118300000Y-80330000I0J-140000D01*
G01*
G37*
G36*
G01*
X119260000Y-80330000D02*
X119260000Y-80670000D01*
G75*
G02*
X119120000Y-80810000I-140000J0D01*
G01*
X118840000Y-80810000D01*
G75*
G02*
X118700000Y-80670000I0J140000D01*
G01*
X118700000Y-80330000D01*
G75*
G02*
X118840000Y-80190000I140000J0D01*
G01*
X119120000Y-80190000D01*
G75*
G02*
X119260000Y-80330000I0J-140000D01*
G01*
G37*
%TD*%
%TO.C,C8*%
G36*
G01*
X143349999Y-72900000D02*
X144650001Y-72900000D01*
G75*
G02*
X144900000Y-73149999I0J-249999D01*
G01*
X144900000Y-73800001D01*
G75*
G02*
X144650001Y-74050000I-249999J0D01*
G01*
X143349999Y-74050000D01*
G75*
G02*
X143100000Y-73800001I0J249999D01*
G01*
X143100000Y-73149999D01*
G75*
G02*
X143349999Y-72900000I249999J0D01*
G01*
G37*
G36*
G01*
X143349999Y-69950000D02*
X144650001Y-69950000D01*
G75*
G02*
X144900000Y-70199999I0J-249999D01*
G01*
X144900000Y-70850001D01*
G75*
G02*
X144650001Y-71100000I-249999J0D01*
G01*
X143349999Y-71100000D01*
G75*
G02*
X143100000Y-70850001I0J249999D01*
G01*
X143100000Y-70199999D01*
G75*
G02*
X143349999Y-69950000I249999J0D01*
G01*
G37*
%TD*%
%TO.C,C7*%
G36*
G01*
X120830000Y-87700000D02*
X121170000Y-87700000D01*
G75*
G02*
X121310000Y-87840000I0J-140000D01*
G01*
X121310000Y-88120000D01*
G75*
G02*
X121170000Y-88260000I-140000J0D01*
G01*
X120830000Y-88260000D01*
G75*
G02*
X120690000Y-88120000I0J140000D01*
G01*
X120690000Y-87840000D01*
G75*
G02*
X120830000Y-87700000I140000J0D01*
G01*
G37*
G36*
G01*
X120830000Y-86740000D02*
X121170000Y-86740000D01*
G75*
G02*
X121310000Y-86880000I0J-140000D01*
G01*
X121310000Y-87160000D01*
G75*
G02*
X121170000Y-87300000I-140000J0D01*
G01*
X120830000Y-87300000D01*
G75*
G02*
X120690000Y-87160000I0J140000D01*
G01*
X120690000Y-86880000D01*
G75*
G02*
X120830000Y-86740000I140000J0D01*
G01*
G37*
%TD*%
%TO.C,C6*%
G36*
G01*
X121830000Y-86700000D02*
X122170000Y-86700000D01*
G75*
G02*
X122310000Y-86840000I0J-140000D01*
G01*
X122310000Y-87120000D01*
G75*
G02*
X122170000Y-87260000I-140000J0D01*
G01*
X121830000Y-87260000D01*
G75*
G02*
X121690000Y-87120000I0J140000D01*
G01*
X121690000Y-86840000D01*
G75*
G02*
X121830000Y-86700000I140000J0D01*
G01*
G37*
G36*
G01*
X121830000Y-85740000D02*
X122170000Y-85740000D01*
G75*
G02*
X122310000Y-85880000I0J-140000D01*
G01*
X122310000Y-86160000D01*
G75*
G02*
X122170000Y-86300000I-140000J0D01*
G01*
X121830000Y-86300000D01*
G75*
G02*
X121690000Y-86160000I0J140000D01*
G01*
X121690000Y-85880000D01*
G75*
G02*
X121830000Y-85740000I140000J0D01*
G01*
G37*
%TD*%
%TO.C,C5*%
G36*
G01*
X133330000Y-79700000D02*
X133670000Y-79700000D01*
G75*
G02*
X133810000Y-79840000I0J-140000D01*
G01*
X133810000Y-80120000D01*
G75*
G02*
X133670000Y-80260000I-140000J0D01*
G01*
X133330000Y-80260000D01*
G75*
G02*
X133190000Y-80120000I0J140000D01*
G01*
X133190000Y-79840000D01*
G75*
G02*
X133330000Y-79700000I140000J0D01*
G01*
G37*
G36*
G01*
X133330000Y-78740000D02*
X133670000Y-78740000D01*
G75*
G02*
X133810000Y-78880000I0J-140000D01*
G01*
X133810000Y-79160000D01*
G75*
G02*
X133670000Y-79300000I-140000J0D01*
G01*
X133330000Y-79300000D01*
G75*
G02*
X133190000Y-79160000I0J140000D01*
G01*
X133190000Y-78880000D01*
G75*
G02*
X133330000Y-78740000I140000J0D01*
G01*
G37*
%TD*%
%TO.C,C4*%
G36*
G01*
X132330000Y-79700000D02*
X132670000Y-79700000D01*
G75*
G02*
X132810000Y-79840000I0J-140000D01*
G01*
X132810000Y-80120000D01*
G75*
G02*
X132670000Y-80260000I-140000J0D01*
G01*
X132330000Y-80260000D01*
G75*
G02*
X132190000Y-80120000I0J140000D01*
G01*
X132190000Y-79840000D01*
G75*
G02*
X132330000Y-79700000I140000J0D01*
G01*
G37*
G36*
G01*
X132330000Y-78740000D02*
X132670000Y-78740000D01*
G75*
G02*
X132810000Y-78880000I0J-140000D01*
G01*
X132810000Y-79160000D01*
G75*
G02*
X132670000Y-79300000I-140000J0D01*
G01*
X132330000Y-79300000D01*
G75*
G02*
X132190000Y-79160000I0J140000D01*
G01*
X132190000Y-78880000D01*
G75*
G02*
X132330000Y-78740000I140000J0D01*
G01*
G37*
%TD*%
%TO.C,C3*%
G36*
G01*
X132330000Y-85700000D02*
X132670000Y-85700000D01*
G75*
G02*
X132810000Y-85840000I0J-140000D01*
G01*
X132810000Y-86120000D01*
G75*
G02*
X132670000Y-86260000I-140000J0D01*
G01*
X132330000Y-86260000D01*
G75*
G02*
X132190000Y-86120000I0J140000D01*
G01*
X132190000Y-85840000D01*
G75*
G02*
X132330000Y-85700000I140000J0D01*
G01*
G37*
G36*
G01*
X132330000Y-84740000D02*
X132670000Y-84740000D01*
G75*
G02*
X132810000Y-84880000I0J-140000D01*
G01*
X132810000Y-85160000D01*
G75*
G02*
X132670000Y-85300000I-140000J0D01*
G01*
X132330000Y-85300000D01*
G75*
G02*
X132190000Y-85160000I0J140000D01*
G01*
X132190000Y-84880000D01*
G75*
G02*
X132330000Y-84740000I140000J0D01*
G01*
G37*
%TD*%
%TO.C,C2*%
G36*
G01*
X124670000Y-75800000D02*
X124330000Y-75800000D01*
G75*
G02*
X124190000Y-75660000I0J140000D01*
G01*
X124190000Y-75380000D01*
G75*
G02*
X124330000Y-75240000I140000J0D01*
G01*
X124670000Y-75240000D01*
G75*
G02*
X124810000Y-75380000I0J-140000D01*
G01*
X124810000Y-75660000D01*
G75*
G02*
X124670000Y-75800000I-140000J0D01*
G01*
G37*
G36*
G01*
X124670000Y-76760000D02*
X124330000Y-76760000D01*
G75*
G02*
X124190000Y-76620000I0J140000D01*
G01*
X124190000Y-76340000D01*
G75*
G02*
X124330000Y-76200000I140000J0D01*
G01*
X124670000Y-76200000D01*
G75*
G02*
X124810000Y-76340000I0J-140000D01*
G01*
X124810000Y-76620000D01*
G75*
G02*
X124670000Y-76760000I-140000J0D01*
G01*
G37*
%TD*%
M02*
