%TF.GenerationSoftware,KiCad,Pcbnew,5.1.9*%
%TF.CreationDate,2021-04-07T12:29:47+02:00*%
%TF.ProjectId,lampa,6c616d70-612e-46b6-9963-61645f706362,rev?*%
%TF.SameCoordinates,Original*%
%TF.FileFunction,Copper,L1,Top*%
%TF.FilePolarity,Positive*%
%FSLAX46Y46*%
G04 Gerber Fmt 4.6, Leading zero omitted, Abs format (unit mm)*
G04 Created by KiCad (PCBNEW 5.1.9) date 2021-04-07 12:29:47*
%MOMM*%
%LPD*%
G01*
G04 APERTURE LIST*
%TA.AperFunction,SMDPad,CuDef*%
%ADD10R,0.900000X0.800000*%
%TD*%
%TA.AperFunction,ComponentPad*%
%ADD11C,0.900000*%
%TD*%
%TA.AperFunction,ComponentPad*%
%ADD12C,8.600000*%
%TD*%
%TA.AperFunction,SMDPad,CuDef*%
%ADD13C,0.500000*%
%TD*%
%TA.AperFunction,ComponentPad*%
%ADD14C,2.300000*%
%TD*%
%TA.AperFunction,ComponentPad*%
%ADD15R,2.300000X2.000000*%
%TD*%
%TA.AperFunction,ComponentPad*%
%ADD16O,1.700000X1.700000*%
%TD*%
%TA.AperFunction,ComponentPad*%
%ADD17R,1.700000X1.700000*%
%TD*%
%TA.AperFunction,SMDPad,CuDef*%
%ADD18R,1.500000X1.780000*%
%TD*%
%TA.AperFunction,SMDPad,CuDef*%
%ADD19R,1.800000X1.000000*%
%TD*%
%TA.AperFunction,SMDPad,CuDef*%
%ADD20R,1.200000X1.400000*%
%TD*%
%TA.AperFunction,SMDPad,CuDef*%
%ADD21R,5.600000X5.600000*%
%TD*%
%TA.AperFunction,ComponentPad*%
%ADD22O,1.600000X1.600000*%
%TD*%
%TA.AperFunction,ComponentPad*%
%ADD23R,1.600000X1.600000*%
%TD*%
%TA.AperFunction,SMDPad,CuDef*%
%ADD24R,2.000000X1.500000*%
%TD*%
%TA.AperFunction,SMDPad,CuDef*%
%ADD25R,2.000000X3.800000*%
%TD*%
%TA.AperFunction,ComponentPad*%
%ADD26O,1.905000X2.000000*%
%TD*%
%TA.AperFunction,ComponentPad*%
%ADD27R,1.905000X2.000000*%
%TD*%
%TA.AperFunction,ComponentPad*%
%ADD28C,3.000000*%
%TD*%
%TA.AperFunction,ComponentPad*%
%ADD29R,3.000000X3.000000*%
%TD*%
%TA.AperFunction,ViaPad*%
%ADD30C,0.800000*%
%TD*%
%TA.AperFunction,Conductor*%
%ADD31C,1.000000*%
%TD*%
%TA.AperFunction,Conductor*%
%ADD32C,0.300000*%
%TD*%
%TA.AperFunction,Conductor*%
%ADD33C,0.500000*%
%TD*%
%TA.AperFunction,Conductor*%
%ADD34C,0.750000*%
%TD*%
G04 APERTURE END LIST*
%TO.P,R5,2*%
%TO.N,BACKLIGHT_PWM*%
%TA.AperFunction,SMDPad,CuDef*%
G36*
G01*
X123260000Y-90115000D02*
X123260000Y-90485000D01*
G75*
G02*
X123125000Y-90620000I-135000J0D01*
G01*
X122855000Y-90620000D01*
G75*
G02*
X122720000Y-90485000I0J135000D01*
G01*
X122720000Y-90115000D01*
G75*
G02*
X122855000Y-89980000I135000J0D01*
G01*
X123125000Y-89980000D01*
G75*
G02*
X123260000Y-90115000I0J-135000D01*
G01*
G37*
%TD.AperFunction*%
%TO.P,R5,1*%
%TO.N,Net-(Q3-Pad2)*%
%TA.AperFunction,SMDPad,CuDef*%
G36*
G01*
X124280000Y-90115000D02*
X124280000Y-90485000D01*
G75*
G02*
X124145000Y-90620000I-135000J0D01*
G01*
X123875000Y-90620000D01*
G75*
G02*
X123740000Y-90485000I0J135000D01*
G01*
X123740000Y-90115000D01*
G75*
G02*
X123875000Y-89980000I135000J0D01*
G01*
X124145000Y-89980000D01*
G75*
G02*
X124280000Y-90115000I0J-135000D01*
G01*
G37*
%TD.AperFunction*%
%TD*%
D10*
%TO.P,Q3,3*%
%TO.N,+3V3*%
X122000000Y-92900000D03*
%TO.P,Q3,2*%
%TO.N,Net-(Q3-Pad2)*%
X124000000Y-91950000D03*
%TO.P,Q3,1*%
%TO.N,Net-(J3-Pad8)*%
X124000000Y-93850000D03*
%TD*%
%TO.P,R6,2*%
%TO.N,Net-(J3-Pad8)*%
%TA.AperFunction,SMDPad,CuDef*%
G36*
G01*
X125215000Y-93240000D02*
X125585000Y-93240000D01*
G75*
G02*
X125720000Y-93375000I0J-135000D01*
G01*
X125720000Y-93645000D01*
G75*
G02*
X125585000Y-93780000I-135000J0D01*
G01*
X125215000Y-93780000D01*
G75*
G02*
X125080000Y-93645000I0J135000D01*
G01*
X125080000Y-93375000D01*
G75*
G02*
X125215000Y-93240000I135000J0D01*
G01*
G37*
%TD.AperFunction*%
%TO.P,R6,1*%
%TO.N,GND*%
%TA.AperFunction,SMDPad,CuDef*%
G36*
G01*
X125215000Y-92220000D02*
X125585000Y-92220000D01*
G75*
G02*
X125720000Y-92355000I0J-135000D01*
G01*
X125720000Y-92625000D01*
G75*
G02*
X125585000Y-92760000I-135000J0D01*
G01*
X125215000Y-92760000D01*
G75*
G02*
X125080000Y-92625000I0J135000D01*
G01*
X125080000Y-92355000D01*
G75*
G02*
X125215000Y-92220000I135000J0D01*
G01*
G37*
%TD.AperFunction*%
%TD*%
%TO.P,R10,2*%
%TO.N,BME_SDA*%
%TA.AperFunction,SMDPad,CuDef*%
G36*
G01*
X127240000Y-72185000D02*
X127240000Y-71815000D01*
G75*
G02*
X127375000Y-71680000I135000J0D01*
G01*
X127645000Y-71680000D01*
G75*
G02*
X127780000Y-71815000I0J-135000D01*
G01*
X127780000Y-72185000D01*
G75*
G02*
X127645000Y-72320000I-135000J0D01*
G01*
X127375000Y-72320000D01*
G75*
G02*
X127240000Y-72185000I0J135000D01*
G01*
G37*
%TD.AperFunction*%
%TO.P,R10,1*%
%TO.N,+3V3*%
%TA.AperFunction,SMDPad,CuDef*%
G36*
G01*
X126220000Y-72185000D02*
X126220000Y-71815000D01*
G75*
G02*
X126355000Y-71680000I135000J0D01*
G01*
X126625000Y-71680000D01*
G75*
G02*
X126760000Y-71815000I0J-135000D01*
G01*
X126760000Y-72185000D01*
G75*
G02*
X126625000Y-72320000I-135000J0D01*
G01*
X126355000Y-72320000D01*
G75*
G02*
X126220000Y-72185000I0J135000D01*
G01*
G37*
%TD.AperFunction*%
%TD*%
%TO.P,R9,2*%
%TO.N,BME_SCL*%
%TA.AperFunction,SMDPad,CuDef*%
G36*
G01*
X129760000Y-71815000D02*
X129760000Y-72185000D01*
G75*
G02*
X129625000Y-72320000I-135000J0D01*
G01*
X129355000Y-72320000D01*
G75*
G02*
X129220000Y-72185000I0J135000D01*
G01*
X129220000Y-71815000D01*
G75*
G02*
X129355000Y-71680000I135000J0D01*
G01*
X129625000Y-71680000D01*
G75*
G02*
X129760000Y-71815000I0J-135000D01*
G01*
G37*
%TD.AperFunction*%
%TO.P,R9,1*%
%TO.N,+3V3*%
%TA.AperFunction,SMDPad,CuDef*%
G36*
G01*
X130780000Y-71815000D02*
X130780000Y-72185000D01*
G75*
G02*
X130645000Y-72320000I-135000J0D01*
G01*
X130375000Y-72320000D01*
G75*
G02*
X130240000Y-72185000I0J135000D01*
G01*
X130240000Y-71815000D01*
G75*
G02*
X130375000Y-71680000I135000J0D01*
G01*
X130645000Y-71680000D01*
G75*
G02*
X130780000Y-71815000I0J-135000D01*
G01*
G37*
%TD.AperFunction*%
%TD*%
D11*
%TO.P,H1,1*%
%TO.N,GND*%
X191530419Y-65469581D03*
X189250000Y-64525000D03*
X186969581Y-65469581D03*
X186025000Y-67750000D03*
X186969581Y-70030419D03*
X189250000Y-70975000D03*
X191530419Y-70030419D03*
X192475000Y-67750000D03*
D12*
X189250000Y-67750000D03*
%TD*%
D11*
%TO.P,H2,1*%
%TO.N,GND*%
X191530419Y-97469581D03*
X189250000Y-96525000D03*
X186969581Y-97469581D03*
X186025000Y-99750000D03*
X186969581Y-102030419D03*
X189250000Y-102975000D03*
X191530419Y-102030419D03*
X192475000Y-99750000D03*
D12*
X189250000Y-99750000D03*
%TD*%
D13*
%TO.P,REF\u002A\u002A,*%
%TO.N,*%
X110425000Y-89275000D03*
%TD*%
%TO.P,REF\u002A\u002A,*%
%TO.N,*%
X183925000Y-96300000D03*
%TD*%
%TO.P,REF\u002A\u002A,*%
%TO.N,*%
X116200000Y-68425000D03*
%TD*%
%TO.P,REF\u002A\u002A,*%
%TO.N,*%
X182825000Y-68175000D03*
%TD*%
D14*
%TO.P,PS1,4*%
%TO.N,GND*%
X149600000Y-66300000D03*
%TO.P,PS1,2*%
%TO.N,Net-(J1-Pad1)*%
X179000000Y-71500000D03*
D15*
%TO.P,PS1,1*%
%TO.N,Net-(F1-Pad2)*%
X179000000Y-76500000D03*
D14*
%TO.P,PS1,3*%
%TO.N,+12V*%
X149600000Y-81700000D03*
%TD*%
D16*
%TO.P,J5,4*%
%TO.N,BME_SDA*%
X129880000Y-66000000D03*
%TO.P,J5,3*%
%TO.N,BME_SCL*%
X132420000Y-66000000D03*
%TO.P,J5,2*%
%TO.N,GND*%
X134960000Y-66000000D03*
D17*
%TO.P,J5,1*%
%TO.N,+3V3*%
X137500000Y-66000000D03*
%TD*%
%TO.P,C1,2*%
%TO.N,GND*%
%TA.AperFunction,SMDPad,CuDef*%
G36*
G01*
X123170000Y-75800000D02*
X122830000Y-75800000D01*
G75*
G02*
X122690000Y-75660000I0J140000D01*
G01*
X122690000Y-75380000D01*
G75*
G02*
X122830000Y-75240000I140000J0D01*
G01*
X123170000Y-75240000D01*
G75*
G02*
X123310000Y-75380000I0J-140000D01*
G01*
X123310000Y-75660000D01*
G75*
G02*
X123170000Y-75800000I-140000J0D01*
G01*
G37*
%TD.AperFunction*%
%TO.P,C1,1*%
%TO.N,+3V3*%
%TA.AperFunction,SMDPad,CuDef*%
G36*
G01*
X123170000Y-76760000D02*
X122830000Y-76760000D01*
G75*
G02*
X122690000Y-76620000I0J140000D01*
G01*
X122690000Y-76340000D01*
G75*
G02*
X122830000Y-76200000I140000J0D01*
G01*
X123170000Y-76200000D01*
G75*
G02*
X123310000Y-76340000I0J-140000D01*
G01*
X123310000Y-76620000D01*
G75*
G02*
X123170000Y-76760000I-140000J0D01*
G01*
G37*
%TD.AperFunction*%
%TD*%
D18*
%TO.P,U3,6*%
%TO.N,Net-(U3-Pad6)*%
X154265000Y-86460000D03*
%TO.P,U3,3*%
%TO.N,Net-(U3-Pad3)*%
X144735000Y-91540000D03*
%TO.P,U3,5*%
%TO.N,+12V*%
X154265000Y-89000000D03*
%TO.P,U3,2*%
%TO.N,GND*%
X144735000Y-89000000D03*
%TO.P,U3,4*%
%TO.N,Net-(Q1-Pad1)*%
X154265000Y-91540000D03*
%TO.P,U3,1*%
%TO.N,TRIAK_CTRL*%
X144735000Y-86460000D03*
%TD*%
D19*
%TO.P,Y2,2*%
%TO.N,LSE_OUT*%
X120500000Y-78750000D03*
%TO.P,Y2,1*%
%TO.N,LSE_IN*%
X120500000Y-76250000D03*
%TD*%
D20*
%TO.P,Y1,4*%
%TO.N,Net-(Y1-Pad2)*%
X119350000Y-82400000D03*
%TO.P,Y1,3*%
%TO.N,Net-(C10-Pad1)*%
X119350000Y-84600000D03*
%TO.P,Y1,2*%
%TO.N,Net-(Y1-Pad2)*%
X117650000Y-84600000D03*
%TO.P,Y1,1*%
%TO.N,HSE_IN*%
X117650000Y-82400000D03*
%TD*%
D21*
%TO.P,U4,49*%
%TO.N,GND*%
X127330000Y-82060000D03*
%TO.P,U4,48*%
%TO.N,+3V3*%
%TA.AperFunction,SMDPad,CuDef*%
G36*
G01*
X124455000Y-78997500D02*
X124455000Y-78247500D01*
G75*
G02*
X124517500Y-78185000I62500J0D01*
G01*
X124642500Y-78185000D01*
G75*
G02*
X124705000Y-78247500I0J-62500D01*
G01*
X124705000Y-78997500D01*
G75*
G02*
X124642500Y-79060000I-62500J0D01*
G01*
X124517500Y-79060000D01*
G75*
G02*
X124455000Y-78997500I0J62500D01*
G01*
G37*
%TD.AperFunction*%
%TO.P,U4,47*%
%TO.N,GND*%
%TA.AperFunction,SMDPad,CuDef*%
G36*
G01*
X124955000Y-78997500D02*
X124955000Y-78247500D01*
G75*
G02*
X125017500Y-78185000I62500J0D01*
G01*
X125142500Y-78185000D01*
G75*
G02*
X125205000Y-78247500I0J-62500D01*
G01*
X125205000Y-78997500D01*
G75*
G02*
X125142500Y-79060000I-62500J0D01*
G01*
X125017500Y-79060000D01*
G75*
G02*
X124955000Y-78997500I0J62500D01*
G01*
G37*
%TD.AperFunction*%
%TO.P,U4,46*%
%TO.N,Net-(U4-Pad46)*%
%TA.AperFunction,SMDPad,CuDef*%
G36*
G01*
X125455000Y-78997500D02*
X125455000Y-78247500D01*
G75*
G02*
X125517500Y-78185000I62500J0D01*
G01*
X125642500Y-78185000D01*
G75*
G02*
X125705000Y-78247500I0J-62500D01*
G01*
X125705000Y-78997500D01*
G75*
G02*
X125642500Y-79060000I-62500J0D01*
G01*
X125517500Y-79060000D01*
G75*
G02*
X125455000Y-78997500I0J62500D01*
G01*
G37*
%TD.AperFunction*%
%TO.P,U4,45*%
%TO.N,Net-(U4-Pad45)*%
%TA.AperFunction,SMDPad,CuDef*%
G36*
G01*
X125955000Y-78997500D02*
X125955000Y-78247500D01*
G75*
G02*
X126017500Y-78185000I62500J0D01*
G01*
X126142500Y-78185000D01*
G75*
G02*
X126205000Y-78247500I0J-62500D01*
G01*
X126205000Y-78997500D01*
G75*
G02*
X126142500Y-79060000I-62500J0D01*
G01*
X126017500Y-79060000D01*
G75*
G02*
X125955000Y-78997500I0J62500D01*
G01*
G37*
%TD.AperFunction*%
%TO.P,U4,44*%
%TO.N,BOOT*%
%TA.AperFunction,SMDPad,CuDef*%
G36*
G01*
X126455000Y-78997500D02*
X126455000Y-78247500D01*
G75*
G02*
X126517500Y-78185000I62500J0D01*
G01*
X126642500Y-78185000D01*
G75*
G02*
X126705000Y-78247500I0J-62500D01*
G01*
X126705000Y-78997500D01*
G75*
G02*
X126642500Y-79060000I-62500J0D01*
G01*
X126517500Y-79060000D01*
G75*
G02*
X126455000Y-78997500I0J62500D01*
G01*
G37*
%TD.AperFunction*%
%TO.P,U4,43*%
%TO.N,BME_SDA*%
%TA.AperFunction,SMDPad,CuDef*%
G36*
G01*
X126955000Y-78997500D02*
X126955000Y-78247500D01*
G75*
G02*
X127017500Y-78185000I62500J0D01*
G01*
X127142500Y-78185000D01*
G75*
G02*
X127205000Y-78247500I0J-62500D01*
G01*
X127205000Y-78997500D01*
G75*
G02*
X127142500Y-79060000I-62500J0D01*
G01*
X127017500Y-79060000D01*
G75*
G02*
X126955000Y-78997500I0J62500D01*
G01*
G37*
%TD.AperFunction*%
%TO.P,U4,42*%
%TO.N,BME_SCL*%
%TA.AperFunction,SMDPad,CuDef*%
G36*
G01*
X127455000Y-78997500D02*
X127455000Y-78247500D01*
G75*
G02*
X127517500Y-78185000I62500J0D01*
G01*
X127642500Y-78185000D01*
G75*
G02*
X127705000Y-78247500I0J-62500D01*
G01*
X127705000Y-78997500D01*
G75*
G02*
X127642500Y-79060000I-62500J0D01*
G01*
X127517500Y-79060000D01*
G75*
G02*
X127455000Y-78997500I0J62500D01*
G01*
G37*
%TD.AperFunction*%
%TO.P,U4,41*%
%TO.N,Net-(U4-Pad41)*%
%TA.AperFunction,SMDPad,CuDef*%
G36*
G01*
X127955000Y-78997500D02*
X127955000Y-78247500D01*
G75*
G02*
X128017500Y-78185000I62500J0D01*
G01*
X128142500Y-78185000D01*
G75*
G02*
X128205000Y-78247500I0J-62500D01*
G01*
X128205000Y-78997500D01*
G75*
G02*
X128142500Y-79060000I-62500J0D01*
G01*
X128017500Y-79060000D01*
G75*
G02*
X127955000Y-78997500I0J62500D01*
G01*
G37*
%TD.AperFunction*%
%TO.P,U4,40*%
%TO.N,Net-(U4-Pad40)*%
%TA.AperFunction,SMDPad,CuDef*%
G36*
G01*
X128455000Y-78997500D02*
X128455000Y-78247500D01*
G75*
G02*
X128517500Y-78185000I62500J0D01*
G01*
X128642500Y-78185000D01*
G75*
G02*
X128705000Y-78247500I0J-62500D01*
G01*
X128705000Y-78997500D01*
G75*
G02*
X128642500Y-79060000I-62500J0D01*
G01*
X128517500Y-79060000D01*
G75*
G02*
X128455000Y-78997500I0J62500D01*
G01*
G37*
%TD.AperFunction*%
%TO.P,U4,39*%
%TO.N,Net-(U4-Pad39)*%
%TA.AperFunction,SMDPad,CuDef*%
G36*
G01*
X128955000Y-78997500D02*
X128955000Y-78247500D01*
G75*
G02*
X129017500Y-78185000I62500J0D01*
G01*
X129142500Y-78185000D01*
G75*
G02*
X129205000Y-78247500I0J-62500D01*
G01*
X129205000Y-78997500D01*
G75*
G02*
X129142500Y-79060000I-62500J0D01*
G01*
X129017500Y-79060000D01*
G75*
G02*
X128955000Y-78997500I0J62500D01*
G01*
G37*
%TD.AperFunction*%
%TO.P,U4,38*%
%TO.N,Net-(U4-Pad38)*%
%TA.AperFunction,SMDPad,CuDef*%
G36*
G01*
X129455000Y-78997500D02*
X129455000Y-78247500D01*
G75*
G02*
X129517500Y-78185000I62500J0D01*
G01*
X129642500Y-78185000D01*
G75*
G02*
X129705000Y-78247500I0J-62500D01*
G01*
X129705000Y-78997500D01*
G75*
G02*
X129642500Y-79060000I-62500J0D01*
G01*
X129517500Y-79060000D01*
G75*
G02*
X129455000Y-78997500I0J62500D01*
G01*
G37*
%TD.AperFunction*%
%TO.P,U4,37*%
%TO.N,SWCLK*%
%TA.AperFunction,SMDPad,CuDef*%
G36*
G01*
X129955000Y-78997500D02*
X129955000Y-78247500D01*
G75*
G02*
X130017500Y-78185000I62500J0D01*
G01*
X130142500Y-78185000D01*
G75*
G02*
X130205000Y-78247500I0J-62500D01*
G01*
X130205000Y-78997500D01*
G75*
G02*
X130142500Y-79060000I-62500J0D01*
G01*
X130017500Y-79060000D01*
G75*
G02*
X129955000Y-78997500I0J62500D01*
G01*
G37*
%TD.AperFunction*%
%TO.P,U4,36*%
%TO.N,+3V3*%
%TA.AperFunction,SMDPad,CuDef*%
G36*
G01*
X130330000Y-79372500D02*
X130330000Y-79247500D01*
G75*
G02*
X130392500Y-79185000I62500J0D01*
G01*
X131142500Y-79185000D01*
G75*
G02*
X131205000Y-79247500I0J-62500D01*
G01*
X131205000Y-79372500D01*
G75*
G02*
X131142500Y-79435000I-62500J0D01*
G01*
X130392500Y-79435000D01*
G75*
G02*
X130330000Y-79372500I0J62500D01*
G01*
G37*
%TD.AperFunction*%
%TO.P,U4,35*%
%TO.N,GND*%
%TA.AperFunction,SMDPad,CuDef*%
G36*
G01*
X130330000Y-79872500D02*
X130330000Y-79747500D01*
G75*
G02*
X130392500Y-79685000I62500J0D01*
G01*
X131142500Y-79685000D01*
G75*
G02*
X131205000Y-79747500I0J-62500D01*
G01*
X131205000Y-79872500D01*
G75*
G02*
X131142500Y-79935000I-62500J0D01*
G01*
X130392500Y-79935000D01*
G75*
G02*
X130330000Y-79872500I0J62500D01*
G01*
G37*
%TD.AperFunction*%
%TO.P,U4,34*%
%TO.N,SWDIO*%
%TA.AperFunction,SMDPad,CuDef*%
G36*
G01*
X130330000Y-80372500D02*
X130330000Y-80247500D01*
G75*
G02*
X130392500Y-80185000I62500J0D01*
G01*
X131142500Y-80185000D01*
G75*
G02*
X131205000Y-80247500I0J-62500D01*
G01*
X131205000Y-80372500D01*
G75*
G02*
X131142500Y-80435000I-62500J0D01*
G01*
X130392500Y-80435000D01*
G75*
G02*
X130330000Y-80372500I0J62500D01*
G01*
G37*
%TD.AperFunction*%
%TO.P,U4,33*%
%TO.N,Net-(U4-Pad33)*%
%TA.AperFunction,SMDPad,CuDef*%
G36*
G01*
X130330000Y-80872500D02*
X130330000Y-80747500D01*
G75*
G02*
X130392500Y-80685000I62500J0D01*
G01*
X131142500Y-80685000D01*
G75*
G02*
X131205000Y-80747500I0J-62500D01*
G01*
X131205000Y-80872500D01*
G75*
G02*
X131142500Y-80935000I-62500J0D01*
G01*
X130392500Y-80935000D01*
G75*
G02*
X130330000Y-80872500I0J62500D01*
G01*
G37*
%TD.AperFunction*%
%TO.P,U4,32*%
%TO.N,Net-(U4-Pad32)*%
%TA.AperFunction,SMDPad,CuDef*%
G36*
G01*
X130330000Y-81372500D02*
X130330000Y-81247500D01*
G75*
G02*
X130392500Y-81185000I62500J0D01*
G01*
X131142500Y-81185000D01*
G75*
G02*
X131205000Y-81247500I0J-62500D01*
G01*
X131205000Y-81372500D01*
G75*
G02*
X131142500Y-81435000I-62500J0D01*
G01*
X130392500Y-81435000D01*
G75*
G02*
X130330000Y-81372500I0J62500D01*
G01*
G37*
%TD.AperFunction*%
%TO.P,U4,31*%
%TO.N,LCD_MOSI*%
%TA.AperFunction,SMDPad,CuDef*%
G36*
G01*
X130330000Y-81872500D02*
X130330000Y-81747500D01*
G75*
G02*
X130392500Y-81685000I62500J0D01*
G01*
X131142500Y-81685000D01*
G75*
G02*
X131205000Y-81747500I0J-62500D01*
G01*
X131205000Y-81872500D01*
G75*
G02*
X131142500Y-81935000I-62500J0D01*
G01*
X130392500Y-81935000D01*
G75*
G02*
X130330000Y-81872500I0J62500D01*
G01*
G37*
%TD.AperFunction*%
%TO.P,U4,30*%
%TO.N,Net-(U4-Pad30)*%
%TA.AperFunction,SMDPad,CuDef*%
G36*
G01*
X130330000Y-82372500D02*
X130330000Y-82247500D01*
G75*
G02*
X130392500Y-82185000I62500J0D01*
G01*
X131142500Y-82185000D01*
G75*
G02*
X131205000Y-82247500I0J-62500D01*
G01*
X131205000Y-82372500D01*
G75*
G02*
X131142500Y-82435000I-62500J0D01*
G01*
X130392500Y-82435000D01*
G75*
G02*
X130330000Y-82372500I0J62500D01*
G01*
G37*
%TD.AperFunction*%
%TO.P,U4,29*%
%TO.N,Net-(U4-Pad29)*%
%TA.AperFunction,SMDPad,CuDef*%
G36*
G01*
X130330000Y-82872500D02*
X130330000Y-82747500D01*
G75*
G02*
X130392500Y-82685000I62500J0D01*
G01*
X131142500Y-82685000D01*
G75*
G02*
X131205000Y-82747500I0J-62500D01*
G01*
X131205000Y-82872500D01*
G75*
G02*
X131142500Y-82935000I-62500J0D01*
G01*
X130392500Y-82935000D01*
G75*
G02*
X130330000Y-82872500I0J62500D01*
G01*
G37*
%TD.AperFunction*%
%TO.P,U4,28*%
%TO.N,TRIAK_CTRL*%
%TA.AperFunction,SMDPad,CuDef*%
G36*
G01*
X130330000Y-83372500D02*
X130330000Y-83247500D01*
G75*
G02*
X130392500Y-83185000I62500J0D01*
G01*
X131142500Y-83185000D01*
G75*
G02*
X131205000Y-83247500I0J-62500D01*
G01*
X131205000Y-83372500D01*
G75*
G02*
X131142500Y-83435000I-62500J0D01*
G01*
X130392500Y-83435000D01*
G75*
G02*
X130330000Y-83372500I0J62500D01*
G01*
G37*
%TD.AperFunction*%
%TO.P,U4,27*%
%TO.N,ZERO_CROSS_DETECT*%
%TA.AperFunction,SMDPad,CuDef*%
G36*
G01*
X130330000Y-83872500D02*
X130330000Y-83747500D01*
G75*
G02*
X130392500Y-83685000I62500J0D01*
G01*
X131142500Y-83685000D01*
G75*
G02*
X131205000Y-83747500I0J-62500D01*
G01*
X131205000Y-83872500D01*
G75*
G02*
X131142500Y-83935000I-62500J0D01*
G01*
X130392500Y-83935000D01*
G75*
G02*
X130330000Y-83872500I0J62500D01*
G01*
G37*
%TD.AperFunction*%
%TO.P,U4,26*%
%TO.N,Net-(U4-Pad26)*%
%TA.AperFunction,SMDPad,CuDef*%
G36*
G01*
X130330000Y-84372500D02*
X130330000Y-84247500D01*
G75*
G02*
X130392500Y-84185000I62500J0D01*
G01*
X131142500Y-84185000D01*
G75*
G02*
X131205000Y-84247500I0J-62500D01*
G01*
X131205000Y-84372500D01*
G75*
G02*
X131142500Y-84435000I-62500J0D01*
G01*
X130392500Y-84435000D01*
G75*
G02*
X130330000Y-84372500I0J62500D01*
G01*
G37*
%TD.AperFunction*%
%TO.P,U4,25*%
%TO.N,Net-(U4-Pad25)*%
%TA.AperFunction,SMDPad,CuDef*%
G36*
G01*
X130330000Y-84872500D02*
X130330000Y-84747500D01*
G75*
G02*
X130392500Y-84685000I62500J0D01*
G01*
X131142500Y-84685000D01*
G75*
G02*
X131205000Y-84747500I0J-62500D01*
G01*
X131205000Y-84872500D01*
G75*
G02*
X131142500Y-84935000I-62500J0D01*
G01*
X130392500Y-84935000D01*
G75*
G02*
X130330000Y-84872500I0J62500D01*
G01*
G37*
%TD.AperFunction*%
%TO.P,U4,24*%
%TO.N,+3V3*%
%TA.AperFunction,SMDPad,CuDef*%
G36*
G01*
X129955000Y-85872500D02*
X129955000Y-85122500D01*
G75*
G02*
X130017500Y-85060000I62500J0D01*
G01*
X130142500Y-85060000D01*
G75*
G02*
X130205000Y-85122500I0J-62500D01*
G01*
X130205000Y-85872500D01*
G75*
G02*
X130142500Y-85935000I-62500J0D01*
G01*
X130017500Y-85935000D01*
G75*
G02*
X129955000Y-85872500I0J62500D01*
G01*
G37*
%TD.AperFunction*%
%TO.P,U4,23*%
%TO.N,GND*%
%TA.AperFunction,SMDPad,CuDef*%
G36*
G01*
X129455000Y-85872500D02*
X129455000Y-85122500D01*
G75*
G02*
X129517500Y-85060000I62500J0D01*
G01*
X129642500Y-85060000D01*
G75*
G02*
X129705000Y-85122500I0J-62500D01*
G01*
X129705000Y-85872500D01*
G75*
G02*
X129642500Y-85935000I-62500J0D01*
G01*
X129517500Y-85935000D01*
G75*
G02*
X129455000Y-85872500I0J62500D01*
G01*
G37*
%TD.AperFunction*%
%TO.P,U4,22*%
%TO.N,Net-(C11-Pad1)*%
%TA.AperFunction,SMDPad,CuDef*%
G36*
G01*
X128955000Y-85872500D02*
X128955000Y-85122500D01*
G75*
G02*
X129017500Y-85060000I62500J0D01*
G01*
X129142500Y-85060000D01*
G75*
G02*
X129205000Y-85122500I0J-62500D01*
G01*
X129205000Y-85872500D01*
G75*
G02*
X129142500Y-85935000I-62500J0D01*
G01*
X129017500Y-85935000D01*
G75*
G02*
X128955000Y-85872500I0J62500D01*
G01*
G37*
%TD.AperFunction*%
%TO.P,U4,21*%
%TO.N,Net-(U4-Pad21)*%
%TA.AperFunction,SMDPad,CuDef*%
G36*
G01*
X128455000Y-85872500D02*
X128455000Y-85122500D01*
G75*
G02*
X128517500Y-85060000I62500J0D01*
G01*
X128642500Y-85060000D01*
G75*
G02*
X128705000Y-85122500I0J-62500D01*
G01*
X128705000Y-85872500D01*
G75*
G02*
X128642500Y-85935000I-62500J0D01*
G01*
X128517500Y-85935000D01*
G75*
G02*
X128455000Y-85872500I0J62500D01*
G01*
G37*
%TD.AperFunction*%
%TO.P,U4,20*%
%TO.N,LCD_CS*%
%TA.AperFunction,SMDPad,CuDef*%
G36*
G01*
X127955000Y-85872500D02*
X127955000Y-85122500D01*
G75*
G02*
X128017500Y-85060000I62500J0D01*
G01*
X128142500Y-85060000D01*
G75*
G02*
X128205000Y-85122500I0J-62500D01*
G01*
X128205000Y-85872500D01*
G75*
G02*
X128142500Y-85935000I-62500J0D01*
G01*
X128017500Y-85935000D01*
G75*
G02*
X127955000Y-85872500I0J62500D01*
G01*
G37*
%TD.AperFunction*%
%TO.P,U4,19*%
%TO.N,LCD_DC*%
%TA.AperFunction,SMDPad,CuDef*%
G36*
G01*
X127455000Y-85872500D02*
X127455000Y-85122500D01*
G75*
G02*
X127517500Y-85060000I62500J0D01*
G01*
X127642500Y-85060000D01*
G75*
G02*
X127705000Y-85122500I0J-62500D01*
G01*
X127705000Y-85872500D01*
G75*
G02*
X127642500Y-85935000I-62500J0D01*
G01*
X127517500Y-85935000D01*
G75*
G02*
X127455000Y-85872500I0J62500D01*
G01*
G37*
%TD.AperFunction*%
%TO.P,U4,18*%
%TO.N,LCD_CLK*%
%TA.AperFunction,SMDPad,CuDef*%
G36*
G01*
X126955000Y-85872500D02*
X126955000Y-85122500D01*
G75*
G02*
X127017500Y-85060000I62500J0D01*
G01*
X127142500Y-85060000D01*
G75*
G02*
X127205000Y-85122500I0J-62500D01*
G01*
X127205000Y-85872500D01*
G75*
G02*
X127142500Y-85935000I-62500J0D01*
G01*
X127017500Y-85935000D01*
G75*
G02*
X126955000Y-85872500I0J62500D01*
G01*
G37*
%TD.AperFunction*%
%TO.P,U4,17*%
%TO.N,TOUCH_MOSI*%
%TA.AperFunction,SMDPad,CuDef*%
G36*
G01*
X126455000Y-85872500D02*
X126455000Y-85122500D01*
G75*
G02*
X126517500Y-85060000I62500J0D01*
G01*
X126642500Y-85060000D01*
G75*
G02*
X126705000Y-85122500I0J-62500D01*
G01*
X126705000Y-85872500D01*
G75*
G02*
X126642500Y-85935000I-62500J0D01*
G01*
X126517500Y-85935000D01*
G75*
G02*
X126455000Y-85872500I0J62500D01*
G01*
G37*
%TD.AperFunction*%
%TO.P,U4,16*%
%TO.N,TOUCH_MISO*%
%TA.AperFunction,SMDPad,CuDef*%
G36*
G01*
X125955000Y-85872500D02*
X125955000Y-85122500D01*
G75*
G02*
X126017500Y-85060000I62500J0D01*
G01*
X126142500Y-85060000D01*
G75*
G02*
X126205000Y-85122500I0J-62500D01*
G01*
X126205000Y-85872500D01*
G75*
G02*
X126142500Y-85935000I-62500J0D01*
G01*
X126017500Y-85935000D01*
G75*
G02*
X125955000Y-85872500I0J62500D01*
G01*
G37*
%TD.AperFunction*%
%TO.P,U4,15*%
%TO.N,TOUCH_CLK*%
%TA.AperFunction,SMDPad,CuDef*%
G36*
G01*
X125455000Y-85872500D02*
X125455000Y-85122500D01*
G75*
G02*
X125517500Y-85060000I62500J0D01*
G01*
X125642500Y-85060000D01*
G75*
G02*
X125705000Y-85122500I0J-62500D01*
G01*
X125705000Y-85872500D01*
G75*
G02*
X125642500Y-85935000I-62500J0D01*
G01*
X125517500Y-85935000D01*
G75*
G02*
X125455000Y-85872500I0J62500D01*
G01*
G37*
%TD.AperFunction*%
%TO.P,U4,14*%
%TO.N,TOUCH_CS*%
%TA.AperFunction,SMDPad,CuDef*%
G36*
G01*
X124955000Y-85872500D02*
X124955000Y-85122500D01*
G75*
G02*
X125017500Y-85060000I62500J0D01*
G01*
X125142500Y-85060000D01*
G75*
G02*
X125205000Y-85122500I0J-62500D01*
G01*
X125205000Y-85872500D01*
G75*
G02*
X125142500Y-85935000I-62500J0D01*
G01*
X125017500Y-85935000D01*
G75*
G02*
X124955000Y-85872500I0J62500D01*
G01*
G37*
%TD.AperFunction*%
%TO.P,U4,13*%
%TO.N,BACKLIGHT_PWM*%
%TA.AperFunction,SMDPad,CuDef*%
G36*
G01*
X124455000Y-85872500D02*
X124455000Y-85122500D01*
G75*
G02*
X124517500Y-85060000I62500J0D01*
G01*
X124642500Y-85060000D01*
G75*
G02*
X124705000Y-85122500I0J-62500D01*
G01*
X124705000Y-85872500D01*
G75*
G02*
X124642500Y-85935000I-62500J0D01*
G01*
X124517500Y-85935000D01*
G75*
G02*
X124455000Y-85872500I0J62500D01*
G01*
G37*
%TD.AperFunction*%
%TO.P,U4,12*%
%TO.N,TOUCH_IRQ*%
%TA.AperFunction,SMDPad,CuDef*%
G36*
G01*
X123455000Y-84872500D02*
X123455000Y-84747500D01*
G75*
G02*
X123517500Y-84685000I62500J0D01*
G01*
X124267500Y-84685000D01*
G75*
G02*
X124330000Y-84747500I0J-62500D01*
G01*
X124330000Y-84872500D01*
G75*
G02*
X124267500Y-84935000I-62500J0D01*
G01*
X123517500Y-84935000D01*
G75*
G02*
X123455000Y-84872500I0J62500D01*
G01*
G37*
%TD.AperFunction*%
%TO.P,U4,11*%
%TO.N,Net-(U4-Pad11)*%
%TA.AperFunction,SMDPad,CuDef*%
G36*
G01*
X123455000Y-84372500D02*
X123455000Y-84247500D01*
G75*
G02*
X123517500Y-84185000I62500J0D01*
G01*
X124267500Y-84185000D01*
G75*
G02*
X124330000Y-84247500I0J-62500D01*
G01*
X124330000Y-84372500D01*
G75*
G02*
X124267500Y-84435000I-62500J0D01*
G01*
X123517500Y-84435000D01*
G75*
G02*
X123455000Y-84372500I0J62500D01*
G01*
G37*
%TD.AperFunction*%
%TO.P,U4,10*%
%TO.N,Net-(U4-Pad10)*%
%TA.AperFunction,SMDPad,CuDef*%
G36*
G01*
X123455000Y-83872500D02*
X123455000Y-83747500D01*
G75*
G02*
X123517500Y-83685000I62500J0D01*
G01*
X124267500Y-83685000D01*
G75*
G02*
X124330000Y-83747500I0J-62500D01*
G01*
X124330000Y-83872500D01*
G75*
G02*
X124267500Y-83935000I-62500J0D01*
G01*
X123517500Y-83935000D01*
G75*
G02*
X123455000Y-83872500I0J62500D01*
G01*
G37*
%TD.AperFunction*%
%TO.P,U4,9*%
%TO.N,+3.3VA*%
%TA.AperFunction,SMDPad,CuDef*%
G36*
G01*
X123455000Y-83372500D02*
X123455000Y-83247500D01*
G75*
G02*
X123517500Y-83185000I62500J0D01*
G01*
X124267500Y-83185000D01*
G75*
G02*
X124330000Y-83247500I0J-62500D01*
G01*
X124330000Y-83372500D01*
G75*
G02*
X124267500Y-83435000I-62500J0D01*
G01*
X123517500Y-83435000D01*
G75*
G02*
X123455000Y-83372500I0J62500D01*
G01*
G37*
%TD.AperFunction*%
%TO.P,U4,8*%
%TO.N,GND*%
%TA.AperFunction,SMDPad,CuDef*%
G36*
G01*
X123455000Y-82872500D02*
X123455000Y-82747500D01*
G75*
G02*
X123517500Y-82685000I62500J0D01*
G01*
X124267500Y-82685000D01*
G75*
G02*
X124330000Y-82747500I0J-62500D01*
G01*
X124330000Y-82872500D01*
G75*
G02*
X124267500Y-82935000I-62500J0D01*
G01*
X123517500Y-82935000D01*
G75*
G02*
X123455000Y-82872500I0J62500D01*
G01*
G37*
%TD.AperFunction*%
%TO.P,U4,7*%
%TO.N,NRST*%
%TA.AperFunction,SMDPad,CuDef*%
G36*
G01*
X123455000Y-82372500D02*
X123455000Y-82247500D01*
G75*
G02*
X123517500Y-82185000I62500J0D01*
G01*
X124267500Y-82185000D01*
G75*
G02*
X124330000Y-82247500I0J-62500D01*
G01*
X124330000Y-82372500D01*
G75*
G02*
X124267500Y-82435000I-62500J0D01*
G01*
X123517500Y-82435000D01*
G75*
G02*
X123455000Y-82372500I0J62500D01*
G01*
G37*
%TD.AperFunction*%
%TO.P,U4,6*%
%TO.N,HSE_OUT*%
%TA.AperFunction,SMDPad,CuDef*%
G36*
G01*
X123455000Y-81872500D02*
X123455000Y-81747500D01*
G75*
G02*
X123517500Y-81685000I62500J0D01*
G01*
X124267500Y-81685000D01*
G75*
G02*
X124330000Y-81747500I0J-62500D01*
G01*
X124330000Y-81872500D01*
G75*
G02*
X124267500Y-81935000I-62500J0D01*
G01*
X123517500Y-81935000D01*
G75*
G02*
X123455000Y-81872500I0J62500D01*
G01*
G37*
%TD.AperFunction*%
%TO.P,U4,5*%
%TO.N,HSE_IN*%
%TA.AperFunction,SMDPad,CuDef*%
G36*
G01*
X123455000Y-81372500D02*
X123455000Y-81247500D01*
G75*
G02*
X123517500Y-81185000I62500J0D01*
G01*
X124267500Y-81185000D01*
G75*
G02*
X124330000Y-81247500I0J-62500D01*
G01*
X124330000Y-81372500D01*
G75*
G02*
X124267500Y-81435000I-62500J0D01*
G01*
X123517500Y-81435000D01*
G75*
G02*
X123455000Y-81372500I0J62500D01*
G01*
G37*
%TD.AperFunction*%
%TO.P,U4,4*%
%TO.N,LSE_OUT*%
%TA.AperFunction,SMDPad,CuDef*%
G36*
G01*
X123455000Y-80872500D02*
X123455000Y-80747500D01*
G75*
G02*
X123517500Y-80685000I62500J0D01*
G01*
X124267500Y-80685000D01*
G75*
G02*
X124330000Y-80747500I0J-62500D01*
G01*
X124330000Y-80872500D01*
G75*
G02*
X124267500Y-80935000I-62500J0D01*
G01*
X123517500Y-80935000D01*
G75*
G02*
X123455000Y-80872500I0J62500D01*
G01*
G37*
%TD.AperFunction*%
%TO.P,U4,3*%
%TO.N,LSE_IN*%
%TA.AperFunction,SMDPad,CuDef*%
G36*
G01*
X123455000Y-80372500D02*
X123455000Y-80247500D01*
G75*
G02*
X123517500Y-80185000I62500J0D01*
G01*
X124267500Y-80185000D01*
G75*
G02*
X124330000Y-80247500I0J-62500D01*
G01*
X124330000Y-80372500D01*
G75*
G02*
X124267500Y-80435000I-62500J0D01*
G01*
X123517500Y-80435000D01*
G75*
G02*
X123455000Y-80372500I0J62500D01*
G01*
G37*
%TD.AperFunction*%
%TO.P,U4,2*%
%TO.N,BLUE_LED*%
%TA.AperFunction,SMDPad,CuDef*%
G36*
G01*
X123455000Y-79872500D02*
X123455000Y-79747500D01*
G75*
G02*
X123517500Y-79685000I62500J0D01*
G01*
X124267500Y-79685000D01*
G75*
G02*
X124330000Y-79747500I0J-62500D01*
G01*
X124330000Y-79872500D01*
G75*
G02*
X124267500Y-79935000I-62500J0D01*
G01*
X123517500Y-79935000D01*
G75*
G02*
X123455000Y-79872500I0J62500D01*
G01*
G37*
%TD.AperFunction*%
%TO.P,U4,1*%
%TO.N,+3V3*%
%TA.AperFunction,SMDPad,CuDef*%
G36*
G01*
X123455000Y-79372500D02*
X123455000Y-79247500D01*
G75*
G02*
X123517500Y-79185000I62500J0D01*
G01*
X124267500Y-79185000D01*
G75*
G02*
X124330000Y-79247500I0J-62500D01*
G01*
X124330000Y-79372500D01*
G75*
G02*
X124267500Y-79435000I-62500J0D01*
G01*
X123517500Y-79435000D01*
G75*
G02*
X123455000Y-79372500I0J62500D01*
G01*
G37*
%TD.AperFunction*%
%TD*%
D22*
%TO.P,U2,4*%
%TO.N,ZERO_CROSS_DETECT*%
X145380000Y-98000000D03*
%TO.P,U2,2*%
%TO.N,Net-(R3-Pad2)*%
X153000000Y-95460000D03*
%TO.P,U2,3*%
%TO.N,GND*%
X145380000Y-95460000D03*
D23*
%TO.P,U2,1*%
%TO.N,Net-(R2-Pad2)*%
X153000000Y-98000000D03*
%TD*%
D24*
%TO.P,U1,1*%
%TO.N,GND*%
X140650000Y-74800000D03*
%TO.P,U1,3*%
%TO.N,+12V*%
X140650000Y-70200000D03*
%TO.P,U1,2*%
%TO.N,+3V3*%
X140650000Y-72500000D03*
D25*
X134350000Y-72500000D03*
%TD*%
D16*
%TO.P,SW2,3*%
%TO.N,GND*%
X125080000Y-66000000D03*
%TO.P,SW2,2*%
%TO.N,Net-(R11-Pad1)*%
X122540000Y-66000000D03*
D17*
%TO.P,SW2,1*%
%TO.N,+3V3*%
X120000000Y-66000000D03*
%TD*%
D16*
%TO.P,SW1,2*%
%TO.N,NRST*%
X111500000Y-79040000D03*
D17*
%TO.P,SW1,1*%
%TO.N,GND*%
X111500000Y-76500000D03*
%TD*%
%TO.P,R11,2*%
%TO.N,BOOT*%
%TA.AperFunction,SMDPad,CuDef*%
G36*
G01*
X126315000Y-74740000D02*
X126685000Y-74740000D01*
G75*
G02*
X126820000Y-74875000I0J-135000D01*
G01*
X126820000Y-75145000D01*
G75*
G02*
X126685000Y-75280000I-135000J0D01*
G01*
X126315000Y-75280000D01*
G75*
G02*
X126180000Y-75145000I0J135000D01*
G01*
X126180000Y-74875000D01*
G75*
G02*
X126315000Y-74740000I135000J0D01*
G01*
G37*
%TD.AperFunction*%
%TO.P,R11,1*%
%TO.N,Net-(R11-Pad1)*%
%TA.AperFunction,SMDPad,CuDef*%
G36*
G01*
X126315000Y-73720000D02*
X126685000Y-73720000D01*
G75*
G02*
X126820000Y-73855000I0J-135000D01*
G01*
X126820000Y-74125000D01*
G75*
G02*
X126685000Y-74260000I-135000J0D01*
G01*
X126315000Y-74260000D01*
G75*
G02*
X126180000Y-74125000I0J135000D01*
G01*
X126180000Y-73855000D01*
G75*
G02*
X126315000Y-73720000I135000J0D01*
G01*
G37*
%TD.AperFunction*%
%TD*%
%TO.P,R7,2*%
%TO.N,Net-(D2-Pad1)*%
%TA.AperFunction,SMDPad,CuDef*%
G36*
G01*
X141425000Y-83275000D02*
X141425000Y-82725000D01*
G75*
G02*
X141625000Y-82525000I200000J0D01*
G01*
X142025000Y-82525000D01*
G75*
G02*
X142225000Y-82725000I0J-200000D01*
G01*
X142225000Y-83275000D01*
G75*
G02*
X142025000Y-83475000I-200000J0D01*
G01*
X141625000Y-83475000D01*
G75*
G02*
X141425000Y-83275000I0J200000D01*
G01*
G37*
%TD.AperFunction*%
%TO.P,R7,1*%
%TO.N,GND*%
%TA.AperFunction,SMDPad,CuDef*%
G36*
G01*
X139775000Y-83275000D02*
X139775000Y-82725000D01*
G75*
G02*
X139975000Y-82525000I200000J0D01*
G01*
X140375000Y-82525000D01*
G75*
G02*
X140575000Y-82725000I0J-200000D01*
G01*
X140575000Y-83275000D01*
G75*
G02*
X140375000Y-83475000I-200000J0D01*
G01*
X139975000Y-83475000D01*
G75*
G02*
X139775000Y-83275000I0J200000D01*
G01*
G37*
%TD.AperFunction*%
%TD*%
%TO.P,R8,2*%
%TO.N,Net-(D1-Pad1)*%
%TA.AperFunction,SMDPad,CuDef*%
G36*
G01*
X119425000Y-73275000D02*
X119425000Y-72725000D01*
G75*
G02*
X119625000Y-72525000I200000J0D01*
G01*
X120025000Y-72525000D01*
G75*
G02*
X120225000Y-72725000I0J-200000D01*
G01*
X120225000Y-73275000D01*
G75*
G02*
X120025000Y-73475000I-200000J0D01*
G01*
X119625000Y-73475000D01*
G75*
G02*
X119425000Y-73275000I0J200000D01*
G01*
G37*
%TD.AperFunction*%
%TO.P,R8,1*%
%TO.N,BLUE_LED*%
%TA.AperFunction,SMDPad,CuDef*%
G36*
G01*
X117775000Y-73275000D02*
X117775000Y-72725000D01*
G75*
G02*
X117975000Y-72525000I200000J0D01*
G01*
X118375000Y-72525000D01*
G75*
G02*
X118575000Y-72725000I0J-200000D01*
G01*
X118575000Y-73275000D01*
G75*
G02*
X118375000Y-73475000I-200000J0D01*
G01*
X117975000Y-73475000D01*
G75*
G02*
X117775000Y-73275000I0J200000D01*
G01*
G37*
%TD.AperFunction*%
%TD*%
%TO.P,R4,2*%
%TO.N,GND*%
%TA.AperFunction,SMDPad,CuDef*%
G36*
G01*
X173925000Y-96775000D02*
X173925000Y-96225000D01*
G75*
G02*
X174125000Y-96025000I200000J0D01*
G01*
X174525000Y-96025000D01*
G75*
G02*
X174725000Y-96225000I0J-200000D01*
G01*
X174725000Y-96775000D01*
G75*
G02*
X174525000Y-96975000I-200000J0D01*
G01*
X174125000Y-96975000D01*
G75*
G02*
X173925000Y-96775000I0J200000D01*
G01*
G37*
%TD.AperFunction*%
%TO.P,R4,1*%
%TO.N,Net-(Q1-Pad1)*%
%TA.AperFunction,SMDPad,CuDef*%
G36*
G01*
X172275000Y-96775000D02*
X172275000Y-96225000D01*
G75*
G02*
X172475000Y-96025000I200000J0D01*
G01*
X172875000Y-96025000D01*
G75*
G02*
X173075000Y-96225000I0J-200000D01*
G01*
X173075000Y-96775000D01*
G75*
G02*
X172875000Y-96975000I-200000J0D01*
G01*
X172475000Y-96975000D01*
G75*
G02*
X172275000Y-96775000I0J200000D01*
G01*
G37*
%TD.AperFunction*%
%TD*%
%TO.P,R3,2*%
%TO.N,Net-(R3-Pad2)*%
%TA.AperFunction,SMDPad,CuDef*%
G36*
G01*
X155225000Y-95925000D02*
X155775000Y-95925000D01*
G75*
G02*
X155975000Y-96125000I0J-200000D01*
G01*
X155975000Y-96525000D01*
G75*
G02*
X155775000Y-96725000I-200000J0D01*
G01*
X155225000Y-96725000D01*
G75*
G02*
X155025000Y-96525000I0J200000D01*
G01*
X155025000Y-96125000D01*
G75*
G02*
X155225000Y-95925000I200000J0D01*
G01*
G37*
%TD.AperFunction*%
%TO.P,R3,1*%
%TO.N,Net-(F1-Pad2)*%
%TA.AperFunction,SMDPad,CuDef*%
G36*
G01*
X155225000Y-94275000D02*
X155775000Y-94275000D01*
G75*
G02*
X155975000Y-94475000I0J-200000D01*
G01*
X155975000Y-94875000D01*
G75*
G02*
X155775000Y-95075000I-200000J0D01*
G01*
X155225000Y-95075000D01*
G75*
G02*
X155025000Y-94875000I0J200000D01*
G01*
X155025000Y-94475000D01*
G75*
G02*
X155225000Y-94275000I200000J0D01*
G01*
G37*
%TD.AperFunction*%
%TD*%
%TO.P,R2,2*%
%TO.N,Net-(R2-Pad2)*%
%TA.AperFunction,SMDPad,CuDef*%
G36*
G01*
X160575000Y-96225000D02*
X160575000Y-96775000D01*
G75*
G02*
X160375000Y-96975000I-200000J0D01*
G01*
X159975000Y-96975000D01*
G75*
G02*
X159775000Y-96775000I0J200000D01*
G01*
X159775000Y-96225000D01*
G75*
G02*
X159975000Y-96025000I200000J0D01*
G01*
X160375000Y-96025000D01*
G75*
G02*
X160575000Y-96225000I0J-200000D01*
G01*
G37*
%TD.AperFunction*%
%TO.P,R2,1*%
%TO.N,Net-(J1-Pad1)*%
%TA.AperFunction,SMDPad,CuDef*%
G36*
G01*
X162225000Y-96225000D02*
X162225000Y-96775000D01*
G75*
G02*
X162025000Y-96975000I-200000J0D01*
G01*
X161625000Y-96975000D01*
G75*
G02*
X161425000Y-96775000I0J200000D01*
G01*
X161425000Y-96225000D01*
G75*
G02*
X161625000Y-96025000I200000J0D01*
G01*
X162025000Y-96025000D01*
G75*
G02*
X162225000Y-96225000I0J-200000D01*
G01*
G37*
%TD.AperFunction*%
%TD*%
%TO.P,R1,2*%
%TO.N,Net-(C10-Pad1)*%
%TA.AperFunction,SMDPad,CuDef*%
G36*
G01*
X120965000Y-83265000D02*
X121335000Y-83265000D01*
G75*
G02*
X121470000Y-83400000I0J-135000D01*
G01*
X121470000Y-83670000D01*
G75*
G02*
X121335000Y-83805000I-135000J0D01*
G01*
X120965000Y-83805000D01*
G75*
G02*
X120830000Y-83670000I0J135000D01*
G01*
X120830000Y-83400000D01*
G75*
G02*
X120965000Y-83265000I135000J0D01*
G01*
G37*
%TD.AperFunction*%
%TO.P,R1,1*%
%TO.N,HSE_OUT*%
%TA.AperFunction,SMDPad,CuDef*%
G36*
G01*
X120965000Y-82245000D02*
X121335000Y-82245000D01*
G75*
G02*
X121470000Y-82380000I0J-135000D01*
G01*
X121470000Y-82650000D01*
G75*
G02*
X121335000Y-82785000I-135000J0D01*
G01*
X120965000Y-82785000D01*
G75*
G02*
X120830000Y-82650000I0J135000D01*
G01*
X120830000Y-82380000D01*
G75*
G02*
X120965000Y-82245000I135000J0D01*
G01*
G37*
%TD.AperFunction*%
%TD*%
D26*
%TO.P,Q2,3*%
%TO.N,GND*%
X167080000Y-101000000D03*
%TO.P,Q2,2*%
%TO.N,Net-(J1-Pad1)*%
X164540000Y-101000000D03*
D27*
%TO.P,Q2,1*%
%TO.N,Net-(Q1-Pad1)*%
X162000000Y-101000000D03*
%TD*%
D26*
%TO.P,Q1,3*%
%TO.N,GND*%
X179580000Y-101000000D03*
%TO.P,Q1,2*%
%TO.N,Net-(J2-Pad2)*%
X177040000Y-101000000D03*
D27*
%TO.P,Q1,1*%
%TO.N,Net-(Q1-Pad1)*%
X174500000Y-101000000D03*
%TD*%
%TO.P,L1,2*%
%TO.N,+3.3VA*%
%TA.AperFunction,SMDPad,CuDef*%
G36*
G01*
X120172500Y-87810000D02*
X119827500Y-87810000D01*
G75*
G02*
X119680000Y-87662500I0J147500D01*
G01*
X119680000Y-87367500D01*
G75*
G02*
X119827500Y-87220000I147500J0D01*
G01*
X120172500Y-87220000D01*
G75*
G02*
X120320000Y-87367500I0J-147500D01*
G01*
X120320000Y-87662500D01*
G75*
G02*
X120172500Y-87810000I-147500J0D01*
G01*
G37*
%TD.AperFunction*%
%TO.P,L1,1*%
%TO.N,+3V3*%
%TA.AperFunction,SMDPad,CuDef*%
G36*
G01*
X120172500Y-88780000D02*
X119827500Y-88780000D01*
G75*
G02*
X119680000Y-88632500I0J147500D01*
G01*
X119680000Y-88337500D01*
G75*
G02*
X119827500Y-88190000I147500J0D01*
G01*
X120172500Y-88190000D01*
G75*
G02*
X120320000Y-88337500I0J-147500D01*
G01*
X120320000Y-88632500D01*
G75*
G02*
X120172500Y-88780000I-147500J0D01*
G01*
G37*
%TD.AperFunction*%
%TD*%
D16*
%TO.P,J4,4*%
%TO.N,+3V3*%
X136380000Y-79000000D03*
%TO.P,J4,3*%
%TO.N,SWDIO*%
X138920000Y-79000000D03*
%TO.P,J4,2*%
%TO.N,SWCLK*%
X141460000Y-79000000D03*
D17*
%TO.P,J4,1*%
%TO.N,GND*%
X144000000Y-79000000D03*
%TD*%
D16*
%TO.P,J3,14*%
%TO.N,TOUCH_IRQ*%
X110480000Y-102000000D03*
%TO.P,J3,13*%
%TO.N,TOUCH_MISO*%
X113020000Y-102000000D03*
%TO.P,J3,12*%
%TO.N,TOUCH_MOSI*%
X115560000Y-102000000D03*
%TO.P,J3,11*%
%TO.N,TOUCH_CS*%
X118100000Y-102000000D03*
%TO.P,J3,10*%
%TO.N,TOUCH_CLK*%
X120640000Y-102000000D03*
%TO.P,J3,9*%
%TO.N,Net-(J3-Pad9)*%
X123180000Y-102000000D03*
%TO.P,J3,8*%
%TO.N,Net-(J3-Pad8)*%
X125720000Y-102000000D03*
%TO.P,J3,7*%
%TO.N,LCD_CLK*%
X128260000Y-102000000D03*
%TO.P,J3,6*%
%TO.N,LCD_MOSI*%
X130800000Y-102000000D03*
%TO.P,J3,5*%
%TO.N,LCD_DC*%
X133340000Y-102000000D03*
%TO.P,J3,4*%
%TO.N,+3V3*%
X135880000Y-102000000D03*
%TO.P,J3,3*%
%TO.N,LCD_CS*%
X138420000Y-102000000D03*
%TO.P,J3,2*%
%TO.N,GND*%
X140960000Y-102000000D03*
D17*
%TO.P,J3,1*%
%TO.N,+3V3*%
X143500000Y-102000000D03*
%TD*%
D28*
%TO.P,J2,2*%
%TO.N,Net-(J2-Pad2)*%
X188620000Y-91480000D03*
D29*
%TO.P,J2,1*%
%TO.N,Net-(F1-Pad2)*%
X188620000Y-86400000D03*
%TD*%
D28*
%TO.P,J1,2*%
%TO.N,Net-(F1-Pad1)*%
X188620000Y-80812000D03*
D29*
%TO.P,J1,1*%
%TO.N,Net-(J1-Pad1)*%
X188620000Y-75732000D03*
%TD*%
D11*
%TO.P,H4,1*%
%TO.N,GND*%
X112530419Y-92719581D03*
X110250000Y-91775000D03*
X107969581Y-92719581D03*
X107025000Y-95000000D03*
X107969581Y-97280419D03*
X110250000Y-98225000D03*
X112530419Y-97280419D03*
X113475000Y-95000000D03*
D12*
X110250000Y-95000000D03*
%TD*%
D11*
%TO.P,H3,1*%
%TO.N,GND*%
X112280419Y-65719581D03*
X110000000Y-64775000D03*
X107719581Y-65719581D03*
X106775000Y-68000000D03*
X107719581Y-70280419D03*
X110000000Y-71225000D03*
X112280419Y-70280419D03*
X113225000Y-68000000D03*
D12*
X110000000Y-68000000D03*
%TD*%
D28*
%TO.P,F1,2*%
%TO.N,Net-(F1-Pad2)*%
X157900000Y-90000000D03*
%TO.P,F1,1*%
%TO.N,Net-(F1-Pad1)*%
X180500000Y-90000000D03*
%TD*%
%TO.P,D2,2*%
%TO.N,+3V3*%
%TA.AperFunction,SMDPad,CuDef*%
G36*
G01*
X140650000Y-85243750D02*
X140650000Y-85756250D01*
G75*
G02*
X140431250Y-85975000I-218750J0D01*
G01*
X139993750Y-85975000D01*
G75*
G02*
X139775000Y-85756250I0J218750D01*
G01*
X139775000Y-85243750D01*
G75*
G02*
X139993750Y-85025000I218750J0D01*
G01*
X140431250Y-85025000D01*
G75*
G02*
X140650000Y-85243750I0J-218750D01*
G01*
G37*
%TD.AperFunction*%
%TO.P,D2,1*%
%TO.N,Net-(D2-Pad1)*%
%TA.AperFunction,SMDPad,CuDef*%
G36*
G01*
X142225000Y-85243750D02*
X142225000Y-85756250D01*
G75*
G02*
X142006250Y-85975000I-218750J0D01*
G01*
X141568750Y-85975000D01*
G75*
G02*
X141350000Y-85756250I0J218750D01*
G01*
X141350000Y-85243750D01*
G75*
G02*
X141568750Y-85025000I218750J0D01*
G01*
X142006250Y-85025000D01*
G75*
G02*
X142225000Y-85243750I0J-218750D01*
G01*
G37*
%TD.AperFunction*%
%TD*%
%TO.P,D1,2*%
%TO.N,+3V3*%
%TA.AperFunction,SMDPad,CuDef*%
G36*
G01*
X118650000Y-70743750D02*
X118650000Y-71256250D01*
G75*
G02*
X118431250Y-71475000I-218750J0D01*
G01*
X117993750Y-71475000D01*
G75*
G02*
X117775000Y-71256250I0J218750D01*
G01*
X117775000Y-70743750D01*
G75*
G02*
X117993750Y-70525000I218750J0D01*
G01*
X118431250Y-70525000D01*
G75*
G02*
X118650000Y-70743750I0J-218750D01*
G01*
G37*
%TD.AperFunction*%
%TO.P,D1,1*%
%TO.N,Net-(D1-Pad1)*%
%TA.AperFunction,SMDPad,CuDef*%
G36*
G01*
X120225000Y-70743750D02*
X120225000Y-71256250D01*
G75*
G02*
X120006250Y-71475000I-218750J0D01*
G01*
X119568750Y-71475000D01*
G75*
G02*
X119350000Y-71256250I0J218750D01*
G01*
X119350000Y-70743750D01*
G75*
G02*
X119568750Y-70525000I218750J0D01*
G01*
X120006250Y-70525000D01*
G75*
G02*
X120225000Y-70743750I0J-218750D01*
G01*
G37*
%TD.AperFunction*%
%TD*%
%TO.P,C15,2*%
%TO.N,GND*%
%TA.AperFunction,SMDPad,CuDef*%
G36*
G01*
X114750000Y-77675000D02*
X114250000Y-77675000D01*
G75*
G02*
X114025000Y-77450000I0J225000D01*
G01*
X114025000Y-77000000D01*
G75*
G02*
X114250000Y-76775000I225000J0D01*
G01*
X114750000Y-76775000D01*
G75*
G02*
X114975000Y-77000000I0J-225000D01*
G01*
X114975000Y-77450000D01*
G75*
G02*
X114750000Y-77675000I-225000J0D01*
G01*
G37*
%TD.AperFunction*%
%TO.P,C15,1*%
%TO.N,NRST*%
%TA.AperFunction,SMDPad,CuDef*%
G36*
G01*
X114750000Y-79225000D02*
X114250000Y-79225000D01*
G75*
G02*
X114025000Y-79000000I0J225000D01*
G01*
X114025000Y-78550000D01*
G75*
G02*
X114250000Y-78325000I225000J0D01*
G01*
X114750000Y-78325000D01*
G75*
G02*
X114975000Y-78550000I0J-225000D01*
G01*
X114975000Y-79000000D01*
G75*
G02*
X114750000Y-79225000I-225000J0D01*
G01*
G37*
%TD.AperFunction*%
%TD*%
%TO.P,C14,2*%
%TO.N,GND*%
%TA.AperFunction,SMDPad,CuDef*%
G36*
G01*
X118670000Y-78300000D02*
X118330000Y-78300000D01*
G75*
G02*
X118190000Y-78160000I0J140000D01*
G01*
X118190000Y-77880000D01*
G75*
G02*
X118330000Y-77740000I140000J0D01*
G01*
X118670000Y-77740000D01*
G75*
G02*
X118810000Y-77880000I0J-140000D01*
G01*
X118810000Y-78160000D01*
G75*
G02*
X118670000Y-78300000I-140000J0D01*
G01*
G37*
%TD.AperFunction*%
%TO.P,C14,1*%
%TO.N,LSE_OUT*%
%TA.AperFunction,SMDPad,CuDef*%
G36*
G01*
X118670000Y-79260000D02*
X118330000Y-79260000D01*
G75*
G02*
X118190000Y-79120000I0J140000D01*
G01*
X118190000Y-78840000D01*
G75*
G02*
X118330000Y-78700000I140000J0D01*
G01*
X118670000Y-78700000D01*
G75*
G02*
X118810000Y-78840000I0J-140000D01*
G01*
X118810000Y-79120000D01*
G75*
G02*
X118670000Y-79260000I-140000J0D01*
G01*
G37*
%TD.AperFunction*%
%TD*%
%TO.P,C13,2*%
%TO.N,GND*%
%TA.AperFunction,SMDPad,CuDef*%
G36*
G01*
X118330000Y-76720000D02*
X118670000Y-76720000D01*
G75*
G02*
X118810000Y-76860000I0J-140000D01*
G01*
X118810000Y-77140000D01*
G75*
G02*
X118670000Y-77280000I-140000J0D01*
G01*
X118330000Y-77280000D01*
G75*
G02*
X118190000Y-77140000I0J140000D01*
G01*
X118190000Y-76860000D01*
G75*
G02*
X118330000Y-76720000I140000J0D01*
G01*
G37*
%TD.AperFunction*%
%TO.P,C13,1*%
%TO.N,LSE_IN*%
%TA.AperFunction,SMDPad,CuDef*%
G36*
G01*
X118330000Y-75760000D02*
X118670000Y-75760000D01*
G75*
G02*
X118810000Y-75900000I0J-140000D01*
G01*
X118810000Y-76180000D01*
G75*
G02*
X118670000Y-76320000I-140000J0D01*
G01*
X118330000Y-76320000D01*
G75*
G02*
X118190000Y-76180000I0J140000D01*
G01*
X118190000Y-75900000D01*
G75*
G02*
X118330000Y-75760000I140000J0D01*
G01*
G37*
%TD.AperFunction*%
%TD*%
%TO.P,C12,2*%
%TO.N,GND*%
%TA.AperFunction,SMDPad,CuDef*%
G36*
G01*
X131357000Y-88214000D02*
X131357000Y-87714000D01*
G75*
G02*
X131582000Y-87489000I225000J0D01*
G01*
X132032000Y-87489000D01*
G75*
G02*
X132257000Y-87714000I0J-225000D01*
G01*
X132257000Y-88214000D01*
G75*
G02*
X132032000Y-88439000I-225000J0D01*
G01*
X131582000Y-88439000D01*
G75*
G02*
X131357000Y-88214000I0J225000D01*
G01*
G37*
%TD.AperFunction*%
%TO.P,C12,1*%
%TO.N,Net-(C11-Pad1)*%
%TA.AperFunction,SMDPad,CuDef*%
G36*
G01*
X129807000Y-88214000D02*
X129807000Y-87714000D01*
G75*
G02*
X130032000Y-87489000I225000J0D01*
G01*
X130482000Y-87489000D01*
G75*
G02*
X130707000Y-87714000I0J-225000D01*
G01*
X130707000Y-88214000D01*
G75*
G02*
X130482000Y-88439000I-225000J0D01*
G01*
X130032000Y-88439000D01*
G75*
G02*
X129807000Y-88214000I0J225000D01*
G01*
G37*
%TD.AperFunction*%
%TD*%
%TO.P,C11,2*%
%TO.N,GND*%
%TA.AperFunction,SMDPad,CuDef*%
G36*
G01*
X131357000Y-90246000D02*
X131357000Y-89746000D01*
G75*
G02*
X131582000Y-89521000I225000J0D01*
G01*
X132032000Y-89521000D01*
G75*
G02*
X132257000Y-89746000I0J-225000D01*
G01*
X132257000Y-90246000D01*
G75*
G02*
X132032000Y-90471000I-225000J0D01*
G01*
X131582000Y-90471000D01*
G75*
G02*
X131357000Y-90246000I0J225000D01*
G01*
G37*
%TD.AperFunction*%
%TO.P,C11,1*%
%TO.N,Net-(C11-Pad1)*%
%TA.AperFunction,SMDPad,CuDef*%
G36*
G01*
X129807000Y-90246000D02*
X129807000Y-89746000D01*
G75*
G02*
X130032000Y-89521000I225000J0D01*
G01*
X130482000Y-89521000D01*
G75*
G02*
X130707000Y-89746000I0J-225000D01*
G01*
X130707000Y-90246000D01*
G75*
G02*
X130482000Y-90471000I-225000J0D01*
G01*
X130032000Y-90471000D01*
G75*
G02*
X129807000Y-90246000I0J225000D01*
G01*
G37*
%TD.AperFunction*%
%TD*%
%TO.P,C10,2*%
%TO.N,GND*%
%TA.AperFunction,SMDPad,CuDef*%
G36*
G01*
X118300000Y-86330000D02*
X118300000Y-86670000D01*
G75*
G02*
X118160000Y-86810000I-140000J0D01*
G01*
X117880000Y-86810000D01*
G75*
G02*
X117740000Y-86670000I0J140000D01*
G01*
X117740000Y-86330000D01*
G75*
G02*
X117880000Y-86190000I140000J0D01*
G01*
X118160000Y-86190000D01*
G75*
G02*
X118300000Y-86330000I0J-140000D01*
G01*
G37*
%TD.AperFunction*%
%TO.P,C10,1*%
%TO.N,Net-(C10-Pad1)*%
%TA.AperFunction,SMDPad,CuDef*%
G36*
G01*
X119260000Y-86330000D02*
X119260000Y-86670000D01*
G75*
G02*
X119120000Y-86810000I-140000J0D01*
G01*
X118840000Y-86810000D01*
G75*
G02*
X118700000Y-86670000I0J140000D01*
G01*
X118700000Y-86330000D01*
G75*
G02*
X118840000Y-86190000I140000J0D01*
G01*
X119120000Y-86190000D01*
G75*
G02*
X119260000Y-86330000I0J-140000D01*
G01*
G37*
%TD.AperFunction*%
%TD*%
%TO.P,C9,2*%
%TO.N,GND*%
%TA.AperFunction,SMDPad,CuDef*%
G36*
G01*
X118300000Y-80330000D02*
X118300000Y-80670000D01*
G75*
G02*
X118160000Y-80810000I-140000J0D01*
G01*
X117880000Y-80810000D01*
G75*
G02*
X117740000Y-80670000I0J140000D01*
G01*
X117740000Y-80330000D01*
G75*
G02*
X117880000Y-80190000I140000J0D01*
G01*
X118160000Y-80190000D01*
G75*
G02*
X118300000Y-80330000I0J-140000D01*
G01*
G37*
%TD.AperFunction*%
%TO.P,C9,1*%
%TO.N,HSE_IN*%
%TA.AperFunction,SMDPad,CuDef*%
G36*
G01*
X119260000Y-80330000D02*
X119260000Y-80670000D01*
G75*
G02*
X119120000Y-80810000I-140000J0D01*
G01*
X118840000Y-80810000D01*
G75*
G02*
X118700000Y-80670000I0J140000D01*
G01*
X118700000Y-80330000D01*
G75*
G02*
X118840000Y-80190000I140000J0D01*
G01*
X119120000Y-80190000D01*
G75*
G02*
X119260000Y-80330000I0J-140000D01*
G01*
G37*
%TD.AperFunction*%
%TD*%
%TO.P,C8,2*%
%TO.N,GND*%
%TA.AperFunction,SMDPad,CuDef*%
G36*
G01*
X143349999Y-72900000D02*
X144650001Y-72900000D01*
G75*
G02*
X144900000Y-73149999I0J-249999D01*
G01*
X144900000Y-73800001D01*
G75*
G02*
X144650001Y-74050000I-249999J0D01*
G01*
X143349999Y-74050000D01*
G75*
G02*
X143100000Y-73800001I0J249999D01*
G01*
X143100000Y-73149999D01*
G75*
G02*
X143349999Y-72900000I249999J0D01*
G01*
G37*
%TD.AperFunction*%
%TO.P,C8,1*%
%TO.N,+12V*%
%TA.AperFunction,SMDPad,CuDef*%
G36*
G01*
X143349999Y-69950000D02*
X144650001Y-69950000D01*
G75*
G02*
X144900000Y-70199999I0J-249999D01*
G01*
X144900000Y-70850001D01*
G75*
G02*
X144650001Y-71100000I-249999J0D01*
G01*
X143349999Y-71100000D01*
G75*
G02*
X143100000Y-70850001I0J249999D01*
G01*
X143100000Y-70199999D01*
G75*
G02*
X143349999Y-69950000I249999J0D01*
G01*
G37*
%TD.AperFunction*%
%TD*%
%TO.P,C7,2*%
%TO.N,GND*%
%TA.AperFunction,SMDPad,CuDef*%
G36*
G01*
X120830000Y-87700000D02*
X121170000Y-87700000D01*
G75*
G02*
X121310000Y-87840000I0J-140000D01*
G01*
X121310000Y-88120000D01*
G75*
G02*
X121170000Y-88260000I-140000J0D01*
G01*
X120830000Y-88260000D01*
G75*
G02*
X120690000Y-88120000I0J140000D01*
G01*
X120690000Y-87840000D01*
G75*
G02*
X120830000Y-87700000I140000J0D01*
G01*
G37*
%TD.AperFunction*%
%TO.P,C7,1*%
%TO.N,+3.3VA*%
%TA.AperFunction,SMDPad,CuDef*%
G36*
G01*
X120830000Y-86740000D02*
X121170000Y-86740000D01*
G75*
G02*
X121310000Y-86880000I0J-140000D01*
G01*
X121310000Y-87160000D01*
G75*
G02*
X121170000Y-87300000I-140000J0D01*
G01*
X120830000Y-87300000D01*
G75*
G02*
X120690000Y-87160000I0J140000D01*
G01*
X120690000Y-86880000D01*
G75*
G02*
X120830000Y-86740000I140000J0D01*
G01*
G37*
%TD.AperFunction*%
%TD*%
%TO.P,C6,2*%
%TO.N,GND*%
%TA.AperFunction,SMDPad,CuDef*%
G36*
G01*
X121830000Y-86700000D02*
X122170000Y-86700000D01*
G75*
G02*
X122310000Y-86840000I0J-140000D01*
G01*
X122310000Y-87120000D01*
G75*
G02*
X122170000Y-87260000I-140000J0D01*
G01*
X121830000Y-87260000D01*
G75*
G02*
X121690000Y-87120000I0J140000D01*
G01*
X121690000Y-86840000D01*
G75*
G02*
X121830000Y-86700000I140000J0D01*
G01*
G37*
%TD.AperFunction*%
%TO.P,C6,1*%
%TO.N,+3.3VA*%
%TA.AperFunction,SMDPad,CuDef*%
G36*
G01*
X121830000Y-85740000D02*
X122170000Y-85740000D01*
G75*
G02*
X122310000Y-85880000I0J-140000D01*
G01*
X122310000Y-86160000D01*
G75*
G02*
X122170000Y-86300000I-140000J0D01*
G01*
X121830000Y-86300000D01*
G75*
G02*
X121690000Y-86160000I0J140000D01*
G01*
X121690000Y-85880000D01*
G75*
G02*
X121830000Y-85740000I140000J0D01*
G01*
G37*
%TD.AperFunction*%
%TD*%
%TO.P,C5,2*%
%TO.N,GND*%
%TA.AperFunction,SMDPad,CuDef*%
G36*
G01*
X133330000Y-79700000D02*
X133670000Y-79700000D01*
G75*
G02*
X133810000Y-79840000I0J-140000D01*
G01*
X133810000Y-80120000D01*
G75*
G02*
X133670000Y-80260000I-140000J0D01*
G01*
X133330000Y-80260000D01*
G75*
G02*
X133190000Y-80120000I0J140000D01*
G01*
X133190000Y-79840000D01*
G75*
G02*
X133330000Y-79700000I140000J0D01*
G01*
G37*
%TD.AperFunction*%
%TO.P,C5,1*%
%TO.N,+3V3*%
%TA.AperFunction,SMDPad,CuDef*%
G36*
G01*
X133330000Y-78740000D02*
X133670000Y-78740000D01*
G75*
G02*
X133810000Y-78880000I0J-140000D01*
G01*
X133810000Y-79160000D01*
G75*
G02*
X133670000Y-79300000I-140000J0D01*
G01*
X133330000Y-79300000D01*
G75*
G02*
X133190000Y-79160000I0J140000D01*
G01*
X133190000Y-78880000D01*
G75*
G02*
X133330000Y-78740000I140000J0D01*
G01*
G37*
%TD.AperFunction*%
%TD*%
%TO.P,C4,2*%
%TO.N,GND*%
%TA.AperFunction,SMDPad,CuDef*%
G36*
G01*
X132330000Y-79700000D02*
X132670000Y-79700000D01*
G75*
G02*
X132810000Y-79840000I0J-140000D01*
G01*
X132810000Y-80120000D01*
G75*
G02*
X132670000Y-80260000I-140000J0D01*
G01*
X132330000Y-80260000D01*
G75*
G02*
X132190000Y-80120000I0J140000D01*
G01*
X132190000Y-79840000D01*
G75*
G02*
X132330000Y-79700000I140000J0D01*
G01*
G37*
%TD.AperFunction*%
%TO.P,C4,1*%
%TO.N,+3V3*%
%TA.AperFunction,SMDPad,CuDef*%
G36*
G01*
X132330000Y-78740000D02*
X132670000Y-78740000D01*
G75*
G02*
X132810000Y-78880000I0J-140000D01*
G01*
X132810000Y-79160000D01*
G75*
G02*
X132670000Y-79300000I-140000J0D01*
G01*
X132330000Y-79300000D01*
G75*
G02*
X132190000Y-79160000I0J140000D01*
G01*
X132190000Y-78880000D01*
G75*
G02*
X132330000Y-78740000I140000J0D01*
G01*
G37*
%TD.AperFunction*%
%TD*%
%TO.P,C3,2*%
%TO.N,GND*%
%TA.AperFunction,SMDPad,CuDef*%
G36*
G01*
X132330000Y-85700000D02*
X132670000Y-85700000D01*
G75*
G02*
X132810000Y-85840000I0J-140000D01*
G01*
X132810000Y-86120000D01*
G75*
G02*
X132670000Y-86260000I-140000J0D01*
G01*
X132330000Y-86260000D01*
G75*
G02*
X132190000Y-86120000I0J140000D01*
G01*
X132190000Y-85840000D01*
G75*
G02*
X132330000Y-85700000I140000J0D01*
G01*
G37*
%TD.AperFunction*%
%TO.P,C3,1*%
%TO.N,+3V3*%
%TA.AperFunction,SMDPad,CuDef*%
G36*
G01*
X132330000Y-84740000D02*
X132670000Y-84740000D01*
G75*
G02*
X132810000Y-84880000I0J-140000D01*
G01*
X132810000Y-85160000D01*
G75*
G02*
X132670000Y-85300000I-140000J0D01*
G01*
X132330000Y-85300000D01*
G75*
G02*
X132190000Y-85160000I0J140000D01*
G01*
X132190000Y-84880000D01*
G75*
G02*
X132330000Y-84740000I140000J0D01*
G01*
G37*
%TD.AperFunction*%
%TD*%
%TO.P,C2,2*%
%TO.N,GND*%
%TA.AperFunction,SMDPad,CuDef*%
G36*
G01*
X124670000Y-75800000D02*
X124330000Y-75800000D01*
G75*
G02*
X124190000Y-75660000I0J140000D01*
G01*
X124190000Y-75380000D01*
G75*
G02*
X124330000Y-75240000I140000J0D01*
G01*
X124670000Y-75240000D01*
G75*
G02*
X124810000Y-75380000I0J-140000D01*
G01*
X124810000Y-75660000D01*
G75*
G02*
X124670000Y-75800000I-140000J0D01*
G01*
G37*
%TD.AperFunction*%
%TO.P,C2,1*%
%TO.N,+3V3*%
%TA.AperFunction,SMDPad,CuDef*%
G36*
G01*
X124670000Y-76760000D02*
X124330000Y-76760000D01*
G75*
G02*
X124190000Y-76620000I0J140000D01*
G01*
X124190000Y-76340000D01*
G75*
G02*
X124330000Y-76200000I140000J0D01*
G01*
X124670000Y-76200000D01*
G75*
G02*
X124810000Y-76340000I0J-140000D01*
G01*
X124810000Y-76620000D01*
G75*
G02*
X124670000Y-76760000I-140000J0D01*
G01*
G37*
%TD.AperFunction*%
%TD*%
D30*
%TO.N,GND*%
X127300000Y-84050000D03*
X129050000Y-82650000D03*
X127125000Y-82800000D03*
X125450000Y-82900000D03*
X125475000Y-81400000D03*
X127225000Y-81700000D03*
X129200000Y-81375000D03*
X129150000Y-80175000D03*
X127300000Y-80125000D03*
X125500000Y-80050000D03*
X125375000Y-84125000D03*
X129100000Y-84075000D03*
X145300000Y-73500000D03*
X140725000Y-75975000D03*
X117250000Y-80575000D03*
X115400000Y-77225000D03*
X117775000Y-77025000D03*
X117775000Y-78050000D03*
X124500000Y-74800000D03*
X123000000Y-74800000D03*
X140150000Y-82050000D03*
X133200000Y-86225000D03*
X132675000Y-88000000D03*
X132700000Y-90050000D03*
X117850000Y-87225000D03*
X121575000Y-88525000D03*
X143500000Y-88900000D03*
X145950000Y-89125000D03*
X140960000Y-100165000D03*
X144015000Y-95460000D03*
X167262500Y-98237500D03*
X175600000Y-96500000D03*
X134250000Y-80050000D03*
X126000000Y-91900000D03*
%TO.N,+3V3*%
X139375000Y-85525000D03*
X132925000Y-72625000D03*
X142050000Y-72525000D03*
X134425000Y-74825000D03*
X118225000Y-70075000D03*
X133250000Y-84850000D03*
X119250000Y-88500000D03*
X133525000Y-78300000D03*
X132475000Y-78275000D03*
X123775000Y-77050000D03*
X134350000Y-70125000D03*
X131200000Y-72000000D03*
X126000000Y-71300000D03*
X119900000Y-92400000D03*
%TO.N,NRST*%
X114500000Y-79700000D03*
X122250000Y-82600000D03*
%TO.N,TOUCH_IRQ*%
X118550000Y-91375000D03*
X123025000Y-85500000D03*
%TO.N,TOUCH_MISO*%
X125175000Y-88575000D03*
X122325000Y-96375000D03*
%TO.N,TOUCH_MOSI*%
X126100000Y-89300000D03*
X123150000Y-98650000D03*
%TO.N,TOUCH_CS*%
X124075000Y-86900000D03*
%TO.N,TOUCH_CLK*%
X124725000Y-87675000D03*
%TO.N,LCD_MOSI*%
X135175000Y-81925000D03*
%TD*%
D31*
%TO.N,GND*%
X176500000Y-96500000D02*
X175600000Y-96500000D01*
X179580000Y-99580000D02*
X176500000Y-96500000D01*
X179580000Y-101000000D02*
X179580000Y-99580000D01*
X167080000Y-101000000D02*
X167080000Y-98420000D01*
X167080000Y-98420000D02*
X167262500Y-98237500D01*
X171000000Y-94500000D02*
X174500000Y-94500000D01*
X174500000Y-96325000D02*
X174325000Y-96500000D01*
X174500000Y-94500000D02*
X174500000Y-96325000D01*
D32*
X118500000Y-78020000D02*
X118500000Y-77000000D01*
X124810000Y-75520000D02*
X124500000Y-75520000D01*
X125160010Y-75870010D02*
X124810000Y-75520000D01*
X125160010Y-76822970D02*
X125160010Y-75870010D01*
X125080000Y-76902980D02*
X125160010Y-76822970D01*
X125080000Y-78622500D02*
X125080000Y-76902980D01*
X124500000Y-75520000D02*
X123000000Y-75520000D01*
X130000000Y-86500000D02*
X131980000Y-86500000D01*
X129580000Y-86080000D02*
X130000000Y-86500000D01*
X131980000Y-86500000D02*
X132500000Y-85980000D01*
X129580000Y-85497500D02*
X129580000Y-86080000D01*
X131807000Y-86673000D02*
X131980000Y-86500000D01*
X131807000Y-87964000D02*
X131807000Y-86673000D01*
X131807000Y-89996000D02*
X131807000Y-87964000D01*
X112225000Y-77225000D02*
X111500000Y-76500000D01*
D31*
X142675000Y-74800000D02*
X144000000Y-73475000D01*
X140650000Y-74800000D02*
X142675000Y-74800000D01*
D32*
X132330000Y-79810000D02*
X130767500Y-79810000D01*
X132500000Y-79980000D02*
X132330000Y-79810000D01*
D33*
X133500000Y-79980000D02*
X132500000Y-79980000D01*
D32*
X125080000Y-79805000D02*
X125275000Y-80000000D01*
X125080000Y-78622500D02*
X125080000Y-79805000D01*
X126800000Y-80000000D02*
X126825000Y-80025000D01*
X125275000Y-80000000D02*
X126800000Y-80000000D01*
X127330000Y-81555000D02*
X127125000Y-81350000D01*
X127330000Y-82060000D02*
X127330000Y-81555000D01*
X127330000Y-82595000D02*
X127125000Y-82800000D01*
X127330000Y-82060000D02*
X127330000Y-82595000D01*
X126290000Y-82060000D02*
X125450000Y-82900000D01*
X127330000Y-82060000D02*
X126290000Y-82060000D01*
X126580000Y-82810000D02*
X127330000Y-82060000D01*
X123892500Y-82810000D02*
X126580000Y-82810000D01*
X129015000Y-79810000D02*
X128775000Y-80050000D01*
X130767500Y-79810000D02*
X129015000Y-79810000D01*
X129580000Y-84310000D02*
X127330000Y-82060000D01*
X129580000Y-85497500D02*
X129580000Y-84310000D01*
D31*
X145825000Y-89000000D02*
X145950000Y-89125000D01*
X144735000Y-89000000D02*
X145825000Y-89000000D01*
X144635000Y-88900000D02*
X144735000Y-89000000D01*
X143500000Y-88900000D02*
X144635000Y-88900000D01*
D34*
X132646000Y-89996000D02*
X132700000Y-90050000D01*
X131807000Y-89996000D02*
X132646000Y-89996000D01*
X132639000Y-87964000D02*
X132675000Y-88000000D01*
X131807000Y-87964000D02*
X132639000Y-87964000D01*
D33*
X132955000Y-85980000D02*
X133200000Y-86225000D01*
X132500000Y-85980000D02*
X132955000Y-85980000D01*
X121030000Y-87980000D02*
X121575000Y-88525000D01*
X121000000Y-87980000D02*
X121030000Y-87980000D01*
X121280000Y-87980000D02*
X121000000Y-87980000D01*
X122000000Y-87260000D02*
X121280000Y-87980000D01*
X122000000Y-86980000D02*
X122000000Y-87260000D01*
X118020000Y-87055000D02*
X117850000Y-87225000D01*
X118020000Y-86500000D02*
X118020000Y-87055000D01*
X117325000Y-80500000D02*
X117250000Y-80575000D01*
X118020000Y-80500000D02*
X117325000Y-80500000D01*
X117805000Y-78020000D02*
X117775000Y-78050000D01*
X118500000Y-78020000D02*
X117805000Y-78020000D01*
X117800000Y-77000000D02*
X117775000Y-77025000D01*
X118500000Y-77000000D02*
X117800000Y-77000000D01*
X117775000Y-77025000D02*
X117775000Y-78050000D01*
X114500000Y-77225000D02*
X115400000Y-77225000D01*
X124500000Y-75520000D02*
X124500000Y-74800000D01*
X123000000Y-75520000D02*
X123000000Y-74800000D01*
D31*
X125050000Y-66030000D02*
X125080000Y-66000000D01*
X135000000Y-66040000D02*
X134960000Y-66000000D01*
X140725000Y-74875000D02*
X140650000Y-74800000D01*
X140725000Y-75975000D02*
X140725000Y-74875000D01*
D34*
X140175000Y-82075000D02*
X140150000Y-82050000D01*
X140175000Y-83000000D02*
X140175000Y-82075000D01*
D31*
X167262500Y-98237500D02*
X171000000Y-94500000D01*
X175600000Y-96500000D02*
X174325000Y-96500000D01*
D34*
X150000000Y-65900000D02*
X149600000Y-66300000D01*
X149100000Y-65800000D02*
X149600000Y-66300000D01*
X144025000Y-73500000D02*
X144000000Y-73475000D01*
X145300000Y-73500000D02*
X144025000Y-73500000D01*
X144025000Y-78975000D02*
X144000000Y-79000000D01*
X144025000Y-79025000D02*
X144000000Y-79000000D01*
D33*
X133570000Y-80050000D02*
X133500000Y-79980000D01*
X134250000Y-80050000D02*
X133570000Y-80050000D01*
D31*
X188000000Y-101000000D02*
X189250000Y-99750000D01*
X179580000Y-101000000D02*
X188000000Y-101000000D01*
D34*
X125410000Y-92490000D02*
X126000000Y-91900000D01*
X125400000Y-92490000D02*
X125410000Y-92490000D01*
D32*
%TO.N,+3V3*%
X123767500Y-79185000D02*
X123685000Y-79185000D01*
X123892500Y-79310000D02*
X123767500Y-79185000D01*
X123685000Y-79185000D02*
X123500000Y-79000000D01*
X123500000Y-79000000D02*
X123500000Y-78000000D01*
X123000000Y-77500000D02*
X123000000Y-76480000D01*
X123500000Y-78000000D02*
X123000000Y-77500000D01*
X124580000Y-76560000D02*
X124500000Y-76480000D01*
X124580000Y-78622500D02*
X124580000Y-76560000D01*
X130227510Y-85349990D02*
X132170010Y-85349990D01*
X132170010Y-85349990D02*
X132500000Y-85020000D01*
X130080000Y-85497500D02*
X130227510Y-85349990D01*
D31*
X140650000Y-72500000D02*
X134350000Y-72500000D01*
X134350000Y-72500000D02*
X134500000Y-72500000D01*
D33*
X133500000Y-79020000D02*
X132500000Y-79020000D01*
D32*
X131057500Y-79020000D02*
X130767500Y-79310000D01*
X132500000Y-79020000D02*
X131057500Y-79020000D01*
D33*
X133520000Y-79000000D02*
X133500000Y-79020000D01*
D32*
X132500000Y-85020000D02*
X132500000Y-85020000D01*
D33*
X123205000Y-76480000D02*
X123775000Y-77050000D01*
X123000000Y-76480000D02*
X123205000Y-76480000D01*
X124345000Y-76480000D02*
X123775000Y-77050000D01*
X124500000Y-76480000D02*
X124345000Y-76480000D01*
X123000000Y-76480000D02*
X124500000Y-76480000D01*
X132475000Y-78995000D02*
X132500000Y-79020000D01*
X132475000Y-78275000D02*
X132475000Y-78995000D01*
X133525000Y-78995000D02*
X133500000Y-79020000D01*
X133525000Y-78300000D02*
X133525000Y-78995000D01*
X132670000Y-84850000D02*
X132500000Y-85020000D01*
D31*
X143175000Y-101675000D02*
X143500000Y-102000000D01*
X134225000Y-72625000D02*
X134350000Y-72500000D01*
X132925000Y-72625000D02*
X134225000Y-72625000D01*
X134425000Y-72575000D02*
X134350000Y-72500000D01*
X134425000Y-74825000D02*
X134425000Y-72575000D01*
X140675000Y-72525000D02*
X140650000Y-72500000D01*
X142050000Y-72525000D02*
X140675000Y-72525000D01*
D34*
X139400000Y-85500000D02*
X139375000Y-85525000D01*
X140212500Y-85500000D02*
X139400000Y-85500000D01*
X133250000Y-84850000D02*
X132670000Y-84850000D01*
X119265000Y-88485000D02*
X119250000Y-88500000D01*
X120000000Y-88485000D02*
X119265000Y-88485000D01*
X118212500Y-70087500D02*
X118225000Y-70075000D01*
X118212500Y-71000000D02*
X118212500Y-70087500D01*
X134350000Y-70125000D02*
X134350000Y-72500000D01*
D33*
X130510000Y-72000000D02*
X131200000Y-72000000D01*
X126490000Y-71790000D02*
X126000000Y-71300000D01*
X126490000Y-72000000D02*
X126490000Y-71790000D01*
D34*
X120400000Y-92900000D02*
X119900000Y-92400000D01*
X122000000Y-92900000D02*
X120400000Y-92900000D01*
D32*
%TO.N,+3.3VA*%
X120495000Y-87020000D02*
X121000000Y-87020000D01*
X120000000Y-87515000D02*
X120495000Y-87020000D01*
X121720000Y-86020000D02*
X122000000Y-86020000D01*
X121000000Y-86740000D02*
X121720000Y-86020000D01*
X121000000Y-87020000D02*
X121000000Y-86740000D01*
X122000000Y-84064998D02*
X122000000Y-84500000D01*
X122225000Y-83839998D02*
X122000000Y-84064998D01*
X122225000Y-83650000D02*
X122225000Y-83839998D01*
X122000000Y-84500000D02*
X122000000Y-86020000D01*
X122565000Y-83310000D02*
X122225000Y-83650000D01*
X123892500Y-83310000D02*
X122565000Y-83310000D01*
D31*
%TO.N,+12V*%
X154265000Y-89000000D02*
X151000000Y-89000000D01*
X149600000Y-87600000D02*
X149600000Y-81700000D01*
X151000000Y-89000000D02*
X149600000Y-87600000D01*
X149600000Y-81700000D02*
X149600000Y-73100000D01*
X147025000Y-70525000D02*
X144000000Y-70525000D01*
X149600000Y-73100000D02*
X147025000Y-70525000D01*
X143675000Y-70200000D02*
X144000000Y-70525000D01*
X140650000Y-70200000D02*
X143675000Y-70200000D01*
D32*
%TO.N,HSE_IN*%
X120000000Y-80500000D02*
X118980000Y-80500000D01*
X120810000Y-81310000D02*
X120000000Y-80500000D01*
X123892500Y-81310000D02*
X120810000Y-81310000D01*
X117650000Y-82140000D02*
X117650000Y-82400000D01*
X118980000Y-80810000D02*
X117650000Y-82140000D01*
X118980000Y-80500000D02*
X118980000Y-80810000D01*
%TO.N,Net-(C10-Pad1)*%
X119350000Y-86130000D02*
X118980000Y-86500000D01*
X119350000Y-84600000D02*
X119350000Y-86130000D01*
X121150000Y-83975000D02*
X121150000Y-83535000D01*
X120525000Y-84600000D02*
X121150000Y-83975000D01*
X119350000Y-84600000D02*
X120525000Y-84600000D01*
%TO.N,Net-(C11-Pad1)*%
X129080000Y-86787000D02*
X130257000Y-87964000D01*
X129080000Y-85497500D02*
X129080000Y-86787000D01*
X130257000Y-87964000D02*
X130257000Y-89996000D01*
%TO.N,LSE_IN*%
X123892500Y-80310000D02*
X123371622Y-80310000D01*
X120500000Y-76250000D02*
X119750000Y-76250000D01*
X119540000Y-76040000D02*
X118500000Y-76040000D01*
X119750000Y-76250000D02*
X119540000Y-76040000D01*
X123892500Y-80310000D02*
X122897120Y-80310000D01*
X122897120Y-80310000D02*
X122000000Y-79412880D01*
X122000000Y-79412880D02*
X122000000Y-77500000D01*
X120750000Y-76250000D02*
X120500000Y-76250000D01*
X122000000Y-77500000D02*
X120750000Y-76250000D01*
%TO.N,LSE_OUT*%
X121250000Y-79250000D02*
X120500000Y-79250000D01*
X120500000Y-79250000D02*
X119750000Y-79250000D01*
X123892500Y-80810000D02*
X122690000Y-80810000D01*
X120630000Y-78750000D02*
X120500000Y-78750000D01*
X122690000Y-80810000D02*
X120630000Y-78750000D01*
X120500000Y-78750000D02*
X120250000Y-78750000D01*
X120020000Y-78980000D02*
X118500000Y-78980000D01*
X120250000Y-78750000D02*
X120020000Y-78980000D01*
%TO.N,NRST*%
X111765000Y-78775000D02*
X111500000Y-79040000D01*
X114500000Y-78775000D02*
X111765000Y-78775000D01*
X114500000Y-79700000D02*
X114500000Y-78775000D01*
X122540000Y-82310000D02*
X122250000Y-82600000D01*
X123892500Y-82310000D02*
X122540000Y-82310000D01*
D34*
%TO.N,Net-(D1-Pad1)*%
X119825000Y-71037500D02*
X119787500Y-71000000D01*
X119825000Y-73000000D02*
X119825000Y-71037500D01*
D32*
%TO.N,Net-(D2-Pad1)*%
X141825000Y-85462500D02*
X141787500Y-85500000D01*
X141825000Y-83000000D02*
X141825000Y-85462500D01*
D33*
%TO.N,Net-(F1-Pad2)*%
X155500000Y-94675000D02*
X155500000Y-94500000D01*
D31*
X155500000Y-94675000D02*
X155825000Y-94675000D01*
X157900000Y-92600000D02*
X157900000Y-90000000D01*
X155825000Y-94675000D02*
X157900000Y-92600000D01*
X165500000Y-90000000D02*
X179000000Y-76500000D01*
X157900000Y-90000000D02*
X165500000Y-90000000D01*
%TO.N,Net-(F1-Pad1)*%
X180500000Y-90000000D02*
X180500000Y-87000000D01*
X186688000Y-80812000D02*
X188620000Y-80812000D01*
X180500000Y-87000000D02*
X186688000Y-80812000D01*
D32*
%TO.N,TOUCH_IRQ*%
X123715000Y-84810000D02*
X123025000Y-85500000D01*
X123892500Y-84810000D02*
X123715000Y-84810000D01*
X118550000Y-91375000D02*
X118550000Y-92425000D01*
X118550000Y-92425000D02*
X116350000Y-94625000D01*
X116350000Y-94625000D02*
X116350000Y-96200000D01*
X110550000Y-102000000D02*
X110480000Y-102000000D01*
X116350000Y-96200000D02*
X110550000Y-102000000D01*
%TO.N,TOUCH_MISO*%
X126080000Y-87670000D02*
X125175000Y-88575000D01*
X126080000Y-85497500D02*
X126080000Y-87670000D01*
X122325000Y-96375000D02*
X118875000Y-96375000D01*
X118875000Y-96375000D02*
X116275000Y-98975000D01*
X116045000Y-98975000D02*
X113020000Y-102000000D01*
X116275000Y-98975000D02*
X116045000Y-98975000D01*
%TO.N,TOUCH_MOSI*%
X123150000Y-98650000D02*
X118425000Y-98650000D01*
X115560000Y-101515000D02*
X115560000Y-102000000D01*
X118425000Y-98650000D02*
X115560000Y-101515000D01*
X126580000Y-88820000D02*
X126100000Y-89300000D01*
X126580000Y-85497500D02*
X126580000Y-88820000D01*
%TO.N,TOUCH_CS*%
X125080000Y-86018378D02*
X124198378Y-86900000D01*
X124198378Y-86900000D02*
X124075000Y-86900000D01*
X125080000Y-85497500D02*
X125080000Y-86018378D01*
%TO.N,TOUCH_CLK*%
X125580000Y-86820000D02*
X124725000Y-87675000D01*
X125580000Y-85497500D02*
X125580000Y-86820000D01*
%TO.N,Net-(J3-Pad8)*%
X125720000Y-99220000D02*
X125720000Y-102000000D01*
X124000000Y-97500000D02*
X125720000Y-99220000D01*
D33*
X125060000Y-93850000D02*
X125400000Y-93510000D01*
X124000000Y-93850000D02*
X125060000Y-93850000D01*
D32*
X124000000Y-93850000D02*
X124000000Y-97500000D01*
%TO.N,LCD_CLK*%
X127080000Y-100820000D02*
X128260000Y-102000000D01*
X127080000Y-85497500D02*
X127080000Y-100820000D01*
%TO.N,LCD_MOSI*%
X135060000Y-81810000D02*
X130767500Y-81810000D01*
X135175000Y-81925000D02*
X135060000Y-81810000D01*
%TO.N,LCD_DC*%
X127580000Y-85497500D02*
X127580000Y-87980000D01*
X127580000Y-87980000D02*
X128025000Y-88425000D01*
X128025000Y-88425000D02*
X128025000Y-92025000D01*
X130050000Y-94050000D02*
X130050000Y-96525000D01*
X128025000Y-92025000D02*
X130050000Y-94050000D01*
X133340000Y-99815000D02*
X133340000Y-102000000D01*
X130050000Y-96525000D02*
X133340000Y-99815000D01*
%TO.N,LCD_CS*%
X128080000Y-85497500D02*
X128080000Y-87080000D01*
X128080000Y-87080000D02*
X129000000Y-88000000D01*
X129000000Y-88000000D02*
X129000000Y-91000000D01*
X138420000Y-100420000D02*
X138420000Y-102000000D01*
X129000000Y-91000000D02*
X138420000Y-100420000D01*
%TO.N,SWDIO*%
X138920000Y-80080000D02*
X138920000Y-79000000D01*
X138000000Y-81000000D02*
X138920000Y-80080000D01*
X132500000Y-81000000D02*
X138000000Y-81000000D01*
X131810000Y-80310000D02*
X132500000Y-81000000D01*
X130767500Y-80310000D02*
X131810000Y-80310000D01*
%TO.N,SWCLK*%
X141460000Y-79000000D02*
X139960000Y-77500000D01*
X130080000Y-78420000D02*
X130080000Y-78622500D01*
X131000000Y-77500000D02*
X130080000Y-78420000D01*
X139960000Y-77500000D02*
X131000000Y-77500000D01*
%TO.N,BME_SDA*%
X127080000Y-75920000D02*
X127080000Y-78622500D01*
X128000000Y-75000000D02*
X127080000Y-75920000D01*
X129880000Y-66000000D02*
X128000000Y-67880000D01*
X127510000Y-72000000D02*
X128000000Y-72000000D01*
X128000000Y-72000000D02*
X128000000Y-67880000D01*
X128000000Y-75000000D02*
X128000000Y-72000000D01*
%TO.N,BME_SCL*%
X131000000Y-67420000D02*
X132420000Y-66000000D01*
X127580000Y-76420000D02*
X129000000Y-75000000D01*
X127580000Y-78622500D02*
X127580000Y-76420000D01*
X129000000Y-72490000D02*
X129490000Y-72000000D01*
X129000000Y-75000000D02*
X129000000Y-72490000D01*
X129490000Y-68930000D02*
X131000000Y-67420000D01*
X129490000Y-72000000D02*
X129490000Y-68930000D01*
D31*
%TO.N,Net-(Q1-Pad1)*%
X174500000Y-101000000D02*
X174000000Y-101000000D01*
X172675000Y-99675000D02*
X172675000Y-96500000D01*
X174000000Y-101000000D02*
X172675000Y-99675000D01*
X154265000Y-91540000D02*
X152960000Y-91540000D01*
X152960000Y-91540000D02*
X150500000Y-94000000D01*
X150500000Y-94000000D02*
X150500000Y-102000000D01*
X161000000Y-102000000D02*
X162000000Y-101000000D01*
X150500000Y-102000000D02*
X161000000Y-102000000D01*
X162000000Y-101000000D02*
X162000000Y-102000000D01*
X162000000Y-102000000D02*
X163000000Y-103000000D01*
X172500000Y-103000000D02*
X174500000Y-101000000D01*
X163000000Y-103000000D02*
X172500000Y-103000000D01*
D32*
%TO.N,Net-(Q3-Pad2)*%
X124010000Y-91940000D02*
X124000000Y-91950000D01*
X124010000Y-90300000D02*
X124010000Y-91940000D01*
%TO.N,HSE_OUT*%
X121150000Y-82050000D02*
X121150000Y-82515000D01*
X121390000Y-81810000D02*
X121150000Y-82050000D01*
X123892500Y-81810000D02*
X121390000Y-81810000D01*
D31*
%TO.N,Net-(R2-Pad2)*%
X158675000Y-98000000D02*
X160175000Y-96500000D01*
X153000000Y-98000000D02*
X158675000Y-98000000D01*
D34*
%TO.N,Net-(R3-Pad2)*%
X153865000Y-96325000D02*
X153000000Y-95460000D01*
X155500000Y-96325000D02*
X153865000Y-96325000D01*
D32*
%TO.N,BLUE_LED*%
X122500000Y-76982980D02*
X122000000Y-76482980D01*
X122500000Y-77707120D02*
X122500000Y-76982980D01*
X120105012Y-73825010D02*
X119000010Y-73825010D01*
X122000000Y-75719998D02*
X120105012Y-73825010D01*
X123000000Y-78207120D02*
X122500000Y-77707120D01*
X123000000Y-79500000D02*
X123000000Y-78207120D01*
X119000010Y-73825010D02*
X118175000Y-73000000D01*
X122000000Y-76482980D02*
X122000000Y-75719998D01*
X123310000Y-79810000D02*
X123000000Y-79500000D01*
X123892500Y-79810000D02*
X123310000Y-79810000D01*
%TO.N,BOOT*%
X126580000Y-75090000D02*
X126500000Y-75010000D01*
X126580000Y-78622500D02*
X126580000Y-75090000D01*
%TO.N,Net-(R11-Pad1)*%
X126500000Y-73990000D02*
X126500000Y-73500000D01*
X122540000Y-69540000D02*
X122540000Y-66000000D01*
X126500000Y-73500000D02*
X122540000Y-69540000D01*
%TO.N,ZERO_CROSS_DETECT*%
X130767500Y-83810000D02*
X133810000Y-83810000D01*
X145380000Y-98000000D02*
X144000000Y-98000000D01*
X144000000Y-98000000D02*
X138500000Y-92500000D01*
X138500000Y-92500000D02*
X138500000Y-89500000D01*
X138500000Y-89500000D02*
X134500000Y-85500000D01*
X134500000Y-84500000D02*
X133810000Y-83810000D01*
X134500000Y-85500000D02*
X134500000Y-84500000D01*
%TO.N,TRIAK_CTRL*%
X144735000Y-86460000D02*
X144040000Y-86460000D01*
X144040000Y-86460000D02*
X143500000Y-87000000D01*
X143500000Y-87000000D02*
X138500000Y-87000000D01*
X134810000Y-83310000D02*
X130767500Y-83310000D01*
X138500000Y-87000000D02*
X134810000Y-83310000D01*
%TO.N,Net-(Y1-Pad2)*%
X117650000Y-84200000D02*
X117650000Y-84600000D01*
X119350000Y-82500000D02*
X117650000Y-84200000D01*
X119350000Y-82400000D02*
X119350000Y-82500000D01*
D31*
%TO.N,Net-(J1-Pad1)*%
X188620000Y-75732000D02*
X186732000Y-75732000D01*
X186732000Y-75732000D02*
X183500000Y-72500000D01*
X180000000Y-72500000D02*
X179000000Y-71500000D01*
X183500000Y-72500000D02*
X180000000Y-72500000D01*
X164540000Y-99040000D02*
X162000000Y-96500000D01*
X162000000Y-96500000D02*
X161825000Y-96500000D01*
X164540000Y-101000000D02*
X164540000Y-99040000D01*
X164500000Y-96500000D02*
X161825000Y-96500000D01*
X185268000Y-75732000D02*
X164500000Y-96500000D01*
X188620000Y-75732000D02*
X185268000Y-75732000D01*
D32*
%TO.N,BACKLIGHT_PWM*%
X124227500Y-85497500D02*
X124580000Y-85497500D01*
X122990000Y-86735000D02*
X124227500Y-85497500D01*
X122990000Y-90300000D02*
X122990000Y-86735000D01*
%TD*%
M02*
