%TF.GenerationSoftware,KiCad,Pcbnew,5.1.9*%
%TF.CreationDate,2021-04-07T12:29:47+02:00*%
%TF.ProjectId,lampa,6c616d70-612e-46b6-9963-61645f706362,rev?*%
%TF.SameCoordinates,Original*%
%TF.FileFunction,Copper,L3,Inr*%
%TF.FilePolarity,Positive*%
%FSLAX46Y46*%
G04 Gerber Fmt 4.6, Leading zero omitted, Abs format (unit mm)*
G04 Created by KiCad (PCBNEW 5.1.9) date 2021-04-07 12:29:47*
%MOMM*%
%LPD*%
G01*
G04 APERTURE LIST*
%TA.AperFunction,ComponentPad*%
%ADD10C,0.900000*%
%TD*%
%TA.AperFunction,ComponentPad*%
%ADD11C,8.600000*%
%TD*%
%TA.AperFunction,ComponentPad*%
%ADD12C,2.300000*%
%TD*%
%TA.AperFunction,ComponentPad*%
%ADD13R,2.300000X2.000000*%
%TD*%
%TA.AperFunction,ComponentPad*%
%ADD14O,1.700000X1.700000*%
%TD*%
%TA.AperFunction,ComponentPad*%
%ADD15R,1.700000X1.700000*%
%TD*%
%TA.AperFunction,ComponentPad*%
%ADD16O,1.600000X1.600000*%
%TD*%
%TA.AperFunction,ComponentPad*%
%ADD17R,1.600000X1.600000*%
%TD*%
%TA.AperFunction,ComponentPad*%
%ADD18O,1.905000X2.000000*%
%TD*%
%TA.AperFunction,ComponentPad*%
%ADD19R,1.905000X2.000000*%
%TD*%
%TA.AperFunction,ComponentPad*%
%ADD20C,3.000000*%
%TD*%
%TA.AperFunction,ComponentPad*%
%ADD21R,3.000000X3.000000*%
%TD*%
%TA.AperFunction,ViaPad*%
%ADD22C,0.800000*%
%TD*%
%TA.AperFunction,Conductor*%
%ADD23C,0.254000*%
%TD*%
%TA.AperFunction,Conductor*%
%ADD24C,0.100000*%
%TD*%
G04 APERTURE END LIST*
D10*
%TO.N,GND*%
%TO.C,H1*%
X191530419Y-65469581D03*
X189250000Y-64525000D03*
X186969581Y-65469581D03*
X186025000Y-67750000D03*
X186969581Y-70030419D03*
X189250000Y-70975000D03*
X191530419Y-70030419D03*
X192475000Y-67750000D03*
D11*
X189250000Y-67750000D03*
%TD*%
D10*
%TO.N,GND*%
%TO.C,H2*%
X191530419Y-97469581D03*
X189250000Y-96525000D03*
X186969581Y-97469581D03*
X186025000Y-99750000D03*
X186969581Y-102030419D03*
X189250000Y-102975000D03*
X191530419Y-102030419D03*
X192475000Y-99750000D03*
D11*
X189250000Y-99750000D03*
%TD*%
D12*
%TO.N,GND*%
%TO.C,PS1*%
X149600000Y-66300000D03*
%TO.N,Net-(J1-Pad1)*%
X179000000Y-71500000D03*
D13*
%TO.N,Net-(F1-Pad2)*%
X179000000Y-76500000D03*
D12*
%TO.N,+12V*%
X149600000Y-81700000D03*
%TD*%
D14*
%TO.N,BME_SDA*%
%TO.C,J5*%
X129880000Y-66000000D03*
%TO.N,BME_SCL*%
X132420000Y-66000000D03*
%TO.N,GND*%
X134960000Y-66000000D03*
D15*
%TO.N,+3V3*%
X137500000Y-66000000D03*
%TD*%
D16*
%TO.N,ZERO_CROSS_DETECT*%
%TO.C,U2*%
X145380000Y-98000000D03*
%TO.N,Net-(R3-Pad2)*%
X153000000Y-95460000D03*
%TO.N,GND*%
X145380000Y-95460000D03*
D17*
%TO.N,Net-(R2-Pad2)*%
X153000000Y-98000000D03*
%TD*%
D14*
%TO.N,GND*%
%TO.C,SW2*%
X125080000Y-66000000D03*
%TO.N,Net-(R11-Pad1)*%
X122540000Y-66000000D03*
D15*
%TO.N,+3V3*%
X120000000Y-66000000D03*
%TD*%
D14*
%TO.N,NRST*%
%TO.C,SW1*%
X111500000Y-79040000D03*
D15*
%TO.N,GND*%
X111500000Y-76500000D03*
%TD*%
D18*
%TO.N,GND*%
%TO.C,Q2*%
X167080000Y-101000000D03*
%TO.N,Net-(J1-Pad1)*%
X164540000Y-101000000D03*
D19*
%TO.N,Net-(Q1-Pad1)*%
X162000000Y-101000000D03*
%TD*%
D18*
%TO.N,GND*%
%TO.C,Q1*%
X179580000Y-101000000D03*
%TO.N,Net-(J2-Pad2)*%
X177040000Y-101000000D03*
D19*
%TO.N,Net-(Q1-Pad1)*%
X174500000Y-101000000D03*
%TD*%
D14*
%TO.N,+3V3*%
%TO.C,J4*%
X136380000Y-79000000D03*
%TO.N,SWDIO*%
X138920000Y-79000000D03*
%TO.N,SWCLK*%
X141460000Y-79000000D03*
D15*
%TO.N,GND*%
X144000000Y-79000000D03*
%TD*%
D14*
%TO.N,TOUCH_IRQ*%
%TO.C,J3*%
X110480000Y-102000000D03*
%TO.N,TOUCH_MISO*%
X113020000Y-102000000D03*
%TO.N,TOUCH_MOSI*%
X115560000Y-102000000D03*
%TO.N,TOUCH_CS*%
X118100000Y-102000000D03*
%TO.N,TOUCH_CLK*%
X120640000Y-102000000D03*
%TO.N,Net-(J3-Pad9)*%
X123180000Y-102000000D03*
%TO.N,Net-(J3-Pad8)*%
X125720000Y-102000000D03*
%TO.N,LCD_CLK*%
X128260000Y-102000000D03*
%TO.N,LCD_MOSI*%
X130800000Y-102000000D03*
%TO.N,LCD_DC*%
X133340000Y-102000000D03*
%TO.N,+3V3*%
X135880000Y-102000000D03*
%TO.N,LCD_CS*%
X138420000Y-102000000D03*
%TO.N,GND*%
X140960000Y-102000000D03*
D15*
%TO.N,+3V3*%
X143500000Y-102000000D03*
%TD*%
D20*
%TO.N,Net-(J2-Pad2)*%
%TO.C,J2*%
X188620000Y-91480000D03*
D21*
%TO.N,Net-(F1-Pad2)*%
X188620000Y-86400000D03*
%TD*%
D20*
%TO.N,Net-(F1-Pad1)*%
%TO.C,J1*%
X188620000Y-80812000D03*
D21*
%TO.N,Net-(J1-Pad1)*%
X188620000Y-75732000D03*
%TD*%
D10*
%TO.N,GND*%
%TO.C,H4*%
X112530419Y-92719581D03*
X110250000Y-91775000D03*
X107969581Y-92719581D03*
X107025000Y-95000000D03*
X107969581Y-97280419D03*
X110250000Y-98225000D03*
X112530419Y-97280419D03*
X113475000Y-95000000D03*
D11*
X110250000Y-95000000D03*
%TD*%
D10*
%TO.N,GND*%
%TO.C,H3*%
X112280419Y-65719581D03*
X110000000Y-64775000D03*
X107719581Y-65719581D03*
X106775000Y-68000000D03*
X107719581Y-70280419D03*
X110000000Y-71225000D03*
X112280419Y-70280419D03*
X113225000Y-68000000D03*
D11*
X110000000Y-68000000D03*
%TD*%
D20*
%TO.N,Net-(F1-Pad2)*%
%TO.C,F1*%
X157900000Y-90000000D03*
%TO.N,Net-(F1-Pad1)*%
X180500000Y-90000000D03*
%TD*%
D22*
%TO.N,GND*%
X127300000Y-84050000D03*
X129050000Y-82650000D03*
X127125000Y-82800000D03*
X125450000Y-82900000D03*
X125475000Y-81400000D03*
X127225000Y-81700000D03*
X129200000Y-81375000D03*
X129150000Y-80175000D03*
X127300000Y-80125000D03*
X125500000Y-80050000D03*
X125375000Y-84125000D03*
X129100000Y-84075000D03*
X145300000Y-73500000D03*
X140725000Y-75975000D03*
X117250000Y-80575000D03*
X115400000Y-77225000D03*
X117775000Y-77025000D03*
X117775000Y-78050000D03*
X124500000Y-74800000D03*
X123000000Y-74800000D03*
X140150000Y-82050000D03*
X133200000Y-86225000D03*
X132675000Y-88000000D03*
X132700000Y-90050000D03*
X117850000Y-87225000D03*
X121575000Y-88525000D03*
X143500000Y-88900000D03*
X145950000Y-89125000D03*
X140960000Y-100165000D03*
X144015000Y-95460000D03*
X167262500Y-98237500D03*
X175600000Y-96500000D03*
X134250000Y-80050000D03*
X126000000Y-91900000D03*
%TO.N,+3V3*%
X139375000Y-85525000D03*
X132925000Y-72625000D03*
X142050000Y-72525000D03*
X134425000Y-74825000D03*
X118225000Y-70075000D03*
X133250000Y-84850000D03*
X119250000Y-88500000D03*
X133525000Y-78300000D03*
X132475000Y-78275000D03*
X123775000Y-77050000D03*
X134350000Y-70125000D03*
X131200000Y-72000000D03*
X126000000Y-71300000D03*
X119900000Y-92400000D03*
%TO.N,NRST*%
X114500000Y-79700000D03*
X122250000Y-82600000D03*
%TO.N,TOUCH_IRQ*%
X118550000Y-91375000D03*
X123025000Y-85500000D03*
%TO.N,TOUCH_MISO*%
X125175000Y-88575000D03*
X122325000Y-96375000D03*
%TO.N,TOUCH_MOSI*%
X126100000Y-89300000D03*
X123150000Y-98650000D03*
%TO.N,TOUCH_CS*%
X124075000Y-86900000D03*
%TO.N,TOUCH_CLK*%
X124725000Y-87675000D03*
%TO.N,LCD_MOSI*%
X135175000Y-81925000D03*
%TD*%
D23*
%TO.N,+3V3*%
X150873000Y-65048629D02*
X150737871Y-64913500D01*
X150445515Y-64718153D01*
X150120665Y-64583596D01*
X149775807Y-64515000D01*
X149424193Y-64515000D01*
X149079335Y-64583596D01*
X148754485Y-64718153D01*
X148462129Y-64913500D01*
X148213500Y-65162129D01*
X148018153Y-65454485D01*
X147883596Y-65779335D01*
X147815000Y-66124193D01*
X147815000Y-66475807D01*
X147883596Y-66820665D01*
X148018153Y-67145515D01*
X148213500Y-67437871D01*
X148462129Y-67686500D01*
X148754485Y-67881847D01*
X149079335Y-68016404D01*
X149424193Y-68085000D01*
X149775807Y-68085000D01*
X150120665Y-68016404D01*
X150445515Y-67881847D01*
X150737871Y-67686500D01*
X150873000Y-67551371D01*
X150873000Y-80448629D01*
X150737871Y-80313500D01*
X150445515Y-80118153D01*
X150120665Y-79983596D01*
X149775807Y-79915000D01*
X149424193Y-79915000D01*
X149079335Y-79983596D01*
X148754485Y-80118153D01*
X148462129Y-80313500D01*
X148213500Y-80562129D01*
X148018153Y-80854485D01*
X147883596Y-81179335D01*
X147815000Y-81524193D01*
X147815000Y-81875807D01*
X147883596Y-82220665D01*
X148018153Y-82545515D01*
X148213500Y-82837871D01*
X148462129Y-83086500D01*
X148754485Y-83281847D01*
X149079335Y-83416404D01*
X149424193Y-83485000D01*
X149775807Y-83485000D01*
X150120665Y-83416404D01*
X150445515Y-83281847D01*
X150737871Y-83086500D01*
X150873000Y-82951371D01*
X150873000Y-84373000D01*
X149000000Y-84373000D01*
X148975224Y-84375440D01*
X148951399Y-84382667D01*
X148929443Y-84394403D01*
X148910197Y-84410197D01*
X148894403Y-84429443D01*
X148882667Y-84451399D01*
X148875440Y-84475224D01*
X148873000Y-84500000D01*
X148873000Y-103840000D01*
X111027952Y-103840000D01*
X110184909Y-103768467D01*
X109393128Y-103562961D01*
X108647291Y-103226985D01*
X107968722Y-102770146D01*
X107376832Y-102205510D01*
X107115108Y-101853740D01*
X108995000Y-101853740D01*
X108995000Y-102146260D01*
X109052068Y-102433158D01*
X109164010Y-102703411D01*
X109326525Y-102946632D01*
X109533368Y-103153475D01*
X109776589Y-103315990D01*
X110046842Y-103427932D01*
X110333740Y-103485000D01*
X110626260Y-103485000D01*
X110913158Y-103427932D01*
X111183411Y-103315990D01*
X111426632Y-103153475D01*
X111633475Y-102946632D01*
X111750000Y-102772240D01*
X111866525Y-102946632D01*
X112073368Y-103153475D01*
X112316589Y-103315990D01*
X112586842Y-103427932D01*
X112873740Y-103485000D01*
X113166260Y-103485000D01*
X113453158Y-103427932D01*
X113723411Y-103315990D01*
X113966632Y-103153475D01*
X114173475Y-102946632D01*
X114290000Y-102772240D01*
X114406525Y-102946632D01*
X114613368Y-103153475D01*
X114856589Y-103315990D01*
X115126842Y-103427932D01*
X115413740Y-103485000D01*
X115706260Y-103485000D01*
X115993158Y-103427932D01*
X116263411Y-103315990D01*
X116506632Y-103153475D01*
X116713475Y-102946632D01*
X116830000Y-102772240D01*
X116946525Y-102946632D01*
X117153368Y-103153475D01*
X117396589Y-103315990D01*
X117666842Y-103427932D01*
X117953740Y-103485000D01*
X118246260Y-103485000D01*
X118533158Y-103427932D01*
X118803411Y-103315990D01*
X119046632Y-103153475D01*
X119253475Y-102946632D01*
X119370000Y-102772240D01*
X119486525Y-102946632D01*
X119693368Y-103153475D01*
X119936589Y-103315990D01*
X120206842Y-103427932D01*
X120493740Y-103485000D01*
X120786260Y-103485000D01*
X121073158Y-103427932D01*
X121343411Y-103315990D01*
X121586632Y-103153475D01*
X121793475Y-102946632D01*
X121910000Y-102772240D01*
X122026525Y-102946632D01*
X122233368Y-103153475D01*
X122476589Y-103315990D01*
X122746842Y-103427932D01*
X123033740Y-103485000D01*
X123326260Y-103485000D01*
X123613158Y-103427932D01*
X123883411Y-103315990D01*
X124126632Y-103153475D01*
X124333475Y-102946632D01*
X124450000Y-102772240D01*
X124566525Y-102946632D01*
X124773368Y-103153475D01*
X125016589Y-103315990D01*
X125286842Y-103427932D01*
X125573740Y-103485000D01*
X125866260Y-103485000D01*
X126153158Y-103427932D01*
X126423411Y-103315990D01*
X126666632Y-103153475D01*
X126873475Y-102946632D01*
X126990000Y-102772240D01*
X127106525Y-102946632D01*
X127313368Y-103153475D01*
X127556589Y-103315990D01*
X127826842Y-103427932D01*
X128113740Y-103485000D01*
X128406260Y-103485000D01*
X128693158Y-103427932D01*
X128963411Y-103315990D01*
X129206632Y-103153475D01*
X129413475Y-102946632D01*
X129530000Y-102772240D01*
X129646525Y-102946632D01*
X129853368Y-103153475D01*
X130096589Y-103315990D01*
X130366842Y-103427932D01*
X130653740Y-103485000D01*
X130946260Y-103485000D01*
X131233158Y-103427932D01*
X131503411Y-103315990D01*
X131746632Y-103153475D01*
X131953475Y-102946632D01*
X132070000Y-102772240D01*
X132186525Y-102946632D01*
X132393368Y-103153475D01*
X132636589Y-103315990D01*
X132906842Y-103427932D01*
X133193740Y-103485000D01*
X133486260Y-103485000D01*
X133773158Y-103427932D01*
X134043411Y-103315990D01*
X134286632Y-103153475D01*
X134493475Y-102946632D01*
X134559355Y-102848035D01*
X134633889Y-102966516D01*
X134846391Y-103191049D01*
X135098614Y-103369810D01*
X135380865Y-103495930D01*
X135463922Y-103521121D01*
X135707000Y-103384483D01*
X135707000Y-102173000D01*
X135687000Y-102173000D01*
X135687000Y-101827000D01*
X135707000Y-101827000D01*
X135707000Y-100615517D01*
X136053000Y-100615517D01*
X136053000Y-101827000D01*
X136073000Y-101827000D01*
X136073000Y-102173000D01*
X136053000Y-102173000D01*
X136053000Y-103384483D01*
X136296078Y-103521121D01*
X136379135Y-103495930D01*
X136661386Y-103369810D01*
X136913609Y-103191049D01*
X137126111Y-102966516D01*
X137200645Y-102848035D01*
X137266525Y-102946632D01*
X137473368Y-103153475D01*
X137716589Y-103315990D01*
X137986842Y-103427932D01*
X138273740Y-103485000D01*
X138566260Y-103485000D01*
X138853158Y-103427932D01*
X139123411Y-103315990D01*
X139366632Y-103153475D01*
X139573475Y-102946632D01*
X139690000Y-102772240D01*
X139806525Y-102946632D01*
X140013368Y-103153475D01*
X140256589Y-103315990D01*
X140526842Y-103427932D01*
X140813740Y-103485000D01*
X141106260Y-103485000D01*
X141393158Y-103427932D01*
X141663411Y-103315990D01*
X141906632Y-103153475D01*
X141964723Y-103095384D01*
X141975089Y-103129557D01*
X142042596Y-103255854D01*
X142133446Y-103366554D01*
X142244146Y-103457404D01*
X142370443Y-103524911D01*
X142507483Y-103566481D01*
X142650000Y-103580518D01*
X143145250Y-103577000D01*
X143327000Y-103395250D01*
X143327000Y-102173000D01*
X143673000Y-102173000D01*
X143673000Y-103395250D01*
X143854750Y-103577000D01*
X144350000Y-103580518D01*
X144492517Y-103566481D01*
X144629557Y-103524911D01*
X144755854Y-103457404D01*
X144866554Y-103366554D01*
X144957404Y-103255854D01*
X145024911Y-103129557D01*
X145066481Y-102992517D01*
X145080518Y-102850000D01*
X145077000Y-102354750D01*
X144895250Y-102173000D01*
X143673000Y-102173000D01*
X143327000Y-102173000D01*
X143307000Y-102173000D01*
X143307000Y-101827000D01*
X143327000Y-101827000D01*
X143327000Y-100604750D01*
X143673000Y-100604750D01*
X143673000Y-101827000D01*
X144895250Y-101827000D01*
X145077000Y-101645250D01*
X145080518Y-101150000D01*
X145066481Y-101007483D01*
X145024911Y-100870443D01*
X144957404Y-100744146D01*
X144866554Y-100633446D01*
X144755854Y-100542596D01*
X144629557Y-100475089D01*
X144492517Y-100433519D01*
X144350000Y-100419482D01*
X143854750Y-100423000D01*
X143673000Y-100604750D01*
X143327000Y-100604750D01*
X143145250Y-100423000D01*
X142650000Y-100419482D01*
X142507483Y-100433519D01*
X142370443Y-100475089D01*
X142244146Y-100542596D01*
X142133446Y-100633446D01*
X142042596Y-100744146D01*
X141975089Y-100870443D01*
X141964723Y-100904616D01*
X141906632Y-100846525D01*
X141797933Y-100773895D01*
X141877205Y-100655256D01*
X141955226Y-100466898D01*
X141995000Y-100266939D01*
X141995000Y-100063061D01*
X141955226Y-99863102D01*
X141877205Y-99674744D01*
X141763937Y-99505226D01*
X141619774Y-99361063D01*
X141450256Y-99247795D01*
X141261898Y-99169774D01*
X141061939Y-99130000D01*
X140858061Y-99130000D01*
X140658102Y-99169774D01*
X140469744Y-99247795D01*
X140300226Y-99361063D01*
X140156063Y-99505226D01*
X140042795Y-99674744D01*
X139964774Y-99863102D01*
X139925000Y-100063061D01*
X139925000Y-100266939D01*
X139964774Y-100466898D01*
X140042795Y-100655256D01*
X140122067Y-100773895D01*
X140013368Y-100846525D01*
X139806525Y-101053368D01*
X139690000Y-101227760D01*
X139573475Y-101053368D01*
X139366632Y-100846525D01*
X139123411Y-100684010D01*
X138853158Y-100572068D01*
X138566260Y-100515000D01*
X138273740Y-100515000D01*
X137986842Y-100572068D01*
X137716589Y-100684010D01*
X137473368Y-100846525D01*
X137266525Y-101053368D01*
X137200645Y-101151965D01*
X137126111Y-101033484D01*
X136913609Y-100808951D01*
X136661386Y-100630190D01*
X136379135Y-100504070D01*
X136296078Y-100478879D01*
X136053000Y-100615517D01*
X135707000Y-100615517D01*
X135463922Y-100478879D01*
X135380865Y-100504070D01*
X135098614Y-100630190D01*
X134846391Y-100808951D01*
X134633889Y-101033484D01*
X134559355Y-101151965D01*
X134493475Y-101053368D01*
X134286632Y-100846525D01*
X134043411Y-100684010D01*
X133773158Y-100572068D01*
X133486260Y-100515000D01*
X133193740Y-100515000D01*
X132906842Y-100572068D01*
X132636589Y-100684010D01*
X132393368Y-100846525D01*
X132186525Y-101053368D01*
X132070000Y-101227760D01*
X131953475Y-101053368D01*
X131746632Y-100846525D01*
X131503411Y-100684010D01*
X131233158Y-100572068D01*
X130946260Y-100515000D01*
X130653740Y-100515000D01*
X130366842Y-100572068D01*
X130096589Y-100684010D01*
X129853368Y-100846525D01*
X129646525Y-101053368D01*
X129530000Y-101227760D01*
X129413475Y-101053368D01*
X129206632Y-100846525D01*
X128963411Y-100684010D01*
X128693158Y-100572068D01*
X128406260Y-100515000D01*
X128113740Y-100515000D01*
X127826842Y-100572068D01*
X127556589Y-100684010D01*
X127313368Y-100846525D01*
X127106525Y-101053368D01*
X126990000Y-101227760D01*
X126873475Y-101053368D01*
X126666632Y-100846525D01*
X126423411Y-100684010D01*
X126153158Y-100572068D01*
X125866260Y-100515000D01*
X125573740Y-100515000D01*
X125286842Y-100572068D01*
X125016589Y-100684010D01*
X124773368Y-100846525D01*
X124566525Y-101053368D01*
X124450000Y-101227760D01*
X124333475Y-101053368D01*
X124126632Y-100846525D01*
X123883411Y-100684010D01*
X123613158Y-100572068D01*
X123326260Y-100515000D01*
X123033740Y-100515000D01*
X122746842Y-100572068D01*
X122476589Y-100684010D01*
X122233368Y-100846525D01*
X122026525Y-101053368D01*
X121910000Y-101227760D01*
X121793475Y-101053368D01*
X121586632Y-100846525D01*
X121343411Y-100684010D01*
X121073158Y-100572068D01*
X120786260Y-100515000D01*
X120493740Y-100515000D01*
X120206842Y-100572068D01*
X119936589Y-100684010D01*
X119693368Y-100846525D01*
X119486525Y-101053368D01*
X119370000Y-101227760D01*
X119253475Y-101053368D01*
X119046632Y-100846525D01*
X118803411Y-100684010D01*
X118533158Y-100572068D01*
X118246260Y-100515000D01*
X117953740Y-100515000D01*
X117666842Y-100572068D01*
X117396589Y-100684010D01*
X117153368Y-100846525D01*
X116946525Y-101053368D01*
X116830000Y-101227760D01*
X116713475Y-101053368D01*
X116506632Y-100846525D01*
X116263411Y-100684010D01*
X115993158Y-100572068D01*
X115706260Y-100515000D01*
X115413740Y-100515000D01*
X115126842Y-100572068D01*
X114856589Y-100684010D01*
X114613368Y-100846525D01*
X114406525Y-101053368D01*
X114290000Y-101227760D01*
X114173475Y-101053368D01*
X113966632Y-100846525D01*
X113723411Y-100684010D01*
X113453158Y-100572068D01*
X113166260Y-100515000D01*
X112873740Y-100515000D01*
X112586842Y-100572068D01*
X112316589Y-100684010D01*
X112073368Y-100846525D01*
X111866525Y-101053368D01*
X111750000Y-101227760D01*
X111633475Y-101053368D01*
X111426632Y-100846525D01*
X111183411Y-100684010D01*
X110913158Y-100572068D01*
X110626260Y-100515000D01*
X110333740Y-100515000D01*
X110046842Y-100572068D01*
X109776589Y-100684010D01*
X109533368Y-100846525D01*
X109326525Y-101053368D01*
X109164010Y-101296589D01*
X109052068Y-101566842D01*
X108995000Y-101853740D01*
X107115108Y-101853740D01*
X106888535Y-101549216D01*
X106517799Y-100820032D01*
X106275221Y-100038807D01*
X106165081Y-99207805D01*
X106159870Y-98986687D01*
X106139279Y-97730636D01*
X106416735Y-98145879D01*
X107104121Y-98833265D01*
X107912401Y-99373340D01*
X108810514Y-99745350D01*
X109763945Y-99935000D01*
X110736055Y-99935000D01*
X111689486Y-99745350D01*
X112587599Y-99373340D01*
X113395879Y-98833265D01*
X113681083Y-98548061D01*
X122115000Y-98548061D01*
X122115000Y-98751939D01*
X122154774Y-98951898D01*
X122232795Y-99140256D01*
X122346063Y-99309774D01*
X122490226Y-99453937D01*
X122659744Y-99567205D01*
X122848102Y-99645226D01*
X123048061Y-99685000D01*
X123251939Y-99685000D01*
X123451898Y-99645226D01*
X123640256Y-99567205D01*
X123809774Y-99453937D01*
X123953937Y-99309774D01*
X124067205Y-99140256D01*
X124145226Y-98951898D01*
X124185000Y-98751939D01*
X124185000Y-98548061D01*
X124145226Y-98348102D01*
X124067205Y-98159744D01*
X123953937Y-97990226D01*
X123809774Y-97846063D01*
X123640256Y-97732795D01*
X123451898Y-97654774D01*
X123251939Y-97615000D01*
X123048061Y-97615000D01*
X122848102Y-97654774D01*
X122659744Y-97732795D01*
X122490226Y-97846063D01*
X122346063Y-97990226D01*
X122232795Y-98159744D01*
X122154774Y-98348102D01*
X122115000Y-98548061D01*
X113681083Y-98548061D01*
X114083265Y-98145879D01*
X114623340Y-97337599D01*
X114995350Y-96439486D01*
X115028454Y-96273061D01*
X121290000Y-96273061D01*
X121290000Y-96476939D01*
X121329774Y-96676898D01*
X121407795Y-96865256D01*
X121521063Y-97034774D01*
X121665226Y-97178937D01*
X121834744Y-97292205D01*
X122023102Y-97370226D01*
X122223061Y-97410000D01*
X122426939Y-97410000D01*
X122626898Y-97370226D01*
X122815256Y-97292205D01*
X122984774Y-97178937D01*
X123128937Y-97034774D01*
X123242205Y-96865256D01*
X123320226Y-96676898D01*
X123360000Y-96476939D01*
X123360000Y-96273061D01*
X123320226Y-96073102D01*
X123242205Y-95884744D01*
X123128937Y-95715226D01*
X122984774Y-95571063D01*
X122815256Y-95457795D01*
X122626898Y-95379774D01*
X122517739Y-95358061D01*
X142980000Y-95358061D01*
X142980000Y-95561939D01*
X143019774Y-95761898D01*
X143097795Y-95950256D01*
X143211063Y-96119774D01*
X143355226Y-96263937D01*
X143524744Y-96377205D01*
X143713102Y-96455226D01*
X143913061Y-96495000D01*
X144116939Y-96495000D01*
X144316898Y-96455226D01*
X144337356Y-96446752D01*
X144465241Y-96574637D01*
X144697759Y-96730000D01*
X144465241Y-96885363D01*
X144265363Y-97085241D01*
X144108320Y-97320273D01*
X144000147Y-97581426D01*
X143945000Y-97858665D01*
X143945000Y-98141335D01*
X144000147Y-98418574D01*
X144108320Y-98679727D01*
X144265363Y-98914759D01*
X144465241Y-99114637D01*
X144700273Y-99271680D01*
X144961426Y-99379853D01*
X145238665Y-99435000D01*
X145521335Y-99435000D01*
X145798574Y-99379853D01*
X146059727Y-99271680D01*
X146294759Y-99114637D01*
X146494637Y-98914759D01*
X146651680Y-98679727D01*
X146759853Y-98418574D01*
X146815000Y-98141335D01*
X146815000Y-97858665D01*
X146759853Y-97581426D01*
X146651680Y-97320273D01*
X146494637Y-97085241D01*
X146294759Y-96885363D01*
X146062241Y-96730000D01*
X146294759Y-96574637D01*
X146494637Y-96374759D01*
X146651680Y-96139727D01*
X146759853Y-95878574D01*
X146815000Y-95601335D01*
X146815000Y-95318665D01*
X146759853Y-95041426D01*
X146651680Y-94780273D01*
X146494637Y-94545241D01*
X146294759Y-94345363D01*
X146059727Y-94188320D01*
X145798574Y-94080147D01*
X145521335Y-94025000D01*
X145238665Y-94025000D01*
X144961426Y-94080147D01*
X144700273Y-94188320D01*
X144465241Y-94345363D01*
X144337356Y-94473248D01*
X144316898Y-94464774D01*
X144116939Y-94425000D01*
X143913061Y-94425000D01*
X143713102Y-94464774D01*
X143524744Y-94542795D01*
X143355226Y-94656063D01*
X143211063Y-94800226D01*
X143097795Y-94969744D01*
X143019774Y-95158102D01*
X142980000Y-95358061D01*
X122517739Y-95358061D01*
X122426939Y-95340000D01*
X122223061Y-95340000D01*
X122023102Y-95379774D01*
X121834744Y-95457795D01*
X121665226Y-95571063D01*
X121521063Y-95715226D01*
X121407795Y-95884744D01*
X121329774Y-96073102D01*
X121290000Y-96273061D01*
X115028454Y-96273061D01*
X115185000Y-95486055D01*
X115185000Y-94513945D01*
X114995350Y-93560514D01*
X114623340Y-92662401D01*
X114083265Y-91854121D01*
X113502205Y-91273061D01*
X117515000Y-91273061D01*
X117515000Y-91476939D01*
X117554774Y-91676898D01*
X117632795Y-91865256D01*
X117746063Y-92034774D01*
X117890226Y-92178937D01*
X118059744Y-92292205D01*
X118248102Y-92370226D01*
X118448061Y-92410000D01*
X118651939Y-92410000D01*
X118851898Y-92370226D01*
X119040256Y-92292205D01*
X119209774Y-92178937D01*
X119353937Y-92034774D01*
X119467205Y-91865256D01*
X119495038Y-91798061D01*
X124965000Y-91798061D01*
X124965000Y-92001939D01*
X125004774Y-92201898D01*
X125082795Y-92390256D01*
X125196063Y-92559774D01*
X125340226Y-92703937D01*
X125509744Y-92817205D01*
X125698102Y-92895226D01*
X125898061Y-92935000D01*
X126101939Y-92935000D01*
X126301898Y-92895226D01*
X126490256Y-92817205D01*
X126659774Y-92703937D01*
X126803937Y-92559774D01*
X126917205Y-92390256D01*
X126995226Y-92201898D01*
X127035000Y-92001939D01*
X127035000Y-91798061D01*
X126995226Y-91598102D01*
X126917205Y-91409744D01*
X126803937Y-91240226D01*
X126659774Y-91096063D01*
X126490256Y-90982795D01*
X126301898Y-90904774D01*
X126101939Y-90865000D01*
X125898061Y-90865000D01*
X125698102Y-90904774D01*
X125509744Y-90982795D01*
X125340226Y-91096063D01*
X125196063Y-91240226D01*
X125082795Y-91409744D01*
X125004774Y-91598102D01*
X124965000Y-91798061D01*
X119495038Y-91798061D01*
X119545226Y-91676898D01*
X119585000Y-91476939D01*
X119585000Y-91273061D01*
X119545226Y-91073102D01*
X119467205Y-90884744D01*
X119353937Y-90715226D01*
X119209774Y-90571063D01*
X119040256Y-90457795D01*
X118851898Y-90379774D01*
X118651939Y-90340000D01*
X118448061Y-90340000D01*
X118248102Y-90379774D01*
X118059744Y-90457795D01*
X117890226Y-90571063D01*
X117746063Y-90715226D01*
X117632795Y-90884744D01*
X117554774Y-91073102D01*
X117515000Y-91273061D01*
X113502205Y-91273061D01*
X113395879Y-91166735D01*
X112587599Y-90626660D01*
X111689486Y-90254650D01*
X110736055Y-90065000D01*
X109763945Y-90065000D01*
X108810514Y-90254650D01*
X107912401Y-90626660D01*
X107104121Y-91166735D01*
X106416735Y-91854121D01*
X106051894Y-92400145D01*
X105986697Y-88423061D01*
X120540000Y-88423061D01*
X120540000Y-88626939D01*
X120579774Y-88826898D01*
X120657795Y-89015256D01*
X120771063Y-89184774D01*
X120915226Y-89328937D01*
X121084744Y-89442205D01*
X121273102Y-89520226D01*
X121473061Y-89560000D01*
X121676939Y-89560000D01*
X121876898Y-89520226D01*
X122065256Y-89442205D01*
X122234774Y-89328937D01*
X122378937Y-89184774D01*
X122492205Y-89015256D01*
X122570226Y-88826898D01*
X122610000Y-88626939D01*
X122610000Y-88423061D01*
X122570226Y-88223102D01*
X122492205Y-88034744D01*
X122378937Y-87865226D01*
X122234774Y-87721063D01*
X122065256Y-87607795D01*
X121876898Y-87529774D01*
X121676939Y-87490000D01*
X121473061Y-87490000D01*
X121273102Y-87529774D01*
X121084744Y-87607795D01*
X120915226Y-87721063D01*
X120771063Y-87865226D01*
X120657795Y-88034744D01*
X120579774Y-88223102D01*
X120540000Y-88423061D01*
X105986697Y-88423061D01*
X105965385Y-87123061D01*
X116815000Y-87123061D01*
X116815000Y-87326939D01*
X116854774Y-87526898D01*
X116932795Y-87715256D01*
X117046063Y-87884774D01*
X117190226Y-88028937D01*
X117359744Y-88142205D01*
X117548102Y-88220226D01*
X117748061Y-88260000D01*
X117951939Y-88260000D01*
X118151898Y-88220226D01*
X118340256Y-88142205D01*
X118509774Y-88028937D01*
X118653937Y-87884774D01*
X118767205Y-87715256D01*
X118845226Y-87526898D01*
X118885000Y-87326939D01*
X118885000Y-87123061D01*
X118845226Y-86923102D01*
X118767205Y-86734744D01*
X118653937Y-86565226D01*
X118509774Y-86421063D01*
X118340256Y-86307795D01*
X118151898Y-86229774D01*
X117951939Y-86190000D01*
X117748061Y-86190000D01*
X117548102Y-86229774D01*
X117359744Y-86307795D01*
X117190226Y-86421063D01*
X117046063Y-86565226D01*
X116932795Y-86734744D01*
X116854774Y-86923102D01*
X116815000Y-87123061D01*
X105965385Y-87123061D01*
X105937107Y-85398061D01*
X121990000Y-85398061D01*
X121990000Y-85601939D01*
X122029774Y-85801898D01*
X122107795Y-85990256D01*
X122221063Y-86159774D01*
X122365226Y-86303937D01*
X122534744Y-86417205D01*
X122723102Y-86495226D01*
X122923061Y-86535000D01*
X123105912Y-86535000D01*
X123079774Y-86598102D01*
X123040000Y-86798061D01*
X123040000Y-87001939D01*
X123079774Y-87201898D01*
X123157795Y-87390256D01*
X123271063Y-87559774D01*
X123415226Y-87703937D01*
X123584744Y-87817205D01*
X123708179Y-87868334D01*
X123729774Y-87976898D01*
X123807795Y-88165256D01*
X123921063Y-88334774D01*
X124065226Y-88478937D01*
X124140000Y-88528899D01*
X124140000Y-88676939D01*
X124179774Y-88876898D01*
X124257795Y-89065256D01*
X124371063Y-89234774D01*
X124515226Y-89378937D01*
X124684744Y-89492205D01*
X124873102Y-89570226D01*
X125073061Y-89610000D01*
X125108130Y-89610000D01*
X125182795Y-89790256D01*
X125296063Y-89959774D01*
X125440226Y-90103937D01*
X125609744Y-90217205D01*
X125798102Y-90295226D01*
X125998061Y-90335000D01*
X126201939Y-90335000D01*
X126401898Y-90295226D01*
X126590256Y-90217205D01*
X126759774Y-90103937D01*
X126903937Y-89959774D01*
X127017205Y-89790256D01*
X127095226Y-89601898D01*
X127135000Y-89401939D01*
X127135000Y-89198061D01*
X127095226Y-88998102D01*
X127017205Y-88809744D01*
X126903937Y-88640226D01*
X126759774Y-88496063D01*
X126590256Y-88382795D01*
X126401898Y-88304774D01*
X126201939Y-88265000D01*
X126166870Y-88265000D01*
X126092205Y-88084744D01*
X125978937Y-87915226D01*
X125961772Y-87898061D01*
X131640000Y-87898061D01*
X131640000Y-88101939D01*
X131679774Y-88301898D01*
X131757795Y-88490256D01*
X131871063Y-88659774D01*
X132015226Y-88803937D01*
X132184744Y-88917205D01*
X132373102Y-88995226D01*
X132535287Y-89027486D01*
X132398102Y-89054774D01*
X132209744Y-89132795D01*
X132040226Y-89246063D01*
X131896063Y-89390226D01*
X131782795Y-89559744D01*
X131704774Y-89748102D01*
X131665000Y-89948061D01*
X131665000Y-90151939D01*
X131704774Y-90351898D01*
X131782795Y-90540256D01*
X131896063Y-90709774D01*
X132040226Y-90853937D01*
X132209744Y-90967205D01*
X132398102Y-91045226D01*
X132598061Y-91085000D01*
X132801939Y-91085000D01*
X133001898Y-91045226D01*
X133190256Y-90967205D01*
X133359774Y-90853937D01*
X133503937Y-90709774D01*
X133617205Y-90540256D01*
X133695226Y-90351898D01*
X133735000Y-90151939D01*
X133735000Y-89948061D01*
X133695226Y-89748102D01*
X133617205Y-89559744D01*
X133503937Y-89390226D01*
X133359774Y-89246063D01*
X133190256Y-89132795D01*
X133001898Y-89054774D01*
X132839713Y-89022514D01*
X132976898Y-88995226D01*
X133165256Y-88917205D01*
X133334774Y-88803937D01*
X133340650Y-88798061D01*
X142465000Y-88798061D01*
X142465000Y-89001939D01*
X142504774Y-89201898D01*
X142582795Y-89390256D01*
X142696063Y-89559774D01*
X142840226Y-89703937D01*
X143009744Y-89817205D01*
X143198102Y-89895226D01*
X143398061Y-89935000D01*
X143601939Y-89935000D01*
X143801898Y-89895226D01*
X143990256Y-89817205D01*
X144159774Y-89703937D01*
X144303937Y-89559774D01*
X144417205Y-89390256D01*
X144495226Y-89201898D01*
X144530798Y-89023061D01*
X144915000Y-89023061D01*
X144915000Y-89226939D01*
X144954774Y-89426898D01*
X145032795Y-89615256D01*
X145146063Y-89784774D01*
X145290226Y-89928937D01*
X145459744Y-90042205D01*
X145648102Y-90120226D01*
X145848061Y-90160000D01*
X146051939Y-90160000D01*
X146251898Y-90120226D01*
X146440256Y-90042205D01*
X146609774Y-89928937D01*
X146753937Y-89784774D01*
X146867205Y-89615256D01*
X146945226Y-89426898D01*
X146985000Y-89226939D01*
X146985000Y-89023061D01*
X146945226Y-88823102D01*
X146867205Y-88634744D01*
X146753937Y-88465226D01*
X146609774Y-88321063D01*
X146440256Y-88207795D01*
X146251898Y-88129774D01*
X146051939Y-88090000D01*
X145848061Y-88090000D01*
X145648102Y-88129774D01*
X145459744Y-88207795D01*
X145290226Y-88321063D01*
X145146063Y-88465226D01*
X145032795Y-88634744D01*
X144954774Y-88823102D01*
X144915000Y-89023061D01*
X144530798Y-89023061D01*
X144535000Y-89001939D01*
X144535000Y-88798061D01*
X144495226Y-88598102D01*
X144417205Y-88409744D01*
X144303937Y-88240226D01*
X144159774Y-88096063D01*
X143990256Y-87982795D01*
X143801898Y-87904774D01*
X143601939Y-87865000D01*
X143398061Y-87865000D01*
X143198102Y-87904774D01*
X143009744Y-87982795D01*
X142840226Y-88096063D01*
X142696063Y-88240226D01*
X142582795Y-88409744D01*
X142504774Y-88598102D01*
X142465000Y-88798061D01*
X133340650Y-88798061D01*
X133478937Y-88659774D01*
X133592205Y-88490256D01*
X133670226Y-88301898D01*
X133710000Y-88101939D01*
X133710000Y-87898061D01*
X133670226Y-87698102D01*
X133592205Y-87509744D01*
X133478937Y-87340226D01*
X133382656Y-87243945D01*
X133501898Y-87220226D01*
X133690256Y-87142205D01*
X133859774Y-87028937D01*
X134003937Y-86884774D01*
X134117205Y-86715256D01*
X134195226Y-86526898D01*
X134235000Y-86326939D01*
X134235000Y-86123061D01*
X134195226Y-85923102D01*
X134117205Y-85734744D01*
X134003937Y-85565226D01*
X133859774Y-85421063D01*
X133690256Y-85307795D01*
X133501898Y-85229774D01*
X133301939Y-85190000D01*
X133098061Y-85190000D01*
X132898102Y-85229774D01*
X132709744Y-85307795D01*
X132540226Y-85421063D01*
X132396063Y-85565226D01*
X132282795Y-85734744D01*
X132204774Y-85923102D01*
X132165000Y-86123061D01*
X132165000Y-86326939D01*
X132204774Y-86526898D01*
X132282795Y-86715256D01*
X132396063Y-86884774D01*
X132492344Y-86981055D01*
X132373102Y-87004774D01*
X132184744Y-87082795D01*
X132015226Y-87196063D01*
X131871063Y-87340226D01*
X131757795Y-87509744D01*
X131679774Y-87698102D01*
X131640000Y-87898061D01*
X125961772Y-87898061D01*
X125834774Y-87771063D01*
X125760000Y-87721101D01*
X125760000Y-87573061D01*
X125720226Y-87373102D01*
X125642205Y-87184744D01*
X125528937Y-87015226D01*
X125384774Y-86871063D01*
X125215256Y-86757795D01*
X125091821Y-86706666D01*
X125070226Y-86598102D01*
X124992205Y-86409744D01*
X124878937Y-86240226D01*
X124734774Y-86096063D01*
X124565256Y-85982795D01*
X124376898Y-85904774D01*
X124176939Y-85865000D01*
X123994088Y-85865000D01*
X124020226Y-85801898D01*
X124060000Y-85601939D01*
X124060000Y-85398061D01*
X124020226Y-85198102D01*
X123942205Y-85009744D01*
X123828937Y-84840226D01*
X123684774Y-84696063D01*
X123515256Y-84582795D01*
X123326898Y-84504774D01*
X123126939Y-84465000D01*
X122923061Y-84465000D01*
X122723102Y-84504774D01*
X122534744Y-84582795D01*
X122365226Y-84696063D01*
X122221063Y-84840226D01*
X122107795Y-85009744D01*
X122029774Y-85198102D01*
X121990000Y-85398061D01*
X105937107Y-85398061D01*
X105914567Y-84023061D01*
X124340000Y-84023061D01*
X124340000Y-84226939D01*
X124379774Y-84426898D01*
X124457795Y-84615256D01*
X124571063Y-84784774D01*
X124715226Y-84928937D01*
X124884744Y-85042205D01*
X125073102Y-85120226D01*
X125273061Y-85160000D01*
X125476939Y-85160000D01*
X125676898Y-85120226D01*
X125865256Y-85042205D01*
X126034774Y-84928937D01*
X126178937Y-84784774D01*
X126292205Y-84615256D01*
X126353033Y-84468405D01*
X126382795Y-84540256D01*
X126496063Y-84709774D01*
X126640226Y-84853937D01*
X126809744Y-84967205D01*
X126998102Y-85045226D01*
X127198061Y-85085000D01*
X127401939Y-85085000D01*
X127601898Y-85045226D01*
X127790256Y-84967205D01*
X127959774Y-84853937D01*
X128103937Y-84709774D01*
X128191648Y-84578505D01*
X128296063Y-84734774D01*
X128440226Y-84878937D01*
X128609744Y-84992205D01*
X128798102Y-85070226D01*
X128998061Y-85110000D01*
X129201939Y-85110000D01*
X129401898Y-85070226D01*
X129590256Y-84992205D01*
X129759774Y-84878937D01*
X129903937Y-84734774D01*
X130017205Y-84565256D01*
X130095226Y-84376898D01*
X130135000Y-84176939D01*
X130135000Y-83973061D01*
X130095226Y-83773102D01*
X130017205Y-83584744D01*
X129903937Y-83415226D01*
X129826211Y-83337500D01*
X129853937Y-83309774D01*
X129967205Y-83140256D01*
X130045226Y-82951898D01*
X130085000Y-82751939D01*
X130085000Y-82548061D01*
X130045226Y-82348102D01*
X129967205Y-82159744D01*
X129931862Y-82106849D01*
X130003937Y-82034774D01*
X130117205Y-81865256D01*
X130134682Y-81823061D01*
X134140000Y-81823061D01*
X134140000Y-82026939D01*
X134179774Y-82226898D01*
X134257795Y-82415256D01*
X134371063Y-82584774D01*
X134515226Y-82728937D01*
X134684744Y-82842205D01*
X134873102Y-82920226D01*
X135073061Y-82960000D01*
X135276939Y-82960000D01*
X135476898Y-82920226D01*
X135665256Y-82842205D01*
X135834774Y-82728937D01*
X135978937Y-82584774D01*
X136092205Y-82415256D01*
X136170226Y-82226898D01*
X136210000Y-82026939D01*
X136210000Y-81948061D01*
X139115000Y-81948061D01*
X139115000Y-82151939D01*
X139154774Y-82351898D01*
X139232795Y-82540256D01*
X139346063Y-82709774D01*
X139490226Y-82853937D01*
X139659744Y-82967205D01*
X139848102Y-83045226D01*
X140048061Y-83085000D01*
X140251939Y-83085000D01*
X140451898Y-83045226D01*
X140640256Y-82967205D01*
X140809774Y-82853937D01*
X140953937Y-82709774D01*
X141067205Y-82540256D01*
X141145226Y-82351898D01*
X141185000Y-82151939D01*
X141185000Y-81948061D01*
X141145226Y-81748102D01*
X141067205Y-81559744D01*
X140953937Y-81390226D01*
X140809774Y-81246063D01*
X140640256Y-81132795D01*
X140451898Y-81054774D01*
X140251939Y-81015000D01*
X140048061Y-81015000D01*
X139848102Y-81054774D01*
X139659744Y-81132795D01*
X139490226Y-81246063D01*
X139346063Y-81390226D01*
X139232795Y-81559744D01*
X139154774Y-81748102D01*
X139115000Y-81948061D01*
X136210000Y-81948061D01*
X136210000Y-81823061D01*
X136170226Y-81623102D01*
X136092205Y-81434744D01*
X135978937Y-81265226D01*
X135834774Y-81121063D01*
X135665256Y-81007795D01*
X135476898Y-80929774D01*
X135276939Y-80890000D01*
X135073061Y-80890000D01*
X134873102Y-80929774D01*
X134684744Y-81007795D01*
X134515226Y-81121063D01*
X134371063Y-81265226D01*
X134257795Y-81434744D01*
X134179774Y-81623102D01*
X134140000Y-81823061D01*
X130134682Y-81823061D01*
X130195226Y-81676898D01*
X130235000Y-81476939D01*
X130235000Y-81273061D01*
X130195226Y-81073102D01*
X130117205Y-80884744D01*
X130018877Y-80737585D01*
X130067205Y-80665256D01*
X130145226Y-80476898D01*
X130185000Y-80276939D01*
X130185000Y-80073061D01*
X130160137Y-79948061D01*
X133215000Y-79948061D01*
X133215000Y-80151939D01*
X133254774Y-80351898D01*
X133332795Y-80540256D01*
X133446063Y-80709774D01*
X133590226Y-80853937D01*
X133759744Y-80967205D01*
X133948102Y-81045226D01*
X134148061Y-81085000D01*
X134351939Y-81085000D01*
X134551898Y-81045226D01*
X134740256Y-80967205D01*
X134909774Y-80853937D01*
X135053937Y-80709774D01*
X135167205Y-80540256D01*
X135245226Y-80351898D01*
X135285000Y-80151939D01*
X135285000Y-80126182D01*
X135346391Y-80191049D01*
X135598614Y-80369810D01*
X135880865Y-80495930D01*
X135963922Y-80521121D01*
X136207000Y-80384483D01*
X136207000Y-79173000D01*
X134994262Y-79173000D01*
X134937902Y-79274191D01*
X134909774Y-79246063D01*
X134740256Y-79132795D01*
X134551898Y-79054774D01*
X134351939Y-79015000D01*
X134148061Y-79015000D01*
X133948102Y-79054774D01*
X133759744Y-79132795D01*
X133590226Y-79246063D01*
X133446063Y-79390226D01*
X133332795Y-79559744D01*
X133254774Y-79748102D01*
X133215000Y-79948061D01*
X130160137Y-79948061D01*
X130145226Y-79873102D01*
X130067205Y-79684744D01*
X129953937Y-79515226D01*
X129809774Y-79371063D01*
X129640256Y-79257795D01*
X129451898Y-79179774D01*
X129251939Y-79140000D01*
X129048061Y-79140000D01*
X128848102Y-79179774D01*
X128659744Y-79257795D01*
X128490226Y-79371063D01*
X128346063Y-79515226D01*
X128235956Y-79680013D01*
X128217205Y-79634744D01*
X128103937Y-79465226D01*
X127959774Y-79321063D01*
X127790256Y-79207795D01*
X127601898Y-79129774D01*
X127401939Y-79090000D01*
X127198061Y-79090000D01*
X126998102Y-79129774D01*
X126809744Y-79207795D01*
X126640226Y-79321063D01*
X126496063Y-79465226D01*
X126423214Y-79574252D01*
X126417205Y-79559744D01*
X126303937Y-79390226D01*
X126159774Y-79246063D01*
X125990256Y-79132795D01*
X125801898Y-79054774D01*
X125601939Y-79015000D01*
X125398061Y-79015000D01*
X125198102Y-79054774D01*
X125009744Y-79132795D01*
X124840226Y-79246063D01*
X124696063Y-79390226D01*
X124582795Y-79559744D01*
X124504774Y-79748102D01*
X124465000Y-79948061D01*
X124465000Y-80151939D01*
X124504774Y-80351898D01*
X124582795Y-80540256D01*
X124696063Y-80709774D01*
X124698789Y-80712500D01*
X124671063Y-80740226D01*
X124557795Y-80909744D01*
X124479774Y-81098102D01*
X124440000Y-81298061D01*
X124440000Y-81501939D01*
X124479774Y-81701898D01*
X124557795Y-81890256D01*
X124671063Y-82059774D01*
X124748789Y-82137500D01*
X124646063Y-82240226D01*
X124532795Y-82409744D01*
X124454774Y-82598102D01*
X124415000Y-82798061D01*
X124415000Y-83001939D01*
X124454774Y-83201898D01*
X124532795Y-83390256D01*
X124578152Y-83458137D01*
X124571063Y-83465226D01*
X124457795Y-83634744D01*
X124379774Y-83823102D01*
X124340000Y-84023061D01*
X105914567Y-84023061D01*
X105889566Y-82498061D01*
X121215000Y-82498061D01*
X121215000Y-82701939D01*
X121254774Y-82901898D01*
X121332795Y-83090256D01*
X121446063Y-83259774D01*
X121590226Y-83403937D01*
X121759744Y-83517205D01*
X121948102Y-83595226D01*
X122148061Y-83635000D01*
X122351939Y-83635000D01*
X122551898Y-83595226D01*
X122740256Y-83517205D01*
X122909774Y-83403937D01*
X123053937Y-83259774D01*
X123167205Y-83090256D01*
X123245226Y-82901898D01*
X123285000Y-82701939D01*
X123285000Y-82498061D01*
X123245226Y-82298102D01*
X123167205Y-82109744D01*
X123053937Y-81940226D01*
X122909774Y-81796063D01*
X122740256Y-81682795D01*
X122551898Y-81604774D01*
X122351939Y-81565000D01*
X122148061Y-81565000D01*
X121948102Y-81604774D01*
X121759744Y-81682795D01*
X121590226Y-81796063D01*
X121446063Y-81940226D01*
X121332795Y-82109744D01*
X121254774Y-82298102D01*
X121215000Y-82498061D01*
X105889566Y-82498061D01*
X105777302Y-75650000D01*
X110011928Y-75650000D01*
X110011928Y-77350000D01*
X110024188Y-77474482D01*
X110060498Y-77594180D01*
X110119463Y-77704494D01*
X110198815Y-77801185D01*
X110295506Y-77880537D01*
X110405820Y-77939502D01*
X110478380Y-77961513D01*
X110346525Y-78093368D01*
X110184010Y-78336589D01*
X110072068Y-78606842D01*
X110015000Y-78893740D01*
X110015000Y-79186260D01*
X110072068Y-79473158D01*
X110184010Y-79743411D01*
X110346525Y-79986632D01*
X110553368Y-80193475D01*
X110796589Y-80355990D01*
X111066842Y-80467932D01*
X111353740Y-80525000D01*
X111646260Y-80525000D01*
X111933158Y-80467932D01*
X112203411Y-80355990D01*
X112446632Y-80193475D01*
X112653475Y-79986632D01*
X112815990Y-79743411D01*
X112876195Y-79598061D01*
X113465000Y-79598061D01*
X113465000Y-79801939D01*
X113504774Y-80001898D01*
X113582795Y-80190256D01*
X113696063Y-80359774D01*
X113840226Y-80503937D01*
X114009744Y-80617205D01*
X114198102Y-80695226D01*
X114398061Y-80735000D01*
X114601939Y-80735000D01*
X114801898Y-80695226D01*
X114990256Y-80617205D01*
X115159774Y-80503937D01*
X115190650Y-80473061D01*
X116215000Y-80473061D01*
X116215000Y-80676939D01*
X116254774Y-80876898D01*
X116332795Y-81065256D01*
X116446063Y-81234774D01*
X116590226Y-81378937D01*
X116759744Y-81492205D01*
X116948102Y-81570226D01*
X117148061Y-81610000D01*
X117351939Y-81610000D01*
X117551898Y-81570226D01*
X117740256Y-81492205D01*
X117909774Y-81378937D01*
X118053937Y-81234774D01*
X118167205Y-81065256D01*
X118245226Y-80876898D01*
X118285000Y-80676939D01*
X118285000Y-80473061D01*
X118245226Y-80273102D01*
X118167205Y-80084744D01*
X118053937Y-79915226D01*
X117909774Y-79771063D01*
X117740256Y-79657795D01*
X117551898Y-79579774D01*
X117351939Y-79540000D01*
X117148061Y-79540000D01*
X116948102Y-79579774D01*
X116759744Y-79657795D01*
X116590226Y-79771063D01*
X116446063Y-79915226D01*
X116332795Y-80084744D01*
X116254774Y-80273102D01*
X116215000Y-80473061D01*
X115190650Y-80473061D01*
X115303937Y-80359774D01*
X115417205Y-80190256D01*
X115495226Y-80001898D01*
X115535000Y-79801939D01*
X115535000Y-79598061D01*
X115495226Y-79398102D01*
X115417205Y-79209744D01*
X115303937Y-79040226D01*
X115159774Y-78896063D01*
X114990256Y-78782795D01*
X114801898Y-78704774D01*
X114601939Y-78665000D01*
X114398061Y-78665000D01*
X114198102Y-78704774D01*
X114009744Y-78782795D01*
X113840226Y-78896063D01*
X113696063Y-79040226D01*
X113582795Y-79209744D01*
X113504774Y-79398102D01*
X113465000Y-79598061D01*
X112876195Y-79598061D01*
X112927932Y-79473158D01*
X112985000Y-79186260D01*
X112985000Y-78893740D01*
X112927932Y-78606842D01*
X112815990Y-78336589D01*
X112653475Y-78093368D01*
X112521620Y-77961513D01*
X112594180Y-77939502D01*
X112704494Y-77880537D01*
X112801185Y-77801185D01*
X112880537Y-77704494D01*
X112939502Y-77594180D01*
X112975812Y-77474482D01*
X112988072Y-77350000D01*
X112988072Y-77123061D01*
X114365000Y-77123061D01*
X114365000Y-77326939D01*
X114404774Y-77526898D01*
X114482795Y-77715256D01*
X114596063Y-77884774D01*
X114740226Y-78028937D01*
X114909744Y-78142205D01*
X115098102Y-78220226D01*
X115298061Y-78260000D01*
X115501939Y-78260000D01*
X115701898Y-78220226D01*
X115890256Y-78142205D01*
X116059774Y-78028937D01*
X116203937Y-77884774D01*
X116317205Y-77715256D01*
X116395226Y-77526898D01*
X116435000Y-77326939D01*
X116435000Y-77123061D01*
X116395226Y-76923102D01*
X116395210Y-76923061D01*
X116740000Y-76923061D01*
X116740000Y-77126939D01*
X116779774Y-77326898D01*
X116857795Y-77515256D01*
X116872658Y-77537500D01*
X116857795Y-77559744D01*
X116779774Y-77748102D01*
X116740000Y-77948061D01*
X116740000Y-78151939D01*
X116779774Y-78351898D01*
X116857795Y-78540256D01*
X116971063Y-78709774D01*
X117115226Y-78853937D01*
X117284744Y-78967205D01*
X117473102Y-79045226D01*
X117673061Y-79085000D01*
X117876939Y-79085000D01*
X118076898Y-79045226D01*
X118265256Y-78967205D01*
X118434774Y-78853937D01*
X118578937Y-78709774D01*
X118663029Y-78583921D01*
X134858874Y-78583921D01*
X134994262Y-78827000D01*
X136207000Y-78827000D01*
X136207000Y-77615517D01*
X136553000Y-77615517D01*
X136553000Y-78827000D01*
X136573000Y-78827000D01*
X136573000Y-79173000D01*
X136553000Y-79173000D01*
X136553000Y-80384483D01*
X136796078Y-80521121D01*
X136879135Y-80495930D01*
X137161386Y-80369810D01*
X137413609Y-80191049D01*
X137626111Y-79966516D01*
X137700645Y-79848035D01*
X137766525Y-79946632D01*
X137973368Y-80153475D01*
X138216589Y-80315990D01*
X138486842Y-80427932D01*
X138773740Y-80485000D01*
X139066260Y-80485000D01*
X139353158Y-80427932D01*
X139623411Y-80315990D01*
X139866632Y-80153475D01*
X140073475Y-79946632D01*
X140190000Y-79772240D01*
X140306525Y-79946632D01*
X140513368Y-80153475D01*
X140756589Y-80315990D01*
X141026842Y-80427932D01*
X141313740Y-80485000D01*
X141606260Y-80485000D01*
X141893158Y-80427932D01*
X142163411Y-80315990D01*
X142406632Y-80153475D01*
X142538487Y-80021620D01*
X142560498Y-80094180D01*
X142619463Y-80204494D01*
X142698815Y-80301185D01*
X142795506Y-80380537D01*
X142905820Y-80439502D01*
X143025518Y-80475812D01*
X143150000Y-80488072D01*
X144850000Y-80488072D01*
X144974482Y-80475812D01*
X145094180Y-80439502D01*
X145204494Y-80380537D01*
X145301185Y-80301185D01*
X145380537Y-80204494D01*
X145439502Y-80094180D01*
X145475812Y-79974482D01*
X145488072Y-79850000D01*
X145488072Y-78150000D01*
X145475812Y-78025518D01*
X145439502Y-77905820D01*
X145380537Y-77795506D01*
X145301185Y-77698815D01*
X145204494Y-77619463D01*
X145094180Y-77560498D01*
X144974482Y-77524188D01*
X144850000Y-77511928D01*
X143150000Y-77511928D01*
X143025518Y-77524188D01*
X142905820Y-77560498D01*
X142795506Y-77619463D01*
X142698815Y-77698815D01*
X142619463Y-77795506D01*
X142560498Y-77905820D01*
X142538487Y-77978380D01*
X142406632Y-77846525D01*
X142163411Y-77684010D01*
X141893158Y-77572068D01*
X141606260Y-77515000D01*
X141313740Y-77515000D01*
X141026842Y-77572068D01*
X140756589Y-77684010D01*
X140513368Y-77846525D01*
X140306525Y-78053368D01*
X140190000Y-78227760D01*
X140073475Y-78053368D01*
X139866632Y-77846525D01*
X139623411Y-77684010D01*
X139353158Y-77572068D01*
X139066260Y-77515000D01*
X138773740Y-77515000D01*
X138486842Y-77572068D01*
X138216589Y-77684010D01*
X137973368Y-77846525D01*
X137766525Y-78053368D01*
X137700645Y-78151965D01*
X137626111Y-78033484D01*
X137413609Y-77808951D01*
X137161386Y-77630190D01*
X136879135Y-77504070D01*
X136796078Y-77478879D01*
X136553000Y-77615517D01*
X136207000Y-77615517D01*
X135963922Y-77478879D01*
X135880865Y-77504070D01*
X135598614Y-77630190D01*
X135346391Y-77808951D01*
X135133889Y-78033484D01*
X134969275Y-78295159D01*
X134858874Y-78583921D01*
X118663029Y-78583921D01*
X118692205Y-78540256D01*
X118770226Y-78351898D01*
X118810000Y-78151939D01*
X118810000Y-77948061D01*
X118770226Y-77748102D01*
X118692205Y-77559744D01*
X118677342Y-77537500D01*
X118692205Y-77515256D01*
X118770226Y-77326898D01*
X118810000Y-77126939D01*
X118810000Y-76923061D01*
X118770226Y-76723102D01*
X118692205Y-76534744D01*
X118578937Y-76365226D01*
X118434774Y-76221063D01*
X118265256Y-76107795D01*
X118076898Y-76029774D01*
X117876939Y-75990000D01*
X117673061Y-75990000D01*
X117473102Y-76029774D01*
X117284744Y-76107795D01*
X117115226Y-76221063D01*
X116971063Y-76365226D01*
X116857795Y-76534744D01*
X116779774Y-76723102D01*
X116740000Y-76923061D01*
X116395210Y-76923061D01*
X116317205Y-76734744D01*
X116203937Y-76565226D01*
X116059774Y-76421063D01*
X115890256Y-76307795D01*
X115701898Y-76229774D01*
X115501939Y-76190000D01*
X115298061Y-76190000D01*
X115098102Y-76229774D01*
X114909744Y-76307795D01*
X114740226Y-76421063D01*
X114596063Y-76565226D01*
X114482795Y-76734744D01*
X114404774Y-76923102D01*
X114365000Y-77123061D01*
X112988072Y-77123061D01*
X112988072Y-75873061D01*
X139690000Y-75873061D01*
X139690000Y-76076939D01*
X139729774Y-76276898D01*
X139807795Y-76465256D01*
X139921063Y-76634774D01*
X140065226Y-76778937D01*
X140234744Y-76892205D01*
X140423102Y-76970226D01*
X140623061Y-77010000D01*
X140826939Y-77010000D01*
X141026898Y-76970226D01*
X141215256Y-76892205D01*
X141384774Y-76778937D01*
X141528937Y-76634774D01*
X141642205Y-76465256D01*
X141720226Y-76276898D01*
X141760000Y-76076939D01*
X141760000Y-75873061D01*
X141720226Y-75673102D01*
X141642205Y-75484744D01*
X141528937Y-75315226D01*
X141384774Y-75171063D01*
X141215256Y-75057795D01*
X141026898Y-74979774D01*
X140826939Y-74940000D01*
X140623061Y-74940000D01*
X140423102Y-74979774D01*
X140234744Y-75057795D01*
X140065226Y-75171063D01*
X139921063Y-75315226D01*
X139807795Y-75484744D01*
X139729774Y-75673102D01*
X139690000Y-75873061D01*
X112988072Y-75873061D01*
X112988072Y-75650000D01*
X112975812Y-75525518D01*
X112939502Y-75405820D01*
X112880537Y-75295506D01*
X112801185Y-75198815D01*
X112704494Y-75119463D01*
X112594180Y-75060498D01*
X112474482Y-75024188D01*
X112350000Y-75011928D01*
X110650000Y-75011928D01*
X110525518Y-75024188D01*
X110405820Y-75060498D01*
X110295506Y-75119463D01*
X110198815Y-75198815D01*
X110119463Y-75295506D01*
X110060498Y-75405820D01*
X110024188Y-75525518D01*
X110011928Y-75650000D01*
X105777302Y-75650000D01*
X105761697Y-74698061D01*
X121965000Y-74698061D01*
X121965000Y-74901939D01*
X122004774Y-75101898D01*
X122082795Y-75290256D01*
X122196063Y-75459774D01*
X122340226Y-75603937D01*
X122509744Y-75717205D01*
X122698102Y-75795226D01*
X122898061Y-75835000D01*
X123101939Y-75835000D01*
X123301898Y-75795226D01*
X123490256Y-75717205D01*
X123659774Y-75603937D01*
X123750000Y-75513711D01*
X123840226Y-75603937D01*
X124009744Y-75717205D01*
X124198102Y-75795226D01*
X124398061Y-75835000D01*
X124601939Y-75835000D01*
X124801898Y-75795226D01*
X124990256Y-75717205D01*
X125159774Y-75603937D01*
X125303937Y-75459774D01*
X125417205Y-75290256D01*
X125495226Y-75101898D01*
X125535000Y-74901939D01*
X125535000Y-74698061D01*
X125495226Y-74498102D01*
X125417205Y-74309744D01*
X125303937Y-74140226D01*
X125159774Y-73996063D01*
X124990256Y-73882795D01*
X124801898Y-73804774D01*
X124601939Y-73765000D01*
X124398061Y-73765000D01*
X124198102Y-73804774D01*
X124009744Y-73882795D01*
X123840226Y-73996063D01*
X123750000Y-74086289D01*
X123659774Y-73996063D01*
X123490256Y-73882795D01*
X123301898Y-73804774D01*
X123101939Y-73765000D01*
X122898061Y-73765000D01*
X122698102Y-73804774D01*
X122509744Y-73882795D01*
X122340226Y-73996063D01*
X122196063Y-74140226D01*
X122082795Y-74309744D01*
X122004774Y-74498102D01*
X121965000Y-74698061D01*
X105761697Y-74698061D01*
X105740386Y-73398061D01*
X144265000Y-73398061D01*
X144265000Y-73601939D01*
X144304774Y-73801898D01*
X144382795Y-73990256D01*
X144496063Y-74159774D01*
X144640226Y-74303937D01*
X144809744Y-74417205D01*
X144998102Y-74495226D01*
X145198061Y-74535000D01*
X145401939Y-74535000D01*
X145601898Y-74495226D01*
X145790256Y-74417205D01*
X145959774Y-74303937D01*
X146103937Y-74159774D01*
X146217205Y-73990256D01*
X146295226Y-73801898D01*
X146335000Y-73601939D01*
X146335000Y-73398061D01*
X146295226Y-73198102D01*
X146217205Y-73009744D01*
X146103937Y-72840226D01*
X145959774Y-72696063D01*
X145790256Y-72582795D01*
X145601898Y-72504774D01*
X145401939Y-72465000D01*
X145198061Y-72465000D01*
X144998102Y-72504774D01*
X144809744Y-72582795D01*
X144640226Y-72696063D01*
X144496063Y-72840226D01*
X144382795Y-73009744D01*
X144304774Y-73198102D01*
X144265000Y-73398061D01*
X105740386Y-73398061D01*
X105691811Y-70435104D01*
X106166735Y-71145879D01*
X106854121Y-71833265D01*
X107662401Y-72373340D01*
X108560514Y-72745350D01*
X109513945Y-72935000D01*
X110486055Y-72935000D01*
X111439486Y-72745350D01*
X112337599Y-72373340D01*
X113145879Y-71833265D01*
X113833265Y-71145879D01*
X114373340Y-70337599D01*
X114745350Y-69439486D01*
X114935000Y-68486055D01*
X114935000Y-67513945D01*
X114802933Y-66850000D01*
X118419482Y-66850000D01*
X118433519Y-66992517D01*
X118475089Y-67129557D01*
X118542596Y-67255854D01*
X118633446Y-67366554D01*
X118744146Y-67457404D01*
X118870443Y-67524911D01*
X119007483Y-67566481D01*
X119150000Y-67580518D01*
X119645250Y-67577000D01*
X119827000Y-67395250D01*
X119827000Y-66173000D01*
X118604750Y-66173000D01*
X118423000Y-66354750D01*
X118419482Y-66850000D01*
X114802933Y-66850000D01*
X114745350Y-66560514D01*
X114373340Y-65662401D01*
X114030965Y-65150000D01*
X118419482Y-65150000D01*
X118423000Y-65645250D01*
X118604750Y-65827000D01*
X119827000Y-65827000D01*
X119827000Y-64604750D01*
X120173000Y-64604750D01*
X120173000Y-65827000D01*
X120193000Y-65827000D01*
X120193000Y-66173000D01*
X120173000Y-66173000D01*
X120173000Y-67395250D01*
X120354750Y-67577000D01*
X120850000Y-67580518D01*
X120992517Y-67566481D01*
X121129557Y-67524911D01*
X121255854Y-67457404D01*
X121366554Y-67366554D01*
X121457404Y-67255854D01*
X121524911Y-67129557D01*
X121535277Y-67095384D01*
X121593368Y-67153475D01*
X121836589Y-67315990D01*
X122106842Y-67427932D01*
X122393740Y-67485000D01*
X122686260Y-67485000D01*
X122973158Y-67427932D01*
X123243411Y-67315990D01*
X123486632Y-67153475D01*
X123693475Y-66946632D01*
X123810000Y-66772240D01*
X123926525Y-66946632D01*
X124133368Y-67153475D01*
X124376589Y-67315990D01*
X124646842Y-67427932D01*
X124933740Y-67485000D01*
X125226260Y-67485000D01*
X125513158Y-67427932D01*
X125783411Y-67315990D01*
X126026632Y-67153475D01*
X126233475Y-66946632D01*
X126395990Y-66703411D01*
X126507932Y-66433158D01*
X126565000Y-66146260D01*
X126565000Y-65853740D01*
X128395000Y-65853740D01*
X128395000Y-66146260D01*
X128452068Y-66433158D01*
X128564010Y-66703411D01*
X128726525Y-66946632D01*
X128933368Y-67153475D01*
X129176589Y-67315990D01*
X129446842Y-67427932D01*
X129733740Y-67485000D01*
X130026260Y-67485000D01*
X130313158Y-67427932D01*
X130583411Y-67315990D01*
X130826632Y-67153475D01*
X131033475Y-66946632D01*
X131150000Y-66772240D01*
X131266525Y-66946632D01*
X131473368Y-67153475D01*
X131716589Y-67315990D01*
X131986842Y-67427932D01*
X132273740Y-67485000D01*
X132566260Y-67485000D01*
X132853158Y-67427932D01*
X133123411Y-67315990D01*
X133366632Y-67153475D01*
X133573475Y-66946632D01*
X133690000Y-66772240D01*
X133806525Y-66946632D01*
X134013368Y-67153475D01*
X134256589Y-67315990D01*
X134526842Y-67427932D01*
X134813740Y-67485000D01*
X135106260Y-67485000D01*
X135393158Y-67427932D01*
X135663411Y-67315990D01*
X135906632Y-67153475D01*
X135964723Y-67095384D01*
X135975089Y-67129557D01*
X136042596Y-67255854D01*
X136133446Y-67366554D01*
X136244146Y-67457404D01*
X136370443Y-67524911D01*
X136507483Y-67566481D01*
X136650000Y-67580518D01*
X137145250Y-67577000D01*
X137327000Y-67395250D01*
X137327000Y-66173000D01*
X137673000Y-66173000D01*
X137673000Y-67395250D01*
X137854750Y-67577000D01*
X138350000Y-67580518D01*
X138492517Y-67566481D01*
X138629557Y-67524911D01*
X138755854Y-67457404D01*
X138866554Y-67366554D01*
X138957404Y-67255854D01*
X139024911Y-67129557D01*
X139066481Y-66992517D01*
X139080518Y-66850000D01*
X139077000Y-66354750D01*
X138895250Y-66173000D01*
X137673000Y-66173000D01*
X137327000Y-66173000D01*
X137307000Y-66173000D01*
X137307000Y-65827000D01*
X137327000Y-65827000D01*
X137327000Y-64604750D01*
X137673000Y-64604750D01*
X137673000Y-65827000D01*
X138895250Y-65827000D01*
X139077000Y-65645250D01*
X139080518Y-65150000D01*
X139066481Y-65007483D01*
X139024911Y-64870443D01*
X138957404Y-64744146D01*
X138866554Y-64633446D01*
X138755854Y-64542596D01*
X138629557Y-64475089D01*
X138492517Y-64433519D01*
X138350000Y-64419482D01*
X137854750Y-64423000D01*
X137673000Y-64604750D01*
X137327000Y-64604750D01*
X137145250Y-64423000D01*
X136650000Y-64419482D01*
X136507483Y-64433519D01*
X136370443Y-64475089D01*
X136244146Y-64542596D01*
X136133446Y-64633446D01*
X136042596Y-64744146D01*
X135975089Y-64870443D01*
X135964723Y-64904616D01*
X135906632Y-64846525D01*
X135663411Y-64684010D01*
X135393158Y-64572068D01*
X135106260Y-64515000D01*
X134813740Y-64515000D01*
X134526842Y-64572068D01*
X134256589Y-64684010D01*
X134013368Y-64846525D01*
X133806525Y-65053368D01*
X133690000Y-65227760D01*
X133573475Y-65053368D01*
X133366632Y-64846525D01*
X133123411Y-64684010D01*
X132853158Y-64572068D01*
X132566260Y-64515000D01*
X132273740Y-64515000D01*
X131986842Y-64572068D01*
X131716589Y-64684010D01*
X131473368Y-64846525D01*
X131266525Y-65053368D01*
X131150000Y-65227760D01*
X131033475Y-65053368D01*
X130826632Y-64846525D01*
X130583411Y-64684010D01*
X130313158Y-64572068D01*
X130026260Y-64515000D01*
X129733740Y-64515000D01*
X129446842Y-64572068D01*
X129176589Y-64684010D01*
X128933368Y-64846525D01*
X128726525Y-65053368D01*
X128564010Y-65296589D01*
X128452068Y-65566842D01*
X128395000Y-65853740D01*
X126565000Y-65853740D01*
X126507932Y-65566842D01*
X126395990Y-65296589D01*
X126233475Y-65053368D01*
X126026632Y-64846525D01*
X125783411Y-64684010D01*
X125513158Y-64572068D01*
X125226260Y-64515000D01*
X124933740Y-64515000D01*
X124646842Y-64572068D01*
X124376589Y-64684010D01*
X124133368Y-64846525D01*
X123926525Y-65053368D01*
X123810000Y-65227760D01*
X123693475Y-65053368D01*
X123486632Y-64846525D01*
X123243411Y-64684010D01*
X122973158Y-64572068D01*
X122686260Y-64515000D01*
X122393740Y-64515000D01*
X122106842Y-64572068D01*
X121836589Y-64684010D01*
X121593368Y-64846525D01*
X121535277Y-64904616D01*
X121524911Y-64870443D01*
X121457404Y-64744146D01*
X121366554Y-64633446D01*
X121255854Y-64542596D01*
X121129557Y-64475089D01*
X120992517Y-64433519D01*
X120850000Y-64419482D01*
X120354750Y-64423000D01*
X120173000Y-64604750D01*
X119827000Y-64604750D01*
X119645250Y-64423000D01*
X119150000Y-64419482D01*
X119007483Y-64433519D01*
X118870443Y-64475089D01*
X118744146Y-64542596D01*
X118633446Y-64633446D01*
X118542596Y-64744146D01*
X118475089Y-64870443D01*
X118433519Y-65007483D01*
X118419482Y-65150000D01*
X114030965Y-65150000D01*
X113833265Y-64854121D01*
X113145879Y-64166735D01*
X112387496Y-63660000D01*
X150873000Y-63660000D01*
X150873000Y-65048629D01*
%TA.AperFunction,Conductor*%
D24*
G36*
X150873000Y-65048629D02*
G01*
X150737871Y-64913500D01*
X150445515Y-64718153D01*
X150120665Y-64583596D01*
X149775807Y-64515000D01*
X149424193Y-64515000D01*
X149079335Y-64583596D01*
X148754485Y-64718153D01*
X148462129Y-64913500D01*
X148213500Y-65162129D01*
X148018153Y-65454485D01*
X147883596Y-65779335D01*
X147815000Y-66124193D01*
X147815000Y-66475807D01*
X147883596Y-66820665D01*
X148018153Y-67145515D01*
X148213500Y-67437871D01*
X148462129Y-67686500D01*
X148754485Y-67881847D01*
X149079335Y-68016404D01*
X149424193Y-68085000D01*
X149775807Y-68085000D01*
X150120665Y-68016404D01*
X150445515Y-67881847D01*
X150737871Y-67686500D01*
X150873000Y-67551371D01*
X150873000Y-80448629D01*
X150737871Y-80313500D01*
X150445515Y-80118153D01*
X150120665Y-79983596D01*
X149775807Y-79915000D01*
X149424193Y-79915000D01*
X149079335Y-79983596D01*
X148754485Y-80118153D01*
X148462129Y-80313500D01*
X148213500Y-80562129D01*
X148018153Y-80854485D01*
X147883596Y-81179335D01*
X147815000Y-81524193D01*
X147815000Y-81875807D01*
X147883596Y-82220665D01*
X148018153Y-82545515D01*
X148213500Y-82837871D01*
X148462129Y-83086500D01*
X148754485Y-83281847D01*
X149079335Y-83416404D01*
X149424193Y-83485000D01*
X149775807Y-83485000D01*
X150120665Y-83416404D01*
X150445515Y-83281847D01*
X150737871Y-83086500D01*
X150873000Y-82951371D01*
X150873000Y-84373000D01*
X149000000Y-84373000D01*
X148975224Y-84375440D01*
X148951399Y-84382667D01*
X148929443Y-84394403D01*
X148910197Y-84410197D01*
X148894403Y-84429443D01*
X148882667Y-84451399D01*
X148875440Y-84475224D01*
X148873000Y-84500000D01*
X148873000Y-103840000D01*
X111027952Y-103840000D01*
X110184909Y-103768467D01*
X109393128Y-103562961D01*
X108647291Y-103226985D01*
X107968722Y-102770146D01*
X107376832Y-102205510D01*
X107115108Y-101853740D01*
X108995000Y-101853740D01*
X108995000Y-102146260D01*
X109052068Y-102433158D01*
X109164010Y-102703411D01*
X109326525Y-102946632D01*
X109533368Y-103153475D01*
X109776589Y-103315990D01*
X110046842Y-103427932D01*
X110333740Y-103485000D01*
X110626260Y-103485000D01*
X110913158Y-103427932D01*
X111183411Y-103315990D01*
X111426632Y-103153475D01*
X111633475Y-102946632D01*
X111750000Y-102772240D01*
X111866525Y-102946632D01*
X112073368Y-103153475D01*
X112316589Y-103315990D01*
X112586842Y-103427932D01*
X112873740Y-103485000D01*
X113166260Y-103485000D01*
X113453158Y-103427932D01*
X113723411Y-103315990D01*
X113966632Y-103153475D01*
X114173475Y-102946632D01*
X114290000Y-102772240D01*
X114406525Y-102946632D01*
X114613368Y-103153475D01*
X114856589Y-103315990D01*
X115126842Y-103427932D01*
X115413740Y-103485000D01*
X115706260Y-103485000D01*
X115993158Y-103427932D01*
X116263411Y-103315990D01*
X116506632Y-103153475D01*
X116713475Y-102946632D01*
X116830000Y-102772240D01*
X116946525Y-102946632D01*
X117153368Y-103153475D01*
X117396589Y-103315990D01*
X117666842Y-103427932D01*
X117953740Y-103485000D01*
X118246260Y-103485000D01*
X118533158Y-103427932D01*
X118803411Y-103315990D01*
X119046632Y-103153475D01*
X119253475Y-102946632D01*
X119370000Y-102772240D01*
X119486525Y-102946632D01*
X119693368Y-103153475D01*
X119936589Y-103315990D01*
X120206842Y-103427932D01*
X120493740Y-103485000D01*
X120786260Y-103485000D01*
X121073158Y-103427932D01*
X121343411Y-103315990D01*
X121586632Y-103153475D01*
X121793475Y-102946632D01*
X121910000Y-102772240D01*
X122026525Y-102946632D01*
X122233368Y-103153475D01*
X122476589Y-103315990D01*
X122746842Y-103427932D01*
X123033740Y-103485000D01*
X123326260Y-103485000D01*
X123613158Y-103427932D01*
X123883411Y-103315990D01*
X124126632Y-103153475D01*
X124333475Y-102946632D01*
X124450000Y-102772240D01*
X124566525Y-102946632D01*
X124773368Y-103153475D01*
X125016589Y-103315990D01*
X125286842Y-103427932D01*
X125573740Y-103485000D01*
X125866260Y-103485000D01*
X126153158Y-103427932D01*
X126423411Y-103315990D01*
X126666632Y-103153475D01*
X126873475Y-102946632D01*
X126990000Y-102772240D01*
X127106525Y-102946632D01*
X127313368Y-103153475D01*
X127556589Y-103315990D01*
X127826842Y-103427932D01*
X128113740Y-103485000D01*
X128406260Y-103485000D01*
X128693158Y-103427932D01*
X128963411Y-103315990D01*
X129206632Y-103153475D01*
X129413475Y-102946632D01*
X129530000Y-102772240D01*
X129646525Y-102946632D01*
X129853368Y-103153475D01*
X130096589Y-103315990D01*
X130366842Y-103427932D01*
X130653740Y-103485000D01*
X130946260Y-103485000D01*
X131233158Y-103427932D01*
X131503411Y-103315990D01*
X131746632Y-103153475D01*
X131953475Y-102946632D01*
X132070000Y-102772240D01*
X132186525Y-102946632D01*
X132393368Y-103153475D01*
X132636589Y-103315990D01*
X132906842Y-103427932D01*
X133193740Y-103485000D01*
X133486260Y-103485000D01*
X133773158Y-103427932D01*
X134043411Y-103315990D01*
X134286632Y-103153475D01*
X134493475Y-102946632D01*
X134559355Y-102848035D01*
X134633889Y-102966516D01*
X134846391Y-103191049D01*
X135098614Y-103369810D01*
X135380865Y-103495930D01*
X135463922Y-103521121D01*
X135707000Y-103384483D01*
X135707000Y-102173000D01*
X135687000Y-102173000D01*
X135687000Y-101827000D01*
X135707000Y-101827000D01*
X135707000Y-100615517D01*
X136053000Y-100615517D01*
X136053000Y-101827000D01*
X136073000Y-101827000D01*
X136073000Y-102173000D01*
X136053000Y-102173000D01*
X136053000Y-103384483D01*
X136296078Y-103521121D01*
X136379135Y-103495930D01*
X136661386Y-103369810D01*
X136913609Y-103191049D01*
X137126111Y-102966516D01*
X137200645Y-102848035D01*
X137266525Y-102946632D01*
X137473368Y-103153475D01*
X137716589Y-103315990D01*
X137986842Y-103427932D01*
X138273740Y-103485000D01*
X138566260Y-103485000D01*
X138853158Y-103427932D01*
X139123411Y-103315990D01*
X139366632Y-103153475D01*
X139573475Y-102946632D01*
X139690000Y-102772240D01*
X139806525Y-102946632D01*
X140013368Y-103153475D01*
X140256589Y-103315990D01*
X140526842Y-103427932D01*
X140813740Y-103485000D01*
X141106260Y-103485000D01*
X141393158Y-103427932D01*
X141663411Y-103315990D01*
X141906632Y-103153475D01*
X141964723Y-103095384D01*
X141975089Y-103129557D01*
X142042596Y-103255854D01*
X142133446Y-103366554D01*
X142244146Y-103457404D01*
X142370443Y-103524911D01*
X142507483Y-103566481D01*
X142650000Y-103580518D01*
X143145250Y-103577000D01*
X143327000Y-103395250D01*
X143327000Y-102173000D01*
X143673000Y-102173000D01*
X143673000Y-103395250D01*
X143854750Y-103577000D01*
X144350000Y-103580518D01*
X144492517Y-103566481D01*
X144629557Y-103524911D01*
X144755854Y-103457404D01*
X144866554Y-103366554D01*
X144957404Y-103255854D01*
X145024911Y-103129557D01*
X145066481Y-102992517D01*
X145080518Y-102850000D01*
X145077000Y-102354750D01*
X144895250Y-102173000D01*
X143673000Y-102173000D01*
X143327000Y-102173000D01*
X143307000Y-102173000D01*
X143307000Y-101827000D01*
X143327000Y-101827000D01*
X143327000Y-100604750D01*
X143673000Y-100604750D01*
X143673000Y-101827000D01*
X144895250Y-101827000D01*
X145077000Y-101645250D01*
X145080518Y-101150000D01*
X145066481Y-101007483D01*
X145024911Y-100870443D01*
X144957404Y-100744146D01*
X144866554Y-100633446D01*
X144755854Y-100542596D01*
X144629557Y-100475089D01*
X144492517Y-100433519D01*
X144350000Y-100419482D01*
X143854750Y-100423000D01*
X143673000Y-100604750D01*
X143327000Y-100604750D01*
X143145250Y-100423000D01*
X142650000Y-100419482D01*
X142507483Y-100433519D01*
X142370443Y-100475089D01*
X142244146Y-100542596D01*
X142133446Y-100633446D01*
X142042596Y-100744146D01*
X141975089Y-100870443D01*
X141964723Y-100904616D01*
X141906632Y-100846525D01*
X141797933Y-100773895D01*
X141877205Y-100655256D01*
X141955226Y-100466898D01*
X141995000Y-100266939D01*
X141995000Y-100063061D01*
X141955226Y-99863102D01*
X141877205Y-99674744D01*
X141763937Y-99505226D01*
X141619774Y-99361063D01*
X141450256Y-99247795D01*
X141261898Y-99169774D01*
X141061939Y-99130000D01*
X140858061Y-99130000D01*
X140658102Y-99169774D01*
X140469744Y-99247795D01*
X140300226Y-99361063D01*
X140156063Y-99505226D01*
X140042795Y-99674744D01*
X139964774Y-99863102D01*
X139925000Y-100063061D01*
X139925000Y-100266939D01*
X139964774Y-100466898D01*
X140042795Y-100655256D01*
X140122067Y-100773895D01*
X140013368Y-100846525D01*
X139806525Y-101053368D01*
X139690000Y-101227760D01*
X139573475Y-101053368D01*
X139366632Y-100846525D01*
X139123411Y-100684010D01*
X138853158Y-100572068D01*
X138566260Y-100515000D01*
X138273740Y-100515000D01*
X137986842Y-100572068D01*
X137716589Y-100684010D01*
X137473368Y-100846525D01*
X137266525Y-101053368D01*
X137200645Y-101151965D01*
X137126111Y-101033484D01*
X136913609Y-100808951D01*
X136661386Y-100630190D01*
X136379135Y-100504070D01*
X136296078Y-100478879D01*
X136053000Y-100615517D01*
X135707000Y-100615517D01*
X135463922Y-100478879D01*
X135380865Y-100504070D01*
X135098614Y-100630190D01*
X134846391Y-100808951D01*
X134633889Y-101033484D01*
X134559355Y-101151965D01*
X134493475Y-101053368D01*
X134286632Y-100846525D01*
X134043411Y-100684010D01*
X133773158Y-100572068D01*
X133486260Y-100515000D01*
X133193740Y-100515000D01*
X132906842Y-100572068D01*
X132636589Y-100684010D01*
X132393368Y-100846525D01*
X132186525Y-101053368D01*
X132070000Y-101227760D01*
X131953475Y-101053368D01*
X131746632Y-100846525D01*
X131503411Y-100684010D01*
X131233158Y-100572068D01*
X130946260Y-100515000D01*
X130653740Y-100515000D01*
X130366842Y-100572068D01*
X130096589Y-100684010D01*
X129853368Y-100846525D01*
X129646525Y-101053368D01*
X129530000Y-101227760D01*
X129413475Y-101053368D01*
X129206632Y-100846525D01*
X128963411Y-100684010D01*
X128693158Y-100572068D01*
X128406260Y-100515000D01*
X128113740Y-100515000D01*
X127826842Y-100572068D01*
X127556589Y-100684010D01*
X127313368Y-100846525D01*
X127106525Y-101053368D01*
X126990000Y-101227760D01*
X126873475Y-101053368D01*
X126666632Y-100846525D01*
X126423411Y-100684010D01*
X126153158Y-100572068D01*
X125866260Y-100515000D01*
X125573740Y-100515000D01*
X125286842Y-100572068D01*
X125016589Y-100684010D01*
X124773368Y-100846525D01*
X124566525Y-101053368D01*
X124450000Y-101227760D01*
X124333475Y-101053368D01*
X124126632Y-100846525D01*
X123883411Y-100684010D01*
X123613158Y-100572068D01*
X123326260Y-100515000D01*
X123033740Y-100515000D01*
X122746842Y-100572068D01*
X122476589Y-100684010D01*
X122233368Y-100846525D01*
X122026525Y-101053368D01*
X121910000Y-101227760D01*
X121793475Y-101053368D01*
X121586632Y-100846525D01*
X121343411Y-100684010D01*
X121073158Y-100572068D01*
X120786260Y-100515000D01*
X120493740Y-100515000D01*
X120206842Y-100572068D01*
X119936589Y-100684010D01*
X119693368Y-100846525D01*
X119486525Y-101053368D01*
X119370000Y-101227760D01*
X119253475Y-101053368D01*
X119046632Y-100846525D01*
X118803411Y-100684010D01*
X118533158Y-100572068D01*
X118246260Y-100515000D01*
X117953740Y-100515000D01*
X117666842Y-100572068D01*
X117396589Y-100684010D01*
X117153368Y-100846525D01*
X116946525Y-101053368D01*
X116830000Y-101227760D01*
X116713475Y-101053368D01*
X116506632Y-100846525D01*
X116263411Y-100684010D01*
X115993158Y-100572068D01*
X115706260Y-100515000D01*
X115413740Y-100515000D01*
X115126842Y-100572068D01*
X114856589Y-100684010D01*
X114613368Y-100846525D01*
X114406525Y-101053368D01*
X114290000Y-101227760D01*
X114173475Y-101053368D01*
X113966632Y-100846525D01*
X113723411Y-100684010D01*
X113453158Y-100572068D01*
X113166260Y-100515000D01*
X112873740Y-100515000D01*
X112586842Y-100572068D01*
X112316589Y-100684010D01*
X112073368Y-100846525D01*
X111866525Y-101053368D01*
X111750000Y-101227760D01*
X111633475Y-101053368D01*
X111426632Y-100846525D01*
X111183411Y-100684010D01*
X110913158Y-100572068D01*
X110626260Y-100515000D01*
X110333740Y-100515000D01*
X110046842Y-100572068D01*
X109776589Y-100684010D01*
X109533368Y-100846525D01*
X109326525Y-101053368D01*
X109164010Y-101296589D01*
X109052068Y-101566842D01*
X108995000Y-101853740D01*
X107115108Y-101853740D01*
X106888535Y-101549216D01*
X106517799Y-100820032D01*
X106275221Y-100038807D01*
X106165081Y-99207805D01*
X106159870Y-98986687D01*
X106139279Y-97730636D01*
X106416735Y-98145879D01*
X107104121Y-98833265D01*
X107912401Y-99373340D01*
X108810514Y-99745350D01*
X109763945Y-99935000D01*
X110736055Y-99935000D01*
X111689486Y-99745350D01*
X112587599Y-99373340D01*
X113395879Y-98833265D01*
X113681083Y-98548061D01*
X122115000Y-98548061D01*
X122115000Y-98751939D01*
X122154774Y-98951898D01*
X122232795Y-99140256D01*
X122346063Y-99309774D01*
X122490226Y-99453937D01*
X122659744Y-99567205D01*
X122848102Y-99645226D01*
X123048061Y-99685000D01*
X123251939Y-99685000D01*
X123451898Y-99645226D01*
X123640256Y-99567205D01*
X123809774Y-99453937D01*
X123953937Y-99309774D01*
X124067205Y-99140256D01*
X124145226Y-98951898D01*
X124185000Y-98751939D01*
X124185000Y-98548061D01*
X124145226Y-98348102D01*
X124067205Y-98159744D01*
X123953937Y-97990226D01*
X123809774Y-97846063D01*
X123640256Y-97732795D01*
X123451898Y-97654774D01*
X123251939Y-97615000D01*
X123048061Y-97615000D01*
X122848102Y-97654774D01*
X122659744Y-97732795D01*
X122490226Y-97846063D01*
X122346063Y-97990226D01*
X122232795Y-98159744D01*
X122154774Y-98348102D01*
X122115000Y-98548061D01*
X113681083Y-98548061D01*
X114083265Y-98145879D01*
X114623340Y-97337599D01*
X114995350Y-96439486D01*
X115028454Y-96273061D01*
X121290000Y-96273061D01*
X121290000Y-96476939D01*
X121329774Y-96676898D01*
X121407795Y-96865256D01*
X121521063Y-97034774D01*
X121665226Y-97178937D01*
X121834744Y-97292205D01*
X122023102Y-97370226D01*
X122223061Y-97410000D01*
X122426939Y-97410000D01*
X122626898Y-97370226D01*
X122815256Y-97292205D01*
X122984774Y-97178937D01*
X123128937Y-97034774D01*
X123242205Y-96865256D01*
X123320226Y-96676898D01*
X123360000Y-96476939D01*
X123360000Y-96273061D01*
X123320226Y-96073102D01*
X123242205Y-95884744D01*
X123128937Y-95715226D01*
X122984774Y-95571063D01*
X122815256Y-95457795D01*
X122626898Y-95379774D01*
X122517739Y-95358061D01*
X142980000Y-95358061D01*
X142980000Y-95561939D01*
X143019774Y-95761898D01*
X143097795Y-95950256D01*
X143211063Y-96119774D01*
X143355226Y-96263937D01*
X143524744Y-96377205D01*
X143713102Y-96455226D01*
X143913061Y-96495000D01*
X144116939Y-96495000D01*
X144316898Y-96455226D01*
X144337356Y-96446752D01*
X144465241Y-96574637D01*
X144697759Y-96730000D01*
X144465241Y-96885363D01*
X144265363Y-97085241D01*
X144108320Y-97320273D01*
X144000147Y-97581426D01*
X143945000Y-97858665D01*
X143945000Y-98141335D01*
X144000147Y-98418574D01*
X144108320Y-98679727D01*
X144265363Y-98914759D01*
X144465241Y-99114637D01*
X144700273Y-99271680D01*
X144961426Y-99379853D01*
X145238665Y-99435000D01*
X145521335Y-99435000D01*
X145798574Y-99379853D01*
X146059727Y-99271680D01*
X146294759Y-99114637D01*
X146494637Y-98914759D01*
X146651680Y-98679727D01*
X146759853Y-98418574D01*
X146815000Y-98141335D01*
X146815000Y-97858665D01*
X146759853Y-97581426D01*
X146651680Y-97320273D01*
X146494637Y-97085241D01*
X146294759Y-96885363D01*
X146062241Y-96730000D01*
X146294759Y-96574637D01*
X146494637Y-96374759D01*
X146651680Y-96139727D01*
X146759853Y-95878574D01*
X146815000Y-95601335D01*
X146815000Y-95318665D01*
X146759853Y-95041426D01*
X146651680Y-94780273D01*
X146494637Y-94545241D01*
X146294759Y-94345363D01*
X146059727Y-94188320D01*
X145798574Y-94080147D01*
X145521335Y-94025000D01*
X145238665Y-94025000D01*
X144961426Y-94080147D01*
X144700273Y-94188320D01*
X144465241Y-94345363D01*
X144337356Y-94473248D01*
X144316898Y-94464774D01*
X144116939Y-94425000D01*
X143913061Y-94425000D01*
X143713102Y-94464774D01*
X143524744Y-94542795D01*
X143355226Y-94656063D01*
X143211063Y-94800226D01*
X143097795Y-94969744D01*
X143019774Y-95158102D01*
X142980000Y-95358061D01*
X122517739Y-95358061D01*
X122426939Y-95340000D01*
X122223061Y-95340000D01*
X122023102Y-95379774D01*
X121834744Y-95457795D01*
X121665226Y-95571063D01*
X121521063Y-95715226D01*
X121407795Y-95884744D01*
X121329774Y-96073102D01*
X121290000Y-96273061D01*
X115028454Y-96273061D01*
X115185000Y-95486055D01*
X115185000Y-94513945D01*
X114995350Y-93560514D01*
X114623340Y-92662401D01*
X114083265Y-91854121D01*
X113502205Y-91273061D01*
X117515000Y-91273061D01*
X117515000Y-91476939D01*
X117554774Y-91676898D01*
X117632795Y-91865256D01*
X117746063Y-92034774D01*
X117890226Y-92178937D01*
X118059744Y-92292205D01*
X118248102Y-92370226D01*
X118448061Y-92410000D01*
X118651939Y-92410000D01*
X118851898Y-92370226D01*
X119040256Y-92292205D01*
X119209774Y-92178937D01*
X119353937Y-92034774D01*
X119467205Y-91865256D01*
X119495038Y-91798061D01*
X124965000Y-91798061D01*
X124965000Y-92001939D01*
X125004774Y-92201898D01*
X125082795Y-92390256D01*
X125196063Y-92559774D01*
X125340226Y-92703937D01*
X125509744Y-92817205D01*
X125698102Y-92895226D01*
X125898061Y-92935000D01*
X126101939Y-92935000D01*
X126301898Y-92895226D01*
X126490256Y-92817205D01*
X126659774Y-92703937D01*
X126803937Y-92559774D01*
X126917205Y-92390256D01*
X126995226Y-92201898D01*
X127035000Y-92001939D01*
X127035000Y-91798061D01*
X126995226Y-91598102D01*
X126917205Y-91409744D01*
X126803937Y-91240226D01*
X126659774Y-91096063D01*
X126490256Y-90982795D01*
X126301898Y-90904774D01*
X126101939Y-90865000D01*
X125898061Y-90865000D01*
X125698102Y-90904774D01*
X125509744Y-90982795D01*
X125340226Y-91096063D01*
X125196063Y-91240226D01*
X125082795Y-91409744D01*
X125004774Y-91598102D01*
X124965000Y-91798061D01*
X119495038Y-91798061D01*
X119545226Y-91676898D01*
X119585000Y-91476939D01*
X119585000Y-91273061D01*
X119545226Y-91073102D01*
X119467205Y-90884744D01*
X119353937Y-90715226D01*
X119209774Y-90571063D01*
X119040256Y-90457795D01*
X118851898Y-90379774D01*
X118651939Y-90340000D01*
X118448061Y-90340000D01*
X118248102Y-90379774D01*
X118059744Y-90457795D01*
X117890226Y-90571063D01*
X117746063Y-90715226D01*
X117632795Y-90884744D01*
X117554774Y-91073102D01*
X117515000Y-91273061D01*
X113502205Y-91273061D01*
X113395879Y-91166735D01*
X112587599Y-90626660D01*
X111689486Y-90254650D01*
X110736055Y-90065000D01*
X109763945Y-90065000D01*
X108810514Y-90254650D01*
X107912401Y-90626660D01*
X107104121Y-91166735D01*
X106416735Y-91854121D01*
X106051894Y-92400145D01*
X105986697Y-88423061D01*
X120540000Y-88423061D01*
X120540000Y-88626939D01*
X120579774Y-88826898D01*
X120657795Y-89015256D01*
X120771063Y-89184774D01*
X120915226Y-89328937D01*
X121084744Y-89442205D01*
X121273102Y-89520226D01*
X121473061Y-89560000D01*
X121676939Y-89560000D01*
X121876898Y-89520226D01*
X122065256Y-89442205D01*
X122234774Y-89328937D01*
X122378937Y-89184774D01*
X122492205Y-89015256D01*
X122570226Y-88826898D01*
X122610000Y-88626939D01*
X122610000Y-88423061D01*
X122570226Y-88223102D01*
X122492205Y-88034744D01*
X122378937Y-87865226D01*
X122234774Y-87721063D01*
X122065256Y-87607795D01*
X121876898Y-87529774D01*
X121676939Y-87490000D01*
X121473061Y-87490000D01*
X121273102Y-87529774D01*
X121084744Y-87607795D01*
X120915226Y-87721063D01*
X120771063Y-87865226D01*
X120657795Y-88034744D01*
X120579774Y-88223102D01*
X120540000Y-88423061D01*
X105986697Y-88423061D01*
X105965385Y-87123061D01*
X116815000Y-87123061D01*
X116815000Y-87326939D01*
X116854774Y-87526898D01*
X116932795Y-87715256D01*
X117046063Y-87884774D01*
X117190226Y-88028937D01*
X117359744Y-88142205D01*
X117548102Y-88220226D01*
X117748061Y-88260000D01*
X117951939Y-88260000D01*
X118151898Y-88220226D01*
X118340256Y-88142205D01*
X118509774Y-88028937D01*
X118653937Y-87884774D01*
X118767205Y-87715256D01*
X118845226Y-87526898D01*
X118885000Y-87326939D01*
X118885000Y-87123061D01*
X118845226Y-86923102D01*
X118767205Y-86734744D01*
X118653937Y-86565226D01*
X118509774Y-86421063D01*
X118340256Y-86307795D01*
X118151898Y-86229774D01*
X117951939Y-86190000D01*
X117748061Y-86190000D01*
X117548102Y-86229774D01*
X117359744Y-86307795D01*
X117190226Y-86421063D01*
X117046063Y-86565226D01*
X116932795Y-86734744D01*
X116854774Y-86923102D01*
X116815000Y-87123061D01*
X105965385Y-87123061D01*
X105937107Y-85398061D01*
X121990000Y-85398061D01*
X121990000Y-85601939D01*
X122029774Y-85801898D01*
X122107795Y-85990256D01*
X122221063Y-86159774D01*
X122365226Y-86303937D01*
X122534744Y-86417205D01*
X122723102Y-86495226D01*
X122923061Y-86535000D01*
X123105912Y-86535000D01*
X123079774Y-86598102D01*
X123040000Y-86798061D01*
X123040000Y-87001939D01*
X123079774Y-87201898D01*
X123157795Y-87390256D01*
X123271063Y-87559774D01*
X123415226Y-87703937D01*
X123584744Y-87817205D01*
X123708179Y-87868334D01*
X123729774Y-87976898D01*
X123807795Y-88165256D01*
X123921063Y-88334774D01*
X124065226Y-88478937D01*
X124140000Y-88528899D01*
X124140000Y-88676939D01*
X124179774Y-88876898D01*
X124257795Y-89065256D01*
X124371063Y-89234774D01*
X124515226Y-89378937D01*
X124684744Y-89492205D01*
X124873102Y-89570226D01*
X125073061Y-89610000D01*
X125108130Y-89610000D01*
X125182795Y-89790256D01*
X125296063Y-89959774D01*
X125440226Y-90103937D01*
X125609744Y-90217205D01*
X125798102Y-90295226D01*
X125998061Y-90335000D01*
X126201939Y-90335000D01*
X126401898Y-90295226D01*
X126590256Y-90217205D01*
X126759774Y-90103937D01*
X126903937Y-89959774D01*
X127017205Y-89790256D01*
X127095226Y-89601898D01*
X127135000Y-89401939D01*
X127135000Y-89198061D01*
X127095226Y-88998102D01*
X127017205Y-88809744D01*
X126903937Y-88640226D01*
X126759774Y-88496063D01*
X126590256Y-88382795D01*
X126401898Y-88304774D01*
X126201939Y-88265000D01*
X126166870Y-88265000D01*
X126092205Y-88084744D01*
X125978937Y-87915226D01*
X125961772Y-87898061D01*
X131640000Y-87898061D01*
X131640000Y-88101939D01*
X131679774Y-88301898D01*
X131757795Y-88490256D01*
X131871063Y-88659774D01*
X132015226Y-88803937D01*
X132184744Y-88917205D01*
X132373102Y-88995226D01*
X132535287Y-89027486D01*
X132398102Y-89054774D01*
X132209744Y-89132795D01*
X132040226Y-89246063D01*
X131896063Y-89390226D01*
X131782795Y-89559744D01*
X131704774Y-89748102D01*
X131665000Y-89948061D01*
X131665000Y-90151939D01*
X131704774Y-90351898D01*
X131782795Y-90540256D01*
X131896063Y-90709774D01*
X132040226Y-90853937D01*
X132209744Y-90967205D01*
X132398102Y-91045226D01*
X132598061Y-91085000D01*
X132801939Y-91085000D01*
X133001898Y-91045226D01*
X133190256Y-90967205D01*
X133359774Y-90853937D01*
X133503937Y-90709774D01*
X133617205Y-90540256D01*
X133695226Y-90351898D01*
X133735000Y-90151939D01*
X133735000Y-89948061D01*
X133695226Y-89748102D01*
X133617205Y-89559744D01*
X133503937Y-89390226D01*
X133359774Y-89246063D01*
X133190256Y-89132795D01*
X133001898Y-89054774D01*
X132839713Y-89022514D01*
X132976898Y-88995226D01*
X133165256Y-88917205D01*
X133334774Y-88803937D01*
X133340650Y-88798061D01*
X142465000Y-88798061D01*
X142465000Y-89001939D01*
X142504774Y-89201898D01*
X142582795Y-89390256D01*
X142696063Y-89559774D01*
X142840226Y-89703937D01*
X143009744Y-89817205D01*
X143198102Y-89895226D01*
X143398061Y-89935000D01*
X143601939Y-89935000D01*
X143801898Y-89895226D01*
X143990256Y-89817205D01*
X144159774Y-89703937D01*
X144303937Y-89559774D01*
X144417205Y-89390256D01*
X144495226Y-89201898D01*
X144530798Y-89023061D01*
X144915000Y-89023061D01*
X144915000Y-89226939D01*
X144954774Y-89426898D01*
X145032795Y-89615256D01*
X145146063Y-89784774D01*
X145290226Y-89928937D01*
X145459744Y-90042205D01*
X145648102Y-90120226D01*
X145848061Y-90160000D01*
X146051939Y-90160000D01*
X146251898Y-90120226D01*
X146440256Y-90042205D01*
X146609774Y-89928937D01*
X146753937Y-89784774D01*
X146867205Y-89615256D01*
X146945226Y-89426898D01*
X146985000Y-89226939D01*
X146985000Y-89023061D01*
X146945226Y-88823102D01*
X146867205Y-88634744D01*
X146753937Y-88465226D01*
X146609774Y-88321063D01*
X146440256Y-88207795D01*
X146251898Y-88129774D01*
X146051939Y-88090000D01*
X145848061Y-88090000D01*
X145648102Y-88129774D01*
X145459744Y-88207795D01*
X145290226Y-88321063D01*
X145146063Y-88465226D01*
X145032795Y-88634744D01*
X144954774Y-88823102D01*
X144915000Y-89023061D01*
X144530798Y-89023061D01*
X144535000Y-89001939D01*
X144535000Y-88798061D01*
X144495226Y-88598102D01*
X144417205Y-88409744D01*
X144303937Y-88240226D01*
X144159774Y-88096063D01*
X143990256Y-87982795D01*
X143801898Y-87904774D01*
X143601939Y-87865000D01*
X143398061Y-87865000D01*
X143198102Y-87904774D01*
X143009744Y-87982795D01*
X142840226Y-88096063D01*
X142696063Y-88240226D01*
X142582795Y-88409744D01*
X142504774Y-88598102D01*
X142465000Y-88798061D01*
X133340650Y-88798061D01*
X133478937Y-88659774D01*
X133592205Y-88490256D01*
X133670226Y-88301898D01*
X133710000Y-88101939D01*
X133710000Y-87898061D01*
X133670226Y-87698102D01*
X133592205Y-87509744D01*
X133478937Y-87340226D01*
X133382656Y-87243945D01*
X133501898Y-87220226D01*
X133690256Y-87142205D01*
X133859774Y-87028937D01*
X134003937Y-86884774D01*
X134117205Y-86715256D01*
X134195226Y-86526898D01*
X134235000Y-86326939D01*
X134235000Y-86123061D01*
X134195226Y-85923102D01*
X134117205Y-85734744D01*
X134003937Y-85565226D01*
X133859774Y-85421063D01*
X133690256Y-85307795D01*
X133501898Y-85229774D01*
X133301939Y-85190000D01*
X133098061Y-85190000D01*
X132898102Y-85229774D01*
X132709744Y-85307795D01*
X132540226Y-85421063D01*
X132396063Y-85565226D01*
X132282795Y-85734744D01*
X132204774Y-85923102D01*
X132165000Y-86123061D01*
X132165000Y-86326939D01*
X132204774Y-86526898D01*
X132282795Y-86715256D01*
X132396063Y-86884774D01*
X132492344Y-86981055D01*
X132373102Y-87004774D01*
X132184744Y-87082795D01*
X132015226Y-87196063D01*
X131871063Y-87340226D01*
X131757795Y-87509744D01*
X131679774Y-87698102D01*
X131640000Y-87898061D01*
X125961772Y-87898061D01*
X125834774Y-87771063D01*
X125760000Y-87721101D01*
X125760000Y-87573061D01*
X125720226Y-87373102D01*
X125642205Y-87184744D01*
X125528937Y-87015226D01*
X125384774Y-86871063D01*
X125215256Y-86757795D01*
X125091821Y-86706666D01*
X125070226Y-86598102D01*
X124992205Y-86409744D01*
X124878937Y-86240226D01*
X124734774Y-86096063D01*
X124565256Y-85982795D01*
X124376898Y-85904774D01*
X124176939Y-85865000D01*
X123994088Y-85865000D01*
X124020226Y-85801898D01*
X124060000Y-85601939D01*
X124060000Y-85398061D01*
X124020226Y-85198102D01*
X123942205Y-85009744D01*
X123828937Y-84840226D01*
X123684774Y-84696063D01*
X123515256Y-84582795D01*
X123326898Y-84504774D01*
X123126939Y-84465000D01*
X122923061Y-84465000D01*
X122723102Y-84504774D01*
X122534744Y-84582795D01*
X122365226Y-84696063D01*
X122221063Y-84840226D01*
X122107795Y-85009744D01*
X122029774Y-85198102D01*
X121990000Y-85398061D01*
X105937107Y-85398061D01*
X105914567Y-84023061D01*
X124340000Y-84023061D01*
X124340000Y-84226939D01*
X124379774Y-84426898D01*
X124457795Y-84615256D01*
X124571063Y-84784774D01*
X124715226Y-84928937D01*
X124884744Y-85042205D01*
X125073102Y-85120226D01*
X125273061Y-85160000D01*
X125476939Y-85160000D01*
X125676898Y-85120226D01*
X125865256Y-85042205D01*
X126034774Y-84928937D01*
X126178937Y-84784774D01*
X126292205Y-84615256D01*
X126353033Y-84468405D01*
X126382795Y-84540256D01*
X126496063Y-84709774D01*
X126640226Y-84853937D01*
X126809744Y-84967205D01*
X126998102Y-85045226D01*
X127198061Y-85085000D01*
X127401939Y-85085000D01*
X127601898Y-85045226D01*
X127790256Y-84967205D01*
X127959774Y-84853937D01*
X128103937Y-84709774D01*
X128191648Y-84578505D01*
X128296063Y-84734774D01*
X128440226Y-84878937D01*
X128609744Y-84992205D01*
X128798102Y-85070226D01*
X128998061Y-85110000D01*
X129201939Y-85110000D01*
X129401898Y-85070226D01*
X129590256Y-84992205D01*
X129759774Y-84878937D01*
X129903937Y-84734774D01*
X130017205Y-84565256D01*
X130095226Y-84376898D01*
X130135000Y-84176939D01*
X130135000Y-83973061D01*
X130095226Y-83773102D01*
X130017205Y-83584744D01*
X129903937Y-83415226D01*
X129826211Y-83337500D01*
X129853937Y-83309774D01*
X129967205Y-83140256D01*
X130045226Y-82951898D01*
X130085000Y-82751939D01*
X130085000Y-82548061D01*
X130045226Y-82348102D01*
X129967205Y-82159744D01*
X129931862Y-82106849D01*
X130003937Y-82034774D01*
X130117205Y-81865256D01*
X130134682Y-81823061D01*
X134140000Y-81823061D01*
X134140000Y-82026939D01*
X134179774Y-82226898D01*
X134257795Y-82415256D01*
X134371063Y-82584774D01*
X134515226Y-82728937D01*
X134684744Y-82842205D01*
X134873102Y-82920226D01*
X135073061Y-82960000D01*
X135276939Y-82960000D01*
X135476898Y-82920226D01*
X135665256Y-82842205D01*
X135834774Y-82728937D01*
X135978937Y-82584774D01*
X136092205Y-82415256D01*
X136170226Y-82226898D01*
X136210000Y-82026939D01*
X136210000Y-81948061D01*
X139115000Y-81948061D01*
X139115000Y-82151939D01*
X139154774Y-82351898D01*
X139232795Y-82540256D01*
X139346063Y-82709774D01*
X139490226Y-82853937D01*
X139659744Y-82967205D01*
X139848102Y-83045226D01*
X140048061Y-83085000D01*
X140251939Y-83085000D01*
X140451898Y-83045226D01*
X140640256Y-82967205D01*
X140809774Y-82853937D01*
X140953937Y-82709774D01*
X141067205Y-82540256D01*
X141145226Y-82351898D01*
X141185000Y-82151939D01*
X141185000Y-81948061D01*
X141145226Y-81748102D01*
X141067205Y-81559744D01*
X140953937Y-81390226D01*
X140809774Y-81246063D01*
X140640256Y-81132795D01*
X140451898Y-81054774D01*
X140251939Y-81015000D01*
X140048061Y-81015000D01*
X139848102Y-81054774D01*
X139659744Y-81132795D01*
X139490226Y-81246063D01*
X139346063Y-81390226D01*
X139232795Y-81559744D01*
X139154774Y-81748102D01*
X139115000Y-81948061D01*
X136210000Y-81948061D01*
X136210000Y-81823061D01*
X136170226Y-81623102D01*
X136092205Y-81434744D01*
X135978937Y-81265226D01*
X135834774Y-81121063D01*
X135665256Y-81007795D01*
X135476898Y-80929774D01*
X135276939Y-80890000D01*
X135073061Y-80890000D01*
X134873102Y-80929774D01*
X134684744Y-81007795D01*
X134515226Y-81121063D01*
X134371063Y-81265226D01*
X134257795Y-81434744D01*
X134179774Y-81623102D01*
X134140000Y-81823061D01*
X130134682Y-81823061D01*
X130195226Y-81676898D01*
X130235000Y-81476939D01*
X130235000Y-81273061D01*
X130195226Y-81073102D01*
X130117205Y-80884744D01*
X130018877Y-80737585D01*
X130067205Y-80665256D01*
X130145226Y-80476898D01*
X130185000Y-80276939D01*
X130185000Y-80073061D01*
X130160137Y-79948061D01*
X133215000Y-79948061D01*
X133215000Y-80151939D01*
X133254774Y-80351898D01*
X133332795Y-80540256D01*
X133446063Y-80709774D01*
X133590226Y-80853937D01*
X133759744Y-80967205D01*
X133948102Y-81045226D01*
X134148061Y-81085000D01*
X134351939Y-81085000D01*
X134551898Y-81045226D01*
X134740256Y-80967205D01*
X134909774Y-80853937D01*
X135053937Y-80709774D01*
X135167205Y-80540256D01*
X135245226Y-80351898D01*
X135285000Y-80151939D01*
X135285000Y-80126182D01*
X135346391Y-80191049D01*
X135598614Y-80369810D01*
X135880865Y-80495930D01*
X135963922Y-80521121D01*
X136207000Y-80384483D01*
X136207000Y-79173000D01*
X134994262Y-79173000D01*
X134937902Y-79274191D01*
X134909774Y-79246063D01*
X134740256Y-79132795D01*
X134551898Y-79054774D01*
X134351939Y-79015000D01*
X134148061Y-79015000D01*
X133948102Y-79054774D01*
X133759744Y-79132795D01*
X133590226Y-79246063D01*
X133446063Y-79390226D01*
X133332795Y-79559744D01*
X133254774Y-79748102D01*
X133215000Y-79948061D01*
X130160137Y-79948061D01*
X130145226Y-79873102D01*
X130067205Y-79684744D01*
X129953937Y-79515226D01*
X129809774Y-79371063D01*
X129640256Y-79257795D01*
X129451898Y-79179774D01*
X129251939Y-79140000D01*
X129048061Y-79140000D01*
X128848102Y-79179774D01*
X128659744Y-79257795D01*
X128490226Y-79371063D01*
X128346063Y-79515226D01*
X128235956Y-79680013D01*
X128217205Y-79634744D01*
X128103937Y-79465226D01*
X127959774Y-79321063D01*
X127790256Y-79207795D01*
X127601898Y-79129774D01*
X127401939Y-79090000D01*
X127198061Y-79090000D01*
X126998102Y-79129774D01*
X126809744Y-79207795D01*
X126640226Y-79321063D01*
X126496063Y-79465226D01*
X126423214Y-79574252D01*
X126417205Y-79559744D01*
X126303937Y-79390226D01*
X126159774Y-79246063D01*
X125990256Y-79132795D01*
X125801898Y-79054774D01*
X125601939Y-79015000D01*
X125398061Y-79015000D01*
X125198102Y-79054774D01*
X125009744Y-79132795D01*
X124840226Y-79246063D01*
X124696063Y-79390226D01*
X124582795Y-79559744D01*
X124504774Y-79748102D01*
X124465000Y-79948061D01*
X124465000Y-80151939D01*
X124504774Y-80351898D01*
X124582795Y-80540256D01*
X124696063Y-80709774D01*
X124698789Y-80712500D01*
X124671063Y-80740226D01*
X124557795Y-80909744D01*
X124479774Y-81098102D01*
X124440000Y-81298061D01*
X124440000Y-81501939D01*
X124479774Y-81701898D01*
X124557795Y-81890256D01*
X124671063Y-82059774D01*
X124748789Y-82137500D01*
X124646063Y-82240226D01*
X124532795Y-82409744D01*
X124454774Y-82598102D01*
X124415000Y-82798061D01*
X124415000Y-83001939D01*
X124454774Y-83201898D01*
X124532795Y-83390256D01*
X124578152Y-83458137D01*
X124571063Y-83465226D01*
X124457795Y-83634744D01*
X124379774Y-83823102D01*
X124340000Y-84023061D01*
X105914567Y-84023061D01*
X105889566Y-82498061D01*
X121215000Y-82498061D01*
X121215000Y-82701939D01*
X121254774Y-82901898D01*
X121332795Y-83090256D01*
X121446063Y-83259774D01*
X121590226Y-83403937D01*
X121759744Y-83517205D01*
X121948102Y-83595226D01*
X122148061Y-83635000D01*
X122351939Y-83635000D01*
X122551898Y-83595226D01*
X122740256Y-83517205D01*
X122909774Y-83403937D01*
X123053937Y-83259774D01*
X123167205Y-83090256D01*
X123245226Y-82901898D01*
X123285000Y-82701939D01*
X123285000Y-82498061D01*
X123245226Y-82298102D01*
X123167205Y-82109744D01*
X123053937Y-81940226D01*
X122909774Y-81796063D01*
X122740256Y-81682795D01*
X122551898Y-81604774D01*
X122351939Y-81565000D01*
X122148061Y-81565000D01*
X121948102Y-81604774D01*
X121759744Y-81682795D01*
X121590226Y-81796063D01*
X121446063Y-81940226D01*
X121332795Y-82109744D01*
X121254774Y-82298102D01*
X121215000Y-82498061D01*
X105889566Y-82498061D01*
X105777302Y-75650000D01*
X110011928Y-75650000D01*
X110011928Y-77350000D01*
X110024188Y-77474482D01*
X110060498Y-77594180D01*
X110119463Y-77704494D01*
X110198815Y-77801185D01*
X110295506Y-77880537D01*
X110405820Y-77939502D01*
X110478380Y-77961513D01*
X110346525Y-78093368D01*
X110184010Y-78336589D01*
X110072068Y-78606842D01*
X110015000Y-78893740D01*
X110015000Y-79186260D01*
X110072068Y-79473158D01*
X110184010Y-79743411D01*
X110346525Y-79986632D01*
X110553368Y-80193475D01*
X110796589Y-80355990D01*
X111066842Y-80467932D01*
X111353740Y-80525000D01*
X111646260Y-80525000D01*
X111933158Y-80467932D01*
X112203411Y-80355990D01*
X112446632Y-80193475D01*
X112653475Y-79986632D01*
X112815990Y-79743411D01*
X112876195Y-79598061D01*
X113465000Y-79598061D01*
X113465000Y-79801939D01*
X113504774Y-80001898D01*
X113582795Y-80190256D01*
X113696063Y-80359774D01*
X113840226Y-80503937D01*
X114009744Y-80617205D01*
X114198102Y-80695226D01*
X114398061Y-80735000D01*
X114601939Y-80735000D01*
X114801898Y-80695226D01*
X114990256Y-80617205D01*
X115159774Y-80503937D01*
X115190650Y-80473061D01*
X116215000Y-80473061D01*
X116215000Y-80676939D01*
X116254774Y-80876898D01*
X116332795Y-81065256D01*
X116446063Y-81234774D01*
X116590226Y-81378937D01*
X116759744Y-81492205D01*
X116948102Y-81570226D01*
X117148061Y-81610000D01*
X117351939Y-81610000D01*
X117551898Y-81570226D01*
X117740256Y-81492205D01*
X117909774Y-81378937D01*
X118053937Y-81234774D01*
X118167205Y-81065256D01*
X118245226Y-80876898D01*
X118285000Y-80676939D01*
X118285000Y-80473061D01*
X118245226Y-80273102D01*
X118167205Y-80084744D01*
X118053937Y-79915226D01*
X117909774Y-79771063D01*
X117740256Y-79657795D01*
X117551898Y-79579774D01*
X117351939Y-79540000D01*
X117148061Y-79540000D01*
X116948102Y-79579774D01*
X116759744Y-79657795D01*
X116590226Y-79771063D01*
X116446063Y-79915226D01*
X116332795Y-80084744D01*
X116254774Y-80273102D01*
X116215000Y-80473061D01*
X115190650Y-80473061D01*
X115303937Y-80359774D01*
X115417205Y-80190256D01*
X115495226Y-80001898D01*
X115535000Y-79801939D01*
X115535000Y-79598061D01*
X115495226Y-79398102D01*
X115417205Y-79209744D01*
X115303937Y-79040226D01*
X115159774Y-78896063D01*
X114990256Y-78782795D01*
X114801898Y-78704774D01*
X114601939Y-78665000D01*
X114398061Y-78665000D01*
X114198102Y-78704774D01*
X114009744Y-78782795D01*
X113840226Y-78896063D01*
X113696063Y-79040226D01*
X113582795Y-79209744D01*
X113504774Y-79398102D01*
X113465000Y-79598061D01*
X112876195Y-79598061D01*
X112927932Y-79473158D01*
X112985000Y-79186260D01*
X112985000Y-78893740D01*
X112927932Y-78606842D01*
X112815990Y-78336589D01*
X112653475Y-78093368D01*
X112521620Y-77961513D01*
X112594180Y-77939502D01*
X112704494Y-77880537D01*
X112801185Y-77801185D01*
X112880537Y-77704494D01*
X112939502Y-77594180D01*
X112975812Y-77474482D01*
X112988072Y-77350000D01*
X112988072Y-77123061D01*
X114365000Y-77123061D01*
X114365000Y-77326939D01*
X114404774Y-77526898D01*
X114482795Y-77715256D01*
X114596063Y-77884774D01*
X114740226Y-78028937D01*
X114909744Y-78142205D01*
X115098102Y-78220226D01*
X115298061Y-78260000D01*
X115501939Y-78260000D01*
X115701898Y-78220226D01*
X115890256Y-78142205D01*
X116059774Y-78028937D01*
X116203937Y-77884774D01*
X116317205Y-77715256D01*
X116395226Y-77526898D01*
X116435000Y-77326939D01*
X116435000Y-77123061D01*
X116395226Y-76923102D01*
X116395210Y-76923061D01*
X116740000Y-76923061D01*
X116740000Y-77126939D01*
X116779774Y-77326898D01*
X116857795Y-77515256D01*
X116872658Y-77537500D01*
X116857795Y-77559744D01*
X116779774Y-77748102D01*
X116740000Y-77948061D01*
X116740000Y-78151939D01*
X116779774Y-78351898D01*
X116857795Y-78540256D01*
X116971063Y-78709774D01*
X117115226Y-78853937D01*
X117284744Y-78967205D01*
X117473102Y-79045226D01*
X117673061Y-79085000D01*
X117876939Y-79085000D01*
X118076898Y-79045226D01*
X118265256Y-78967205D01*
X118434774Y-78853937D01*
X118578937Y-78709774D01*
X118663029Y-78583921D01*
X134858874Y-78583921D01*
X134994262Y-78827000D01*
X136207000Y-78827000D01*
X136207000Y-77615517D01*
X136553000Y-77615517D01*
X136553000Y-78827000D01*
X136573000Y-78827000D01*
X136573000Y-79173000D01*
X136553000Y-79173000D01*
X136553000Y-80384483D01*
X136796078Y-80521121D01*
X136879135Y-80495930D01*
X137161386Y-80369810D01*
X137413609Y-80191049D01*
X137626111Y-79966516D01*
X137700645Y-79848035D01*
X137766525Y-79946632D01*
X137973368Y-80153475D01*
X138216589Y-80315990D01*
X138486842Y-80427932D01*
X138773740Y-80485000D01*
X139066260Y-80485000D01*
X139353158Y-80427932D01*
X139623411Y-80315990D01*
X139866632Y-80153475D01*
X140073475Y-79946632D01*
X140190000Y-79772240D01*
X140306525Y-79946632D01*
X140513368Y-80153475D01*
X140756589Y-80315990D01*
X141026842Y-80427932D01*
X141313740Y-80485000D01*
X141606260Y-80485000D01*
X141893158Y-80427932D01*
X142163411Y-80315990D01*
X142406632Y-80153475D01*
X142538487Y-80021620D01*
X142560498Y-80094180D01*
X142619463Y-80204494D01*
X142698815Y-80301185D01*
X142795506Y-80380537D01*
X142905820Y-80439502D01*
X143025518Y-80475812D01*
X143150000Y-80488072D01*
X144850000Y-80488072D01*
X144974482Y-80475812D01*
X145094180Y-80439502D01*
X145204494Y-80380537D01*
X145301185Y-80301185D01*
X145380537Y-80204494D01*
X145439502Y-80094180D01*
X145475812Y-79974482D01*
X145488072Y-79850000D01*
X145488072Y-78150000D01*
X145475812Y-78025518D01*
X145439502Y-77905820D01*
X145380537Y-77795506D01*
X145301185Y-77698815D01*
X145204494Y-77619463D01*
X145094180Y-77560498D01*
X144974482Y-77524188D01*
X144850000Y-77511928D01*
X143150000Y-77511928D01*
X143025518Y-77524188D01*
X142905820Y-77560498D01*
X142795506Y-77619463D01*
X142698815Y-77698815D01*
X142619463Y-77795506D01*
X142560498Y-77905820D01*
X142538487Y-77978380D01*
X142406632Y-77846525D01*
X142163411Y-77684010D01*
X141893158Y-77572068D01*
X141606260Y-77515000D01*
X141313740Y-77515000D01*
X141026842Y-77572068D01*
X140756589Y-77684010D01*
X140513368Y-77846525D01*
X140306525Y-78053368D01*
X140190000Y-78227760D01*
X140073475Y-78053368D01*
X139866632Y-77846525D01*
X139623411Y-77684010D01*
X139353158Y-77572068D01*
X139066260Y-77515000D01*
X138773740Y-77515000D01*
X138486842Y-77572068D01*
X138216589Y-77684010D01*
X137973368Y-77846525D01*
X137766525Y-78053368D01*
X137700645Y-78151965D01*
X137626111Y-78033484D01*
X137413609Y-77808951D01*
X137161386Y-77630190D01*
X136879135Y-77504070D01*
X136796078Y-77478879D01*
X136553000Y-77615517D01*
X136207000Y-77615517D01*
X135963922Y-77478879D01*
X135880865Y-77504070D01*
X135598614Y-77630190D01*
X135346391Y-77808951D01*
X135133889Y-78033484D01*
X134969275Y-78295159D01*
X134858874Y-78583921D01*
X118663029Y-78583921D01*
X118692205Y-78540256D01*
X118770226Y-78351898D01*
X118810000Y-78151939D01*
X118810000Y-77948061D01*
X118770226Y-77748102D01*
X118692205Y-77559744D01*
X118677342Y-77537500D01*
X118692205Y-77515256D01*
X118770226Y-77326898D01*
X118810000Y-77126939D01*
X118810000Y-76923061D01*
X118770226Y-76723102D01*
X118692205Y-76534744D01*
X118578937Y-76365226D01*
X118434774Y-76221063D01*
X118265256Y-76107795D01*
X118076898Y-76029774D01*
X117876939Y-75990000D01*
X117673061Y-75990000D01*
X117473102Y-76029774D01*
X117284744Y-76107795D01*
X117115226Y-76221063D01*
X116971063Y-76365226D01*
X116857795Y-76534744D01*
X116779774Y-76723102D01*
X116740000Y-76923061D01*
X116395210Y-76923061D01*
X116317205Y-76734744D01*
X116203937Y-76565226D01*
X116059774Y-76421063D01*
X115890256Y-76307795D01*
X115701898Y-76229774D01*
X115501939Y-76190000D01*
X115298061Y-76190000D01*
X115098102Y-76229774D01*
X114909744Y-76307795D01*
X114740226Y-76421063D01*
X114596063Y-76565226D01*
X114482795Y-76734744D01*
X114404774Y-76923102D01*
X114365000Y-77123061D01*
X112988072Y-77123061D01*
X112988072Y-75873061D01*
X139690000Y-75873061D01*
X139690000Y-76076939D01*
X139729774Y-76276898D01*
X139807795Y-76465256D01*
X139921063Y-76634774D01*
X140065226Y-76778937D01*
X140234744Y-76892205D01*
X140423102Y-76970226D01*
X140623061Y-77010000D01*
X140826939Y-77010000D01*
X141026898Y-76970226D01*
X141215256Y-76892205D01*
X141384774Y-76778937D01*
X141528937Y-76634774D01*
X141642205Y-76465256D01*
X141720226Y-76276898D01*
X141760000Y-76076939D01*
X141760000Y-75873061D01*
X141720226Y-75673102D01*
X141642205Y-75484744D01*
X141528937Y-75315226D01*
X141384774Y-75171063D01*
X141215256Y-75057795D01*
X141026898Y-74979774D01*
X140826939Y-74940000D01*
X140623061Y-74940000D01*
X140423102Y-74979774D01*
X140234744Y-75057795D01*
X140065226Y-75171063D01*
X139921063Y-75315226D01*
X139807795Y-75484744D01*
X139729774Y-75673102D01*
X139690000Y-75873061D01*
X112988072Y-75873061D01*
X112988072Y-75650000D01*
X112975812Y-75525518D01*
X112939502Y-75405820D01*
X112880537Y-75295506D01*
X112801185Y-75198815D01*
X112704494Y-75119463D01*
X112594180Y-75060498D01*
X112474482Y-75024188D01*
X112350000Y-75011928D01*
X110650000Y-75011928D01*
X110525518Y-75024188D01*
X110405820Y-75060498D01*
X110295506Y-75119463D01*
X110198815Y-75198815D01*
X110119463Y-75295506D01*
X110060498Y-75405820D01*
X110024188Y-75525518D01*
X110011928Y-75650000D01*
X105777302Y-75650000D01*
X105761697Y-74698061D01*
X121965000Y-74698061D01*
X121965000Y-74901939D01*
X122004774Y-75101898D01*
X122082795Y-75290256D01*
X122196063Y-75459774D01*
X122340226Y-75603937D01*
X122509744Y-75717205D01*
X122698102Y-75795226D01*
X122898061Y-75835000D01*
X123101939Y-75835000D01*
X123301898Y-75795226D01*
X123490256Y-75717205D01*
X123659774Y-75603937D01*
X123750000Y-75513711D01*
X123840226Y-75603937D01*
X124009744Y-75717205D01*
X124198102Y-75795226D01*
X124398061Y-75835000D01*
X124601939Y-75835000D01*
X124801898Y-75795226D01*
X124990256Y-75717205D01*
X125159774Y-75603937D01*
X125303937Y-75459774D01*
X125417205Y-75290256D01*
X125495226Y-75101898D01*
X125535000Y-74901939D01*
X125535000Y-74698061D01*
X125495226Y-74498102D01*
X125417205Y-74309744D01*
X125303937Y-74140226D01*
X125159774Y-73996063D01*
X124990256Y-73882795D01*
X124801898Y-73804774D01*
X124601939Y-73765000D01*
X124398061Y-73765000D01*
X124198102Y-73804774D01*
X124009744Y-73882795D01*
X123840226Y-73996063D01*
X123750000Y-74086289D01*
X123659774Y-73996063D01*
X123490256Y-73882795D01*
X123301898Y-73804774D01*
X123101939Y-73765000D01*
X122898061Y-73765000D01*
X122698102Y-73804774D01*
X122509744Y-73882795D01*
X122340226Y-73996063D01*
X122196063Y-74140226D01*
X122082795Y-74309744D01*
X122004774Y-74498102D01*
X121965000Y-74698061D01*
X105761697Y-74698061D01*
X105740386Y-73398061D01*
X144265000Y-73398061D01*
X144265000Y-73601939D01*
X144304774Y-73801898D01*
X144382795Y-73990256D01*
X144496063Y-74159774D01*
X144640226Y-74303937D01*
X144809744Y-74417205D01*
X144998102Y-74495226D01*
X145198061Y-74535000D01*
X145401939Y-74535000D01*
X145601898Y-74495226D01*
X145790256Y-74417205D01*
X145959774Y-74303937D01*
X146103937Y-74159774D01*
X146217205Y-73990256D01*
X146295226Y-73801898D01*
X146335000Y-73601939D01*
X146335000Y-73398061D01*
X146295226Y-73198102D01*
X146217205Y-73009744D01*
X146103937Y-72840226D01*
X145959774Y-72696063D01*
X145790256Y-72582795D01*
X145601898Y-72504774D01*
X145401939Y-72465000D01*
X145198061Y-72465000D01*
X144998102Y-72504774D01*
X144809744Y-72582795D01*
X144640226Y-72696063D01*
X144496063Y-72840226D01*
X144382795Y-73009744D01*
X144304774Y-73198102D01*
X144265000Y-73398061D01*
X105740386Y-73398061D01*
X105691811Y-70435104D01*
X106166735Y-71145879D01*
X106854121Y-71833265D01*
X107662401Y-72373340D01*
X108560514Y-72745350D01*
X109513945Y-72935000D01*
X110486055Y-72935000D01*
X111439486Y-72745350D01*
X112337599Y-72373340D01*
X113145879Y-71833265D01*
X113833265Y-71145879D01*
X114373340Y-70337599D01*
X114745350Y-69439486D01*
X114935000Y-68486055D01*
X114935000Y-67513945D01*
X114802933Y-66850000D01*
X118419482Y-66850000D01*
X118433519Y-66992517D01*
X118475089Y-67129557D01*
X118542596Y-67255854D01*
X118633446Y-67366554D01*
X118744146Y-67457404D01*
X118870443Y-67524911D01*
X119007483Y-67566481D01*
X119150000Y-67580518D01*
X119645250Y-67577000D01*
X119827000Y-67395250D01*
X119827000Y-66173000D01*
X118604750Y-66173000D01*
X118423000Y-66354750D01*
X118419482Y-66850000D01*
X114802933Y-66850000D01*
X114745350Y-66560514D01*
X114373340Y-65662401D01*
X114030965Y-65150000D01*
X118419482Y-65150000D01*
X118423000Y-65645250D01*
X118604750Y-65827000D01*
X119827000Y-65827000D01*
X119827000Y-64604750D01*
X120173000Y-64604750D01*
X120173000Y-65827000D01*
X120193000Y-65827000D01*
X120193000Y-66173000D01*
X120173000Y-66173000D01*
X120173000Y-67395250D01*
X120354750Y-67577000D01*
X120850000Y-67580518D01*
X120992517Y-67566481D01*
X121129557Y-67524911D01*
X121255854Y-67457404D01*
X121366554Y-67366554D01*
X121457404Y-67255854D01*
X121524911Y-67129557D01*
X121535277Y-67095384D01*
X121593368Y-67153475D01*
X121836589Y-67315990D01*
X122106842Y-67427932D01*
X122393740Y-67485000D01*
X122686260Y-67485000D01*
X122973158Y-67427932D01*
X123243411Y-67315990D01*
X123486632Y-67153475D01*
X123693475Y-66946632D01*
X123810000Y-66772240D01*
X123926525Y-66946632D01*
X124133368Y-67153475D01*
X124376589Y-67315990D01*
X124646842Y-67427932D01*
X124933740Y-67485000D01*
X125226260Y-67485000D01*
X125513158Y-67427932D01*
X125783411Y-67315990D01*
X126026632Y-67153475D01*
X126233475Y-66946632D01*
X126395990Y-66703411D01*
X126507932Y-66433158D01*
X126565000Y-66146260D01*
X126565000Y-65853740D01*
X128395000Y-65853740D01*
X128395000Y-66146260D01*
X128452068Y-66433158D01*
X128564010Y-66703411D01*
X128726525Y-66946632D01*
X128933368Y-67153475D01*
X129176589Y-67315990D01*
X129446842Y-67427932D01*
X129733740Y-67485000D01*
X130026260Y-67485000D01*
X130313158Y-67427932D01*
X130583411Y-67315990D01*
X130826632Y-67153475D01*
X131033475Y-66946632D01*
X131150000Y-66772240D01*
X131266525Y-66946632D01*
X131473368Y-67153475D01*
X131716589Y-67315990D01*
X131986842Y-67427932D01*
X132273740Y-67485000D01*
X132566260Y-67485000D01*
X132853158Y-67427932D01*
X133123411Y-67315990D01*
X133366632Y-67153475D01*
X133573475Y-66946632D01*
X133690000Y-66772240D01*
X133806525Y-66946632D01*
X134013368Y-67153475D01*
X134256589Y-67315990D01*
X134526842Y-67427932D01*
X134813740Y-67485000D01*
X135106260Y-67485000D01*
X135393158Y-67427932D01*
X135663411Y-67315990D01*
X135906632Y-67153475D01*
X135964723Y-67095384D01*
X135975089Y-67129557D01*
X136042596Y-67255854D01*
X136133446Y-67366554D01*
X136244146Y-67457404D01*
X136370443Y-67524911D01*
X136507483Y-67566481D01*
X136650000Y-67580518D01*
X137145250Y-67577000D01*
X137327000Y-67395250D01*
X137327000Y-66173000D01*
X137673000Y-66173000D01*
X137673000Y-67395250D01*
X137854750Y-67577000D01*
X138350000Y-67580518D01*
X138492517Y-67566481D01*
X138629557Y-67524911D01*
X138755854Y-67457404D01*
X138866554Y-67366554D01*
X138957404Y-67255854D01*
X139024911Y-67129557D01*
X139066481Y-66992517D01*
X139080518Y-66850000D01*
X139077000Y-66354750D01*
X138895250Y-66173000D01*
X137673000Y-66173000D01*
X137327000Y-66173000D01*
X137307000Y-66173000D01*
X137307000Y-65827000D01*
X137327000Y-65827000D01*
X137327000Y-64604750D01*
X137673000Y-64604750D01*
X137673000Y-65827000D01*
X138895250Y-65827000D01*
X139077000Y-65645250D01*
X139080518Y-65150000D01*
X139066481Y-65007483D01*
X139024911Y-64870443D01*
X138957404Y-64744146D01*
X138866554Y-64633446D01*
X138755854Y-64542596D01*
X138629557Y-64475089D01*
X138492517Y-64433519D01*
X138350000Y-64419482D01*
X137854750Y-64423000D01*
X137673000Y-64604750D01*
X137327000Y-64604750D01*
X137145250Y-64423000D01*
X136650000Y-64419482D01*
X136507483Y-64433519D01*
X136370443Y-64475089D01*
X136244146Y-64542596D01*
X136133446Y-64633446D01*
X136042596Y-64744146D01*
X135975089Y-64870443D01*
X135964723Y-64904616D01*
X135906632Y-64846525D01*
X135663411Y-64684010D01*
X135393158Y-64572068D01*
X135106260Y-64515000D01*
X134813740Y-64515000D01*
X134526842Y-64572068D01*
X134256589Y-64684010D01*
X134013368Y-64846525D01*
X133806525Y-65053368D01*
X133690000Y-65227760D01*
X133573475Y-65053368D01*
X133366632Y-64846525D01*
X133123411Y-64684010D01*
X132853158Y-64572068D01*
X132566260Y-64515000D01*
X132273740Y-64515000D01*
X131986842Y-64572068D01*
X131716589Y-64684010D01*
X131473368Y-64846525D01*
X131266525Y-65053368D01*
X131150000Y-65227760D01*
X131033475Y-65053368D01*
X130826632Y-64846525D01*
X130583411Y-64684010D01*
X130313158Y-64572068D01*
X130026260Y-64515000D01*
X129733740Y-64515000D01*
X129446842Y-64572068D01*
X129176589Y-64684010D01*
X128933368Y-64846525D01*
X128726525Y-65053368D01*
X128564010Y-65296589D01*
X128452068Y-65566842D01*
X128395000Y-65853740D01*
X126565000Y-65853740D01*
X126507932Y-65566842D01*
X126395990Y-65296589D01*
X126233475Y-65053368D01*
X126026632Y-64846525D01*
X125783411Y-64684010D01*
X125513158Y-64572068D01*
X125226260Y-64515000D01*
X124933740Y-64515000D01*
X124646842Y-64572068D01*
X124376589Y-64684010D01*
X124133368Y-64846525D01*
X123926525Y-65053368D01*
X123810000Y-65227760D01*
X123693475Y-65053368D01*
X123486632Y-64846525D01*
X123243411Y-64684010D01*
X122973158Y-64572068D01*
X122686260Y-64515000D01*
X122393740Y-64515000D01*
X122106842Y-64572068D01*
X121836589Y-64684010D01*
X121593368Y-64846525D01*
X121535277Y-64904616D01*
X121524911Y-64870443D01*
X121457404Y-64744146D01*
X121366554Y-64633446D01*
X121255854Y-64542596D01*
X121129557Y-64475089D01*
X120992517Y-64433519D01*
X120850000Y-64419482D01*
X120354750Y-64423000D01*
X120173000Y-64604750D01*
X119827000Y-64604750D01*
X119645250Y-64423000D01*
X119150000Y-64419482D01*
X119007483Y-64433519D01*
X118870443Y-64475089D01*
X118744146Y-64542596D01*
X118633446Y-64633446D01*
X118542596Y-64744146D01*
X118475089Y-64870443D01*
X118433519Y-65007483D01*
X118419482Y-65150000D01*
X114030965Y-65150000D01*
X113833265Y-64854121D01*
X113145879Y-64166735D01*
X112387496Y-63660000D01*
X150873000Y-63660000D01*
X150873000Y-65048629D01*
G37*
%TD.AperFunction*%
%TD*%
M02*
